<?xml version='1.0' encoding='utf-8'?>
<svg xmlns="http://www.w3.org/2000/svg" xmlns:dc="http://purl.org/dc/elements/1.1/" xmlns:ns1="http://sodipodi.sourceforge.net/DTD/sodipodi-0.dtd" xmlns:ns2="http://www.inkscape.org/namespaces/inkscape" xmlns:ns3="http://www.w3.org/1999/xlink" xmlns:ns5="http://creativecommons.org/ns#" xmlns:rdf="http://www.w3.org/1999/02/22-rdf-syntax-ns#" id="svg3901" height="48" width="48" version="1.1" ns1:docname="base-generic.svg" ns2:version="1.4 (e7c3feb100, 2024-10-09)">
  <ns1:namedview id="namedview1" pagecolor="#ffffff" bordercolor="#000000" borderopacity="0.25" ns2:showpageshadow="2" ns2:pageopacity="0.0" ns2:pagecheckerboard="0" ns2:deskcolor="#d1d1d1" ns2:zoom="24.604167" ns2:cx="24" ns2:cy="24" ns2:current-layer="svg3901" />
  <defs id="defs3903">
    <linearGradient id="linearGradient3403">
      <stop id="stop3405" style="stop-color:#ffffff;stop-opacity:1" offset="0" />
      <stop id="stop3407" style="stop-color:#ffffff;stop-opacity:0.23529412" offset="0" />
      <stop id="stop3409" style="stop-color:#ffffff;stop-opacity:0.15686275" offset="1" />
      <stop id="stop3411" style="stop-color:#ffffff;stop-opacity:0.39215687" offset="1" />
    </linearGradient>
    <linearGradient id="linearGradient3600">
      <stop offset="0" style="stop-color:#f4f4f4;stop-opacity:1" id="stop3602" />
      <stop offset="1" style="stop-color:#dbdbdb;stop-opacity:1" id="stop3604" />
    </linearGradient>
    <linearGradient id="linearGradient5060">
      <stop offset="0" style="stop-color:#000000;stop-opacity:1" id="stop5062" />
      <stop offset="1" style="stop-color:#000000;stop-opacity:0" id="stop5064" />
    </linearGradient>
    <linearGradient id="linearGradient5048">
      <stop offset="0" style="stop-color:#000000;stop-opacity:0" id="stop5050" />
      <stop offset="0.5" style="stop-color:#000000;stop-opacity:1" id="stop5056" />
      <stop offset="1" style="stop-color:#000000;stop-opacity:0" id="stop5052" />
    </linearGradient>
    <linearGradient id="linearGradient3104-6">
      <stop id="stop3106-3" style="stop-color:#000000;stop-opacity:0.31782946" offset="0" />
      <stop id="stop3108-9" style="stop-color:#000000;stop-opacity:0.24031007" offset="1" />
    </linearGradient>
    <linearGradient y2="42.110645" x2="23.99999" y1="5.9404659" x1="23.99999" gradientTransform="matrix(0.89189189,0,0,1.1351351,2.5945999,-4.7432314)" gradientUnits="userSpaceOnUse" id="linearGradient3106" ns3:href="#linearGradient3403" />
    <linearGradient y2="47.013336" x2="25.132275" y1="0.98520643" x1="25.132275" gradientTransform="matrix(0.97142632,0,0,0.93431938,0.68576678,-1.3569996)" gradientUnits="userSpaceOnUse" id="linearGradient3109" ns3:href="#linearGradient3600" />
    <radialGradient r="117.14286" fy="486.64789" fx="605.71429" cy="486.64789" cx="605.71429" gradientTransform="matrix(0.02303995,0,0,0.01470022,26.360882,37.040176)" gradientUnits="userSpaceOnUse" id="radialGradient3112" ns3:href="#linearGradient5060" />
    <radialGradient r="117.14286" fy="486.64789" fx="605.71429" cy="486.64789" cx="605.71429" gradientTransform="matrix(-0.02303994,0,0,0.01470022,21.62311,37.040176)" gradientUnits="userSpaceOnUse" id="radialGradient3115" ns3:href="#linearGradient5060" />
    <linearGradient y2="609.50507" x2="302.85715" y1="366.64789" x1="302.85715" gradientTransform="matrix(0.06732488,0,0,0.01470022,-0.3411391,37.040146)" gradientUnits="userSpaceOnUse" id="linearGradient3118" ns3:href="#linearGradient5048" />
    <linearGradient y2="2.9062471" x2="-51.786404" y1="50.786446" x1="-51.786404" gradientTransform="matrix(0.80749686,0,0,0.89471714,59.410232,-2.9773433)" gradientUnits="userSpaceOnUse" id="linearGradient3170" ns3:href="#linearGradient3104-6" />
    <linearGradient ns3:href="#linearGradient994" id="linearGradient996" x1="33.503624" y1="0.39035916" x2="33.503624" y2="59.221642" gradientUnits="userSpaceOnUse" gradientTransform="matrix(0.74934603,0,0,0.74217535,-0.01047336,0.23477713)" />
    <linearGradient id="linearGradient994">
      <stop style="stop-color:#f9c440;stop-opacity:1" offset="0" id="stop990" />
      <stop style="stop-color:#d48e15;stop-opacity:1" offset="1" id="stop992" />
    </linearGradient>
  <defs id="defs3903">
    <linearGradient id="linearGradient3403">
      <stop offset="0" style="stop-color:#ffffff;stop-opacity:1" id="stop3405" />
      <stop offset="0" style="stop-color:#ffffff;stop-opacity:0.23529412" id="stop3407" />
      <stop offset="1" style="stop-color:#ffffff;stop-opacity:0.15686275" id="stop3409" />
      <stop offset="1" style="stop-color:#ffffff;stop-opacity:0.39215687" id="stop3411" />
    </linearGradient>
    <linearGradient id="linearGradient3600">
      <stop id="stop3602" style="stop-color:#f4f4f4;stop-opacity:1" offset="0" />
      <stop id="stop3604" style="stop-color:#dbdbdb;stop-opacity:1" offset="1" />
    </linearGradient>
    <linearGradient id="linearGradient5060">
      <stop id="stop5062" style="stop-color:#000000;stop-opacity:1" offset="0" />
      <stop id="stop5064" style="stop-color:#000000;stop-opacity:0" offset="1" />
    </linearGradient>
    <linearGradient id="linearGradient5048">
      <stop id="stop5050" style="stop-color:#000000;stop-opacity:0" offset="0" />
      <stop id="stop5056" style="stop-color:#000000;stop-opacity:1" offset="0.5" />
      <stop id="stop5052" style="stop-color:#000000;stop-opacity:0" offset="1" />
    </linearGradient>
    <linearGradient id="linearGradient3104-6">
      <stop offset="0" style="stop-color:#000000;stop-opacity:0.31782946" id="stop3106-3" />
      <stop offset="1" style="stop-color:#000000;stop-opacity:0.24031007" id="stop3108-9" />
    </linearGradient>
    <linearGradient ns3:href="#linearGradient3403" id="linearGradient3106" gradientUnits="userSpaceOnUse" gradientTransform="matrix(0.89189189,0,0,1.1351351,2.5945999,-4.7432314)" x1="23.99999" y1="5.9404659" x2="23.99999" y2="42.110645" />
    <linearGradient ns3:href="#linearGradient3600" id="linearGradient3109" gradientUnits="userSpaceOnUse" gradientTransform="matrix(0.97142632,0,0,0.93431938,0.68576678,-1.3569996)" x1="25.132275" y1="0.98520643" x2="25.132275" y2="47.013336" />
    <radialGradient ns3:href="#linearGradient5060" id="radialGradient3112" gradientUnits="userSpaceOnUse" gradientTransform="matrix(0.02303995,0,0,0.01470022,26.360882,37.040176)" cx="605.71429" cy="486.64789" fx="605.71429" fy="486.64789" r="117.14286" />
    <radialGradient ns3:href="#linearGradient5060" id="radialGradient3115" gradientUnits="userSpaceOnUse" gradientTransform="matrix(-0.02303994,0,0,0.01470022,21.62311,37.040176)" cx="605.71429" cy="486.64789" fx="605.71429" fy="486.64789" r="117.14286" />
    <linearGradient ns3:href="#linearGradient5048" id="linearGradient3118" gradientUnits="userSpaceOnUse" gradientTransform="matrix(0.06732488,0,0,0.01470022,-0.3411391,37.040146)" x1="302.85715" y1="366.64789" x2="302.85715" y2="609.50507" />
    <linearGradient ns3:href="#linearGradient3104-6" id="linearGradient3170" gradientUnits="userSpaceOnUse" gradientTransform="matrix(0.80749686,0,0,0.89471714,59.410232,-2.9773433)" x1="-51.786404" y1="50.786446" x2="-51.786404" y2="2.9062471" />
  </defs>
  <linearGradient id="linearGradient3403">
      <stop offset="0" style="stop-color:#ffffff;stop-opacity:1" id="stop3405" />
      <stop offset="0" style="stop-color:#ffffff;stop-opacity:0.23529412" id="stop3407" />
      <stop offset="1" style="stop-color:#ffffff;stop-opacity:0.15686275" id="stop3409" />
      <stop offset="1" style="stop-color:#ffffff;stop-opacity:0.39215687" id="stop3411" />
    </linearGradient>
    <stop offset="0" style="stop-color:#ffffff;stop-opacity:1" id="stop3405" />
      <stop offset="0" style="stop-color:#ffffff;stop-opacity:0.23529412" id="stop3407" />
      <stop offset="1" style="stop-color:#ffffff;stop-opacity:0.15686275" id="stop3409" />
      <stop offset="1" style="stop-color:#ffffff;stop-opacity:0.39215687" id="stop3411" />
    <linearGradient id="linearGradient3600">
      <stop id="stop3602" style="stop-color:#f4f4f4;stop-opacity:1" offset="0" />
      <stop id="stop3604" style="stop-color:#dbdbdb;stop-opacity:1" offset="1" />
    </linearGradient>
    <stop id="stop3602" style="stop-color:#f4f4f4;stop-opacity:1" offset="0" />
      <stop id="stop3604" style="stop-color:#dbdbdb;stop-opacity:1" offset="1" />
    <linearGradient id="linearGradient5060">
      <stop id="stop5062" style="stop-color:#000000;stop-opacity:1" offset="0" />
      <stop id="stop5064" style="stop-color:#000000;stop-opacity:0" offset="1" />
    </linearGradient>
    <stop id="stop5062" style="stop-color:#000000;stop-opacity:1" offset="0" />
      <stop id="stop5064" style="stop-color:#000000;stop-opacity:0" offset="1" />
    <linearGradient id="linearGradient5048">
      <stop id="stop5050" style="stop-color:#000000;stop-opacity:0" offset="0" />
      <stop id="stop5056" style="stop-color:#000000;stop-opacity:1" offset="0.5" />
      <stop id="stop5052" style="stop-color:#000000;stop-opacity:0" offset="1" />
    </linearGradient>
    <stop id="stop5050" style="stop-color:#000000;stop-opacity:0" offset="0" />
      <stop id="stop5056" style="stop-color:#000000;stop-opacity:1" offset="0.5" />
      <stop id="stop5052" style="stop-color:#000000;stop-opacity:0" offset="1" />
    <linearGradient id="linearGradient3104-6">
      <stop offset="0" style="stop-color:#000000;stop-opacity:0.31782946" id="stop3106-3" />
      <stop offset="1" style="stop-color:#000000;stop-opacity:0.24031007" id="stop3108-9" />
    </linearGradient>
    <stop offset="0" style="stop-color:#000000;stop-opacity:0.31782946" id="stop3106-3" />
      <stop offset="1" style="stop-color:#000000;stop-opacity:0.24031007" id="stop3108-9" />
    <linearGradient ns3:href="#linearGradient3403" id="linearGradient3106" gradientUnits="userSpaceOnUse" gradientTransform="matrix(0.89189189,0,0,1.1351351,2.5945999,-4.7432314)" x1="23.99999" y1="5.9404659" x2="23.99999" y2="42.110645" />
    <linearGradient ns3:href="#linearGradient3600" id="linearGradient3109" gradientUnits="userSpaceOnUse" gradientTransform="matrix(0.97142632,0,0,0.93431938,0.68576678,-1.3569996)" x1="25.132275" y1="0.98520643" x2="25.132275" y2="47.013336" />
    <radialGradient ns3:href="#linearGradient5060" id="radialGradient3112" gradientUnits="userSpaceOnUse" gradientTransform="matrix(0.02303995,0,0,0.01470022,26.360882,37.040176)" cx="605.71429" cy="486.64789" fx="605.71429" fy="486.64789" r="117.14286" />
    <radialGradient ns3:href="#linearGradient5060" id="radialGradient3115" gradientUnits="userSpaceOnUse" gradientTransform="matrix(-0.02303994,0,0,0.01470022,21.62311,37.040176)" cx="605.71429" cy="486.64789" fx="605.71429" fy="486.64789" r="117.14286" />
    <linearGradient ns3:href="#linearGradient5048" id="linearGradient3118" gradientUnits="userSpaceOnUse" gradientTransform="matrix(0.06732488,0,0,0.01470022,-0.3411391,37.040146)" x1="302.85715" y1="366.64789" x2="302.85715" y2="609.50507" />
    <linearGradient ns3:href="#linearGradient3104-6" id="linearGradient3170" gradientUnits="userSpaceOnUse" gradientTransform="matrix(0.80749686,0,0,0.89471714,59.410232,-2.9773433)" x1="-51.786404" y1="50.786446" x2="-51.786404" y2="2.9062471" />
  </defs>
  <metadata id="metadata3906">
    <rdf:RDF>
      <ns5:Work rdf:about="">
        <dc:format>image/svg+xml</dc:format>
        <dc:type rdf:resource="http://purl.org/dc/dcmitype/StillImage" />
      </ns5:Work>
    </rdf:RDF>
  </metadata>
  <rect width="32.508301" height="3.5700529" x="7.7378473" y="42.429947" id="rect2879" style="opacity:0.3;fill:url(#linearGradient3118);fill-opacity:1;fill-rule:nonzero;stroke:none;stroke-width:1;marker:none;visibility:visible;display:inline;overflow:visible" />
  <path d="m 7.7378475,42.430102 c 0,0 0,3.569856 0,3.569856 -1.1865002,0.0067 -2.8683795,-0.799823 -2.8683795,-1.785158 0,-0.985333 1.3240446,-1.784697 2.8683795,-1.784698 z" id="path2881" style="opacity:0.3;fill:url(#radialGradient3115);fill-opacity:1;fill-rule:nonzero;stroke:none;stroke-width:1;marker:none;visibility:visible;display:inline;overflow:visible" />
  <path d="m 40.246148,42.430102 c 0,0 0,3.569856 0,3.569856 1.1865,0.0067 2.86838,-0.799823 2.86838,-1.785158 0,-0.985333 -1.324045,-1.784697 -2.86838,-1.784698 z" id="path2883" style="opacity:0.3;fill:url(#radialGradient3112);fill-opacity:1;fill-rule:nonzero;stroke:none;stroke-width:1;marker:none;visibility:visible;display:inline;overflow:visible" />
  <path d="m 7,1.0000001 c 7.791126,0 33.999959,0.00274 33.999959,0.00274 L 41,44 C 41,44 18.333334,44 7,44 7,29.666666 7,15.333333 7,1 z" id="path4160" style="fill:url(#linearGradient3109);fill-opacity:1;stroke:none;display:inline" />
  <path d="m 40.5,43.5 -33,0 0,-41.9999998 33,0 z" id="rect6741-1" style="fill:none;stroke:url(#linearGradient3106);stroke-width:1;stroke-linecap:round;stroke-linejoin:miter;stroke-miterlimit:4;stroke-opacity:1;stroke-dasharray:none;stroke-dashoffset:0" />
  <path d="m 6.4999605,0.4999623 c 8.0202885,0 35.0000415,0.00298 35.0000415,0.00298 l 3.7e-5,43.9970957 c 0,0 -23.333385,0 -35.0000785,0 0,-14.666738 0,-29.333326 0,-43.9998923 z" id="path4160-6-1" style="fill:none;stroke:url(#linearGradient3170);stroke-width:0.99992192;stroke-linecap:butt;stroke-linejoin:round;stroke-miterlimit:4;stroke-opacity:1;stroke-dasharray:none;stroke-dashoffset:0;display:inline" />
<g style="stroke-width:1.73753285" transform="matrix(1.3588899,0,0,-1.3588899,-862.77144,568.77818)" id="g3396">
    <g style="stroke-width:1.73753285" transform="scale(0.1)" id="g3398">
      <path id="path3402" style="fill:#cd4a9c;fill-opacity:1;fill-rule:nonzero;stroke:none;stroke-width:1.73753285" d="m 6508.671,3982.17 c 1.6486,-6.0987 1.4678,-11.7858 -0.2351,-16.9362 -0.1892,-0.5719 -0.3976,-1.1379 -0.6238,-1.6972 -0.2262,-0.5583 -0.4711,-1.1105 -0.7336,-1.6555 -1.3135,-2.725 -3.0759,-5.2756 -5.2342,-7.6298 -6.5842,-7.183 -15.7833,-9.8993 -19.7279,-7.6105 -4.2595,2.4688 -2.1259,12.5965 5.5078,20.6654 8.2125,8.6819 20.0284,14.2635 20.0284,14.2635 l -0.018,0.035 c 0.3403,0.1832 0.6862,0.3717 1.0364,0.5648 z m 93.6027,102.5652 c -5.1316,20.126 -38.503,26.7421 -70.087,15.5213 -18.7962,-6.6773 -39.1446,-17.1579 -53.7754,-30.8434 -17.3961,-16.2713 -20.1703,-30.4333 -19.0268,-36.351 4.0332,-20.8806 32.6439,-34.5292 44.4052,-44.6556 v -0.061 c -3.468,-1.7073 -28.8514,-14.5531 -34.7916,-27.6859 -6.2679,-13.8547 0.9976,-23.7969 5.8079,-25.1352 14.9039,-4.1465 30.1979,3.3118 38.4168,15.5714 7.9316,11.8309 7.2713,27.1084 3.8244,34.708 4.7548,1.2542 10.298,1.8163 17.3425,0.9934 19.8785,-2.3219 23.7789,-14.7342 23.0331,-19.9276 -0.7452,-5.1949 -4.9148,-8.0512 -6.3088,-8.9134 -1.3945,-0.8627 -1.8197,-1.1611 -1.7022,-1.8022 0.1687,-0.9321 0.8142,-0.8975 2.0029,-0.696 1.636,0.2758 10.438,4.2252 10.8143,13.8139 0.4793,12.1741 -11.1872,25.7922 -31.8445,25.4364 -8.5074,-0.1467 -13.857,-0.9559 -17.721,-2.3939 -0.2857,0.3254 -0.5765,0.6492 -0.8771,0.9697 -12.7708,13.6253 -36.3793,23.2636 -35.378,41.5809 0.364,6.6591 2.6786,24.1942 45.3638,45.4642 34.9666,17.4232 62.9586,12.6287 67.7962,2.0024 6.9101,-15.1808 -14.9602,-43.3969 -51.2732,-47.4666 -13.835,-1.5512 -21.1196,3.8111 -22.9316,5.8079 -1.9079,2.1022 -2.1921,2.197 -2.9042,1.8027 -1.1607,-0.6426 -0.4253,-2.4988 0,-3.6054 1.0839,-2.8215 5.5332,-7.8251 13.1184,-10.314 6.6723,-2.1899 22.9161,-3.3929 42.5606,4.2055 22.0009,8.5108 39.1814,32.1848 34.1353,51.9738" />
    </g>
  </g>
</svg>