<?xml version='1.0' encoding='utf-8'?>
<svg xmlns="http://www.w3.org/2000/svg" xmlns:dc="http://purl.org/dc/elements/1.1/" xmlns:ns1="http://sodipodi.sourceforge.net/DTD/sodipodi-0.dtd" xmlns:ns2="http://www.inkscape.org/namespaces/inkscape" xmlns:ns3="http://www.w3.org/1999/xlink" xmlns:ns5="http://creativecommons.org/ns#" xmlns:rdf="http://www.w3.org/1999/02/22-rdf-syntax-ns#" version="1.1" width="16" height="16" id="svg3810" ns1:docname="base-generic.svg" ns2:version="1.4 (e7c3feb100, 2024-10-09)">
  <ns1:namedview id="namedview1" pagecolor="#ffffff" bordercolor="#000000" borderopacity="0.25" ns2:showpageshadow="2" ns2:pageopacity="0.0" ns2:pagecheckerboard="0" ns2:deskcolor="#d1d1d1" ns2:zoom="73.8125" ns2:cx="7.9932261" ns2:cy="8" ns2:current-layer="svg3810" />
  <defs id="defs3812">
    <linearGradient x1="23.99999" y1="6.9230647" x2="23.99999" y2="41.076912" id="linearGradient3988" ns3:href="#linearGradient3977" gradientUnits="userSpaceOnUse" gradientTransform="matrix(0.24324324,0,0,0.35135133,2.1621636,-0.43242804)" />
    <linearGradient id="linearGradient3977">
      <stop id="stop3979" style="stop-color:#ffffff;stop-opacity:1" offset="0" />
      <stop id="stop3981" style="stop-color:#ffffff;stop-opacity:0.23529412" offset="0" />
      <stop id="stop3983" style="stop-color:#ffffff;stop-opacity:0.15686275" offset="1" />
      <stop id="stop3985" style="stop-color:#ffffff;stop-opacity:0.39215687" offset="1" />
    </linearGradient>
    <linearGradient id="linearGradient3600">
      <stop id="stop3602" style="stop-color:#f4f4f4;stop-opacity:1" offset="0" />
      <stop id="stop3604" style="stop-color:#dbdbdb;stop-opacity:1" offset="1" />
    </linearGradient>
    <linearGradient x1="25.132275" y1="0.98520643" x2="25.132275" y2="47.013336" id="linearGradient3806" ns3:href="#linearGradient3600" gradientUnits="userSpaceOnUse" gradientTransform="matrix(0.28571361,0,0,0.30419701,1.1428727,0.2326048)" />
    <linearGradient id="linearGradient3104-9">
      <stop id="stop3106-5" style="stop-color:#000000;stop-opacity:0.33950618" offset="0" />
      <stop id="stop3108-5" style="stop-color:#000000;stop-opacity:0.24691358" offset="1" />
    </linearGradient>
    <linearGradient x1="-51.786404" y1="50.786446" x2="-51.786404" y2="2.9062471" id="linearGradient3019" ns3:href="#linearGradient3104-9" gradientUnits="userSpaceOnUse" gradientTransform="matrix(0.25378586,0,0,0.30501865,19.128979,-0.68547704)" />
    <radialGradient cx="7.8060555" cy="9.9571075" r="12.671875" fx="7.2758255" fy="9.9571075" id="radialGradient3858" ns3:href="#linearGradient2867-449-88-871-390-598-476-591-434-148-57-177-8-3" gradientUnits="userSpaceOnUse" gradientTransform="matrix(-5.0813118e-8,2.2503718,-2.543345,-6.7550105e-8,33.320987,-20.146566)" />
    <linearGradient id="linearGradient2867-449-88-871-390-598-476-591-434-148-57-177-8-3">
      <stop id="stop3750-1-0" style="stop-color:#ffcd7d;stop-opacity:1" offset="0" />
      <stop id="stop3752-3-7" style="stop-color:#fc8f36;stop-opacity:1" offset="0.26238" />
      <stop id="stop3754-1-8" style="stop-color:#e23a0e;stop-opacity:1" offset="0.704952" />
      <stop id="stop3756-1-6" style="stop-color:#ac441f;stop-opacity:1" offset="1" />
    </linearGradient>
  <defs id="defs3184">
    <linearGradient id="linearGradient2867-449-88-871-390-598-476-591-434-148-57-177-8-3-3">
      <stop offset="0" style="stop-color:#ffcd7d;stop-opacity:1" id="stop3750-1-0-7" />
      <stop offset="0.26238" style="stop-color:#fc8f36;stop-opacity:1" id="stop3752-3-7-4" />
      <stop offset="0.704952" style="stop-color:#e23a0e;stop-opacity:1" id="stop3754-1-8-5" />
      <stop offset="1" style="stop-color:#ac441f;stop-opacity:1" id="stop3756-1-6-2" />
    </linearGradient>
    <radialGradient ns3:href="#linearGradient2867-449-88-871-390-598-476-591-434-148-57-177-8-3-3" id="radialGradient4873-1" gradientUnits="userSpaceOnUse" gradientTransform="matrix(0,4.936567,-6.2846274,0,103.00641,-114.70042)" cx="18.1481" cy="16.231987" fx="18.1481" fy="16.231987" r="12.671875" />
  </defs>
  <linearGradient id="linearGradient2867-449-88-871-390-598-476-591-434-148-57-177-8-3-3">
      <stop offset="0" style="stop-color:#ffcd7d;stop-opacity:1" id="stop3750-1-0-7" />
      <stop offset="0.26238" style="stop-color:#fc8f36;stop-opacity:1" id="stop3752-3-7-4" />
      <stop offset="0.704952" style="stop-color:#e23a0e;stop-opacity:1" id="stop3754-1-8-5" />
      <stop offset="1" style="stop-color:#ac441f;stop-opacity:1" id="stop3756-1-6-2" />
    </linearGradient>
    <stop offset="0" style="stop-color:#ffcd7d;stop-opacity:1" id="stop3750-1-0-7" />
      <stop offset="0.26238" style="stop-color:#fc8f36;stop-opacity:1" id="stop3752-3-7-4" />
      <stop offset="0.704952" style="stop-color:#e23a0e;stop-opacity:1" id="stop3754-1-8-5" />
      <stop offset="1" style="stop-color:#ac441f;stop-opacity:1" id="stop3756-1-6-2" />
    <radialGradient ns3:href="#linearGradient2867-449-88-871-390-598-476-591-434-148-57-177-8-3-3" id="radialGradient4873-1" gradientUnits="userSpaceOnUse" gradientTransform="matrix(0,4.936567,-6.2846274,0,103.00641,-114.70042)" cx="18.1481" cy="16.231987" fx="18.1481" fy="16.231987" r="12.671875" />
  </defs>
  <metadata id="metadata3815">
    <rdf:RDF>
      <ns5:Work rdf:about="">
        <dc:format>image/svg+xml</dc:format>
        <dc:type rdf:resource="http://purl.org/dc/dcmitype/StillImage" />
      </ns5:Work>
    </rdf:RDF>
  </metadata>
  <path style="display:inline;fill:url(#linearGradient3806);fill-opacity:1;stroke:none" id="path4160" d="m 3,1 c 2.2915074,0 9.999988,8.904e-4 9.999988,8.904e-4 L 13,15 C 13,15 6.3333332,15 3,15 3,10.333334 3,5.6666664 3,1 Z" />
  <path style="fill:none;stroke:url(#linearGradient3988);stroke-width:1;stroke-linecap:round;stroke-linejoin:miter;stroke-miterlimit:4;stroke-dasharray:none;stroke-dashoffset:0;stroke-opacity:1" id="rect6741-1" d="m 12.5,14.5 -9.0000001,0 0,-13 L 12.5,1.5 Z" />
  <path style="display:inline;fill:none;stroke:url(#linearGradient3019);stroke-width:0.99992192;stroke-linecap:butt;stroke-linejoin:round;stroke-miterlimit:4;stroke-dasharray:none;stroke-dashoffset:0;stroke-opacity:1" id="path4160-8" d="m 2.4999621,0.49997396 c 2.5206756,0 11.0000629,9.54e-4 11.0000629,9.54e-4 l 1.3e-5,14.99909804 c 0,0 -7.3333841,0 -11.000076,0 0,-5.000017 0,-10.000035 0,-15.00005204 z" />
<path style="color:#000000;clip-rule:nonzero;display:inline;overflow:visible;visibility:visible;opacity:1;isolation:auto;mix-blend-mode:normal;color-interpolation:sRGB;color-interpolation-filters:linearRGB;solid-color:#000000;solid-opacity:1;fill:url(#radialGradient4873-1);fill-opacity:1;fill-rule:nonzero;stroke:none;stroke-width:1;stroke-linecap:butt;stroke-linejoin:round;stroke-miterlimit:4;stroke-dasharray:none;stroke-dashoffset:0;stroke-opacity:1;marker:none;color-rendering:auto;image-rendering:auto;shape-rendering:auto;text-rendering:auto;enable-background:accumulate" d="M 5.5,1 C 5.223,1 5,1.223 5,1.5 v 9.533203 C 4.387247,10.776064 3.621061,10.865771 2.964844,11.271484 1.895783,11.932817 1.433046,13.220433 1.931641,14.146484 2.429469,15.072514 3.69933,15.286782 4.767578,14.625 5.540465,14.146034 6.024347,13.314219 5.998047,12.509766 5.998116,12.50632 6,12.503463 6,12.5 V 4.375 C 6.120375,4.30854 6.30739,4.45192 6.40625,4.519531 7.529684,5.199208 8.5105,6.327126 8.580078,7.716797 8.640268,8.520673 8.471899,9.32021 8.240234,10.083984 9.272992,8.384829 9.217453,6.020862 7.941406,4.46875 7.1183,3.609884 6.342105,2.608696 6,1.4453125 5.975053,1.3348068 5.824143,1 5.5,1 Z m 8,1 C 13.777,2 14,2.223 14,2.5 14,2.777 13.777,3 13.5,3 h -3 C 10.223,3 10,2.777 10,2.5 10,2.223 10.223,2 10.5,2 Z m 0,3 C 13.777,5 14,5.223 14,5.5 14,5.777 13.777,6 13.5,6 h -3 C 10.223,6 10,5.777 10,5.5 10,5.223 10.223,5 10.5,5 Z m 0,3 C 13.777,8 14,8.223 14,8.5 14,8.777 13.777,9 13.5,9 h -3 C 10.223,9 10,8.777 10,8.5 10,8.223 10.223,8 10.5,8 Z m 0,3 c 0,0 0.5,0.223 0.5,0.5 0,0.277 -0.5,0.5 -0.5,0.5 h -6 C 7.5,12 7,11.777 7,11.5 7,11.223 7.5,11 7.5,11 Z" id="rect4204" />
</svg>