<?xml version='1.0' encoding='utf-8'?>
<svg xmlns="http://www.w3.org/2000/svg" xmlns:dc="http://purl.org/dc/elements/1.1/" xmlns:ns1="http://sodipodi.sourceforge.net/DTD/sodipodi-0.dtd" xmlns:ns2="http://www.inkscape.org/namespaces/inkscape" xmlns:ns3="http://www.w3.org/1999/xlink" xmlns:ns5="http://creativecommons.org/ns#" xmlns:rdf="http://www.w3.org/1999/02/22-rdf-syntax-ns#" version="1.1" width="32" height="32" id="svg3182" ns1:docname="base-generic.svg" ns2:version="1.4 (e7c3feb100, 2024-10-09)">
  <ns1:namedview id="namedview1" pagecolor="#ffffff" bordercolor="#000000" borderopacity="0.25" ns2:showpageshadow="2" ns2:pageopacity="0.0" ns2:pagecheckerboard="0" ns2:deskcolor="#d1d1d1" ns2:zoom="36.90625" ns2:cx="16.013548" ns2:cy="16" ns2:current-layer="svg3182" />
  <defs id="defs3184">
    <linearGradient id="linearGradient3977">
      <stop id="stop3979" style="stop-color:#ffffff;stop-opacity:1" offset="0" />
      <stop id="stop3981" style="stop-color:#ffffff;stop-opacity:0.23529412" offset="0" />
      <stop id="stop3983" style="stop-color:#ffffff;stop-opacity:0.15686275" offset="0.99999994" />
      <stop id="stop3985" style="stop-color:#ffffff;stop-opacity:0.39215687" offset="1" />
    </linearGradient>
    <linearGradient id="linearGradient3600-4">
      <stop id="stop3602-7" style="stop-color:#f4f4f4;stop-opacity:1" offset="0" />
      <stop id="stop3604-6" style="stop-color:#dbdbdb;stop-opacity:1" offset="1" />
    </linearGradient>
    <linearGradient id="linearGradient5060">
      <stop id="stop5062" style="stop-color:#000000;stop-opacity:1" offset="0" />
      <stop id="stop5064" style="stop-color:#000000;stop-opacity:0" offset="1" />
    </linearGradient>
    <linearGradient id="linearGradient5048">
      <stop id="stop5050" style="stop-color:#000000;stop-opacity:0" offset="0" />
      <stop id="stop5056" style="stop-color:#000000;stop-opacity:1" offset="0.5" />
      <stop id="stop5052" style="stop-color:#000000;stop-opacity:0" offset="1" />
    </linearGradient>
    <linearGradient x1="23.99999" y1="6.1851754" x2="23.99999" y2="41.814808" id="linearGradient3013" ns3:href="#linearGradient3977" gradientUnits="userSpaceOnUse" gradientTransform="matrix(0.56756757,0,0,0.72972971,2.378382,-2.5135063)" />
    <linearGradient x1="25.132275" y1="0.98520643" x2="25.132275" y2="47.013336" id="linearGradient3016" ns3:href="#linearGradient3600-4" gradientUnits="userSpaceOnUse" gradientTransform="matrix(0.62856997,0,0,0.60839392,0.91431981,-0.5347905)" />
    <radialGradient cx="605.71429" cy="486.64789" r="117.14286" fx="605.71429" fy="486.64789" id="radialGradient3021" ns3:href="#linearGradient5060" gradientUnits="userSpaceOnUse" gradientTransform="matrix(0.01566318,0,0,0.00823529,17.610433,25.980565)" />
    <radialGradient cx="605.71429" cy="486.64789" r="117.14286" fx="605.71429" fy="486.64789" id="radialGradient3024" ns3:href="#linearGradient5060" gradientUnits="userSpaceOnUse" gradientTransform="matrix(-0.01566318,0,0,0.00823529,14.389566,25.980565)" />
    <linearGradient x1="302.85715" y1="366.64789" x2="302.85715" y2="609.50507" id="linearGradient3027" ns3:href="#linearGradient5048" gradientUnits="userSpaceOnUse" gradientTransform="matrix(0.04576928,0,0,0.00823529,-0.5423243,25.980548)" />
    <linearGradient id="linearGradient3104-6">
      <stop offset="0" style="stop-color:#000000;stop-opacity:0.31782946" id="stop3106-3" />
      <stop offset="1" style="stop-color:#000000;stop-opacity:0.24031007" id="stop3108-9" />
    </linearGradient>
    <linearGradient ns3:href="#linearGradient3104-6" id="linearGradient3148" gradientUnits="userSpaceOnUse" gradientTransform="matrix(0.53064141,0,0,0.58970049,39.269607,-1.791918)" x1="-51.786404" y1="50.786446" x2="-51.786404" y2="2.9062471" />
    <radialGradient cx="7.8060555" cy="9.9571075" r="12.671875" fx="7.2758255" fy="9.9571075" id="radialGradient3947" ns3:href="#linearGradient2867-449-88-871-390-598-476-591-434-148-57-177-8-3-4" gradientUnits="userSpaceOnUse" gradientTransform="matrix(-1.0624208e-7,4.3506752,-5.3177267,-1.3059556e-7,68.942118,-39.41615)" />
    <linearGradient id="linearGradient2867-449-88-871-390-598-476-591-434-148-57-177-8-3-4">
      <stop id="stop3750-1-0-7" style="stop-color:#ffcd7d;stop-opacity:1" offset="0" />
      <stop id="stop3752-3-7-6" style="stop-color:#fc8f36;stop-opacity:1" offset="0.26238" />
      <stop id="stop3754-1-8-5" style="stop-color:#e23a0e;stop-opacity:1" offset="0.704952" />
      <stop id="stop3756-1-6-6" style="stop-color:#ac441f;stop-opacity:1" offset="1" />
    </linearGradient>
  <defs id="defs3184">
    <linearGradient id="linearGradient3977">
      <stop offset="0" style="stop-color:#ffffff;stop-opacity:1" id="stop3979" />
      <stop offset="0" style="stop-color:#ffffff;stop-opacity:0.23529412" id="stop3981" />
      <stop offset="0.99999994" style="stop-color:#ffffff;stop-opacity:0.15686275" id="stop3983" />
      <stop offset="1" style="stop-color:#ffffff;stop-opacity:0.39215687" id="stop3985" />
    </linearGradient>
    <linearGradient id="linearGradient3600-4">
      <stop offset="0" style="stop-color:#f4f4f4;stop-opacity:1" id="stop3602-7" />
      <stop offset="1" style="stop-color:#dbdbdb;stop-opacity:1" id="stop3604-6" />
    </linearGradient>
    <linearGradient id="linearGradient5060">
      <stop offset="0" style="stop-color:#000000;stop-opacity:1" id="stop5062" />
      <stop offset="1" style="stop-color:#000000;stop-opacity:0" id="stop5064" />
    </linearGradient>
    <linearGradient id="linearGradient5048">
      <stop offset="0" style="stop-color:#000000;stop-opacity:0" id="stop5050" />
      <stop offset="0.5" style="stop-color:#000000;stop-opacity:1" id="stop5056" />
      <stop offset="1" style="stop-color:#000000;stop-opacity:0" id="stop5052" />
    </linearGradient>
    <linearGradient gradientTransform="matrix(0.56756757,0,0,0.72972971,2.378382,-2.5135063)" gradientUnits="userSpaceOnUse" ns3:href="#linearGradient3977" id="linearGradient3013" y2="41.814808" x2="23.99999" y1="6.1851754" x1="23.99999" />
    <linearGradient gradientTransform="matrix(0.62856997,0,0,0.60839392,0.91431981,-0.5347905)" gradientUnits="userSpaceOnUse" ns3:href="#linearGradient3600-4" id="linearGradient3016" y2="47.013336" x2="25.132275" y1="0.98520643" x1="25.132275" />
    <radialGradient gradientTransform="matrix(0.01566318,0,0,0.00823529,17.610433,25.980565)" gradientUnits="userSpaceOnUse" ns3:href="#linearGradient5060" id="radialGradient3021" fy="486.64789" fx="605.71429" r="117.14286" cy="486.64789" cx="605.71429" />
    <radialGradient gradientTransform="matrix(-0.01566318,0,0,0.00823529,14.389566,25.980565)" gradientUnits="userSpaceOnUse" ns3:href="#linearGradient5060" id="radialGradient3024" fy="486.64789" fx="605.71429" r="117.14286" cy="486.64789" cx="605.71429" />
    <linearGradient gradientTransform="matrix(0.04576928,0,0,0.00823529,-0.5423243,25.980548)" gradientUnits="userSpaceOnUse" ns3:href="#linearGradient5048" id="linearGradient3027" y2="609.50507" x2="302.85715" y1="366.64789" x1="302.85715" />
    <linearGradient id="linearGradient3104-6">
      <stop id="stop3106-3" style="stop-color:#000000;stop-opacity:0.31782946" offset="0" />
      <stop id="stop3108-9" style="stop-color:#000000;stop-opacity:0.24031007" offset="1" />
    </linearGradient>
    <linearGradient y2="2.9062471" x2="-51.786404" y1="50.786446" x1="-51.786404" gradientTransform="matrix(0.53064141,0,0,0.58970049,39.269607,-1.791918)" gradientUnits="userSpaceOnUse" id="linearGradient3148" ns3:href="#linearGradient3104-6" />
    <linearGradient x1="22.004084" y1="47.813133" x2="22.004084" y2="3.3638515" id="linearGradient3084" ns3:href="#linearGradient3104-5" gradientUnits="userSpaceOnUse" gradientTransform="matrix(0.66858377,0,0,0.67036989,-0.6796189,-2.3082683)" />
    <linearGradient id="linearGradient3104-5">
      <stop id="stop3106-2" style="stop-color:#aaaaaa;stop-opacity:1" offset="0" />
      <stop id="stop3108-5" style="stop-color:#c8c8c8;stop-opacity:1" offset="1" />
    </linearGradient>
  </defs>
  <linearGradient id="linearGradient3977">
      <stop offset="0" style="stop-color:#ffffff;stop-opacity:1" id="stop3979" />
      <stop offset="0" style="stop-color:#ffffff;stop-opacity:0.23529412" id="stop3981" />
      <stop offset="0.99999994" style="stop-color:#ffffff;stop-opacity:0.15686275" id="stop3983" />
      <stop offset="1" style="stop-color:#ffffff;stop-opacity:0.39215687" id="stop3985" />
    </linearGradient>
    <stop offset="0" style="stop-color:#ffffff;stop-opacity:1" id="stop3979" />
      <stop offset="0" style="stop-color:#ffffff;stop-opacity:0.23529412" id="stop3981" />
      <stop offset="0.99999994" style="stop-color:#ffffff;stop-opacity:0.15686275" id="stop3983" />
      <stop offset="1" style="stop-color:#ffffff;stop-opacity:0.39215687" id="stop3985" />
    <linearGradient id="linearGradient3600-4">
      <stop offset="0" style="stop-color:#f4f4f4;stop-opacity:1" id="stop3602-7" />
      <stop offset="1" style="stop-color:#dbdbdb;stop-opacity:1" id="stop3604-6" />
    </linearGradient>
    <stop offset="0" style="stop-color:#f4f4f4;stop-opacity:1" id="stop3602-7" />
      <stop offset="1" style="stop-color:#dbdbdb;stop-opacity:1" id="stop3604-6" />
    <linearGradient id="linearGradient5060">
      <stop offset="0" style="stop-color:#000000;stop-opacity:1" id="stop5062" />
      <stop offset="1" style="stop-color:#000000;stop-opacity:0" id="stop5064" />
    </linearGradient>
    <stop offset="0" style="stop-color:#000000;stop-opacity:1" id="stop5062" />
      <stop offset="1" style="stop-color:#000000;stop-opacity:0" id="stop5064" />
    <linearGradient id="linearGradient5048">
      <stop offset="0" style="stop-color:#000000;stop-opacity:0" id="stop5050" />
      <stop offset="0.5" style="stop-color:#000000;stop-opacity:1" id="stop5056" />
      <stop offset="1" style="stop-color:#000000;stop-opacity:0" id="stop5052" />
    </linearGradient>
    <stop offset="0" style="stop-color:#000000;stop-opacity:0" id="stop5050" />
      <stop offset="0.5" style="stop-color:#000000;stop-opacity:1" id="stop5056" />
      <stop offset="1" style="stop-color:#000000;stop-opacity:0" id="stop5052" />
    <linearGradient gradientTransform="matrix(0.56756757,0,0,0.72972971,2.378382,-2.5135063)" gradientUnits="userSpaceOnUse" ns3:href="#linearGradient3977" id="linearGradient3013" y2="41.814808" x2="23.99999" y1="6.1851754" x1="23.99999" />
    <linearGradient gradientTransform="matrix(0.62856997,0,0,0.60839392,0.91431981,-0.5347905)" gradientUnits="userSpaceOnUse" ns3:href="#linearGradient3600-4" id="linearGradient3016" y2="47.013336" x2="25.132275" y1="0.98520643" x1="25.132275" />
    <radialGradient gradientTransform="matrix(0.01566318,0,0,0.00823529,17.610433,25.980565)" gradientUnits="userSpaceOnUse" ns3:href="#linearGradient5060" id="radialGradient3021" fy="486.64789" fx="605.71429" r="117.14286" cy="486.64789" cx="605.71429" />
    <radialGradient gradientTransform="matrix(-0.01566318,0,0,0.00823529,14.389566,25.980565)" gradientUnits="userSpaceOnUse" ns3:href="#linearGradient5060" id="radialGradient3024" fy="486.64789" fx="605.71429" r="117.14286" cy="486.64789" cx="605.71429" />
    <linearGradient gradientTransform="matrix(0.04576928,0,0,0.00823529,-0.5423243,25.980548)" gradientUnits="userSpaceOnUse" ns3:href="#linearGradient5048" id="linearGradient3027" y2="609.50507" x2="302.85715" y1="366.64789" x1="302.85715" />
    <linearGradient id="linearGradient3104-6">
      <stop id="stop3106-3" style="stop-color:#000000;stop-opacity:0.31782946" offset="0" />
      <stop id="stop3108-9" style="stop-color:#000000;stop-opacity:0.24031007" offset="1" />
    </linearGradient>
    <stop id="stop3106-3" style="stop-color:#000000;stop-opacity:0.31782946" offset="0" />
      <stop id="stop3108-9" style="stop-color:#000000;stop-opacity:0.24031007" offset="1" />
    <linearGradient y2="2.9062471" x2="-51.786404" y1="50.786446" x1="-51.786404" gradientTransform="matrix(0.53064141,0,0,0.58970049,39.269607,-1.791918)" gradientUnits="userSpaceOnUse" id="linearGradient3148" ns3:href="#linearGradient3104-6" />
    <linearGradient x1="22.004084" y1="47.813133" x2="22.004084" y2="3.3638515" id="linearGradient3084" ns3:href="#linearGradient3104-5" gradientUnits="userSpaceOnUse" gradientTransform="matrix(0.66858377,0,0,0.67036989,-0.6796189,-2.3082683)" />
    <linearGradient id="linearGradient3104-5">
      <stop id="stop3106-2" style="stop-color:#aaaaaa;stop-opacity:1" offset="0" />
      <stop id="stop3108-5" style="stop-color:#c8c8c8;stop-opacity:1" offset="1" />
    </linearGradient>
  <stop id="stop3106-2" style="stop-color:#aaaaaa;stop-opacity:1" offset="0" />
      <stop id="stop3108-5" style="stop-color:#c8c8c8;stop-opacity:1" offset="1" />
    </defs>
  <metadata id="metadata3187">
    <rdf:RDF>
      <ns5:Work rdf:about="">
        <dc:format>image/svg+xml</dc:format>
        <dc:type rdf:resource="http://purl.org/dc/dcmitype/StillImage" />
      </ns5:Work>
    </rdf:RDF>
  </metadata>
  <rect width="22.100021" height="2" x="4.9499893" y="29" id="rect2879" style="opacity:0.15;fill:url(#linearGradient3027);fill-opacity:1;fill-rule:nonzero;stroke:none;stroke-width:1;marker:none;visibility:visible;display:inline;overflow:visible" />
  <path d="m 4.9499887,29.000086 c 0,0 0,1.99989 0,1.99989 -0.806615,0.0038 -1.950002,-0.448074 -1.950002,-1.000074 0,-0.552 0.900121,-0.999816 1.950002,-0.999816 z" id="path2881" style="opacity:0.15;fill:url(#radialGradient3024);fill-opacity:1;fill-rule:nonzero;stroke:none;stroke-width:1;marker:none;visibility:visible;display:inline;overflow:visible" />
  <path d="m 27.050011,29.000086 c 0,0 0,1.99989 0,1.99989 0.806614,0.0038 1.950002,-0.448074 1.950002,-1.000074 0,-0.552 -0.900122,-0.999816 -1.950002,-0.999816 z" id="path2883" style="opacity:0.15;fill:url(#radialGradient3021);fill-opacity:1;fill-rule:nonzero;stroke:none;stroke-width:1;marker:none;visibility:visible;display:inline;overflow:visible" />
  <path d="m 5,1 c 5.041316,0 21.999973,0.00179 21.999973,0.00179 L 27,29 C 27,29 12.333334,29 5,29 5,19.666667 5,10.333336 5,1.0000041 z" id="path4160-3" style="fill:url(#linearGradient3016);fill-opacity:1;stroke:none;display:inline" />
  <path d="m 26.5,28.5 -21,0 0,-27 21,0 z" id="rect6741-1" style="fill:none;stroke:url(#linearGradient3013);stroke-width:1;stroke-linecap:round;stroke-linejoin:miter;stroke-miterlimit:4;stroke-opacity:1;stroke-dasharray:none;stroke-dashoffset:0" />
  <path style="fill:none;stroke:url(#linearGradient3148);stroke-width:0.9999218;stroke-linecap:butt;stroke-linejoin:round;stroke-miterlimit:4;stroke-opacity:1;stroke-dasharray:none;stroke-dashoffset:0;display:inline" id="path4160-6-1" d="m 4.499961,0.499944 c 5.27048,0 23.000054,0.002 23.000054,0.002 l 2.4e-5,28.998112 c 0,0 -15.333385,0 -23.000078,0 0,-9.666722 0,-19.333346 0,-28.999956 z" />
<path ns2:connector-curvature="0" style="font-style:normal;font-variant:normal;font-weight:normal;font-stretch:normal;font-size:15.12844849px;line-height:125%;font-family:'Latin Modern Roman';-inkscape-font-specification:'Latin Modern Roman';text-align:start;letter-spacing:0px;word-spacing:0px;writing-mode:lr-tb;text-anchor:start;opacity:1;fill:#1a1a1a;fill-opacity:1;stroke:none" d="m 18.268519,10.687004 0,0.347222 0.231481,0 c 0.616343,0 0.828748,0.07974 1.041667,0.393519 l 2.060185,3.125 L 19.75,17.261078 c -0.156887,0.224125 -0.488539,0.74074 -1.620371,0.74074 l 0,0.347224 1.25,-0.04629 c 0.414632,0 1.03176,0.01267 1.435185,0.04629 l 0,-0.347224 c -0.515487,-0.01121 -0.717592,-0.330694 -0.717592,-0.532406 0,-0.100857 0.03731,-0.131361 0.115741,-0.25463 l 1.597223,-2.361111 1.759258,2.685185 c 0.02241,0.04482 0.06944,0.08212 0.06944,0.115741 0,0.134475 -0.258872,0.336015 -0.740741,0.347221 l 0,0.347224 c 0.392219,-0.03362 1.217681,-0.04629 1.643519,-0.04629 L 26,18.349042 l 0,-0.347224 -0.208333,0 c -0.582726,0 -0.829485,-0.06927 -1.064815,-0.416666 l -2.361111,-3.564815 1.527778,-2.24537 c 0.246538,-0.3586 0.646162,-0.729534 1.643518,-0.740741 l 0,-0.347222 -1.25,0.04629 c -0.44825,0 -0.986935,-0.01267 -1.435185,-0.04629 l 0,0.347222 c 0.44825,0.01121 0.694445,0.251516 0.694445,0.509259 0,0.112062 -0.01415,0.15451 -0.09259,0.277778 l -1.296296,1.875 -1.435185,-2.152778 c -0.02241,-0.03362 -0.06944,-0.117212 -0.06944,-0.162037 0,-0.134475 0.235723,-0.336015 0.717593,-0.347222 l 0,-0.347222 c -0.392219,0.03362 -1.217682,0.04629 -1.643519,0.04629 l -1.458341,-0.04629 z M 6.208333,10.756444 6,13.279593 l 0.277778,0 c 0.156887,-1.804206 0.321745,-2.175926 2.013889,-2.175926 0.201712,0 0.48979,7.5e-4 0.601852,0.02314 0.23533,0.04482 0.254629,0.158924 0.254629,0.416667 l 0,5.902778 c 0,0.381012 -0.0039,0.555555 -1.180555,0.555555 l -0.462964,0 0,0.347223 c 0.459457,-0.03362 1.614143,-0.04629 2.12963,-0.04629 0.515488,0 1.670174,0.01267 2.12963,0.04629 l 0,-0.347223 -0.462963,0 c -1.176655,0 -1.157407,-0.174543 -1.157407,-0.555555 l 0,-5.902778 c 0,-0.224125 -0.01652,-0.371841 0.185184,-0.416667 0.12327,-0.02241 0.43523,-0.02314 0.648149,-0.02314 1.692142,0 1.857001,0.37172 2.013889,2.175926 l 0.277778,0 -0.208333,-2.523149 -6.851853,0 z m 6.064815,2.939815 0,0.347222 0.277778,0 c 0.862881,0 0.87963,0.105835 0.87963,0.50926 l 0,5.87963 c 0,0.403423 -0.01674,0.532407 -0.87963,0.532407 l -0.277778,0 0,0.347222 6.458333,0 0.486112,-2.893519 -0.300926,0 c -0.280156,1.725762 -0.526229,2.546297 -2.453704,2.546297 l -1.481482,0 c -0.526693,0 -0.555555,-0.09316 -0.555555,-0.462964 l 0,-2.986111 0.995371,0 c 1.087005,0 1.226851,0.366915 1.226851,1.319445 l 0.277778,0 0,-2.98611 -0.277778,0 c 0,0.963736 -0.139846,1.319443 -1.226851,1.319443 l -0.995371,0 0,-2.685184 c 0,-0.369806 0.02887,-0.439816 0.555555,-0.439816 l 1.435186,0 c 1.714555,0 2.019774,0.59511 2.199074,2.152778 l 0.277778,0 -0.324075,-2.5 -6.296296,0 z" id="path4447" />
</svg>