<?xml version='1.0' encoding='utf-8'?>
<svg xmlns="http://www.w3.org/2000/svg" xmlns:dc="http://purl.org/dc/elements/1.1/" xmlns:ns1="http://sodipodi.sourceforge.net/DTD/sodipodi-0.dtd" xmlns:ns2="http://www.inkscape.org/namespaces/inkscape" xmlns:ns3="http://www.w3.org/1999/xlink" xmlns:ns5="http://creativecommons.org/ns#" xmlns:rdf="http://www.w3.org/1999/02/22-rdf-syntax-ns#" version="1.1" width="16" height="16" id="svg3810" ns1:docname="base-generic.svg" ns2:version="1.4 (e7c3feb100, 2024-10-09)">
  <ns1:namedview id="namedview1" pagecolor="#ffffff" bordercolor="#000000" borderopacity="0.25" ns2:showpageshadow="2" ns2:pageopacity="0.0" ns2:pagecheckerboard="0" ns2:deskcolor="#d1d1d1" ns2:zoom="73.8125" ns2:cx="7.9932261" ns2:cy="8" ns2:current-layer="svg3810" />
  <defs id="defs3812">
    <linearGradient x1="23.99999" y1="6.9230647" x2="23.99999" y2="41.076912" id="linearGradient3988" ns3:href="#linearGradient3977" gradientUnits="userSpaceOnUse" gradientTransform="matrix(0.24324324,0,0,0.35135133,2.1621636,-0.43242804)" />
    <linearGradient id="linearGradient3977">
      <stop id="stop3979" style="stop-color:#ffffff;stop-opacity:1" offset="0" />
      <stop id="stop3981" style="stop-color:#ffffff;stop-opacity:0.23529412" offset="0" />
      <stop id="stop3983" style="stop-color:#ffffff;stop-opacity:0.15686275" offset="1" />
      <stop id="stop3985" style="stop-color:#ffffff;stop-opacity:0.39215687" offset="1" />
    </linearGradient>
    <linearGradient id="linearGradient3600">
      <stop id="stop3602" style="stop-color:#f4f4f4;stop-opacity:1" offset="0" />
      <stop id="stop3604" style="stop-color:#dbdbdb;stop-opacity:1" offset="1" />
    </linearGradient>
    <linearGradient x1="25.132275" y1="0.98520643" x2="25.132275" y2="47.013336" id="linearGradient3806" ns3:href="#linearGradient3600" gradientUnits="userSpaceOnUse" gradientTransform="matrix(0.28571361,0,0,0.30419701,1.1428727,0.2326048)" />
    <linearGradient id="linearGradient3104-9">
      <stop id="stop3106-5" style="stop-color:#000000;stop-opacity:0.33950618" offset="0" />
      <stop id="stop3108-5" style="stop-color:#000000;stop-opacity:0.24691358" offset="1" />
    </linearGradient>
    <linearGradient x1="-51.786404" y1="50.786446" x2="-51.786404" y2="2.9062471" id="linearGradient3019" ns3:href="#linearGradient3104-9" gradientUnits="userSpaceOnUse" gradientTransform="matrix(0.25378586,0,0,0.30501865,19.128979,-0.68547704)" />
    <radialGradient cx="7.8060555" cy="9.9571075" r="12.671875" fx="7.2758255" fy="9.9571075" id="radialGradient3858" ns3:href="#linearGradient2867-449-88-871-390-598-476-591-434-148-57-177-8-3" gradientUnits="userSpaceOnUse" gradientTransform="matrix(-5.0813118e-8,2.2503718,-2.543345,-6.7550105e-8,33.320987,-20.146566)" />
    <linearGradient id="linearGradient2867-449-88-871-390-598-476-591-434-148-57-177-8-3">
      <stop id="stop3750-1-0" style="stop-color:#ffcd7d;stop-opacity:1" offset="0" />
      <stop id="stop3752-3-7" style="stop-color:#fc8f36;stop-opacity:1" offset="0.26238" />
      <stop id="stop3754-1-8" style="stop-color:#e23a0e;stop-opacity:1" offset="0.704952" />
      <stop id="stop3756-1-6" style="stop-color:#ac441f;stop-opacity:1" offset="1" />
    </linearGradient>
  <defs id="defs3812">
    <linearGradient gradientUnits="userSpaceOnUse" y2="57.999405" x2="32.999352" y1="1.9994068" x1="32.999352" id="linearGradient4521" ns3:href="#linearGradient4515" gradientTransform="matrix(0.49999,0,0,0.49999,-7.9995319,-7.9993853)" />
    <linearGradient id="linearGradient4515">
      <stop id="stop4517" offset="0" style="stop-color:#67614f;stop-opacity:1" />
      <stop id="stop4519" offset="1" style="stop-color:#4b473a;stop-opacity:1" />
    </linearGradient>
  </defs>
  <linearGradient gradientUnits="userSpaceOnUse" y2="57.999405" x2="32.999352" y1="1.9994068" x1="32.999352" id="linearGradient4521" ns3:href="#linearGradient4515" gradientTransform="matrix(0.49999,0,0,0.49999,-7.9995319,-7.9993853)" />
    <linearGradient id="linearGradient4515">
      <stop id="stop4517" offset="0" style="stop-color:#67614f;stop-opacity:1" />
      <stop id="stop4519" offset="1" style="stop-color:#4b473a;stop-opacity:1" />
    </linearGradient>
  <stop id="stop4517" offset="0" style="stop-color:#67614f;stop-opacity:1" />
      <stop id="stop4519" offset="1" style="stop-color:#4b473a;stop-opacity:1" />
    </defs>
  <metadata id="metadata3815">
    <rdf:RDF>
      <ns5:Work rdf:about="">
        <dc:format>image/svg+xml</dc:format>
        <dc:type rdf:resource="http://purl.org/dc/dcmitype/StillImage" />
      </ns5:Work>
    </rdf:RDF>
  </metadata>
  <path style="display:inline;fill:url(#linearGradient3806);fill-opacity:1;stroke:none" id="path4160" d="m 3,1 c 2.2915074,0 9.999988,8.904e-4 9.999988,8.904e-4 L 13,15 C 13,15 6.3333332,15 3,15 3,10.333334 3,5.6666664 3,1 Z" />
  <path style="fill:none;stroke:url(#linearGradient3988);stroke-width:1;stroke-linecap:round;stroke-linejoin:miter;stroke-miterlimit:4;stroke-dasharray:none;stroke-dashoffset:0;stroke-opacity:1" id="rect6741-1" d="m 12.5,14.5 -9.0000001,0 0,-13 L 12.5,1.5 Z" />
  <path style="display:inline;fill:none;stroke:url(#linearGradient3019);stroke-width:0.99992192;stroke-linecap:butt;stroke-linejoin:round;stroke-miterlimit:4;stroke-dasharray:none;stroke-dashoffset:0;stroke-opacity:1" id="path4160-8" d="m 2.4999621,0.49997396 c 2.5206756,0 11.0000629,9.54e-4 11.0000629,9.54e-4 l 1.3e-5,14.99909804 c 0,0 -7.3333841,0 -11.000076,0 0,-5.000017 0,-10.000035 0,-15.00005204 z" />
<path id="path4323-9" d="m 14.104519,1.7133099 c -0.02403,-0.00837 -0.04916,-0.00746 -0.07422,0.00491 -0.06015,0.029516 -0.113074,0.1256175 -0.165036,0.2812446 -0.12269,0.3674657 -0.90806,2.6536207 -4.9188466,3.2694689 A 1.9937545,1.99431 0 0 1 10.031357,7.0433137 1.9937545,1.99431 0 0 1 8.0372568,9.0374136 1.9937545,1.99431 0 0 1 6.2228384,7.8655631 1.5823448,1.5827857 0 0 1 4.8927875,8.5940639 1.5823448,1.5827857 0 0 1 3.3215298,7.1907714 C 3.2708863,7.292538 3.2102261,7.3959471 3.1242692,7.5013116 3.0935679,7.4534321 3.0749621,7.3995107 3.0412683,7.3528773 2.8380422,7.0717112 2.5996181,6.8347674 2.345969,6.6585546 2.0545258,6.4560869 1.7515524,6.3225625 1.4524315,6.2786806 1.1075773,6.2280828 0.7740477,6.3026774 0.5090923,6.4935202 0.244057,6.6844097 0.0892643,6.9768684 0.0286326,7.3196747 c -0.052562,0.2971837 -0.034116,0.619077 0.066405,0.9589651 0.087501,0.2958463 0.227521,0.5938067 0.4306546,0.8749831 0.2145997,0.2970421 0.4813677,0.5606714 0.760728,0.7441255 0.315062,0.2068986 0.6491571,0.3277876 0.976543,0.3466726 0.1013098,0.0058 0.2047589,-0.01912 0.2978462,-0.0332 2.1204585,1.678258 6.3301067,3.244461 9.1199346,1.454074 0.06035,0.0205 0.120976,0.04548 0.181637,0.0664 0.0015,0.02866 -0.0075,0.05746 0,0.083 l 0.132809,-0.0498 c 0.02356,0.0074 0.04137,0.02616 0.06544,0.0332 0.0051,0.0016 0.01142,-0.0015 0.0166,0 l 0.0498,0.04883 1.257787,0.446281 c -0.0516,0.436033 0.164657,0.931556 0.711899,1.140602 C 15.082248,13.810256 16,14.29217 16,14.29217 c -0.470105,-1.59315 -0.641532,-2.871295 -1.870077,-2.758734 -0.228583,0.02095 -0.400979,0.114716 -0.529286,0.248042 l -1.109352,-0.710924 -0.0498,0 -0.01659,-0.0166 C 13.918108,9.5868153 14.791099,6.8295911 14.261752,2.0326552 14.238783,1.852866 14.176604,1.7385185 14.104529,1.7133254 Z M 3.4719185,3.1722652 3.4055132,6.1468145 c 0,0 0.025824,0.091396 0.046874,0.2148396 A 1.5823448,1.5827857 0 0 1 4.8927889,5.4290556 1.5823448,1.5827857 0 0 1 6.2404186,6.1848999 1.9937545,1.99431 0 0 1 6.8976324,5.4105011 C 4.5015835,5.2840307 3.4719208,3.1722652 3.4719208,3.1722652 Z M 5.1379003,6.1253316 A 1.1079499,1.0868462 0 0 0 4.8078291,6.1751299 0.54859663,0.53814718 0 0 1 5.1271583,6.6634019 0.54859663,0.53814718 0 0 1 4.5783425,7.2014769 0.54859663,0.53814718 0 0 1 4.0803038,6.8889824 1.1079499,1.0868462 0 0 0 4.0295232,7.2122189 1.1079499,1.0868462 0 0 0 5.1379003,8.2991108 1.1079499,1.0868462 0 0 0 6.2453002,7.2122189 1.1079499,1.0868462 0 0 0 5.1379003,6.1253259 Z M 8.4718198,6.3362638 A 1.1079499,1.0868462 0 0 0 8.1417475,6.3860621 0.54859663,0.53814718 0 0 1 8.4610778,6.8743342 0.54859663,0.53814718 0 0 1 7.9122597,7.4124091 0.54859663,0.53814718 0 0 1 7.4151998,7.0999158 1.1079499,1.0868462 0 0 0 7.3644193,7.4231511 1.1079499,1.0868462 0 0 0 8.4718187,8.510043 1.1079499,1.0868462 0 0 0 9.5801944,7.4231511 1.1079499,1.0868462 0 0 0 8.4718187,6.3362593 Z M 1.2590717,6.9905481 A 0.57591177,0.64366611 0 0 1 1.835232,7.6340902 0.57591177,0.64366611 0 0 1 1.2590717,8.2776324 0.57591177,0.64366611 0 0 1 0.6829113,7.6340902 0.57591177,0.64366611 0 0 1 1.2590717,6.9905481 Z" style="color:#000000;clip-rule:nonzero;display:inline;overflow:visible;visibility:visible;opacity:1;isolation:auto;mix-blend-mode:normal;color-interpolation:sRGB;color-interpolation-filters:linearRGB;solid-color:#000000;solid-opacity:1;fill:url(#linearGradient4521);fill-opacity:1;fill-rule:nonzero;stroke:none;stroke-width:1;stroke-linecap:butt;stroke-linejoin:miter;stroke-miterlimit:4;stroke-dasharray:none;stroke-dashoffset:0;stroke-opacity:1;marker:none;color-rendering:auto;image-rendering:auto;shape-rendering:auto;text-rendering:auto;enable-background:accumulate" />
</svg>