<?xml version="1.0" encoding="UTF-8" standalone="no"?>
<svg
   version="1.1"
   width="64"
   height="64"
   id="svg3489"
   inkscape:version="1.1.2 (0a00cf5339, 2022-02-04)"
   sodipodi:docname="audacity.svg"
   xmlns:inkscape="http://www.inkscape.org/namespaces/inkscape"
   xmlns:sodipodi="http://sodipodi.sourceforge.net/DTD/sodipodi-0.dtd"
   xmlns:xlink="http://www.w3.org/1999/xlink"
   xmlns="http://www.w3.org/2000/svg"
   xmlns:svg="http://www.w3.org/2000/svg"
   xmlns:rdf="http://www.w3.org/1999/02/22-rdf-syntax-ns#"
   xmlns:cc="http://creativecommons.org/ns#"
   xmlns:dc="http://purl.org/dc/elements/1.1/">
  <sodipodi:namedview
     pagecolor="#ffffff"
     bordercolor="#666666"
     borderopacity="1"
     objecttolerance="10"
     gridtolerance="10"
     guidetolerance="10"
     inkscape:pageopacity="0"
     inkscape:pageshadow="2"
     inkscape:window-width="1920"
     inkscape:window-height="995"
     id="namedview48"
     showgrid="false"
     inkscape:zoom="2"
     inkscape:cx="-109"
     inkscape:cy="-3"
     inkscape:window-x="0"
     inkscape:window-y="0"
     inkscape:window-maximized="1"
     inkscape:current-layer="svg3489"
     inkscape:pagecheckerboard="0"
     inkscape:lockguides="true"
     showguides="true"
     inkscape:guide-bbox="true">
    <inkscape:grid
       type="xygrid"
       id="grid4176" />
  </sodipodi:namedview>
  <defs
     id="defs3491">
    <linearGradient
       inkscape:collect="always"
       id="linearGradient2902">
      <stop
         style="stop-color:#4fbcd9;stop-opacity:1"
         offset="0"
         id="stop2898" />
      <stop
         style="stop-color:#ffb472;stop-opacity:1"
         offset="1"
         id="stop2900" />
    </linearGradient>
    <linearGradient
       id="linearGradient4806">
      <stop
         id="stop4808"
         style="stop-color:#ffffff;stop-opacity:1"
         offset="0" />
      <stop
         id="stop4810"
         style="stop-color:#ffffff;stop-opacity:0.23529412"
         offset="0.42447853" />
      <stop
         id="stop4812"
         style="stop-color:#ffffff;stop-opacity:0.15686275"
         offset="0.82089913" />
      <stop
         id="stop4814"
         style="stop-color:#ffffff;stop-opacity:0.39215687"
         offset="1" />
    </linearGradient>
    <linearGradient
       id="linearGradient3820-7-2">
      <stop
         id="stop3822-2-6"
         style="stop-color:#000000;stop-opacity:1"
         offset="0" />
      <stop
         id="stop3824-1-2"
         style="stop-color:#000000;stop-opacity:0"
         offset="1" />
    </linearGradient>
    <linearGradient
       id="linearGradient3957-2">
      <stop
         offset="0"
         style="stop-color:#ffffff;stop-opacity:1"
         id="stop3959-62" />
      <stop
         offset="1"
         style="stop-color:#c1c1c1;stop-opacity:1"
         id="stop3961-5" />
    </linearGradient>
    <linearGradient
       id="linearGradient2867-449-88-871-390-598-476-591-434-148-57-177-3-8">
      <stop
         offset="0"
         style="stop-color:#3b3b3b;stop-opacity:1"
         id="stop3750-8-9" />
      <stop
         offset="0.26238"
         style="stop-color:#353535;stop-opacity:1"
         id="stop3752-3-2" />
      <stop
         offset="0.704952"
         style="stop-color:#1b2824;stop-opacity:1"
         id="stop3754-7-2" />
      <stop
         offset="1"
         style="stop-color:#110d0c;stop-opacity:1"
         id="stop3756-9-3" />
    </linearGradient>
    <linearGradient
       id="linearGradient3957">
      <stop
         offset="0"
         style="stop-color:#ffffff;stop-opacity:1"
         id="stop3959" />
      <stop
         offset="1"
         style="stop-color:#c1c1c1;stop-opacity:1"
         id="stop3961" />
    </linearGradient>
    <linearGradient
       id="linearGradient4168">
      <stop
         offset="0"
         style="stop-color:#f8b17e;stop-opacity:1"
         id="stop4170" />
      <stop
         offset="0.23208089"
         style="stop-color:#e35d4f;stop-opacity:1"
         id="stop4172" />
      <stop
         offset="0.5908742"
         style="stop-color:#c6262e;stop-opacity:1"
         id="stop4174" />
      <stop
         offset="1"
         style="stop-color:#690b54;stop-opacity:1"
         id="stop4176" />
    </linearGradient>
    <linearGradient
       xlink:href="#linearGradient4806"
       id="linearGradient3293"
       gradientUnits="userSpaceOnUse"
       gradientTransform="matrix(2.3268746,0,0,2.3268746,-135.94475,-32.842783)"
       x1="71.204407"
       y1="15.369057"
       x2="71.204407"
       y2="40.495617" />
    <radialGradient
       xlink:href="#linearGradient3820-7-2"
       id="radialGradient3300"
       gradientUnits="userSpaceOnUse"
       gradientTransform="matrix(0.3823536,7.5555777e-8,-1.8372241e-8,0.1115198,-5.9254271,36.335849)"
       cx="99.189415"
       cy="185.29727"
       fx="99.189415"
       fy="185.29727"
       r="62.769119" />
    <linearGradient
       xlink:href="#linearGradient3957"
       id="linearGradient4131"
       gradientUnits="userSpaceOnUse"
       gradientTransform="translate(8.0000046,8.0000026)"
       x1="24"
       y1="22"
       x2="24"
       y2="26" />
    <linearGradient
       xlink:href="#linearGradient3957-2"
       id="linearGradient4137"
       gradientUnits="userSpaceOnUse"
       gradientTransform="matrix(1.4390244,0,0,1.4390244,-2.536585,-2.5365857)"
       x1="21.013996"
       y1="25.433903"
       x2="22.805599"
       y2="27.343702" />
    <linearGradient
       xlink:href="#linearGradient4168"
       id="linearGradient4140"
       gradientUnits="userSpaceOnUse"
       gradientTransform="matrix(1.4390244,0,0,1.4390244,-2.536585,-2.5365857)"
       x1="27.92535"
       y1="15.149301"
       x2="33.447899"
       y2="22.986004" />
    <radialGradient
       xlink:href="#linearGradient2867-449-88-871-390-598-476-591-434-148-57-177-3-8"
       id="radialGradient4145"
       gradientUnits="userSpaceOnUse"
       gradientTransform="matrix(0,3.5958841,-3.8040162,-9.7874431e-8,64.14322,-20.064576)"
       cx="3.9722471"
       cy="8.4497671"
       fx="3.9722471"
       fy="8.4497671"
       r="19.99999" />
    <radialGradient
       inkscape:collect="always"
       xlink:href="#linearGradient3820-7-2"
       id="radialGradient4192"
       gradientUnits="userSpaceOnUse"
       gradientTransform="matrix(0.2549024,5.3967361e-8,-1.2248161e-8,0.07965545,6.7163816,44.240666)"
       cx="99.189415"
       cy="185.29727"
       fx="99.189415"
       fy="185.29727"
       r="62.769119" />
    <linearGradient
       inkscape:collect="always"
       xlink:href="#linearGradient2902"
       id="linearGradient2906"
       x1="11.255859"
       y1="31.999998"
       x2="52.744141"
       y2="31.999998"
       gradientUnits="userSpaceOnUse" />
  </defs>
  <metadata
     id="metadata3494">
    <rdf:RDF>
      <cc:Work
         rdf:about="">
        <dc:format>image/svg+xml</dc:format>
        <dc:type
           rdf:resource="http://purl.org/dc/dcmitype/StillImage" />
      </cc:Work>
    </rdf:RDF>
  </metadata>
  <g
     id="g4198">
    <path
       inkscape:connector-curvature="0"
       d="m 55.999998,57.0017 a 24,6.9985714 0 1 1 -47.9999991,0 24,6.9985714 0 1 1 47.9999991,0 z"
       id="path3818-0"
       style="opacity:0.2;fill:url(#radialGradient3300);fill-opacity:1;stroke:none" />
    <path
       style="opacity:0.4;fill:url(#radialGradient4192);fill-opacity:1;stroke:none"
       id="path4190"
       d="m 47.999998,59.0017 a 16,4.9988822 0 1 1 -31.999999,0 16,4.9988822 0 1 1 31.999999,0 z"
       inkscape:connector-curvature="0" />
  </g>
  <path
     d="M 32.000004,2.4999968 C 15.722922,2.4999968 2.5,15.722913 2.5,31.999997 2.5,48.277081 15.722922,61.500004 32.000004,61.5 48.27708,61.5 61.500016,48.277081 61.5,31.999997 61.5,15.722913 48.27708,2.4999968 32.000004,2.4999968 z"
     id="path2555"
     style="color:#000000;fill:url(#radialGradient4145);fill-opacity:1;fill-rule:nonzero;stroke:none;stroke-width:1;marker:none;visibility:visible;display:inline;overflow:visible;enable-background:accumulate" />
  <path
     style="opacity:0.5;color:#000000;fill:#000000;stroke:#001e2e;stroke-width:1;stroke-linecap:round;stroke-linejoin:round;stroke-miterlimit:4;stroke-opacity:1;stroke-dasharray:none;stroke-dashoffset:0;marker:none;visibility:visible;display:inline;overflow:visible;enable-background:accumulate;fill-opacity:0;fill-rule:nonzero"
     id="path2555-7-1"
     d="m 32,2.499999 c -16.277082,0 -29.5,13.222915 -29.5,29.499998 0,16.277083 13.222918,29.500005 29.5,29.5 16.27708,0 29.50001,-13.222917 29.5,-29.5 C 61.5,15.722914 48.27708,2.499999 32,2.499999 z" />
  <g
     id="g4161">
    <path
       id="path4062"
       style="fill:#01000a;fill-opacity:0.0635514;stroke-width:2.70242;stroke-linecap:round;stroke-linejoin:round"
       d="m 32.195196,20.685429 c -3.106791,0 -5.607422,2.58397 -5.607421,5.792969 v 0.957031 15.167969 c 0,1.058639 0.851516,1.910156 1.910156,1.910156 1.058639,0 1.912109,-0.851517 1.912109,-1.910156 v -3.986329 c 6.89e-4,-1.258023 0.826324,-1.595703 1.970703,-1.595703 1.114056,0 1.970703,0.332785 1.970703,1.595703 v 3.986329 c 0,1.058639 0.853473,1.910156 1.91211,1.910156 1.058641,0 1.910156,-0.851517 1.910156,-1.910156 V 27.435429 26.718632 26.478398 c 0,-3.208999 -2.500631,-5.792969 -5.607422,-5.792969 z m 0.1875,3.349609 c 1.092222,0 1.972657,0.87848 1.972657,1.970703 v 5.28125 c 0,1.990775 -1.097475,1.941407 -1.789063,1.941407 h -0.371094 c -0.696487,-0.04994 -1.786246,-0.04826 -1.783203,-1.941407 v -5.28125 c 0,-1.092223 0.87848,-1.970703 1.970703,-1.970703 z m -11.542968,1.876953 c -1.058639,0 -1.91211,0.851518 -1.91211,1.910157 v 9.554687 c 0,1.058639 0.853471,1.910156 1.91211,1.910156 1.058638,0 1.910156,-0.851517 1.910156,-1.910156 v -9.554687 c 0,-1.058639 -0.851518,-1.910157 -1.910156,-1.910157 z m 23.082031,0 c -1.058639,0 -1.910156,0.851518 -1.910156,1.910157 v 9.554687 c 0,1.058639 0.851517,1.910156 1.910156,1.910156 1.058638,0 1.910156,-0.851517 1.910156,-1.910156 v -9.554687 c 0,-1.058639 -0.851518,-1.910157 -1.910156,-1.910157 z m -30.373047,3.34375 c -1.058639,0 -1.91211,0.851518 -1.91211,1.910157 v 2.867187 c 0,1.058639 0.853471,1.910156 1.91211,1.910156 1.058638,0 1.910156,-0.851517 1.910156,-1.910156 v -2.867187 c 0,-1.058639 -0.851518,-1.910157 -1.910156,-1.910157 z m 37.664063,0 c -1.058639,0 -1.910157,0.851518 -1.910157,1.910157 v 2.867187 c 0,1.058639 0.851518,1.910156 1.910157,1.910156 1.058638,0 1.912109,-0.851517 1.912109,-1.910156 v -2.867187 c 0,-1.058639 -0.853471,-1.910157 -1.912109,-1.910157 z" />
    <path
       id="path4154"
       style="fill:#01000a;fill-opacity:0.0635514;stroke-width:2.70242;stroke-linecap:round;stroke-linejoin:round"
       d="m 32.585821,21.513554 c -3.106791,0 -5.607422,2.58397 -5.607421,5.792969 v 0.957031 15.167969 c 0,1.058639 0.851516,1.910156 1.910156,1.910156 1.058639,0 1.912109,-0.851517 1.912109,-1.910156 v -3.986329 c 6.89e-4,-1.258023 0.826324,-1.595703 1.970703,-1.595703 1.114056,0 1.970703,0.332785 1.970703,1.595703 v 3.986329 c 0,1.058639 0.853473,1.910156 1.91211,1.910156 1.058641,0 1.910156,-0.851517 1.910156,-1.910156 V 28.263554 27.546757 27.306523 c 0,-3.208999 -2.500631,-5.792969 -5.607422,-5.792969 z m 0.1875,3.349609 c 1.092222,0 1.972657,0.87848 1.972657,1.970703 v 5.28125 c 0,1.990775 -1.097475,1.941407 -1.789063,1.941407 h -0.371094 c -0.696487,-0.04994 -1.786246,-0.04826 -1.783203,-1.941407 v -5.28125 c 0,-1.092223 0.87848,-1.970703 1.970703,-1.970703 z m -11.542968,1.876953 c -1.058639,0 -1.91211,0.851518 -1.91211,1.910157 v 9.554687 c 0,1.058639 0.853471,1.910156 1.91211,1.910156 1.058638,0 1.910156,-0.851517 1.910156,-1.910156 v -9.554687 c 0,-1.058639 -0.851518,-1.910157 -1.910156,-1.910157 z m 23.082031,0 c -1.058639,0 -1.910156,0.851518 -1.910156,1.910157 v 9.554687 c 0,1.058639 0.851517,1.910156 1.910156,1.910156 1.058638,0 1.910156,-0.851517 1.910156,-1.910156 v -9.554687 c 0,-1.058639 -0.851518,-1.910157 -1.910156,-1.910157 z m -30.373047,3.34375 c -1.058639,0 -1.91211,0.851518 -1.91211,1.910157 v 2.867187 c 0,1.058639 0.853471,1.910156 1.91211,1.910156 1.058638,0 1.910156,-0.851517 1.910156,-1.910156 v -2.867187 c 0,-1.058639 -0.851518,-1.910157 -1.910156,-1.910157 z m 37.664063,0 c -1.058639,0 -1.910157,0.851518 -1.910157,1.910157 v 2.867187 c 0,1.058639 0.851518,1.910156 1.910157,1.910156 1.058638,0 1.912109,-0.851517 1.912109,-1.910156 v -2.867187 c 0,-1.058639 -0.853471,-1.910157 -1.912109,-1.910157 z" />
    <path
       id="path4156"
       style="fill:#01000a;fill-opacity:0.0635514;stroke-width:2.70242;stroke-linecap:round;stroke-linejoin:round"
       d="m 32.992071,22.544804 c -3.106791,0 -5.607422,2.58397 -5.607421,5.792969 v 0.957031 15.167969 c 0,1.058639 0.851516,1.910156 1.910156,1.910156 1.058639,0 1.912109,-0.851517 1.912109,-1.910156 v -3.986329 c 6.89e-4,-1.258023 0.826324,-1.595703 1.970703,-1.595703 1.114056,0 1.970703,0.332785 1.970703,1.595703 v 3.986329 c 0,1.058639 0.853473,1.910156 1.91211,1.910156 1.058641,0 1.910156,-0.851517 1.910156,-1.910156 V 29.294804 28.578007 28.337773 c 0,-3.208999 -2.500631,-5.792969 -5.607422,-5.792969 z m 0.1875,3.349609 c 1.092222,0 1.972657,0.87848 1.972657,1.970703 v 5.28125 c 0,1.990775 -1.097475,1.941407 -1.789063,1.941407 h -0.371094 c -0.696487,-0.04994 -1.786246,-0.04826 -1.783203,-1.941407 v -5.28125 c 0,-1.092223 0.87848,-1.970703 1.970703,-1.970703 z m -11.542968,1.876953 c -1.058639,0 -1.91211,0.851518 -1.91211,1.910157 v 9.554687 c 0,1.058639 0.853471,1.910156 1.91211,1.910156 1.058638,0 1.910156,-0.851517 1.910156,-1.910156 v -9.554687 c 0,-1.058639 -0.851518,-1.910157 -1.910156,-1.910157 z m 23.082031,0 c -1.058639,0 -1.910156,0.851518 -1.910156,1.910157 v 9.554687 c 0,1.058639 0.851517,1.910156 1.910156,1.910156 1.058638,0 1.910156,-0.851517 1.910156,-1.910156 v -9.554687 c 0,-1.058639 -0.851518,-1.910157 -1.910156,-1.910157 z m -30.373047,3.34375 c -1.058639,0 -1.91211,0.851518 -1.91211,1.910157 v 2.867187 c 0,1.058639 0.853471,1.910156 1.91211,1.910156 1.058638,0 1.910156,-0.851517 1.910156,-1.910156 v -2.867187 c 0,-1.058639 -0.851518,-1.910157 -1.910156,-1.910157 z m 37.664063,0 c -1.058639,0 -1.910157,0.851518 -1.910157,1.910157 v 2.867187 c 0,1.058639 0.851518,1.910156 1.910157,1.910156 1.058638,0 1.912109,-0.851517 1.912109,-1.910156 v -2.867187 c 0,-1.058639 -0.853471,-1.910157 -1.912109,-1.910157 z" />
  </g>
  <path
     style="opacity:0.5;color:#000000;fill:none;stroke:url(#linearGradient3293);stroke-width:1;stroke-linecap:round;stroke-linejoin:round;stroke-miterlimit:4;stroke-opacity:1;stroke-dasharray:none;stroke-dashoffset:0;marker:none;visibility:visible;display:inline;overflow:visible;enable-background:accumulate"
     id="path3019"
     d="m 60.50001,31.999999 c 0,15.740115 -12.7599,28.499999 -28.50002,28.499999 -15.740099,0 -28.499991,-12.759884 -28.499991,-28.499999 0,-15.740116 12.759892,-28.5000013 28.499991,-28.5000013 15.74012,0 28.50002,12.7598853 28.50002,28.5000013 z" />
  <path
     id="rect904"
     style="fill:url(#linearGradient2906);stroke-width:2.70242;stroke-linecap:round;stroke-linejoin:round;fill-opacity:1"
     d="m 31.814453,20.085936 c -3.106791,0 -5.607422,2.58397 -5.607421,5.792969 v 0.957031 15.167969 c 0,1.058639 0.851516,1.910156 1.910156,1.910156 1.058639,0 1.912109,-0.851517 1.912109,-1.910156 V 38.017576 C 30.029986,36.759553 30.855621,36.421873 32,36.421873 c 1.114056,0 1.970703,0.332785 1.970703,1.595703 v 3.986329 c 0,1.058639 0.853473,1.910156 1.91211,1.910156 1.058641,0 1.910156,-0.851517 1.910156,-1.910156 V 26.835936 26.119139 25.878905 c 0,-3.208999 -2.500631,-5.792969 -5.607422,-5.792969 z m 0.1875,3.349609 c 1.092222,0 1.972657,0.87848 1.972657,1.970703 v 5.28125 c 0,1.990775 -1.097475,1.941407 -1.789063,1.941407 h -0.371094 c -0.696487,-0.04994 -1.786246,-0.04826 -1.783203,-1.941407 v -5.28125 c 0,-1.092223 0.87848,-1.970703 1.970703,-1.970703 z m -11.542968,1.876953 c -1.058639,0 -1.91211,0.851518 -1.91211,1.910157 v 9.554687 c 0,1.058639 0.853471,1.910156 1.91211,1.910156 1.058638,0 1.910156,-0.851517 1.910156,-1.910156 v -9.554687 c 0,-1.058639 -0.851518,-1.910157 -1.910156,-1.910157 z m 23.082031,0 c -1.058639,0 -1.910156,0.851518 -1.910156,1.910157 v 9.554687 c 0,1.058639 0.851517,1.910156 1.910156,1.910156 1.058638,0 1.910156,-0.851517 1.910156,-1.910156 v -9.554687 c 0,-1.058639 -0.851518,-1.910157 -1.910156,-1.910157 z m -30.373047,3.34375 c -1.058639,0 -1.91211,0.851518 -1.91211,1.910157 v 2.867187 c 0,1.058639 0.853471,1.910156 1.91211,1.910156 1.058638,0 1.910156,-0.851517 1.910156,-1.910156 v -2.867187 c 0,-1.058639 -0.851518,-1.910157 -1.910156,-1.910157 z m 37.664063,0 c -1.058639,0 -1.910157,0.851518 -1.910157,1.910157 v 2.867187 c 0,1.058639 0.851518,1.910156 1.910157,1.910156 1.058638,0 1.912109,-0.851517 1.912109,-1.910156 v -2.867187 c 0,-1.058639 -0.853471,-1.910157 -1.912109,-1.910157 z" />
  <path
     id="path3589"
     style="fill:#ffffff;fill-opacity:0.28971961;stroke:none;stroke-width:2.70242;stroke-linecap:round;stroke-linejoin:round;stroke-opacity:1"
     d="M 31.814453 20.085938 C 28.707662 20.085938 26.20703 22.669907 26.207031 25.878906 L 26.207031 26.835938 L 26.207031 42.003906 C 26.207031 42.841995 26.744561 43.542041 27.492188 43.800781 C 27.022878 43.453475 26.714844 42.901101 26.714844 42.269531 L 26.714844 27.101562 L 26.714844 26.144531 C 26.714843 22.935532 29.215475 20.351562 32.322266 20.351562 L 32.693359 20.351562 C 33.501954 20.351562 34.267864 20.530169 34.960938 20.845703 C 34.142911 20.364843 33.197796 20.085938 32.185547 20.085938 L 31.814453 20.085938 z M 33.164062 23.820312 C 33.65332 24.178191 33.974609 24.751095 33.974609 25.40625 L 33.974609 30.6875 C 33.974609 32.678275 32.877135 32.628906 32.185547 32.628906 L 31.814453 32.628906 C 31.583981 32.612381 31.311579 32.595279 31.048828 32.519531 C 31.424135 32.853031 31.933785 32.866676 32.322266 32.894531 L 32.693359 32.894531 C 33.384947 32.894531 34.482422 32.9439 34.482422 30.953125 L 34.482422 25.671875 C 34.482422 24.810378 33.931449 24.08966 33.164062 23.820312 z M 20.458984 25.3125 C 19.400345 25.3125 18.546875 26.164017 18.546875 27.222656 L 18.546875 36.777344 C 18.546875 37.615214 19.084202 38.315311 19.832031 38.574219 C 19.362161 38.226912 19.054688 37.674539 19.054688 37.042969 L 19.054688 27.488281 C 19.054688 26.429642 19.908158 25.578125 20.966797 25.578125 C 21.186183 25.578125 21.393983 25.62205 21.589844 25.689453 C 21.273047 25.456022 20.884634 25.3125 20.458984 25.3125 z M 43.541016 25.3125 C 42.482377 25.3125 41.630859 26.164017 41.630859 27.222656 L 41.630859 36.777344 C 41.630859 37.615433 42.16839 38.315478 42.916016 38.574219 C 42.446706 38.226912 42.138672 37.674539 42.138672 37.042969 L 42.138672 27.488281 C 42.138672 26.429642 42.990189 25.578125 44.048828 25.578125 C 44.268214 25.578125 44.476014 25.62205 44.671875 25.689453 C 44.355079 25.456022 43.966665 25.3125 43.541016 25.3125 z M 13.167969 28.65625 C 12.10933 28.65625 11.255859 29.507767 11.255859 30.566406 L 11.255859 33.433594 C 11.255859 34.271464 11.793186 34.971561 12.541016 35.230469 C 12.071145 34.883162 11.763672 34.330789 11.763672 33.699219 L 11.763672 30.832031 C 11.763672 29.773392 12.617142 28.921875 13.675781 28.921875 C 13.895167 28.921875 14.102967 28.9658 14.298828 29.033203 C 13.982032 28.799772 13.593618 28.65625 13.167969 28.65625 z M 50.832031 28.65625 C 49.773392 28.65625 48.921875 29.507767 48.921875 30.566406 L 48.921875 33.433594 C 48.921875 34.271683 49.459405 34.971728 50.207031 35.230469 C 49.737722 34.883162 49.429688 34.330789 49.429688 33.699219 L 49.429688 30.832031 C 49.429688 29.773392 50.281205 28.921875 51.339844 28.921875 C 51.559888 28.921875 51.76835 28.965412 51.964844 29.033203 C 51.647503 28.799346 51.258107 28.65625 50.832031 28.65625 z M 33.482422 36.816406 C 33.784408 37.061985 33.970703 37.438983 33.970703 38.017578 L 33.970703 42.003906 C 33.970703 42.841777 34.50803 43.541874 35.255859 43.800781 C 34.785989 43.453475 34.478516 42.901101 34.478516 42.269531 L 34.478516 38.283203 C 34.478516 37.428228 34.081713 37.004145 33.482422 36.816406 z " />
</svg>
