<?xml version="1.0" encoding="UTF-8" standalone="no"?>
<svg
   width="64"
   height="64"
   viewBox="0 0 64 64"
   version="1.1"
   id="svg60"
   sodipodi:docname="cinelerra.svg"
   inkscape:version="1.1.2 (0a00cf5339, 2022-02-04)"
   xmlns:inkscape="http://www.inkscape.org/namespaces/inkscape"
   xmlns:sodipodi="http://sodipodi.sourceforge.net/DTD/sodipodi-0.dtd"
   xmlns:xlink="http://www.w3.org/1999/xlink"
   xmlns="http://www.w3.org/2000/svg"
   xmlns:svg="http://www.w3.org/2000/svg">
  <sodipodi:namedview
     id="namedview62"
     pagecolor="#ffffff"
     bordercolor="#666666"
     borderopacity="1.0"
     inkscape:pageshadow="2"
     inkscape:pageopacity="0.0"
     inkscape:pagecheckerboard="0"
     showgrid="false"
     inkscape:zoom="2.4609375"
     inkscape:cx="-85.739682"
     inkscape:cy="78.222222"
     inkscape:window-width="1920"
     inkscape:window-height="996"
     inkscape:window-x="0"
     inkscape:window-y="0"
     inkscape:window-maximized="1"
     inkscape:current-layer="svg60" />
  <defs
     id="defs7">
    <linearGradient
       inkscape:collect="always"
       id="linearGradient1782">
      <stop
         style="stop-color:#363636;stop-opacity:0.90196079"
         offset="0"
         id="stop1778" />
      <stop
         style="stop-color:#1a1a1a;stop-opacity:0.90980393"
         offset="1"
         id="stop1780" />
    </linearGradient>
    <linearGradient
       id="linear0"
       gradientUnits="userSpaceOnUse"
       x1="32"
       y1="55.999996"
       x2="32"
       y2="8">
      <stop
         offset="0"
         style="stop-color:rgb(0%,0%,0%);stop-opacity:0.2;"
         id="stop2" />
      <stop
         offset="1"
         style="stop-color:rgb(100%,100%,100%);stop-opacity:0;"
         id="stop4" />
    </linearGradient>
    <linearGradient
       inkscape:collect="always"
       xlink:href="#linearGradient1782"
       id="linearGradient1784"
       x1="32.343651"
       y1="8.2539682"
       x2="32.343651"
       y2="55.578571"
       gradientUnits="userSpaceOnUse" />
    <linearGradient
       x1="20"
       y1="26.000008"
       x2="20"
       y2="13.000008"
       id="linearGradient4069"
       xlink:href="#linearGradient3680-6-6-6-3-7-1"
       gradientUnits="userSpaceOnUse"
       gradientTransform="matrix(1.326882,0,0,1.326882,50.91496,-7.1915322)" />
    <linearGradient
       id="linearGradient3680-6-6-6-3-7-1">
      <stop
         id="stop3682-4-6-1-3-7-7"
         style="stop-color:#dcdcdc;stop-opacity:1"
         offset="0" />
      <stop
         id="stop3684-8-5-8-0-2-6"
         style="stop-color:#ffffff;stop-opacity:1"
         offset="1" />
    </linearGradient>
    <linearGradient
       x1="23.99999"
       y1="4.999989"
       x2="23.99999"
       y2="43"
       id="linearGradient3180"
       xlink:href="#linearGradient3924-2-2-5-8"
       gradientUnits="userSpaceOnUse"
       gradientTransform="matrix(1.5279254,0,0,1.2637488,-32.606776,58.297312)" />
    <linearGradient
       id="linearGradient3924-2-2-5-8">
      <stop
         id="stop3926-9-4-9-6"
         style="stop-color:#ffffff;stop-opacity:1"
         offset="0" />
      <stop
         id="stop3928-9-8-6-5"
         style="stop-color:#ffffff;stop-opacity:0.23529412"
         offset="0.06316455" />
      <stop
         id="stop3930-3-5-1-7"
         style="stop-color:#ffffff;stop-opacity:0.15686275"
         offset="0.95056331" />
      <stop
         id="stop3932-8-0-4-8"
         style="stop-color:#ffffff;stop-opacity:0.39215687"
         offset="1" />
    </linearGradient>
    <radialGradient
       cx="7.1183534"
       cy="9.9571075"
       r="12.671875"
       fx="7.1183534"
       fy="9.9571075"
       id="radialGradient3988-3"
       xlink:href="#linearGradient2867-449-88-871-390-598-476-591-434-148-57-177-8-3-3-6-4-8-8-8-5-7"
       gradientUnits="userSpaceOnUse"
       gradientTransform="matrix(0,11.34166,-16.879878,0,173.38835,-39.040573)" />
    <linearGradient
       id="linearGradient2867-449-88-871-390-598-476-591-434-148-57-177-8-3-3-6-4-8-8-8-5-7">
      <stop
         id="stop3750-1-0-7-6-6-1-3-9-3-9"
         style="stop-color:#505050;stop-opacity:1"
         offset="0" />
      <stop
         id="stop3752-3-7-4-0-32-8-923-0-7-0"
         style="stop-color:#2b2b2b;stop-opacity:1"
         offset="0.26238" />
      <stop
         id="stop3754-1-8-5-2-7-6-7-1-9-1"
         style="stop-color:#0a0a0a;stop-opacity:1"
         offset="0.704952" />
      <stop
         id="stop3756-1-6-2-6-6-1-96-6-0-1"
         style="stop-color:#000000;stop-opacity:1"
         offset="1" />
    </linearGradient>
    <radialGradient
       cx="4.9929786"
       cy="43.5"
       r="2.5"
       fx="4.9929786"
       fy="43.5"
       id="radialGradient3337-2-2"
       xlink:href="#linearGradient3688-166-749-4-0-3-8"
       gradientUnits="userSpaceOnUse"
       gradientTransform="matrix(2.003784,0,0,1.4,27.98813,-17.4)" />
    <linearGradient
       id="linearGradient3688-166-749-4-0-3-8">
      <stop
         id="stop2883-4-0-1-8"
         style="stop-color:#181818;stop-opacity:1"
         offset="0" />
      <stop
         id="stop2885-9-2-9-6"
         style="stop-color:#181818;stop-opacity:0"
         offset="1" />
    </linearGradient>
    <radialGradient
       cx="4.9929786"
       cy="43.5"
       r="2.5"
       fx="4.9929786"
       fy="43.5"
       id="radialGradient3339-1-4"
       xlink:href="#linearGradient3688-166-749-4-0-3-8"
       gradientUnits="userSpaceOnUse"
       gradientTransform="matrix(2.003784,0,0,1.4,-20.01187,-104.4)" />
    <linearGradient
       id="linearGradient3702-501-757-8-4-1-1">
      <stop
         id="stop2895-8-9-9-1"
         style="stop-color:#181818;stop-opacity:0"
         offset="0" />
      <stop
         id="stop2897-7-8-7-7"
         style="stop-color:#181818;stop-opacity:1"
         offset="0.5" />
      <stop
         id="stop2899-4-5-1-5"
         style="stop-color:#181818;stop-opacity:0"
         offset="1" />
    </linearGradient>
    <linearGradient
       x1="25.058096"
       y1="47.027729"
       x2="25.058096"
       y2="39.999443"
       id="linearGradient4159"
       xlink:href="#linearGradient3702-501-757-8-4-1-1"
       gradientUnits="userSpaceOnUse" />
    <linearGradient
       inkscape:collect="always"
       xlink:href="#linearGradient3680-6-6-6-3-7-1"
       id="linearGradient3815"
       x1="26"
       y1="40"
       x2="26"
       y2="23"
       gradientUnits="userSpaceOnUse" />
    <linearGradient
       inkscape:collect="always"
       xlink:href="#linearGradient3680-6-6-6-3-7-1"
       id="linearGradient3823"
       x1="38"
       y1="44"
       x2="38"
       y2="26"
       gradientUnits="userSpaceOnUse" />
    <linearGradient
       x1="54.596001"
       y1="42.034893"
       x2="54.596001"
       y2="9.693037"
       id="linearGradient3024-0"
       xlink:href="#linearGradient3680-6-6-6-3-7-1"
       gradientUnits="userSpaceOnUse"
       gradientTransform="matrix(1.3725993,0,0,1.3725993,-53.406538,-0.25831827)" />
    <radialGradient
       cx="62.625"
       cy="4.625"
       r="10.625"
       fx="62.625"
       fy="4.625"
       id="radialGradient4443"
       xlink:href="#linearGradient8838"
       gradientUnits="userSpaceOnUse"
       gradientTransform="matrix(0.75491648,0,0,0.37751843,-1.9922805,58.242811)" />
    <linearGradient
       id="linearGradient8838">
      <stop
         id="stop8840"
         style="stop-color:#000000;stop-opacity:1"
         offset="0" />
      <stop
         id="stop8842"
         style="stop-color:#000000;stop-opacity:0"
         offset="1" />
    </linearGradient>
    <radialGradient
       cx="62.625"
       cy="4.625"
       r="10.625"
       fx="62.625"
       fy="4.625"
       id="radialGradient4440"
       xlink:href="#linearGradient8838"
       gradientUnits="userSpaceOnUse"
       gradientTransform="matrix(0.75491648,0,0,0.37751843,-19.234142,116.82638)" />
    <linearGradient
       id="linearGradient3764">
      <stop
         id="stop3766"
         style="stop-color:#d1d1d1;stop-opacity:1"
         offset="0" />
      <stop
         id="stop3768"
         style="stop-color:#eaeaea;stop-opacity:1"
         offset="1" />
    </linearGradient>
    <linearGradient
       id="linearGradient4685-6">
      <stop
         id="stop4687-7"
         style="stop-color:#ffffff;stop-opacity:1"
         offset="0" />
      <stop
         id="stop4689-3"
         style="stop-color:#ffffff;stop-opacity:0"
         offset="1" />
    </linearGradient>
    <linearGradient
       id="linearGradient3242-7">
      <stop
         offset="0"
         style="stop-color:#f89b7e;stop-opacity:1"
         id="stop3244-6" />
      <stop
         offset="0.26238"
         style="stop-color:#e35d4f;stop-opacity:1"
         id="stop3246-7" />
      <stop
         offset="0.66093999"
         style="stop-color:#c6262e;stop-opacity:1"
         id="stop3248-8" />
      <stop
         offset="1"
         style="stop-color:#690b2c;stop-opacity:1"
         id="stop3250-6" />
    </linearGradient>
    <linearGradient
       id="linearGradient4917">
      <stop
         id="stop4919"
         style="stop-color:#ffffff;stop-opacity:1"
         offset="0" />
      <stop
         id="stop4921"
         style="stop-color:#ffffff;stop-opacity:0.23529412"
         offset="0.44444457" />
      <stop
         id="stop4923"
         style="stop-color:#ffffff;stop-opacity:0.15686275"
         offset="0.77777803" />
      <stop
         id="stop4925"
         style="stop-color:#ffffff;stop-opacity:0.39215687"
         offset="1" />
    </linearGradient>
    <radialGradient
       cx="4.9929786"
       cy="43.5"
       r="2.5"
       fx="4.9929786"
       fy="43.5"
       id="radialGradient3337-2-2-3"
       xlink:href="#linearGradient3688-166-749-4-0-3-8"
       gradientUnits="userSpaceOnUse"
       gradientTransform="matrix(2.003784,0,0,1.4,27.98813,-17.4)" />
    <radialGradient
       cx="4.9929786"
       cy="43.5"
       r="2.5"
       fx="4.9929786"
       fy="43.5"
       id="radialGradient3339-1-4-5"
       xlink:href="#linearGradient3688-166-749-4-0-3-8"
       gradientUnits="userSpaceOnUse"
       gradientTransform="matrix(2.003784,0,0,1.4,-20.01187,-104.4)" />
    <linearGradient
       x1="25.058096"
       y1="47.027729"
       x2="25.058096"
       y2="39.999443"
       id="linearGradient4159-3"
       xlink:href="#linearGradient3702-501-757-8-4-1-1"
       gradientUnits="userSpaceOnUse" />
  </defs>
  <g
     transform="matrix(1.6842107,0,0,0.62848172,-7.1889142,29.437423)"
     id="g3712-8-2-4-4-9"
     style="opacity:0.6">
    <rect
       width="5"
       height="7"
       x="38"
       y="40"
       id="rect2801-5-5-7-9-1"
       style="fill:url(#radialGradient3337-2-2-3);fill-opacity:1;stroke:none" />
    <rect
       width="5"
       height="7"
       x="-10"
       y="-47"
       transform="scale(-1)"
       id="rect3696-3-0-3-7-2"
       style="fill:url(#radialGradient3339-1-4-5);fill-opacity:1;stroke:none" />
    <rect
       width="28"
       height="7.0000005"
       x="10"
       y="40"
       id="rect3700-5-6-8-4-7"
       style="fill:url(#linearGradient4159-3);fill-opacity:1;stroke:none" />
  </g>
  <g
     id="surface1">
    <path
       style=" stroke:none;fill-rule:nonzero;fill:rgb(38.039216%,38.039216%,38.039216%);fill-opacity:0.996078;"
       d="M 4 20 L 60 20 L 60 12 C 60 9.785156 58.214844 8 56 8 L 8 8 C 5.785156 8 4 9.785156 4 12 Z M 4 20 "
       id="path9" />
    <path
       style=" stroke:none;fill-rule:nonzero;fill:rgb(87.843138%,87.843138%,87.843138%);fill-opacity:1;"
       d="M 12.800781 8 L 8 14 L 12 20 L 18 20 L 14 14 L 18.800781 8 Z M 24.800781 8 L 20 14 L 24 20 L 30 20 L 26 14 L 30.800781 8 Z M 36.800781 8 L 32 14 L 36 20 L 42 20 L 38 14 L 42.800781 8 Z M 48.800781 8 L 44 14 L 48 20 L 54 20 L 50 14 L 54.800781 8 Z M 59.347656 9.8125 L 56 14 L 60 20 L 60 12 C 60 11.191406 59.757812 10.441406 59.347656 9.8125 Z M 59.347656 9.8125 "
       id="path11" />
    <path
       style=" stroke:none;fill-rule:nonzero;fill:rgb(100%,100%,100%);fill-opacity:0.4;"
       d="M 8 8 C 5.785156 8 4 9.785156 4 12 L 4 13 C 4 10.785156 5.785156 9 8 9 L 56 9 C 58.214844 9 60 10.785156 60 13 L 60 12 C 60 9.785156 58.214844 8 56 8 Z M 8 8 "
       id="path13" />
    <path
       style="stroke:none;fill-rule:nonzero;fill:url(#linearGradient1784);fill-opacity:1"
       d="M 8 8 C 5.785156 8 4 9.785156 4 12 L 4 52 C 4 54.214844 5.785156 56 8 56 L 56 56 C 58.214844 56 60 54.214844 60 52 L 60 20 L 14 20 L 14 12 C 14 9.785156 12.214844 8 10 8 Z M 8 8 "
       id="path15" />
    <path
       style=" stroke:none;fill-rule:nonzero;fill:rgb(100%,100%,100%);fill-opacity:0.4;"
       d="M 8 8 C 5.785156 8 4 9.785156 4 12 L 4 13 C 4 10.785156 5.785156 9 8 9 L 10 9 C 12.214844 9 14 10.785156 14 13 L 14 12 C 14 9.785156 12.214844 8 10 8 Z M 14 20 L 14 21 L 60 21 L 60 20 Z M 14 20 "
       id="path17" />
    <path
       style=" stroke:none;fill-rule:nonzero;fill:rgb(0%,0%,0%);fill-opacity:0.4;"
       d="M 4 50.96875 L 4 52 C 4 54.214844 5.785156 56 8 56 L 56 56 C 58.214844 56 60 54.214844 60 52 L 60 50.96875 C 60 53.183594 58.214844 54.96875 56 54.96875 L 8 54.96875 C 5.785156 54.96875 4 53.183594 4 50.96875 Z M 4 50.96875 "
       id="path19" />
    <path
       style=" stroke:none;fill-rule:nonzero;fill:rgb(0%,0%,0%);fill-opacity:0.4;"
       d="M 9 11 C 10.65625 11 12 12.34375 12 14 C 12 15.65625 10.65625 17 9 17 C 7.34375 17 6 15.65625 6 14 C 6 12.34375 7.34375 11 9 11 Z M 9 11 "
       id="path21" />
    <path
       style=" stroke:none;fill-rule:nonzero;fill:rgb(0%,0%,0%);fill-opacity:0.4;"
       d="M 8.921875 11 C 7.296875 11.039062 6 12.363281 6 14 C 6 14.085938 6.003906 14.167969 6.007812 14.25 C 6.136719 12.707031 7.421875 11.5 9 11.5 C 10.578125 11.5 11.863281 12.707031 11.988281 14.25 C 11.996094 14.167969 12 14.085938 12 14 C 12 12.339844 10.660156 11 9 11 C 8.972656 11 8.949219 11 8.921875 11 Z M 8.921875 11 "
       id="path23" />
    <path
       style=" stroke:none;fill-rule:nonzero;fill:rgb(99.607843%,99.607843%,99.607843%);fill-opacity:0.4;"
       d="M 8.921875 17.5 C 7.296875 17.460938 6 16.136719 6 14.5 C 6 14.417969 6.003906 14.332031 6.007812 14.25 C 6.136719 15.792969 7.421875 17 9 17 C 10.578125 17 11.863281 15.792969 11.988281 14.25 C 11.996094 14.332031 12 14.417969 12 14.5 C 12 16.160156 10.660156 17.5 9 17.5 C 8.972656 17.5 8.949219 17.5 8.921875 17.5 Z M 8.921875 17.5 "
       id="path25" />
    <path
       style=" stroke:none;fill-rule:nonzero;fill:rgb(87.843138%,87.843138%,87.843138%);fill-opacity:0.996078;"
       d="M 9 12 C 10.105469 12 11 12.894531 11 14 C 11 15.105469 10.105469 16 9 16 C 7.894531 16 7 15.105469 7 14 C 7 12.894531 7.894531 12 9 12 Z M 9 12 "
       id="path27" />
    <path
       style=" stroke:none;fill-rule:nonzero;fill:rgb(100%,100%,100%);fill-opacity:0.4;"
       d="M 8.949219 12 C 7.863281 12.027344 7 12.910156 7 14 C 7 14.085938 7.003906 14.167969 7.015625 14.25 C 7.136719 13.261719 7.976562 12.5 9 12.5 C 10.023438 12.5 10.863281 13.261719 10.984375 14.25 C 10.996094 14.167969 11 14.085938 11 14 C 11 12.890625 10.109375 12 9 12 C 8.984375 12 8.964844 12 8.945312 12 Z M 8.949219 12 "
       id="path29" />
    <path
       style=" stroke:none;fill-rule:nonzero;fill:rgb(0.784314%,0.784314%,0.784314%);fill-opacity:0.4;"
       d="M 8.949219 16.5 C 7.863281 16.472656 7 15.589844 7 14.5 C 7 14.414062 7.003906 14.332031 7.015625 14.25 C 7.136719 15.238281 7.976562 16 9 16 C 10.023438 16 10.863281 15.238281 10.984375 14.25 C 10.996094 14.332031 11 14.414062 11 14.5 C 11 15.609375 10.109375 16.5 9 16.5 C 8.984375 16.5 8.964844 16.5 8.945312 16.5 Z M 8.949219 16.5 "
       id="path31" />
    <path
       style=" stroke:none;fill-rule:nonzero;fill:rgb(0.784314%,0.784314%,0.784314%);fill-opacity:0.4;"
       d="M 14 13.5 L 60 13.5 L 60 14 L 14 14 Z M 14 13.5 "
       id="path33" />
    <path
       style=" stroke:none;fill-rule:nonzero;fill:rgb(99.607843%,99.607843%,99.607843%);fill-opacity:0.4;"
       d="M 14 14 L 60 14 L 60 14.5 L 14 14.5 Z M 14 14 "
       id="path35" />
    <path
       style="stroke:none;fill-rule:nonzero;fill:#a350df;fill-opacity:1"
       d="M 10 24 L 54 24 C 55.105469 24 56 24.894531 56 26 L 56 50 C 56 51.105469 55.105469 52 54 52 L 10 52 C 8.894531 52 8 51.105469 8 50 L 8 26 C 8 24.894531 8.894531 24 10 24 Z M 10 24 "
       id="path37" />
    <path
       style=" stroke:none;fill-rule:nonzero;fill:rgb(0%,0%,0%);fill-opacity:0.4;"
       d="M 10 24 C 8.890625 24 8 24.890625 8 26 L 8 26.5 C 8 25.390625 8.890625 24.5 10 24.5 L 54 24.5 C 55.109375 24.5 56 25.390625 56 26.5 L 56 26 C 56 24.890625 55.109375 24 54 24 Z M 10 24 "
       id="path39" />
    <path
       style=" stroke:none;fill-rule:nonzero;fill:rgb(99.607843%,99.607843%,99.607843%);fill-opacity:0.4;"
       d="M 10 52.5 C 8.890625 52.5 8 51.609375 8 50.5 L 8 50 C 8 51.109375 8.890625 52 10 52 L 54 52 C 55.109375 52 56 51.109375 56 50 L 56 50.5 C 56 51.609375 55.109375 52.5 54 52.5 Z M 10 52.5 "
       id="path41" />
    <path
       style=" stroke:none;fill-rule:nonzero;fill:rgb(93.333334%,93.333334%,93.333334%);fill-opacity:1;"
       d="M 12 28 L 52 28 L 52 28.5 L 12 28.5 Z M 12 28 "
       id="path43" />
    <path
       style=" stroke:none;fill-rule:nonzero;fill:rgb(93.333334%,93.333334%,93.333334%);fill-opacity:1;"
       d="M 12 32 L 52 32 L 52 32.5 L 12 32.5 Z M 12 32 "
       id="path45" />
    <path
       style=" stroke:none;fill-rule:nonzero;fill:rgb(93.333334%,93.333334%,93.333334%);fill-opacity:1;"
       d="M 12 36 L 52 36 L 52 36.5 L 12 36.5 Z M 12 36 "
       id="path47" />
    <path
       style=" stroke:none;fill-rule:nonzero;fill:rgb(93.333334%,93.333334%,93.333334%);fill-opacity:1;"
       d="M 12 40 L 52 40 L 52 40.5 L 12 40.5 Z M 12 40 "
       id="path49" />
    <path
       style=" stroke:none;fill-rule:nonzero;fill:rgb(93.333334%,93.333334%,93.333334%);fill-opacity:1;"
       d="M 12 44 L 52 44 L 52 44.5 L 12 44.5 Z M 12 44 "
       id="path51" />
    <path
       style=" stroke:none;fill-rule:nonzero;fill:rgb(93.333334%,93.333334%,93.333334%);fill-opacity:1;"
       d="M 12 48 L 52 48 L 52 48.5 L 12 48.5 Z M 12 48 "
       id="path53" />
    <path
       style=" stroke:none;fill-rule:nonzero;fill:rgb(0%,0%,0%);fill-opacity:0.2;"
       d="M 4 52 L 4 53.5 C 4 55.71875 5.785156 57.5 8 57.5 L 56 57.5 C 58.214844 57.5 60 55.71875 60 53.5 L 60 52 C 60 54.21875 58.214844 56 56 56 L 8 56 C 5.785156 56 4 54.21875 4 52 Z M 4 52 "
       id="path57" />
  </g>
</svg>
