<?xml version="1.0" encoding="UTF-8" standalone="no"?>
<svg
   width="64"
   height="64"
   viewBox="0 0 64 64"
   version="1.1"
   id="svg9"
   sodipodi:docname="info.febvre.Komikku.svg"
   inkscape:version="1.4 (1:1.4+202410161351+e7c3feb100)"
   xmlns:inkscape="http://www.inkscape.org/namespaces/inkscape"
   xmlns:sodipodi="http://sodipodi.sourceforge.net/DTD/sodipodi-0.dtd"
   xmlns="http://www.w3.org/2000/svg"
   xmlns:svg="http://www.w3.org/2000/svg">
  <sodipodi:namedview
     id="namedview9"
     pagecolor="#ffffff"
     bordercolor="#666666"
     borderopacity="1.0"
     inkscape:showpageshadow="2"
     inkscape:pageopacity="0.0"
     inkscape:pagecheckerboard="0"
     inkscape:deskcolor="#d1d1d1"
     inkscape:zoom="8.5626208"
     inkscape:cx="26.452182"
     inkscape:cy="40.466582"
     inkscape:window-width="1920"
     inkscape:window-height="1056"
     inkscape:window-x="0"
     inkscape:window-y="0"
     inkscape:window-maximized="1"
     inkscape:current-layer="svg9" />
  <defs
     id="defs2">
    <linearGradient
       id="linear0"
       gradientUnits="userSpaceOnUse"
       x1="10.054166"
       y1="-199.125"
       x2="10.054166"
       y2="-213.941666"
       gradientTransform="matrix(3.779528,0,0,3.779528,-0.00126458,812.59847)">
      <stop
         offset="0"
         style="stop-color:#030305;stop-opacity:0.2;"
         id="stop1" />
      <stop
         offset="1"
         style="stop-color:rgb(100%,100%,100%);stop-opacity:0;"
         id="stop2" />
    </linearGradient>
  </defs>
  <path
     style="fill:#fffcfc;fill-opacity:1;fill-rule:nonzero;stroke:none"
     d="m 8,4 h 48 c 2.210938,0 4,1.789062 4,4 v 48 c 0,2.210938 -1.789062,4 -4,4 H 8 C 5.789062,60 4,58.210938 4,56 V 8 C 4,5.789062 5.789062,4 8,4 Z m 0,0"
     id="path2" />
  <path
     style="fill:#ed5353;fill-opacity:1;fill-rule:nonzero;stroke:none"
     d="m 8,4 h 48 c 2.210938,0 4,1.789062 4,4 v 35.447742 c 0,2.210938 -1.789062,4 -4,4 H 8 c -2.210938,0 -4,-1.789062 -4,-4 V 8 C 4,5.789062 5.789062,4 8,4 Z"
     id="path12"
     sodipodi:nodetypes="sssssssss" />
  <path
     style="fill:#000000;fill-opacity:0.4;fill-rule:nonzero;stroke:none"
     d="m 4,55 v 1 c 0,2.214844 1.785156,4 4,4 h 48 c 2.214844,0 4,-1.785156 4,-4 v -1 c 0,2.214844 -1.785156,4 -4,4 H 8 C 5.785156,59 4,57.214844 4,55 Z m 0,0"
     id="path3" />
  <path
     style="fill:#000000;fill-opacity:0.2;fill-rule:nonzero;stroke:none"
     d="m 4,56 v 1.5 c 0,2.214844 1.785156,4 4,4 h 48 c 2.214844,0 4,-1.785156 4,-4 V 56 c 0,2.214844 -1.785156,4 -4,4 H 8 C 5.785156,60 4,58.214844 4,56 Z m 0,0"
     id="path4" />
  <path
     style="fill:#ffffff;fill-opacity:0.4;fill-rule:nonzero;stroke:none"
     d="M 8,4 C 5.785156,4 4,5.785156 4,8 v 0.984375 c 0,-2.214844 1.785156,-4 4,-4 h 48 c 2.214844,0 4,1.785156 4,4 V 8 C 60,5.785156 58.214844,4 56,4 Z m 0,0"
     id="path5" />
  <path
     style="fill:url(#linear0);fill-rule:nonzero;stroke:none"
     d="m 8,4 h 48 c 2.210938,0 4,1.789062 4,4 v 48 c 0,2.210938 -1.789062,4 -4,4 H 8 C 5.789062,60 4,58.210938 4,56 V 8 C 4,5.789062 5.789062,4 8,4 Z m 0,0"
     id="path9" />
  <path
     style="fill:#121d22;fill-opacity:0.116235;stroke:none;stroke-width:0.5;stroke-dasharray:none;stroke-opacity:1"
     d="m 26.233037,17.400217 c -0.655645,-0.411509 -0.9243,-0.743061 -0.715349,-0.884852 0.09167,-0.06185 1.336879,-0.159924 2.767567,-0.216416 1.990393,-0.07995 3.237717,-0.265451 5.313393,-0.788909 4.03515,-1.018114 4.409345,-1.059692 5.286739,-0.58848 1.460542,0.783576 1.843266,1.479734 1.159904,2.108726 -0.445628,0.410446 -0.846475,0.440296 -7.332563,0.550103 -4.64815,0.07785 -6.135345,0.03627 -6.479691,-0.180192 z m -4.738768,22.886807 -0.39874,-0.784639 0.01812,-6.890135 c 0.01934,-7.364546 -0.02337,-8.059637 -0.551166,-9.112932 -0.749461,-1.495725 0.438164,-2.17589 1.879514,-1.075685 0.723876,0.552233 0.723876,0.5533 0.799569,1.675892 0.104476,1.554361 0.09807,7.897588 -0.01167,12.163013 -0.109801,4.236639 -0.216414,4.808063 -0.897648,4.808063 -0.333667,0 -0.535177,-0.188692 -0.837945,-0.783577 z m 4.885887,-5.272877 c -0.248407,-1.059692 -0.388063,-3.320867 -0.474411,-7.713154 -0.07994,-4.041547 -0.117248,-4.596976 -0.358207,-5.343242 -0.148199,-0.457351 -0.269722,-0.899779 -0.269722,-0.981868 0,-0.349664 1.00639,-0.111923 1.283571,0.302763 0.235593,0.352888 0.485073,0.418973 1.120458,0.300627 0.448826,-0.08422 5.882684,-1.03304 5.882684,-1.03304 6.055386,-1.201484 7.82403,-1.026645 8.077761,0.799567 0.0395,0.28999 -0.03425,1.134319 -0.164194,1.876317 -0.360342,2.062886 -2.301684,11.138506 -2.415759,11.299483 -0.05545,0.07889 -2.5213,0.212144 -5.478632,0.297446 -3.25264,0.09276 -6.099101,0.264403 -6.237688,0.434964 -0.365661,0.446693 -0.832618,0.330485 -0.965878,-0.239866 z m 5.071387,-1.865656 c 0.277177,-0.169512 0.476543,-1.328344 0.609805,-3.539416 0.06181,-1.035172 0.03828,-1.312354 -0.121531,-1.453078 -0.1098,-0.09594 -0.864599,-0.01497 -1.676955,0.179102 -1.847535,0.441362 -2.62045,0.671636 -2.493586,2.995712 0.04689,0.861398 0.148199,1.658833 0.224955,1.770775 0.164193,0.238817 3.082067,0.277176 3.45733,0.04691 z m 6.108691,-1.740922 c 0.417909,-1.732395 1.118329,-6.579902 1.197223,-8.277118 0.06291,-1.386982 0.0533,-1.44988 -0.26118,-1.630051 -0.50746,-0.291037 -3.008509,0.03183 -3.380571,0.437095 -0.184422,0.20042 -0.441363,0.874192 -0.57782,1.515982 -0.425371,2.008513 -0.41471,2.02877 1.086344,2.135375 0.852873,0.05972 1.385915,0.218552 1.482933,0.440295 0.262268,0.599144 -0.0533,0.937096 -1.128991,1.213212 -1.442418,0.369931 -1.539435,0.441359 -1.729195,1.288899 -0.257998,1.151378 -0.359254,2.987181 -0.201505,3.659887 0.130071,0.553298 0.218547,0.579951 1.678027,0.506392 l 1.541561,-0.07784 z m -7.394396,-4.594845 c 1.797429,-0.511721 1.860327,-0.571424 1.781436,-1.656706 l -0.192963,-1.624719 c -0.125791,-0.747331 -0.148198,-0.762254 -1.13432,-0.755855 -1.202551,0.0084 -2.544755,0.343297 -2.755842,1.002123 -0.202555,0.631122 -0.20469,3.061807 -0.0031,3.24731 0.224955,0.207872 0.80703,0.213231 2.304885,-0.212144 z m 12.344253,13.922059 c -0.07145,-0.16097 -0.130073,-0.433898 -0.130073,-0.605537 0,-0.172701 -0.132202,-0.508524 -0.293172,-0.747331 -0.272906,-0.405115 -0.815558,-0.432832 -8.293108,-0.432832 -6.539396,0 -8.046844,-0.06076 -8.25793,-0.332618 -0.348615,-0.449888 -0.151388,-0.702551 0.686563,-0.878456 1.130052,-0.23773 10.361322,-0.909374 13.299466,-0.96801 1.547961,-0.03102 2.866711,-0.128979 2.930678,-0.219599 0.114083,-0.158838 1.329414,-5.907201 1.329414,-5.907201 0,0 0.305986,-2.257978 0.423237,-3.667348 0.249454,-2.979719 0.363523,-3.565004 0.690826,-3.565004 0.269721,0.0011 1.550093,1.312355 1.820882,1.865658 0.142843,0.293174 0.157781,0.547968 0.07677,1.364594 -0.221733,2.232389 -1.782503,9.757915 -2.47013,11.906085 -0.605538,1.894441 -1.478666,2.946672 -1.813417,2.187615 z"
     id="path11" />
  <path
     style="fill:#121d22;fill-opacity:0.116235;stroke:none;stroke-width:0.5;stroke-dasharray:none;stroke-opacity:1"
     d="m 25.824284,16.787087 c -0.655645,-0.411509 -0.9243,-0.743061 -0.715349,-0.884852 0.09167,-0.06185 1.336879,-0.159924 2.767567,-0.216416 1.990393,-0.07995 3.237717,-0.265451 5.313393,-0.788909 4.03515,-1.018114 4.409345,-1.059692 5.286739,-0.58848 1.460542,0.783576 1.843266,1.479734 1.159904,2.108726 -0.445628,0.410446 -0.846475,0.440296 -7.332563,0.550103 -4.64815,0.07785 -6.135345,0.03627 -6.479691,-0.180192 z m -4.738768,22.886807 -0.39874,-0.784639 0.01812,-6.890135 c 0.01934,-7.364546 -0.02337,-8.059637 -0.551166,-9.112932 -0.749461,-1.495725 0.438164,-2.17589 1.879514,-1.075685 0.723876,0.552233 0.723876,0.5533 0.799569,1.675892 0.104476,1.554361 0.09807,7.897588 -0.01167,12.163013 -0.109801,4.236639 -0.216414,4.808063 -0.897648,4.808063 -0.333667,0 -0.535177,-0.188692 -0.837945,-0.783577 z m 4.885887,-5.272877 c -0.248407,-1.059692 -0.388063,-3.320867 -0.474411,-7.713154 -0.07994,-4.041547 -0.117248,-4.596976 -0.358207,-5.343242 -0.148199,-0.457351 -0.269722,-0.899779 -0.269722,-0.981868 0,-0.349664 1.00639,-0.111923 1.283571,0.302763 0.235593,0.352888 0.485073,0.418973 1.120458,0.300627 0.448826,-0.08422 5.882684,-1.03304 5.882684,-1.03304 6.055386,-1.201484 7.82403,-1.026645 8.077761,0.799567 0.0395,0.28999 -0.03425,1.134319 -0.164194,1.876317 -0.360342,2.062886 -2.301684,11.138506 -2.415759,11.299483 -0.05545,0.07889 -2.5213,0.212144 -5.478632,0.297446 -3.25264,0.09276 -6.099101,0.264403 -6.237688,0.434964 -0.365661,0.446693 -0.832618,0.330485 -0.965878,-0.239866 z m 5.071387,-1.865656 c 0.277177,-0.169512 0.476543,-1.328344 0.609805,-3.539416 0.06181,-1.035172 0.03828,-1.312354 -0.121531,-1.453078 -0.1098,-0.09594 -0.864599,-0.01497 -1.676955,0.179102 -1.847535,0.441362 -2.62045,0.671636 -2.493586,2.995712 0.04689,0.861398 0.148199,1.658833 0.224955,1.770775 0.164193,0.238817 3.082067,0.277176 3.45733,0.04691 z m 6.108691,-1.740922 c 0.417909,-1.732395 1.118329,-6.579902 1.197223,-8.277118 0.06291,-1.386982 0.0533,-1.44988 -0.26118,-1.630051 -0.50746,-0.291037 -3.008509,0.03183 -3.380571,0.437095 -0.184422,0.20042 -0.441363,0.874192 -0.57782,1.515982 -0.425371,2.008513 -0.41471,2.02877 1.086344,2.135375 0.852873,0.05972 1.385915,0.218552 1.482933,0.440295 0.262268,0.599144 -0.0533,0.937096 -1.128991,1.213212 -1.442418,0.369931 -1.539435,0.441359 -1.729195,1.288899 -0.257998,1.151378 -0.359254,2.987181 -0.201505,3.659887 0.130071,0.553298 0.218547,0.579951 1.678027,0.506392 l 1.541561,-0.07784 z m -7.394396,-4.594845 c 1.797429,-0.511721 1.860327,-0.571424 1.781436,-1.656706 l -0.192963,-1.624719 c -0.125791,-0.747331 -0.148198,-0.762254 -1.13432,-0.755855 -1.202551,0.0084 -2.544755,0.343297 -2.755842,1.002123 -0.202555,0.631122 -0.20469,3.061807 -0.0031,3.24731 0.224955,0.207872 0.80703,0.213231 2.304885,-0.212144 z m 12.344253,13.922059 c -0.07145,-0.16097 -0.130073,-0.433898 -0.130073,-0.605537 0,-0.172701 -0.132202,-0.508524 -0.293172,-0.747331 -0.272906,-0.405115 -0.815558,-0.432832 -8.293108,-0.432832 -6.539396,0 -8.046844,-0.06076 -8.25793,-0.332618 -0.348615,-0.449888 -0.151388,-0.702551 0.686563,-0.878456 1.130052,-0.23773 10.361322,-0.909374 13.299466,-0.96801 1.547961,-0.03102 2.866711,-0.128979 2.930678,-0.219599 0.114083,-0.158838 1.329414,-5.907201 1.329414,-5.907201 0,0 0.305986,-2.257978 0.423237,-3.667348 0.249454,-2.979719 0.363523,-3.565004 0.690826,-3.565004 0.269721,0.0011 1.550093,1.312355 1.820882,1.865658 0.142843,0.293174 0.157781,0.547968 0.07677,1.364594 -0.221733,2.232389 -1.782503,9.757915 -2.47013,11.906085 -0.605538,1.894441 -1.478666,2.946672 -1.813417,2.187615 z"
     id="path10" />
  <path
     style="fill:#f2f6f8;fill-opacity:1;stroke-width:0.5;stroke:none;stroke-opacity:1;stroke-dasharray:none"
     d="m 25.06274,16.111414 c -0.655645,-0.411509 -0.9243,-0.743061 -0.715349,-0.884852 0.09167,-0.06185 1.336879,-0.159924 2.767567,-0.216416 1.990393,-0.07995 3.237717,-0.265451 5.313393,-0.788909 4.03515,-1.018114 4.409345,-1.059692 5.286739,-0.58848 1.460542,0.783576 1.843266,1.479734 1.159904,2.108726 -0.445628,0.410446 -0.846475,0.440296 -7.332563,0.550103 -4.64815,0.07785 -6.135345,0.03627 -6.479691,-0.180192 z m -4.738768,22.886807 -0.39874,-0.784639 0.01812,-6.890135 c 0.01934,-7.364546 -0.02337,-8.059637 -0.551166,-9.112932 -0.749461,-1.495725 0.438164,-2.17589 1.879514,-1.075685 0.723876,0.552233 0.723876,0.5533 0.799569,1.675892 0.104476,1.554361 0.09807,7.897588 -0.01167,12.163013 -0.109801,4.236639 -0.216414,4.808063 -0.897648,4.808063 -0.333667,0 -0.535177,-0.188692 -0.837945,-0.783577 z m 4.885887,-5.272877 C 24.961452,32.665652 24.821796,30.404477 24.735448,26.01219 24.655508,21.970643 24.6182,21.415214 24.377241,20.668948 24.229042,20.211597 24.107519,19.769169 24.107519,19.68708 c 0,-0.349664 1.00639,-0.111923 1.283571,0.302763 0.235593,0.352888 0.485073,0.418973 1.120458,0.300627 0.448826,-0.08422 5.882684,-1.03304 5.882684,-1.03304 6.055386,-1.201484 7.82403,-1.026645 8.077761,0.799567 0.0395,0.28999 -0.03425,1.134319 -0.164194,1.876317 -0.360342,2.062886 -2.301684,11.138506 -2.415759,11.299483 -0.05545,0.07889 -2.5213,0.212144 -5.478632,0.297446 -3.25264,0.09276 -6.099101,0.264403 -6.237688,0.434964 -0.365661,0.446693 -0.832618,0.330485 -0.965878,-0.239866 z m 5.071387,-1.865656 c 0.277177,-0.169512 0.476543,-1.328344 0.609805,-3.539416 0.06181,-1.035172 0.03828,-1.312354 -0.121531,-1.453078 -0.1098,-0.09594 -0.864599,-0.01497 -1.676955,0.179102 -1.847535,0.441362 -2.62045,0.671636 -2.493586,2.995712 0.04689,0.861398 0.148199,1.658833 0.224955,1.770775 0.164193,0.238817 3.082067,0.277176 3.45733,0.04691 z m 6.108691,-1.740922 c 0.417909,-1.732395 1.118329,-6.579902 1.197223,-8.277118 0.06291,-1.386982 0.0533,-1.44988 -0.26118,-1.630051 -0.50746,-0.291037 -3.008509,0.03183 -3.380571,0.437095 -0.184422,0.20042 -0.441363,0.874192 -0.57782,1.515982 -0.425371,2.008513 -0.41471,2.02877 1.086344,2.135375 0.852873,0.05972 1.385915,0.218552 1.482933,0.440295 0.262268,0.599144 -0.0533,0.937096 -1.128991,1.213212 -1.442418,0.369931 -1.539435,0.441359 -1.729195,1.288899 -0.257998,1.151378 -0.359254,2.987181 -0.201505,3.659887 0.130071,0.553298 0.218547,0.579951 1.678027,0.506392 l 1.541561,-0.07784 z m -7.394396,-4.594845 c 1.797429,-0.511721 1.860327,-0.571424 1.781436,-1.656706 l -0.192963,-1.624719 c -0.125791,-0.747331 -0.148198,-0.762254 -1.13432,-0.755855 -1.202551,0.0084 -2.544755,0.343297 -2.755842,1.002123 -0.202555,0.631122 -0.20469,3.061807 -0.0031,3.24731 0.224955,0.207872 0.80703,0.213231 2.304885,-0.212144 z M 41.339794,39.44598 c -0.07145,-0.16097 -0.130073,-0.433898 -0.130073,-0.605537 0,-0.172701 -0.132202,-0.508524 -0.293172,-0.747331 -0.272906,-0.405115 -0.815558,-0.432832 -8.293108,-0.432832 -6.539396,0 -8.046844,-0.06076 -8.25793,-0.332618 -0.348615,-0.449888 -0.151388,-0.702551 0.686563,-0.878456 1.130052,-0.23773 10.361322,-0.909374 13.299466,-0.96801 1.547961,-0.03102 2.866711,-0.128979 2.930678,-0.219599 0.114083,-0.158838 1.329414,-5.907201 1.329414,-5.907201 0,0 0.305986,-2.257978 0.423237,-3.667348 0.249454,-2.979719 0.363523,-3.565004 0.690826,-3.565004 0.269721,0.0011 1.550093,1.312355 1.820882,1.865658 0.142843,0.293174 0.157781,0.547968 0.07677,1.364594 -0.221733,2.232389 -1.782503,9.757915 -2.47013,11.906085 -0.605538,1.894441 -1.478666,2.946672 -1.813417,2.187615 z"
     id="path6-3" />
</svg>
