<?xml version="1.0" encoding="UTF-8" standalone="no"?>
<svg
   height="64"
   viewBox="0 0 64 64"
   width="64"
   version="1.1"
   id="svg22156"
   sodipodi:docname="makehuman.svg"
   inkscape:version="1.2.2 (b0a8486541, 2022-12-01)"
   xmlns:inkscape="http://www.inkscape.org/namespaces/inkscape"
   xmlns:sodipodi="http://sodipodi.sourceforge.net/DTD/sodipodi-0.dtd"
   xmlns:xlink="http://www.w3.org/1999/xlink"
   xmlns="http://www.w3.org/2000/svg"
   xmlns:svg="http://www.w3.org/2000/svg">
  <defs
     id="defs22160">
    <linearGradient
       inkscape:collect="always"
       xlink:href="#linearGradient10885"
       id="linearGradient19001"
       gradientUnits="userSpaceOnUse"
       x1="32.473202"
       y1="47.272411"
       x2="31.96871"
       y2="18.362518" />
    <linearGradient
       inkscape:collect="always"
       id="linearGradient10885">
      <stop
         style="stop-color:#ffca26;stop-opacity:1;"
         offset="0"
         id="stop10881" />
      <stop
         style="stop-color:#ffd44c;stop-opacity:1;"
         offset="1"
         id="stop10883" />
    </linearGradient>
    <linearGradient
       inkscape:collect="always"
       xlink:href="#linearGradient10885"
       id="linearGradient25040"
       gradientUnits="userSpaceOnUse"
       x1="32.473202"
       y1="47.272411"
       x2="31.96871"
       y2="18.362518" />
    <linearGradient
       inkscape:collect="always"
       xlink:href="#linearGradient10885"
       id="linearGradient25042"
       gradientUnits="userSpaceOnUse"
       x1="32.473202"
       y1="47.272411"
       x2="31.96871"
       y2="18.362518" />
    <linearGradient
       inkscape:collect="always"
       xlink:href="#linearGradient10885"
       id="linearGradient25044"
       gradientUnits="userSpaceOnUse"
       x1="32.473202"
       y1="47.272411"
       x2="31.96871"
       y2="18.362518" />
    <linearGradient
       inkscape:collect="always"
       xlink:href="#linearGradient10885"
       id="linearGradient25046"
       gradientUnits="userSpaceOnUse"
       x1="32.473202"
       y1="47.272411"
       x2="31.96871"
       y2="18.362518" />
    <linearGradient
       inkscape:collect="always"
       xlink:href="#linearGradient10885"
       id="linearGradient25048"
       gradientUnits="userSpaceOnUse"
       x1="32.473202"
       y1="47.272411"
       x2="31.96871"
       y2="18.362518" />
    <linearGradient
       inkscape:collect="always"
       xlink:href="#linearGradient10885"
       id="linearGradient25050"
       gradientUnits="userSpaceOnUse"
       x1="32.473202"
       y1="47.272411"
       x2="31.96871"
       y2="18.362518" />
    <linearGradient
       inkscape:collect="always"
       xlink:href="#linearGradient10885"
       id="linearGradient25052"
       gradientUnits="userSpaceOnUse"
       x1="32.473202"
       y1="47.272411"
       x2="31.96871"
       y2="18.362518" />
  </defs>
  <sodipodi:namedview
     id="namedview22158"
     pagecolor="#ffffff"
     bordercolor="#666666"
     borderopacity="1.0"
     inkscape:showpageshadow="2"
     inkscape:pageopacity="0.0"
     inkscape:pagecheckerboard="0"
     inkscape:deskcolor="#d1d1d1"
     showgrid="false"
     inkscape:zoom="2.4942088"
     inkscape:cx="-48.913308"
     inkscape:cy="80.386215"
     inkscape:window-width="1920"
     inkscape:window-height="1024"
     inkscape:window-x="0"
     inkscape:window-y="0"
     inkscape:window-maximized="1"
     inkscape:current-layer="svg22156" />
  <linearGradient
     id="a">
    <stop
       offset="0"
       stop-opacity=".313726"
       id="stop22104" />
    <stop
       offset=".222222"
       stop-opacity=".27451"
       id="stop22106" />
    <stop
       offset="1"
       stop-opacity="0"
       id="stop22108" />
  </linearGradient>
  <radialGradient
     id="b"
     cx="450.908936"
     cy="189.579361"
     gradientTransform="matrix(.00000035 -.156265 -.281277 -.0000002 89.046304 127.190659)"
     gradientUnits="userSpaceOnUse"
     r="21.166656"
     xlink:href="#a" />
  <radialGradient
     id="c"
     cx="450.908936"
     cy="189.579361"
     gradientTransform="matrix(-.00000035 .156265 .281277 .0000002 -25.540237 -15.054964)"
     gradientUnits="userSpaceOnUse"
     r="21.166656"
     xlink:href="#a" />
  <radialGradient
     id="d"
     cx="450.908936"
     cy="189.579361"
     gradientTransform="matrix(-.00000035 -.156265 .281277 -.0000002 -25.540237 127.190659)"
     gradientUnits="userSpaceOnUse"
     r="21.166656"
     xlink:href="#a" />
  <radialGradient
     id="e"
     cx="450.908936"
     cy="189.579361"
     gradientTransform="matrix(.00000035 .156265 -.281277 .0000002 89.0463 -15.054965)"
     gradientUnits="userSpaceOnUse"
     r="21.166656"
     xlink:href="#a" />
  <linearGradient
     id="f"
     gradientTransform="matrix(.0267201 0 0 .125012 24.930772 26.877567)"
     gradientUnits="userSpaceOnUse"
     x1="255.323059"
     x2="255.323044"
     y1="233.5"
     y2="254.666656">
    <stop
       offset="0"
       stop-opacity=".27451"
       id="stop22115" />
    <stop
       offset="1"
       stop-opacity="0"
       id="stop22117" />
  </linearGradient>
  <linearGradient
     id="g"
     gradientUnits="userSpaceOnUse"
     x1="31.753048"
     x2="31.753048"
     y1="5.79220799994"
     y2="56.067868">
    <stop
       offset="0"
       stop-color="#616161"
       id="stop22120"
       style="stop-color:#2b2b2c;stop-opacity:1;" />
    <stop
       offset="1"
       stop-color="#424242"
       id="stop22122"
       style="stop-color:#171717;stop-opacity:1;" />
  </linearGradient>
  <linearGradient
     id="h"
     gradientUnits="userSpaceOnUse"
     x1="31.753035"
     x2="31.753035"
     y1="56.06785508389"
     y2="5.79221449294">
    <stop
       offset="0"
       stop-color="#bdbdbd"
       id="stop22125" />
    <stop
       offset="1"
       stop-color="#e0e0e0"
       id="stop22127" />
  </linearGradient>
  <path
     d="m36.382812 56.066406h5.292969v-2.644531h-5.292969zm0 0"
     fill="url(#b)"
     id="path22130" />
  <path
     d="m27.121094 56.066406h-5.289063v2.648438h5.289063zm0 0"
     fill="url(#c)"
     id="path22132" />
  <path
     d="m27.121094 56.066406h-5.289063v-2.644531h5.289063zm0 0"
     fill="url(#d)"
     id="path22134" />
  <path
     d="m36.382812 56.066406h5.292969v2.648438h-5.292969zm0 0"
     fill="url(#e)"
     id="path22136" />
  <path
     d="m27.121094 55.40625h9.261718v3.308594h-9.261718zm0 0"
     fill="url(#f)"
     id="path22138" />
  <path
     d="m31.753906 5.792969c13.882813 0 25.136719 11.253906 25.136719 25.136719 0 13.882812-11.253906 25.136718-25.136719 25.136718-13.882812 0-25.140625-11.253906-25.140625-25.136718 0-13.882813 11.257813-25.136719 25.140625-25.136719zm0 0"
     fill="url(#g)"
     id="path22140" />
  <path
     d="m31.753906 56.066406c-13.925781 0-25.140625-11.210937-25.140625-25.136718 0-.082032.003907-.164063.003907-.246094.128906 13.8125 11.292968 24.890625 25.136718 24.890625s25.003906-11.078125 25.136719-24.890625v.246094c0 13.925781-11.210937 25.136718-25.136719 25.136718zm0 0"
     fill-opacity=".196078"
     id="path22142" />
  <path
     d="m31.753906 5.792969c-13.925781 0-25.140625 11.210937-25.140625 25.136719 0 .105468.003907.210937.003907.3125.183593-13.761719 11.324218-24.789063 25.136718-24.789063 13.808594 0 24.949219 11.027344 25.132813 24.789063.003906-.101563.003906-.207032.003906-.3125 0-13.925782-11.210937-25.136719-25.136719-25.136719zm0 0"
     fill="#fff"
     fill-opacity=".392157"
     id="path22144" />
  <path
     d="m254.006994-168.660675c111.051895 0 201.074548 90.022653 201.074548 201.074548s-90.022653 201.074548-201.074548 201.074548c-111.051896 0-201.105796-90.022653-201.105796-201.074548s90.0539-201.074548 201.105796-201.074548zm0 0"
     fill="none"
     stroke="#333"
     stroke-linecap="round"
     stroke-width="3"
     transform="matrix(.125012 0 0 .125012 0 26.877566)"
     id="path22146" />
  <g
     id="g18997"
     style="opacity:0.054993"
     transform="matrix(0.93347536,0,0,0.93347536,2.1804548,2.5475161)">
    <g
       id="g18985"
       style="fill:url(#linearGradient25042);stroke-width:0.6">
      <path
         id="path18983"
         style="color:#000000;fill:url(#linearGradient25040);stroke-linecap:round;stroke-linejoin:round"
         d="m 32.580078,14.445312 c -0.09098,0 -0.18086,0.0047 -0.269531,0.01367 -0.177941,0.01781 -0.350738,0.05266 -0.517578,0.103516 -1.084461,0.330592 -1.894531,1.323353 -1.894531,2.507812 0,1.366152 1.077972,2.477697 2.412109,2.611329 0.0887,0.009 0.178514,0.01367 0.269531,0.01367 0.09098,0 0.180589,-0.0048 0.269531,-0.01367 0.160108,-0.01617 0.316298,-0.04649 0.466797,-0.08984 0.01684,-0.0049 0.03408,-0.0085 0.05078,-0.01367 1.084291,-0.330716 1.894531,-1.323814 1.894531,-2.507813 0,-1.185767 -0.810218,-2.17832 -1.896485,-2.507812 -0.0821,-0.02541 -0.166684,-0.04701 -0.251953,-0.06445 -6.25e-4,-1.26e-4 -0.0013,1.25e-4 -0.002,0 -0.172291,-0.03452 -0.349874,-0.05274 -0.53125,-0.05274 z M 16.59375,16.773438 c -0.375981,0.02428 -0.562755,0.563705 -0.181641,0.792968 l 9.876953,6.25586 4.345704,29.167968 c 0.0761,0.523755 0.849156,0.466753 0.847656,-0.0625 V 30.228516 h 2.197266 v 22.699218 c -0.0015,0.529253 0.771554,0.586255 0.847656,0.0625 l 4.345703,-29.167968 9.875,-6.25586 c 0.435559,-0.262014 0.129023,-0.929283 -0.353516,-0.769531 l -14.421875,4.763672 c -0.174666,0.05743 -0.292784,0.220433 -0.292968,0.404297 v 4.929687 H 31.482422 V 21.964844 C 31.482237,21.78098 31.364119,21.617977 31.189453,21.560547 L 16.765625,16.796875 c -0.06032,-0.01997 -0.118163,-0.02691 -0.171875,-0.02344 z"
         sodipodi:nodetypes="scsscscscscscssccccccccccccccccccs" />
    </g>
    <g
       id="g18989"
       style="fill:#ffffff;stroke-width:0.6">
      <path
         id="path18987"
         style="color:#000000;fill-opacity:0.247085;stroke-linecap:round;stroke-linejoin:round"
         d="m 32.580078,14.445312 c -0.09098,0 -0.18086,0.0047 -0.269531,0.01367 -0.177941,0.01781 -0.350738,0.05266 -0.517578,0.103516 -1.08446,0.330592 -1.894531,1.323355 -1.894531,2.507812 0,0.611386 0.223901,1.164804 0.582031,1.609376 -0.112808,-0.288531 -0.177735,-0.59988 -0.177735,-0.927735 0,-1.184458 0.810072,-2.177221 1.894532,-2.507812 0.166839,-0.05086 0.339637,-0.08571 0.517578,-0.103516 0.08867,-0.009 0.178551,-0.01367 0.269531,-0.01367 0.181376,0 0.358959,0.01821 0.53125,0.05274 h 0.002 c 0.08527,0.01744 0.169853,0.03904 0.251953,0.06445 0.51553,0.156373 0.964749,0.466256 1.298828,0.871093 -0.299571,-0.740665 -0.927257,-1.317394 -1.703125,-1.552734 -0.0821,-0.02541 -0.166684,-0.04701 -0.251953,-0.06445 h -0.002 c -0.172291,-0.03452 -0.349874,-0.05274 -0.53125,-0.05274 z M 16.59375,16.773438 c -0.375981,0.02428 -0.562754,0.563705 -0.181641,0.792968 l 0.236329,0.150391 c 0.06014,-0.139273 0.184653,-0.251066 0.349609,-0.261719 0.05371,-0.0035 0.111555,0.0035 0.171875,0.02344 l 14.3125,4.726562 V 21.964844 C 31.482237,21.78098 31.364119,21.617977 31.189453,21.560547 L 16.765625,16.796875 c -0.06032,-0.01997 -0.118163,-0.02691 -0.171875,-0.02344 z m 31.972656,0 c -0.05371,-0.0035 -0.111557,0.0035 -0.171875,0.02344 L 33.972656,21.56055 c -0.174666,0.05743 -0.292785,0.220433 -0.292968,0.404297 v 4.929687 h -1.792969 v 0.681641 h 2.197265 v -4.929688 c 1.84e-4,-0.183863 0.118303,-0.346867 0.292969,-0.404296 l 14.421875,-4.763672 c 0.01988,-0.0066 0.0374,-0.004 0.05664,-0.0078 0.221515,-0.256727 0.04223,-0.675871 -0.289063,-0.697265 z m -22.207031,7.519531 4.275391,28.697265 c 0.03187,0.21933 0.187221,0.329905 0.355468,0.353516 L 26.693359,24.503906 Z m 7.320313,6.617187 v 22.017578 c -7.63e-4,0.268887 0.198177,0.414914 0.404296,0.425782 v -22.44336 z" />
    </g>
    <g
       id="g18995"
       style="fill:none;stroke:#292929;stroke-width:0.6">
      <g
         id="g18993">
        <path
           id="path18991"
           style="color:#000000;fill:#000000;stroke:none;stroke-width:0.8;stroke-linecap:round;stroke-linejoin:round;-inkscape-stroke:none"
           d="m 32.580078,13.744141 c -0.116315,0 -0.229951,0.0065 -0.339844,0.01758 -0.222761,0.02243 -0.442269,0.06683 -0.652343,0.130859 -1.365859,0.416375 -2.390625,1.67433 -2.390625,3.177734 0,1.733421 1.361567,3.139328 3.041015,3.308594 0.110851,0.01125 0.225695,0.01758 0.341797,0.01758 0.116765,0 0.228703,-0.0066 0.337891,-0.01758 a 0.40004001,0.40004001 0 0 0 0.002,0 c 0.189709,-0.01916 0.376463,-0.05704 0.558594,-0.107422 0.01079,-0.003 0.02245,-0.0028 0.0332,-0.0059 a 0.40004001,0.40004001 0 0 0 0.002,-0.0039 0.40004001,0.40004001 0 0 0 0.002,0 c 0.01702,-0.004 0.03401,-0.0067 0.05664,-0.01367 1.365719,-0.416554 2.390625,-1.674625 2.390625,-3.177735 0,-1.504431 -1.026532,-2.762786 -2.394532,-3.177734 -0.104815,-0.03228 -0.208922,-0.05724 -0.310547,-0.07813 l 0.177735,0.09766 a 0.40004001,0.40004001 0 0 0 -0.263672,-0.107421 h -0.002 l -0.002,-0.002 c -0.0083,-0.0011 -0.01502,-0.0033 -0.02539,-0.0039 -0.01503,-8.97e-4 -0.03706,-0.002 -0.03711,-0.002 -0.165889,-0.0274 -0.338054,-0.05273 -0.525391,-0.05273 z m -16.03125,2.332031 c -0.510685,0.03298 -0.885994,0.403636 -1.003906,0.830078 -0.125214,0.452866 0.04374,0.981775 0.505859,1.259766 l 9.591797,6.076172 4.298828,28.849609 c 0.09185,0.625191 0.654441,0.999009 1.197266,0.958984 0.542495,-0.03999 1.046718,-0.491174 1.044922,-1.125 V 30.929688 h 0.794922 v 21.996093 c -0.0019,0.633865 0.502433,1.085 1.044922,1.125 0.542821,0.04002 1.105416,-0.333791 1.197265,-0.958984 v -0.002 l 4.298828,-28.847656 9.589844,-6.076172 c 0.526311,-0.316608 0.66288,-0.95149 0.441406,-1.433594 -0.221043,-0.481166 -0.792241,-0.79254 -1.375,-0.59961 l -14.421875,4.763672 c -0.459829,0.151985 -0.774904,0.583485 -0.77539,1.06836 v 4.228515 h -0.794922 v -4.228515 c -4.88e-4,-0.484873 -0.315551,-0.91638 -0.775391,-1.06836 L 16.984375,16.132812 c -0.144013,-0.04768 -0.291291,-0.06596 -0.435547,-0.05664 z" />
      </g>
    </g>
  </g>
  <g
     id="g18977"
     style="opacity:0.054993"
     transform="matrix(0.93347536,0,0,0.93347536,1.7688687,1.9129306)">
    <g
       id="g18965"
       style="fill:url(#linearGradient25046);stroke-width:0.6">
      <path
         id="path18963"
         style="color:#000000;fill:url(#linearGradient25044);stroke-linecap:round;stroke-linejoin:round"
         d="m 32.580078,14.445312 c -0.09098,0 -0.18086,0.0047 -0.269531,0.01367 -0.177941,0.01781 -0.350738,0.05266 -0.517578,0.103516 -1.084461,0.330592 -1.894531,1.323353 -1.894531,2.507812 0,1.366152 1.077972,2.477697 2.412109,2.611329 0.0887,0.009 0.178514,0.01367 0.269531,0.01367 0.09098,0 0.180589,-0.0048 0.269531,-0.01367 0.160108,-0.01617 0.316298,-0.04649 0.466797,-0.08984 0.01684,-0.0049 0.03408,-0.0085 0.05078,-0.01367 1.084291,-0.330716 1.894531,-1.323814 1.894531,-2.507813 0,-1.185767 -0.810218,-2.17832 -1.896485,-2.507812 -0.0821,-0.02541 -0.166684,-0.04701 -0.251953,-0.06445 -6.25e-4,-1.26e-4 -0.0013,1.25e-4 -0.002,0 -0.172291,-0.03452 -0.349874,-0.05274 -0.53125,-0.05274 z M 16.59375,16.773438 c -0.375981,0.02428 -0.562755,0.563705 -0.181641,0.792968 l 9.876953,6.25586 4.345704,29.167968 c 0.0761,0.523755 0.849156,0.466753 0.847656,-0.0625 V 30.228516 h 2.197266 v 22.699218 c -0.0015,0.529253 0.771554,0.586255 0.847656,0.0625 l 4.345703,-29.167968 9.875,-6.25586 c 0.435559,-0.262014 0.129023,-0.929283 -0.353516,-0.769531 l -14.421875,4.763672 c -0.174666,0.05743 -0.292784,0.220433 -0.292968,0.404297 v 4.929687 H 31.482422 V 21.964844 C 31.482237,21.78098 31.364119,21.617977 31.189453,21.560547 L 16.765625,16.796875 c -0.06032,-0.01997 -0.118163,-0.02691 -0.171875,-0.02344 z"
         sodipodi:nodetypes="scsscscscscscssccccccccccccccccccs" />
    </g>
    <g
       id="g18969"
       style="fill:#ffffff;stroke-width:0.6">
      <path
         id="path18967"
         style="color:#000000;fill-opacity:0.247085;stroke-linecap:round;stroke-linejoin:round"
         d="m 32.580078,14.445312 c -0.09098,0 -0.18086,0.0047 -0.269531,0.01367 -0.177941,0.01781 -0.350738,0.05266 -0.517578,0.103516 -1.08446,0.330592 -1.894531,1.323355 -1.894531,2.507812 0,0.611386 0.223901,1.164804 0.582031,1.609376 -0.112808,-0.288531 -0.177735,-0.59988 -0.177735,-0.927735 0,-1.184458 0.810072,-2.177221 1.894532,-2.507812 0.166839,-0.05086 0.339637,-0.08571 0.517578,-0.103516 0.08867,-0.009 0.178551,-0.01367 0.269531,-0.01367 0.181376,0 0.358959,0.01821 0.53125,0.05274 h 0.002 c 0.08527,0.01744 0.169853,0.03904 0.251953,0.06445 0.51553,0.156373 0.964749,0.466256 1.298828,0.871093 -0.299571,-0.740665 -0.927257,-1.317394 -1.703125,-1.552734 -0.0821,-0.02541 -0.166684,-0.04701 -0.251953,-0.06445 h -0.002 c -0.172291,-0.03452 -0.349874,-0.05274 -0.53125,-0.05274 z M 16.59375,16.773438 c -0.375981,0.02428 -0.562754,0.563705 -0.181641,0.792968 l 0.236329,0.150391 c 0.06014,-0.139273 0.184653,-0.251066 0.349609,-0.261719 0.05371,-0.0035 0.111555,0.0035 0.171875,0.02344 l 14.3125,4.726562 V 21.964844 C 31.482237,21.78098 31.364119,21.617977 31.189453,21.560547 L 16.765625,16.796875 c -0.06032,-0.01997 -0.118163,-0.02691 -0.171875,-0.02344 z m 31.972656,0 c -0.05371,-0.0035 -0.111557,0.0035 -0.171875,0.02344 L 33.972656,21.56055 c -0.174666,0.05743 -0.292785,0.220433 -0.292968,0.404297 v 4.929687 h -1.792969 v 0.681641 h 2.197265 v -4.929688 c 1.84e-4,-0.183863 0.118303,-0.346867 0.292969,-0.404296 l 14.421875,-4.763672 c 0.01988,-0.0066 0.0374,-0.004 0.05664,-0.0078 0.221515,-0.256727 0.04223,-0.675871 -0.289063,-0.697265 z m -22.207031,7.519531 4.275391,28.697265 c 0.03187,0.21933 0.187221,0.329905 0.355468,0.353516 L 26.693359,24.503906 Z m 7.320313,6.617187 v 22.017578 c -7.63e-4,0.268887 0.198177,0.414914 0.404296,0.425782 v -22.44336 z" />
    </g>
    <g
       id="g18975"
       style="fill:none;stroke:#292929;stroke-width:0.6">
      <g
         id="g18973">
        <path
           id="path18971"
           style="color:#000000;fill:#000000;stroke:none;stroke-width:0.8;stroke-linecap:round;stroke-linejoin:round;-inkscape-stroke:none"
           d="m 32.580078,13.744141 c -0.116315,0 -0.229951,0.0065 -0.339844,0.01758 -0.222761,0.02243 -0.442269,0.06683 -0.652343,0.130859 -1.365859,0.416375 -2.390625,1.67433 -2.390625,3.177734 0,1.733421 1.361567,3.139328 3.041015,3.308594 0.110851,0.01125 0.225695,0.01758 0.341797,0.01758 0.116765,0 0.228703,-0.0066 0.337891,-0.01758 a 0.40004001,0.40004001 0 0 0 0.002,0 c 0.189709,-0.01916 0.376463,-0.05704 0.558594,-0.107422 0.01079,-0.003 0.02245,-0.0028 0.0332,-0.0059 a 0.40004001,0.40004001 0 0 0 0.002,-0.0039 0.40004001,0.40004001 0 0 0 0.002,0 c 0.01702,-0.004 0.03401,-0.0067 0.05664,-0.01367 1.365719,-0.416554 2.390625,-1.674625 2.390625,-3.177735 0,-1.504431 -1.026532,-2.762786 -2.394532,-3.177734 -0.104815,-0.03228 -0.208922,-0.05724 -0.310547,-0.07813 l 0.177735,0.09766 a 0.40004001,0.40004001 0 0 0 -0.263672,-0.107421 h -0.002 l -0.002,-0.002 c -0.0083,-0.0011 -0.01502,-0.0033 -0.02539,-0.0039 -0.01503,-8.97e-4 -0.03706,-0.002 -0.03711,-0.002 -0.165889,-0.0274 -0.338054,-0.05273 -0.525391,-0.05273 z m -16.03125,2.332031 c -0.510685,0.03298 -0.885994,0.403636 -1.003906,0.830078 -0.125214,0.452866 0.04374,0.981775 0.505859,1.259766 l 9.591797,6.076172 4.298828,28.849609 c 0.09185,0.625191 0.654441,0.999009 1.197266,0.958984 0.542495,-0.03999 1.046718,-0.491174 1.044922,-1.125 V 30.929688 h 0.794922 v 21.996093 c -0.0019,0.633865 0.502433,1.085 1.044922,1.125 0.542821,0.04002 1.105416,-0.333791 1.197265,-0.958984 v -0.002 l 4.298828,-28.847656 9.589844,-6.076172 c 0.526311,-0.316608 0.66288,-0.95149 0.441406,-1.433594 -0.221043,-0.481166 -0.792241,-0.79254 -1.375,-0.59961 l -14.421875,4.763672 c -0.459829,0.151985 -0.774904,0.583485 -0.77539,1.06836 v 4.228515 h -0.794922 v -4.228515 c -4.88e-4,-0.484873 -0.315551,-0.91638 -0.775391,-1.06836 L 16.984375,16.132812 c -0.144013,-0.04768 -0.291291,-0.06596 -0.435547,-0.05664 z" />
      </g>
    </g>
  </g>
  <g
     id="g18929"
     style="opacity:0.054993"
     transform="matrix(0.93347536,0,0,0.93347536,1.5100891,1.4858474)">
    <g
       id="g18919"
       style="fill:url(#linearGradient25050);stroke-width:0.6">
      <path
         id="path18917"
         style="color:#000000;fill:url(#linearGradient25048);stroke-linecap:round;stroke-linejoin:round"
         d="m 32.580078,14.445312 c -0.09098,0 -0.18086,0.0047 -0.269531,0.01367 -0.177941,0.01781 -0.350738,0.05266 -0.517578,0.103516 -1.084461,0.330592 -1.894531,1.323353 -1.894531,2.507812 0,1.366152 1.077972,2.477697 2.412109,2.611329 0.0887,0.009 0.178514,0.01367 0.269531,0.01367 0.09098,0 0.180589,-0.0048 0.269531,-0.01367 0.160108,-0.01617 0.316298,-0.04649 0.466797,-0.08984 0.01684,-0.0049 0.03408,-0.0085 0.05078,-0.01367 1.084291,-0.330716 1.894531,-1.323814 1.894531,-2.507813 0,-1.185767 -0.810218,-2.17832 -1.896485,-2.507812 -0.0821,-0.02541 -0.166684,-0.04701 -0.251953,-0.06445 -6.25e-4,-1.26e-4 -0.0013,1.25e-4 -0.002,0 -0.172291,-0.03452 -0.349874,-0.05274 -0.53125,-0.05274 z M 16.59375,16.773438 c -0.375981,0.02428 -0.562755,0.563705 -0.181641,0.792968 l 9.876953,6.25586 4.345704,29.167968 c 0.0761,0.523755 0.849156,0.466753 0.847656,-0.0625 V 30.228516 h 2.197266 v 22.699218 c -0.0015,0.529253 0.771554,0.586255 0.847656,0.0625 l 4.345703,-29.167968 9.875,-6.25586 c 0.435559,-0.262014 0.129023,-0.929283 -0.353516,-0.769531 l -14.421875,4.763672 c -0.174666,0.05743 -0.292784,0.220433 -0.292968,0.404297 v 4.929687 H 31.482422 V 21.964844 C 31.482237,21.78098 31.364119,21.617977 31.189453,21.560547 L 16.765625,16.796875 c -0.06032,-0.01997 -0.118163,-0.02691 -0.171875,-0.02344 z"
         sodipodi:nodetypes="scsscscscscscssccccccccccccccccccs" />
    </g>
    <g
       id="g18923"
       style="fill:#ffffff;stroke-width:0.6">
      <path
         id="path18921"
         style="color:#000000;fill-opacity:0.247085;stroke-linecap:round;stroke-linejoin:round"
         d="m 32.580078,14.445312 c -0.09098,0 -0.18086,0.0047 -0.269531,0.01367 -0.177941,0.01781 -0.350738,0.05266 -0.517578,0.103516 -1.08446,0.330592 -1.894531,1.323355 -1.894531,2.507812 0,0.611386 0.223901,1.164804 0.582031,1.609376 -0.112808,-0.288531 -0.177735,-0.59988 -0.177735,-0.927735 0,-1.184458 0.810072,-2.177221 1.894532,-2.507812 0.166839,-0.05086 0.339637,-0.08571 0.517578,-0.103516 0.08867,-0.009 0.178551,-0.01367 0.269531,-0.01367 0.181376,0 0.358959,0.01821 0.53125,0.05274 h 0.002 c 0.08527,0.01744 0.169853,0.03904 0.251953,0.06445 0.51553,0.156373 0.964749,0.466256 1.298828,0.871093 -0.299571,-0.740665 -0.927257,-1.317394 -1.703125,-1.552734 -0.0821,-0.02541 -0.166684,-0.04701 -0.251953,-0.06445 h -0.002 c -0.172291,-0.03452 -0.349874,-0.05274 -0.53125,-0.05274 z M 16.59375,16.773438 c -0.375981,0.02428 -0.562754,0.563705 -0.181641,0.792968 l 0.236329,0.150391 c 0.06014,-0.139273 0.184653,-0.251066 0.349609,-0.261719 0.05371,-0.0035 0.111555,0.0035 0.171875,0.02344 l 14.3125,4.726562 V 21.964844 C 31.482237,21.78098 31.364119,21.617977 31.189453,21.560547 L 16.765625,16.796875 c -0.06032,-0.01997 -0.118163,-0.02691 -0.171875,-0.02344 z m 31.972656,0 c -0.05371,-0.0035 -0.111557,0.0035 -0.171875,0.02344 L 33.972656,21.56055 c -0.174666,0.05743 -0.292785,0.220433 -0.292968,0.404297 v 4.929687 h -1.792969 v 0.681641 h 2.197265 v -4.929688 c 1.84e-4,-0.183863 0.118303,-0.346867 0.292969,-0.404296 l 14.421875,-4.763672 c 0.01988,-0.0066 0.0374,-0.004 0.05664,-0.0078 0.221515,-0.256727 0.04223,-0.675871 -0.289063,-0.697265 z m -22.207031,7.519531 4.275391,28.697265 c 0.03187,0.21933 0.187221,0.329905 0.355468,0.353516 L 26.693359,24.503906 Z m 7.320313,6.617187 v 22.017578 c -7.63e-4,0.268887 0.198177,0.414914 0.404296,0.425782 v -22.44336 z" />
    </g>
    <g
       id="g18927"
       style="fill:none;stroke:#292929;stroke-width:0.6">
      <g
         id="path18925">
        <path
           id="path18948"
           style="color:#000000;fill:#000000;stroke:none;stroke-width:0.8;stroke-linecap:round;stroke-linejoin:round;-inkscape-stroke:none"
           d="m 32.580078,13.744141 c -0.116315,0 -0.229951,0.0065 -0.339844,0.01758 -0.222761,0.02243 -0.442269,0.06683 -0.652343,0.130859 -1.365859,0.416375 -2.390625,1.67433 -2.390625,3.177734 0,1.733421 1.361567,3.139328 3.041015,3.308594 0.110851,0.01125 0.225695,0.01758 0.341797,0.01758 0.116765,0 0.228703,-0.0066 0.337891,-0.01758 a 0.40004001,0.40004001 0 0 0 0.002,0 c 0.189709,-0.01916 0.376463,-0.05704 0.558594,-0.107422 0.01079,-0.003 0.02245,-0.0028 0.0332,-0.0059 a 0.40004001,0.40004001 0 0 0 0.002,-0.0039 0.40004001,0.40004001 0 0 0 0.002,0 c 0.01702,-0.004 0.03401,-0.0067 0.05664,-0.01367 1.365719,-0.416554 2.390625,-1.674625 2.390625,-3.177735 0,-1.504431 -1.026532,-2.762786 -2.394532,-3.177734 -0.104815,-0.03228 -0.208922,-0.05724 -0.310547,-0.07813 l 0.177735,0.09766 a 0.40004001,0.40004001 0 0 0 -0.263672,-0.107421 h -0.002 l -0.002,-0.002 c -0.0083,-0.0011 -0.01502,-0.0033 -0.02539,-0.0039 -0.01503,-8.97e-4 -0.03706,-0.002 -0.03711,-0.002 -0.165889,-0.0274 -0.338054,-0.05273 -0.525391,-0.05273 z m -16.03125,2.332031 c -0.510685,0.03298 -0.885994,0.403636 -1.003906,0.830078 -0.125214,0.452866 0.04374,0.981775 0.505859,1.259766 l 9.591797,6.076172 4.298828,28.849609 c 0.09185,0.625191 0.654441,0.999009 1.197266,0.958984 0.542495,-0.03999 1.046718,-0.491174 1.044922,-1.125 V 30.929688 h 0.794922 v 21.996093 c -0.0019,0.633865 0.502433,1.085 1.044922,1.125 0.542821,0.04002 1.105416,-0.333791 1.197265,-0.958984 v -0.002 l 4.298828,-28.847656 9.589844,-6.076172 c 0.526311,-0.316608 0.66288,-0.95149 0.441406,-1.433594 -0.221043,-0.481166 -0.792241,-0.79254 -1.375,-0.59961 l -14.421875,4.763672 c -0.459829,0.151985 -0.774904,0.583485 -0.77539,1.06836 v 4.228515 h -0.794922 v -4.228515 c -4.88e-4,-0.484873 -0.315551,-0.91638 -0.775391,-1.06836 L 16.984375,16.132812 c -0.144013,-0.04768 -0.291291,-0.06596 -0.435547,-0.05664 z" />
      </g>
    </g>
  </g>
  <g
     id="path6"
     style="fill:url(#linearGradient19001);fill-opacity:1;stroke:none;stroke-width:0.6;stroke-dasharray:none;stroke-opacity:1"
     transform="matrix(0.93347536,0,0,0.93347536,1.5100891,1.4858474)">
    <path
       id="path8693"
       style="color:#000000;fill:url(#linearGradient25052);fill-opacity:1;stroke:none;stroke-width:0.6;stroke-linecap:round;stroke-linejoin:round;stroke-dasharray:none;stroke-opacity:1"
       d="m 32.580078,14.445312 c -0.09098,0 -0.18086,0.0047 -0.269531,0.01367 -0.177941,0.01781 -0.350738,0.05266 -0.517578,0.103516 -1.084461,0.330592 -1.894531,1.323353 -1.894531,2.507812 0,1.366152 1.077972,2.477697 2.412109,2.611329 0.0887,0.009 0.178514,0.01367 0.269531,0.01367 0.09098,0 0.180589,-0.0048 0.269531,-0.01367 0.160108,-0.01617 0.316298,-0.04649 0.466797,-0.08984 0.01684,-0.0049 0.03408,-0.0085 0.05078,-0.01367 1.084291,-0.330716 1.894531,-1.323814 1.894531,-2.507813 0,-1.185767 -0.810218,-2.17832 -1.896485,-2.507812 -0.0821,-0.02541 -0.166684,-0.04701 -0.251953,-0.06445 -6.25e-4,-1.26e-4 -0.0013,1.25e-4 -0.002,0 -0.172291,-0.03452 -0.349874,-0.05274 -0.53125,-0.05274 z M 16.59375,16.773438 c -0.375981,0.02428 -0.562755,0.563705 -0.181641,0.792968 l 9.876953,6.25586 4.345704,29.167968 c 0.0761,0.523755 0.849156,0.466753 0.847656,-0.0625 V 30.228516 h 2.197266 v 22.699218 c -0.0015,0.529253 0.771554,0.586255 0.847656,0.0625 l 4.345703,-29.167968 9.875,-6.25586 c 0.435559,-0.262014 0.129023,-0.929283 -0.353516,-0.769531 l -14.421875,4.763672 c -0.174666,0.05743 -0.292784,0.220433 -0.292968,0.404297 v 4.929687 H 31.482422 V 21.964844 C 31.482237,21.78098 31.364119,21.617977 31.189453,21.560547 L 16.765625,16.796875 c -0.06032,-0.01997 -0.118163,-0.02691 -0.171875,-0.02344 z"
       sodipodi:nodetypes="scsscscscscscssccccccccccccccccccs" />
  </g>
  <g
     id="g15975"
     style="fill:#ffffff;fill-opacity:1;stroke:none;stroke-width:0.6;stroke-dasharray:none;stroke-opacity:1"
     transform="matrix(0.93347536,0,0,0.93347536,1.5100891,1.4858474)">
    <path
       id="path15973"
       style="color:#000000;fill:#ffffff;fill-opacity:0.54372;stroke:none;stroke-width:0.6;stroke-linecap:round;stroke-linejoin:round;stroke-dasharray:none;stroke-opacity:1"
       d="m 32.580078,14.445312 c -0.09098,0 -0.18086,0.0047 -0.269531,0.01367 -0.177941,0.01781 -0.350738,0.05266 -0.517578,0.103516 -1.08446,0.330592 -1.894531,1.323355 -1.894531,2.507812 0,0.611386 0.223901,1.164804 0.582031,1.609376 -0.112808,-0.288531 -0.177735,-0.59988 -0.177735,-0.927735 0,-1.184458 0.810072,-2.177221 1.894532,-2.507812 0.166839,-0.05086 0.339637,-0.08571 0.517578,-0.103516 0.08867,-0.009 0.178551,-0.01367 0.269531,-0.01367 0.181376,0 0.358959,0.01821 0.53125,0.05274 h 0.002 c 0.08527,0.01744 0.169853,0.03904 0.251953,0.06445 0.51553,0.156373 0.964749,0.466256 1.298828,0.871093 -0.299571,-0.740665 -0.927257,-1.317394 -1.703125,-1.552734 -0.0821,-0.02541 -0.166684,-0.04701 -0.251953,-0.06445 h -0.002 c -0.172291,-0.03452 -0.349874,-0.05274 -0.53125,-0.05274 z M 16.59375,16.773438 c -0.375981,0.02428 -0.562754,0.563705 -0.181641,0.792968 l 0.236329,0.150391 c 0.06014,-0.139273 0.184653,-0.251066 0.349609,-0.261719 0.05371,-0.0035 0.111555,0.0035 0.171875,0.02344 l 14.3125,4.726562 V 21.964844 C 31.482237,21.78098 31.364119,21.617977 31.189453,21.560547 L 16.765625,16.796875 c -0.06032,-0.01997 -0.118163,-0.02691 -0.171875,-0.02344 z m 31.972656,0 c -0.05371,-0.0035 -0.111557,0.0035 -0.171875,0.02344 L 33.972656,21.56055 c -0.174666,0.05743 -0.292785,0.220433 -0.292968,0.404297 v 4.929687 l -2.500549,-0.03391 c 0.03234,0.218404 0.05566,0.715548 0.70758,0.715548 h 1.83896 c 0.158215,0 0.35821,-0.149884 0.358305,-0.27654 v -4.653148 c 1.84e-4,-0.183863 0.118303,-0.346867 0.292969,-0.404296 l 14.421875,-4.763672 c 0.01988,-0.0066 0.0374,-0.004 0.05664,-0.0078 0.221515,-0.256727 0.04223,-0.675871 -0.289063,-0.697265 z m -22.207031,7.519531 4.275391,28.697265 c 0.03187,0.21933 0.187221,0.329905 0.355468,0.353516 L 26.693359,24.503906 Z m 7.320313,5.643493 v 22.991272 c -7.63e-4,0.268887 0.198177,0.414914 0.404296,0.425782 v -22.44336 c 0,-0.488739 0.0139,-0.973694 -0.404296,-0.973694 z"
       sodipodi:nodetypes="sccscsscscccccccssccccccccssccccccccccccccccccccccccc" />
  </g>
  <g
     id="g15987"
     style="fill:none;fill-opacity:1;stroke:#101010;stroke-width:0.42850622;stroke-dasharray:none;stroke-opacity:1"
     transform="matrix(0.93347536,0,0,0.93347536,1.5100891,1.4858474)">
    <path
       id="path15985"
       style="color:#000000;fill:none;fill-opacity:1;stroke:#101010;stroke-width:0.42850622;stroke-linecap:round;stroke-linejoin:round;stroke-dasharray:none;stroke-opacity:1"
       d="m 32.580078,14.445312 c -0.09098,0 -0.18086,0.0047 -0.269531,0.01367 -0.177941,0.01781 -0.350738,0.05266 -0.517578,0.103516 -1.084461,0.330592 -1.894531,1.323353 -1.894531,2.507812 0,1.366152 1.077972,2.477697 2.412109,2.611329 0.0887,0.009 0.178514,0.01367 0.269531,0.01367 0.09098,0 0.180589,-0.0048 0.269531,-0.01367 0.160108,-0.01617 0.316298,-0.04649 0.466797,-0.08984 0.01684,-0.0049 0.03408,-0.0085 0.05078,-0.01367 1.084291,-0.330716 1.894531,-1.323814 1.894531,-2.507813 0,-1.185767 -0.810218,-2.17832 -1.896485,-2.507812 -0.0821,-0.02541 -0.166684,-0.04701 -0.251953,-0.06445 -6.25e-4,-1.26e-4 -0.0013,1.25e-4 -0.002,0 -0.172291,-0.03452 -0.349874,-0.05274 -0.53125,-0.05274 z M 16.59375,16.773438 c -0.375981,0.02428 -0.562755,0.563705 -0.181641,0.792968 l 9.876953,6.25586 4.345704,29.167968 c 0.0761,0.523755 0.849156,0.466753 0.847656,-0.0625 V 30.228516 h 2.197266 v 22.699218 c -0.0015,0.529253 0.771554,0.586255 0.847656,0.0625 l 4.345703,-29.167968 9.875,-6.25586 c 0.435559,-0.262014 0.129023,-0.929283 -0.353516,-0.769531 l -14.421875,4.763672 c -0.174666,0.05743 -0.292784,0.220433 -0.292968,0.404297 v 4.929687 H 31.482422 V 21.964844 C 31.482237,21.78098 31.364119,21.617977 31.189453,21.560547 L 16.765625,16.796875 c -0.06032,-0.01997 -0.118163,-0.02691 -0.171875,-0.02344 z"
       sodipodi:nodetypes="scsscscscscscssccccccccccccccccccs" />
  </g>
</svg>
