<?xml version="1.0" encoding="UTF-8" standalone="no"?>
<svg
   width="48px"
   height="48px"
   viewBox="0 0 48 48"
   version="1.1"
   id="svg36"
   sodipodi:docname="org.kde.icon.explorer.svg"
   inkscape:version="1.4 (1:1.4+202410161351+e7c3feb100)"
   xml:space="preserve"
   xmlns:inkscape="http://www.inkscape.org/namespaces/inkscape"
   xmlns:sodipodi="http://sodipodi.sourceforge.net/DTD/sodipodi-0.dtd"
   xmlns:xlink="http://www.w3.org/1999/xlink"
   xmlns="http://www.w3.org/2000/svg"
   xmlns:svg="http://www.w3.org/2000/svg"><sodipodi:namedview
     id="namedview36"
     pagecolor="#ffffff"
     bordercolor="#666666"
     borderopacity="1.0"
     inkscape:showpageshadow="2"
     inkscape:pageopacity="0.0"
     inkscape:pagecheckerboard="0"
     inkscape:deskcolor="#d1d1d1"
     inkscape:zoom="1.6744792"
     inkscape:cx="30.158631"
     inkscape:cy="30.158631"
     inkscape:window-width="1920"
     inkscape:window-height="1056"
     inkscape:window-x="0"
     inkscape:window-y="0"
     inkscape:window-maximized="1"
     inkscape:current-layer="svg36" /><defs
     id="defs20"><linearGradient
       id="linear0"
       gradientUnits="userSpaceOnUse"
       x1="254"
       y1="233.5"
       x2="254"
       y2="254.666672"
       gradientTransform="matrix(0.093759,0,0,0.093759,-5.72259e-6,20.158177)"><stop
         offset="0"
         style="stop-color:rgb(0%,0%,0%);stop-opacity:0.27451;"
         id="stop1" /><stop
         offset="1"
         style="stop-color:rgb(0%,0%,0%);stop-opacity:0;"
         id="stop2" /></linearGradient><radialGradient
       id="radial0"
       gradientUnits="userSpaceOnUse"
       cx="450.908936"
       cy="189.579361"
       fx="450.908936"
       fy="189.579361"
       r="21.166656"
       gradientTransform="matrix(2.61256e-7,-0.117199,-0.210958,-1.52308e-7,79.684393,95.393)"><stop
         offset="0"
         style="stop-color:rgb(0%,0%,0%);stop-opacity:0.313726;"
         id="stop3" /><stop
         offset="0.222222"
         style="stop-color:rgb(0%,0%,0%);stop-opacity:0.27451;"
         id="stop4" /><stop
         offset="1"
         style="stop-color:rgb(0%,0%,0%);stop-opacity:0;"
         id="stop5" /></radialGradient><radialGradient
       id="radial1"
       gradientUnits="userSpaceOnUse"
       cx="450.908936"
       cy="189.579361"
       fx="450.908936"
       fy="189.579361"
       r="21.166656"
       gradientTransform="matrix(-2.61256e-7,0.117199,0.210958,1.52308e-7,-31.806782,-11.291219)"><stop
         offset="0"
         style="stop-color:rgb(0%,0%,0%);stop-opacity:0.313726;"
         id="stop6" /><stop
         offset="0.222222"
         style="stop-color:rgb(0%,0%,0%);stop-opacity:0.27451;"
         id="stop7" /><stop
         offset="1"
         style="stop-color:rgb(0%,0%,0%);stop-opacity:0;"
         id="stop8" /></radialGradient><radialGradient
       id="radial2"
       gradientUnits="userSpaceOnUse"
       cx="450.908936"
       cy="189.579361"
       fx="450.908936"
       fy="189.579361"
       r="21.166656"
       gradientTransform="matrix(-2.61256e-7,-0.117199,0.210958,-1.52308e-7,-31.806782,95.393)"><stop
         offset="0"
         style="stop-color:rgb(0%,0%,0%);stop-opacity:0.313726;"
         id="stop9" /><stop
         offset="0.222222"
         style="stop-color:rgb(0%,0%,0%);stop-opacity:0.27451;"
         id="stop10" /><stop
         offset="1"
         style="stop-color:rgb(0%,0%,0%);stop-opacity:0;"
         id="stop11" /></radialGradient><radialGradient
       id="radial3"
       gradientUnits="userSpaceOnUse"
       cx="450.908936"
       cy="189.579361"
       fx="450.908936"
       fy="189.579361"
       r="21.166656"
       gradientTransform="matrix(2.61256e-7,0.117199,-0.210958,1.52308e-7,79.684393,-11.291219)"><stop
         offset="0"
         style="stop-color:rgb(0%,0%,0%);stop-opacity:0.313726;"
         id="stop12" /><stop
         offset="0.222222"
         style="stop-color:rgb(0%,0%,0%);stop-opacity:0.27451;"
         id="stop13" /><stop
         offset="1"
         style="stop-color:rgb(0%,0%,0%);stop-opacity:0;"
         id="stop14" /></radialGradient><linearGradient
       id="linear1"
       gradientUnits="userSpaceOnUse"
       x1="254"
       y1="233.5"
       x2="254"
       y2="-168.666672"
       gradientTransform="matrix(0.093759,0,0,0.093759,0,20.158174)"><stop
         offset="0"
         style="stop-color:#ddbb3e;stop-opacity:1;"
         id="stop15" /><stop
         offset="1"
         style="stop-color:#ead279;stop-opacity:1;"
         id="stop16" /></linearGradient><linearGradient
       id="linear2"
       gradientUnits="userSpaceOnUse"
       x1="960"
       y1="1695.118164"
       x2="960"
       y2="175.118118"
       gradientTransform="scale(0.0248071)"><stop
         offset="0"
         style="stop-color:rgb(87.843138%,87.843138%,87.843138%);stop-opacity:1;"
         id="stop17" /><stop
         offset="1"
         style="stop-color:rgb(93.333334%,93.333334%,93.333334%);stop-opacity:1;"
         id="stop18" /></linearGradient><linearGradient
       id="linear3"
       gradientUnits="userSpaceOnUse"
       x1="889"
       y1="233.5"
       x2="889"
       y2="-168.666656"
       gradientTransform="matrix(0.093759,0,0,0.093759,-59.933847,20.158174)"><stop
         offset="0"
         style="stop-color:#f4f4f4;stop-opacity:1;"
         id="stop19" /><stop
         offset="1"
         style="stop-color:#ffffff;stop-opacity:1;"
         id="stop20" /></linearGradient><linearGradient
       id="a"
       gradientUnits="userSpaceOnUse"
       x1="17.861088"
       x2="17.861088"
       y1="7.3210044"
       y2="32.128075"
       gradientTransform="matrix(0.64016863,0,0,0.64016863,16.030828,14.116445)"><stop
         offset="0"
         stop-color="#9fa8da"
         stop-opacity=".392157"
         id="stop1-0" /><stop
         offset="1"
         stop-color="#0277bd"
         stop-opacity=".392157"
         id="stop2-6" /></linearGradient><radialGradient
       id="c"
       cx="450.90894"
       cy="189.57936"
       gradientTransform="matrix(1.6644384e-7,-0.07502712,-0.13504869,-9.6025295e-8,65.771823,75.184049)"
       gradientUnits="userSpaceOnUse"
       r="21.166656"
       xlink:href="#b" /><linearGradient
       id="b"><stop
         offset="0"
         stop-opacity=".313726"
         id="stop3-2" /><stop
         offset=".222222"
         stop-opacity=".27451"
         id="stop4-6" /><stop
         offset="1"
         stop-opacity="0"
         id="stop5-1" /></linearGradient><radialGradient
       id="d"
       cx="450.90894"
       cy="189.57936"
       gradientTransform="matrix(-1.6644384e-7,0.07502712,0.13504869,9.6025295e-8,14.884775,6.88816)"
       gradientUnits="userSpaceOnUse"
       r="21.166656"
       xlink:href="#b" /><radialGradient
       id="e"
       cx="450.90894"
       cy="189.57936"
       gradientTransform="matrix(-1.6644384e-7,-0.07502712,0.13504869,-9.6025295e-8,14.884775,75.184049)"
       gradientUnits="userSpaceOnUse"
       r="21.166656"
       xlink:href="#b" /><radialGradient
       id="f"
       cx="450.90894"
       cy="189.57936"
       gradientTransform="matrix(1.6644384e-7,0.07502712,-0.13504869,9.6025295e-8,65.771821,6.88816)"
       gradientUnits="userSpaceOnUse"
       r="21.166656"
       xlink:href="#b" /><linearGradient
       id="g"
       gradientTransform="matrix(0.01282904,0,0,0.06002157,33.241384,27.021078)"
       gradientUnits="userSpaceOnUse"
       x1="255.32306"
       x2="255.32304"
       y1="233.5"
       y2="254.66666"><stop
         offset="0"
         stop-opacity=".27451"
         id="stop15-9" /><stop
         offset="1"
         stop-opacity="0"
         id="stop16-2" /></linearGradient><linearGradient
       id="h"
       gradientTransform="matrix(0.04244164,-0.04244164,0.03890484,0.03890484,19.849442,42.793221)"
       gradientUnits="userSpaceOnUse"
       x1="192.73659"
       x2="477.11136"
       y1="165.09364"
       y2="-145.13341"><stop
         offset="0"
         stop-color="#424242"
         id="stop17-2"
         style="stop-color:#343434;stop-opacity:1;" /><stop
         offset="1"
         stop-color="#616161"
         id="stop18-8"
         style="stop-color:#4b4b4b;stop-opacity:1;" /></linearGradient><linearGradient
       id="i"
       gradientTransform="matrix(0.04244164,-0.04244164,0.04244164,0.04244164,19.697168,42.433141)"
       gradientUnits="userSpaceOnUse"
       x1="257.64035"
       x2="354.92645"
       y1="224.72374"
       y2="127.43763"><stop
         offset="0"
         stop-color="#8d6e63"
         id="stop19-9"
         style="stop-color:#80645a;stop-opacity:1;" /><stop
         offset="1"
         stop-color="#a1887f"
         id="stop20-7"
         style="stop-color:#be8f7e;stop-opacity:1;" /></linearGradient></defs><path
     style="fill:url(#linear0);fill-rule:nonzero;stroke:none"
     d="M 7.691406,42.050781 H 40.1875 v 1.984375 H 7.691406 Z m 0,0"
     id="path20" /><path
     style="fill:url(#radial0);fill-rule:nonzero;stroke:none"
     d="m 40.1875,42.050781 h 3.96875 V 40.066406 H 40.1875 Z m 0,0"
     id="path21" /><path
     style="fill:url(#radial1);fill-rule:nonzero;stroke:none"
     d="m 7.691406,42.050781 h -3.96875 v 1.984375 h 3.96875 z m 0,0"
     id="path22" /><path
     style="fill:url(#radial2);fill-rule:nonzero;stroke:none"
     d="m 7.691406,42.050781 h -3.96875 v -1.984375 h 3.96875 z m 0,0"
     id="path23" /><path
     style="fill:url(#radial3);fill-rule:nonzero;stroke:none"
     d="m 40.1875,42.050781 h 3.96875 v 1.984375 H 40.1875 Z m 0,0"
     id="path24" /><path
     style="fill:url(#linear1);fill-rule:nonzero;stroke:none"
     d="m 5.457031,4.34375 c -0.023437,0 -0.050781,0 -0.074219,0 C 5.328125,4.347656 5.277344,4.355469 5.230469,4.363281 5.15625,4.371094 5.082031,4.386719 5.011719,4.410156 4.96875,4.425781 4.921875,4.441406 4.878906,4.460938 4.785156,4.496094 4.703125,4.542969 4.621094,4.597656 4.585938,4.621094 4.546875,4.652344 4.507812,4.683594 4.472656,4.714844 4.4375,4.746094 4.402344,4.777344 4.371094,4.8125 4.339844,4.847656 4.308594,4.882812 4.292969,4.902344 4.277344,4.921875 4.261719,4.941406 4.238281,4.980469 4.210938,5.019531 4.183594,5.058594 4.144531,5.121094 4.113281,5.183594 4.085938,5.253906 4.074219,5.273438 4.066406,5.296875 4.058594,5.320312 4.050781,5.34375 4.042969,5.363281 4.035156,5.386719 4.027344,5.410156 4.023438,5.433594 4.015625,5.460938 4.003906,5.507812 3.992188,5.554688 3.988281,5.605469 3.980469,5.628906 3.980469,5.652344 3.976562,5.679688 3.972656,5.730469 3.96875,5.78125 3.96875,5.832031 V 40.5625 c 0,0.824219 0.664062,1.488281 1.488281,1.488281 h 36.714844 c 0.824219,0 1.488281,-0.664062 1.488281,-1.488281 V 5.832031 c 0,-0.308593 -0.09375,-0.597656 -0.253906,-0.835937 C 43.37891,4.960938 43.35156,4.921875 43.32031,4.882812 43.29297,4.847656 43.26172,4.8125 43.22265,4.777344 43.1914,4.746094 43.15624,4.714844 43.121088,4.683594 43.082028,4.652344 43.046868,4.621094 43.0039,4.597656 42.92577,4.542969 42.839838,4.496094 42.7539,4.460938 42.707031,4.441406 42.660156,4.425781 42.613281,4.410156 42.542969,4.386719 42.472656,4.371094 42.398438,4.363281 42.347656,4.355469 42.300781,4.347656 42.25,4.34375 c -0.02734,0 -0.05078,0 -0.07813,0 z m 0,0"
     id="path25" /><path
     style="fill:#000000;fill-opacity:0.235294;fill-rule:nonzero;stroke:none"
     d="m 35.246094,12.285156 -5.304688,6.886719 0.484375,0.582031 5.597657,-7.265625 z M 20.828125,17.8125 c -2.492187,0.972656 -4.253906,3.390625 -4.253906,6.222656 0,0.203125 0.0078,0.40625 0.02344,0.605469 0.234375,-2.566406 1.921875,-4.714844 4.230469,-5.613281 z m -6.4375,0.04687 -0.226563,0.226563 c -0.175781,0.175781 -0.128906,0.425781 0,0.636718 l 1.671876,2.625 c 0.08984,-0.25 0.191406,-0.492187 0.308593,-0.734375 z m 11.90625,2.417969 v 1.214844 l 3.121094,5.144531 c 0,-0.0078 0.0039,-0.01563 0.01172,-0.02734 l 1.207031,1.996094 c 0.15625,0.25 0.460937,0.359375 0.734375,0.253906 l 0.125,-0.04687 0.292968,0.453125 4.230469,-1.585937 L 35.25,26.753906 31.15625,28.289062 Z m -14.585937,4.953125 v 1.210937 c 0,0.25 0.207031,0.398438 0.449218,0.453125 l 3.585938,0.796875 c 0.0078,0.02344 0.02344,0.04687 0.03125,0.07031 0.01953,0.05859 0.03906,0.117187 0.0625,0.175781 l 0.304687,-0.476562 c -0.140625,-0.296876 -0.265625,-0.601563 -0.367187,-0.914063 -0.0078,-0.02344 -0.02344,-0.04297 -0.03125,-0.06641 L 12.160156,25.683594 C 11.917969,25.625 11.710938,25.480469 11.710938,25.230469 Z m 14.585937,1.84375 -4.863281,1.304687 v 1.214844 l 4.863281,-1.308594 z m 0.773437,3.871093 c -0.34375,0.191407 -0.699218,0.355469 -1.058593,0.492188 l -0.796875,3.695312 c -0.05469,0.242188 -0.203125,0.449219 -0.453125,0.449219 H 22.0625 c -0.246094,0 -0.449219,-0.199219 -0.449219,-0.449219 L 20.816406,31.54687 c -0.02344,-0.0078 -0.04297,-0.01953 -0.0625,-0.02734 -0.320312,-0.109375 -0.636718,-0.234375 -0.941406,-0.382812 l -3.097656,1.976562 c -0.175782,0.171875 -0.460938,0.171875 -0.636719,0 l -1.6875,-1.6875 -0.222656,0.351563 c -0.132813,0.210937 -0.179688,0.460937 0,0.636718 l 1.910156,1.910157 c 0.175781,0.175781 0.460937,0.175781 0.636719,0 L 19.8125,32.347656 c 0.304688,0.152344 0.621094,0.277344 0.941406,0.386719 0.01953,0.0078 0.03906,0.01953 0.0625,0.02734 l 0.796875,3.585937 c 0,0.246094 0.203125,0.449219 0.449219,0.449219 h 2.699219 c 0.25,0 0.398437,-0.207031 0.453125,-0.449219 l 0.796875,-3.695312 c 0.359375,-0.140625 0.714843,-0.304688 1.058593,-0.492188 l 3.027344,2.164063 c 0.175782,0.175781 0.460938,0.175781 0.632813,0 l 1.914062,-1.910157 c 0.175781,-0.175781 0.132813,-0.425781 0,-0.636718 l -0.226562,-0.347656 -1.6875,1.683593 c -0.171875,0.171875 -0.457031,0.171875 -0.632813,0 z m 0,0"
     id="path26" /><path
     style="fill:#ffffff;fill-opacity:0.392157;fill-rule:nonzero;stroke:none"
     d="m 5.457031,4.4375 c -0.824219,0 -1.488281,0.667969 -1.488281,1.488281 v 0.25 C 3.96875,5.351562 4.632812,4.6875 5.457031,4.6875 h 36.714844 c 0.824219,0 1.488281,0.664062 1.488281,1.488281 v -0.25 c 0,-0.820312 -0.664062,-1.488281 -1.488281,-1.488281 z m 0,0"
     id="path27" /><path
     style="fill:#020202;fill-opacity:0.235294;fill-rule:nonzero;stroke:none"
     d="m 5.457031,41.90625 c -0.824219,0 -1.488281,-0.660156 -1.488281,-1.488281 v -0.246094 c 0,0.824219 0.664062,1.488281 1.488281,1.488281 h 36.714844 c 0.824219,0 1.488281,-0.664062 1.488281,-1.488281 v 0.246094 c 0,0.828125 -0.664062,1.488281 -1.488281,1.488281 z m 0,0"
     id="path28" /><path
     style="fill:#5e5656;fill-opacity:1;fill-rule:nonzero;stroke:none"
     d="m 5.457031,4.203125 c -0.898437,0 -1.628906,0.730469 -1.628906,1.628906 V 40.5625 c 0,0.902344 0.730469,1.628906 1.628906,1.628906 h 36.714844 c 0.902344,0 1.628906,-0.726562 1.628906,-1.628906 V 5.832031 c 0,-0.898437 -0.726562,-1.628906 -1.628906,-1.628906 z m 0,0.28125 h 36.714844 c 0.746094,0 1.347656,0.597656 1.347656,1.347656 V 40.5625 c 0,0.75 -0.601562,1.347656 -1.347656,1.347656 H 5.457031 c -0.75,0 -1.347656,-0.597656 -1.347656,-1.347656 V 5.832031 c 0,-0.75 0.597656,-1.347656 1.347656,-1.347656 z m 0,0"
     id="path29" /><path
     style="fill:#ffffff;fill-opacity:1;fill-rule:nonzero;stroke:none"
     d="m 26.296875,10.296875 -4.863281,0.738281 v 0.992188 l 4.863281,-0.734375 z m 5.007813,0 -5.007813,7.972656 v 0.992188 l 5.007813,-7.96875 4.082031,1.050781 0.636719,-0.828125 z m -14.910157,4.769531 c -0.113281,0 -0.226562,0.04687 -0.316406,0.132813 l -1.914063,1.914062 c -0.175781,0.175781 -0.128906,0.425781 0,0.636719 l 0.136719,0.214844 1.777344,-1.773438 c 0.08984,-0.08594 0.203125,-0.132812 0.316406,-0.132812 h 0.0039 c 0.113281,0 0.226562,0.04687 0.316406,0.132812 l 3.09375,1.976563 c 0.304687,-0.148438 0.613281,-0.273438 0.929687,-0.375 0.02734,-0.01172 0.05078,-0.02734 0.07813,-0.03516 l 0.01172,-0.04297 v -0.992188 l -0.01172,0.03906 c -0.02734,0.01563 -0.05078,0.02734 -0.07813,0.03906 -0.316406,0.101563 -0.625,0.230469 -0.929687,0.375 l -3.09375,-1.976562 C 16.625,15.113281 16.511719,15.066406 16.398438,15.066406 Z m 13.945313,4.824219 -0.398438,0.515625 5.449219,6.539062 0.628906,-0.238281 z m -14.453125,1.554687 c -0.04297,0.117188 -0.08594,0.230469 -0.121094,0.347657 -0.0078,0.01172 -0.01172,0.02734 -0.01953,0.04297 l -3.585938,0.796874 c -0.242187,0.05078 -0.449218,0.199219 -0.449218,0.449219 v 0.992188 c 0,-0.25 0.207031,-0.398438 0.449218,-0.449219 l 3.585938,-0.800781 c 0.0078,-0.01172 0.01172,-0.02344 0.01953,-0.03906 0.105469,-0.320312 0.230469,-0.632812 0.378906,-0.9375 z m 0.703125,3.328126 c -0.01172,0.164062 -0.01563,0.328124 -0.01563,0.496093 0,3.691407 2.992187,6.683594 6.679687,6.683594 2.78125,0 5.164063,-1.695313 6.175782,-4.109375 l 1.207031,1.996094 c 0.15625,0.25 0.460937,0.355468 0.734375,0.253906 l 0.125,-0.04687 1.007812,1.535156 0.140625,-0.140625 c 0.175781,-0.175781 0.132813,-0.429687 0,-0.640625 L 31.67187,29.32813 31.156245,29.523443 30.886714,29.074224 c -0.101563,-0.05078 -0.1875,-0.125 -0.25,-0.226563 l -1.207031,-1.992187 c -1.011719,2.410156 -3.394532,4.105469 -6.175782,4.105469 -3.523437,0 -6.410156,-2.726563 -6.664062,-6.1875 z m -0.699219,3.324218 -1.722656,2.703125 c -0.132813,0.210938 -0.179688,0.464844 0,0.640625 l 0.136719,0.136719 1.839843,-2.886719 c -0.09375,-0.195312 -0.179687,-0.390625 -0.253906,-0.59375 z m 0,0"
     id="path30" /><path
     style="fill:url(#linear3);fill-rule:nonzero;stroke:none"
     d="m 26.296875,10.296875 c -1.621094,0.246094 -3.242187,0.488281 -4.863281,0.738281 V 28.621094 C 23.054688,28.1875 24.675781,27.75 26.296875,27.316406 v -6.796875 c 1.621094,2.671875 3.238281,5.339844 4.859375,8.011719 1.621094,-0.609375 3.246094,-1.214844 4.863281,-1.824219 -2.027343,-2.429687 -4.050781,-4.859375 -6.078125,-7.292969 2.027344,-2.632812 4.054688,-5.265624 6.082032,-7.898437 -1.574219,-0.40625 -3.144532,-0.808594 -4.71875,-1.21875 -1.671876,2.660156 -3.339844,5.316406 -5.007813,7.972656 z m -9.902344,4.769531 c -0.601562,0.234375 -0.96875,0.867188 -1.464843,1.28125 -0.316407,0.425782 -1.144532,0.777344 -0.765626,1.402344 0.660157,1.035156 1.320313,2.070312 1.980469,3.105469 -0.105469,0.828125 -0.597656,1.148437 -1.359375,1.195312 -0.929687,0.21875 -1.875,0.386719 -2.796875,0.640625 -0.488281,0.328125 -0.203125,1.015625 -0.277343,1.519532 0.05078,0.515624 -0.128907,1.097656 0.132812,1.558593 0.902344,0.375 1.914062,0.460938 2.863281,0.71875 0.480469,0.175781 1.253907,0.01563 1.238281,0.761719 0.457032,0.535156 -0.238281,0.976562 -0.445312,1.460938 -0.46875,0.816406 -1.105469,1.554687 -1.449219,2.421874 0.199219,0.585938 0.824219,0.929688 1.210938,1.402344 0.421875,0.316406 0.710937,1.007813 1.304687,0.914063 1.078125,-0.695313 2.164063,-1.378907 3.246094,-2.070313 0.832031,0.117188 1.183594,0.59375 1.214844,1.371094 0.257812,0.976562 0.375,2.007812 0.71875,2.941406 0.585937,0.265625 1.296875,0.07422 1.9375,0.132813 0.542968,-0.07031 1.429687,0.261719 1.542968,-0.519531 0.261719,-1.207032 0.523438,-2.417969 0.785157,-3.625 0.613281,-0.292969 1.175781,-0.6875 1.6875,-0.04297 0.851562,0.605469 1.691406,1.21875 2.546875,1.8125 0.601562,0.08594 0.898437,-0.621094 1.335937,-0.945313 0.375,-0.464844 0.992188,-0.792968 1.179688,-1.371094 -0.285157,-0.753906 -0.859375,-1.378906 -1.265625,-2.074218 -0.789063,0.351562 -1.054688,-0.628906 -1.40625,-1.117188 -0.222656,-0.359375 -0.441406,-0.726562 -0.660156,-1.085937 -1.222657,3.117187 -4.988282,4.863281 -8.160157,3.804687 -3.09375,-0.898437 -5.1875,-4.25 -4.617187,-7.425781 0.34375,-2.304687 2,-4.347656 4.175781,-5.183594 v -1.328125 c -0.589844,0.476563 -1.242187,0.5 -1.792969,-0.03906 -0.882812,-0.527344 -1.71875,-1.1875 -2.640625,-1.617188 z m 0,0"
     id="path35" /><path
     style="fill:none;stroke:#5e5656;stroke-width:0.281277;stroke-linecap:butt;stroke-linejoin:miter;stroke-miterlimit:4;stroke-opacity:1"
     d="m 26.296876,10.296874 -4.863282,0.734376 v 17.589844 l 4.863282,-1.304688 v -6.796875 l 4.859375,8.011719 4.863282,-1.824219 -6.078126,-7.292969 6.082032,-7.898437 -4.71875,-1.218751 -5.007813,7.972657 z m -9.902344,4.769532 c -0.113282,0 -0.226563,0.04297 -0.316407,0.132812 l -1.914062,1.914063 c -0.175781,0.175781 -0.128906,0.425781 0,0.636719 l 1.980469,3.105469 c -0.148437,0.304687 -0.273438,0.617187 -0.378906,0.9375 -0.0078,0.01172 -0.01172,0.02734 -0.01953,0.04297 l -3.585938,0.796876 c -0.242188,0.05078 -0.449219,0.203125 -0.449219,0.449218 v 2.390625 c 0,0.246094 0.207031,0.398438 0.449219,0.449219 l 3.585938,0.796875 c 0.01172,0.02344 0.02344,0.04687 0.03125,0.07031 0.101563,0.3125 0.226563,0.617187 0.367188,0.910156 l -1.976563,3.105469 c -0.132812,0.210938 -0.179687,0.460938 0,0.636719 l 1.910156,1.910156 c 0.175781,0.179688 0.460938,0.179688 0.636719,0 L 19.8125,31.378907 c 0.304688,0.148437 0.621095,0.277344 0.941407,0.382812 0.01953,0.0078 0.04297,0.01953 0.0625,0.02734 l 0.796875,3.585938 c 0,0.246093 0.203125,0.449218 0.449219,0.449218 h 2.699219 c 0.25,0 0.398437,-0.207031 0.453125,-0.449218 l 0.796875,-3.695313 c 0.363281,-0.136719 0.714844,-0.300781 1.058593,-0.492187 l 3.027344,2.164062 c 0.175781,0.179688 0.460938,0.179688 0.636719,0 l 1.910156,-1.910156 c 0.175782,-0.175781 0.132813,-0.425781 0,-0.636719 l -1.148437,-1.746094 -0.125,0.04297 c -0.273437,0.101562 -0.578125,-0.0039 -0.730469,-0.253907 l -1.210938,-1.992187 c -1.011719,2.410156 -3.39453,4.105469 -6.171875,4.105469 -3.691406,0 -6.6875,-2.992188 -6.6875,-6.683594 0,-2.835938 1.765626,-5.25 4.257813,-6.226563 v -1.328125 l -0.0078,0.03906 c -0.03125,0.01172 -0.05469,0.02734 -0.08203,0.03516 -0.316407,0.105469 -0.625,0.234375 -0.925782,0.375 l -3.097656,-1.972657 c -0.08984,-0.08984 -0.203125,-0.132812 -0.316406,-0.132812 z m 0,0"
     id="path36" /><path
     d="m 28.736674,17.622368 c 4.911294,0 8.892343,3.981049 8.892343,8.892343 0,4.911293 -3.981049,8.894843 -8.892343,8.894843 -4.911293,0 -8.894842,-3.98355 -8.894842,-8.894843 0,-4.911294 3.983549,-8.892343 8.894842,-8.892343 z m 0,0"
     fill="url(#a)"
     id="path11"
     style="fill:url(#a);stroke-width:0.640169" /><path
     d="m 40.48727,41.036035 h 2.540669 V 39.765701 H 40.48727 Z m 0,0"
     fill="url(#c)"
     id="path12"
     style="fill:url(#c);stroke-width:0.640169" /><path
     d="m 40.169686,41.036035 h -2.540669 v 1.270335 h 2.540669 z m 0,0"
     fill="url(#d)"
     id="path13"
     style="fill:url(#d);stroke-width:0.640169" /><path
     d="m 40.169686,41.036035 h -2.540669 v -1.270334 h 2.540669 z m 0,0"
     fill="url(#e)"
     id="path14"
     style="fill:url(#e);stroke-width:0.640169" /><path
     d="m 40.48727,41.036035 h 2.540669 V 42.30637 H 40.48727 Z m 0,0"
     fill="url(#f)"
     id="path15"
     style="fill:url(#f);stroke-width:0.640169" /><path
     d="m 40.169686,41.036035 h 0.317584 v 1.270335 h -0.317584 z m 0,0"
     fill="url(#g)"
     id="path16"
     style="fill:url(#g);stroke-width:0.640169" /><path
     d="m 28.734174,16.897177 c -5.27639,0 -9.527509,4.25112 -9.527509,9.527509 0,5.278891 4.251119,9.530011 9.527509,9.530011 2.208082,0 4.236116,-0.742696 5.846539,-1.993025 l 1.315347,1.312846 1.795474,-1.795473 -1.32785,-1.33035 c 1.195314,-1.590419 1.9005,-3.570941 1.9005,-5.724009 0,-5.276389 -4.25112,-9.527509 -9.53001,-9.527509 z m 0.01001,1.905502 c 4.226113,0 7.629509,3.400896 7.629509,7.622007 0,4.223613 -3.403396,7.624509 -7.629509,7.624509 -4.228614,0 -7.632011,-3.400896 -7.632011,-7.624509 0,-4.221111 3.403397,-7.622007 7.632011,-7.622007 z m 0,0"
     fill="url(#h)"
     id="path17"
     style="fill:url(#h);stroke-width:0.640169" /><path
     d="m 35.89606,35.274518 1.795474,-1.795473 c 0.49763,-0.497631 1.300342,-0.497631 1.797973,0 l 3.593446,3.593447 c 0.495131,0.49513 0.495131,1.300342 0,1.795472 l -1.797973,1.797974 c -0.495131,0.495131 -1.300343,0.495131 -1.795473,0 L 35.89606,37.072492 c -0.497631,-0.497632 -0.497631,-1.302844 0,-1.797974 z m 0,0"
     fill="url(#i)"
     id="path18"
     style="fill:url(#i);stroke-width:0.640169" /><path
     d="m 28.734174,16.897177 c -5.27639,0 -9.527509,4.25112 -9.527509,9.527509 0,0.05502 0,0.107529 0.0025,0.160043 0.08252,-5.203871 4.301132,-9.369968 9.525008,-9.369968 5.226376,0 9.444988,4.166097 9.527509,9.369968 0.0025,-0.05251 0.0025,-0.105028 0.0025,-0.160043 0,-5.276389 -4.25112,-9.527509 -9.530011,-9.527509 z m -7.619507,9.687552 c -0.0025,0.05251 -0.0025,0.105028 -0.0025,0.157541 0,4.223613 3.403396,7.624508 7.63201,7.624508 4.226114,0 7.62951,-3.400895 7.62951,-7.624508 0,-0.05251 0,-0.105027 0,-0.157541 -0.08502,4.148593 -3.455911,7.464466 -7.62951,7.464466 -4.176099,0 -7.544487,-3.315873 -7.62951,-7.464466 z m 15.384052,5.699001 c -0.04501,0.06252 -0.09002,0.122532 -0.135035,0.182548 l 1.170308,1.170309 0.157542,-0.157542 z m 0,0"
     fill="#ffffff"
     fill-opacity="0.392157"
     id="path19"
     style="stroke-width:0.640169" /><path
     d="m 28.744176,18.572619 c -4.228614,0 -7.63201,3.400896 -7.63201,7.624508 0,0.03751 0,0.07502 0.0025,0.11503 0.06002,-4.171099 3.440906,-7.509478 7.62951,-7.509478 4.188603,0 7.569494,3.338379 7.629509,7.509478 0,-0.04001 0,-0.07752 0,-0.11503 0,-4.223612 -3.403396,-7.624508 -7.629509,-7.624508 z m 9.520008,7.737037 c -0.02501,2.108056 -0.727692,4.046067 -1.9005,5.608978 l 0.09752,0.09753 c 1.135299,-1.567913 1.802975,-3.498422 1.802975,-5.591474 0,-0.03751 0,-0.07502 0,-0.11503 z m -19.057519,0.0025 v 0.11253 c 0,5.27889 4.251119,9.53001 9.527509,9.53001 2.208082,0 4.236116,-0.742695 5.846539,-1.993025 l 1.315347,1.312846 1.795474,-1.795473 -0.115031,-0.11503 -1.680443,1.680442 -1.315347,-1.312845 c -1.610423,1.250329 -3.638457,1.993024 -5.846539,1.993024 -5.23888,0 -9.464993,-4.188602 -9.527509,-9.412479 z m 0,0"
     fill-opacity="0.235294"
     id="path20-3"
     style="stroke-width:0.640169" /><path
     d="m 28.734174,16.807153 c -5.326403,0 -9.617533,4.291131 -9.617533,9.617533 0,5.328904 4.29113,9.620035 9.617533,9.620035 2.200579,0 4.221112,-0.732693 5.836537,-1.965518 l 1.200317,1.197816 c 0.02001,-0.02251 0.04001,-0.04501 0.06001,-0.06502 l 0.06502,-0.06502 -1.250329,-1.250329 c -0.03251,-0.03251 -0.08252,-0.03501 -0.120032,-0.0075 -1.59542,1.237825 -3.603449,1.97552 -5.791525,1.97552 -5.228878,0 -9.437486,-4.208609 -9.437486,-9.439987 0,-5.228877 4.208608,-9.437486 9.437486,-9.437486 5.231378,0 9.439986,4.208609 9.439986,9.437486 0,2.133062 -0.700184,4.093579 -1.882995,5.671494 -0.02501,0.03501 -0.02251,0.08502 0.01,0.117531 l 1.262833,1.265333 0.06502,-0.06502 c 0.02001,-0.02 0.04251,-0.04251 0.06502,-0.06002 l -1.212819,-1.21532 c 1.175309,-1.59542 1.872993,-3.57094 1.872993,-5.714005 0,-5.326403 -4.29113,-9.617533 -9.620034,-9.617533 z m 0.01001,1.905503 c -4.276126,0 -7.722034,3.440906 -7.722034,7.71203 0,4.273627 3.445908,7.714533 7.722034,7.714533 4.276126,0 7.719533,-3.440906 7.719533,-7.714533 0,-4.271124 -3.443407,-7.71203 -7.719533,-7.71203 z m 0,0.180047 c 4.1786,0 7.539486,3.358384 7.539486,7.531983 0,4.176101 -3.360886,7.534486 -7.539486,7.534486 -4.178601,0 -7.541987,-3.358385 -7.541987,-7.534486 0,-4.173599 3.363386,-7.531983 7.541987,-7.531983 z m 0,0"
     fill="#212121"
     id="path21-6"
     style="stroke-width:0.640169" /><path
     d="m 38.591771,33.103946 c -0.325086,0 -0.650172,0.125033 -0.900237,0.375099 l -1.795474,1.795473 c -0.285075,0.285075 -0.405106,0.667676 -0.365096,1.037773 0.03,-0.277573 0.15254,-0.547644 0.365096,-0.7602 l 1.795474,-1.795473 c 0.49763,-0.497631 1.300342,-0.497631 1.797973,0 l 3.593446,3.593447 c 0.212556,0.212556 0.335089,0.482627 0.365097,0.757699 0.04001,-0.367596 -0.08002,-0.752698 -0.365097,-1.035272 l -3.593446,-3.593447 c -0.250066,-0.250066 -0.575152,-0.375099 -0.897736,-0.375099 z m 0,0"
     fill="#ffffff"
     fill-opacity="0.392157"
     id="path22-1"
     style="stroke-width:0.640169" /><path
     d="m 40.387243,41.066043 c 0.325086,0 0.650172,-0.122532 0.897737,-0.372598 l 1.797973,-1.795472 c 0.285075,-0.285076 0.405107,-0.667676 0.365097,-1.037774 -0.03,0.277573 -0.152541,0.545143 -0.365097,0.7602 l -1.797973,1.795473 c -0.497631,0.497631 -1.297842,0.497631 -1.795473,0 L 35.89606,36.822426 c -0.212556,-0.212556 -0.335088,-0.482627 -0.365096,-0.760201 -0.04001,0.370098 0.08002,0.7552 0.365096,1.037774 l 3.593447,3.593446 c 0.247565,0.250066 0.57265,0.372598 0.897736,0.372598 z m 0,0"
     fill-opacity="0.235294"
     id="path23-2"
     style="stroke-width:0.640169" /><path
     d="m 35.831043,35.212001 c -0.53014,0.53014 -0.53014,1.390367 0,1.923007 l 3.593447,3.593446 c 0.53264,0.532641 1.392867,0.532641 1.925507,0 l 1.795473,-1.797973 c 0.53264,-0.53014 0.53264,-1.390366 0,-1.923007 l -3.593446,-3.593446 c -0.530141,-0.53264 -1.390367,-0.53264 -1.923007,0 z m 0.127534,0.127534 1.797973,-1.797974 c 0.462622,-0.462621 1.205317,-0.462621 1.66794,0 l 3.593446,3.593447 c 0.465122,0.462622 0.465122,1.205318 0,1.67044 l -1.795473,1.795473 c -0.465122,0.462622 -1.205317,0.462622 -1.670439,0 l -3.593447,-3.593447 c -0.462622,-0.462622 -0.462622,-1.205317 0,-1.667939 z m 0,0"
     fill="#212121"
     id="path24-9"
     style="stroke-width:0.640169" /></svg>
