<?xml version="1.0" encoding="UTF-8" standalone="no"?>
<svg
   version="1.1"
   width="64"
   height="64"
   id="svg3489"
   inkscape:version="1.1.2 (0a00cf5339, 2022-02-04)"
   sodipodi:docname="messagebox_info.svg"
   xmlns:inkscape="http://www.inkscape.org/namespaces/inkscape"
   xmlns:sodipodi="http://sodipodi.sourceforge.net/DTD/sodipodi-0.dtd"
   xmlns:xlink="http://www.w3.org/1999/xlink"
   xmlns="http://www.w3.org/2000/svg"
   xmlns:svg="http://www.w3.org/2000/svg"
   xmlns:rdf="http://www.w3.org/1999/02/22-rdf-syntax-ns#"
   xmlns:cc="http://creativecommons.org/ns#"
   xmlns:dc="http://purl.org/dc/elements/1.1/">
  <sodipodi:namedview
     pagecolor="#ffffff"
     bordercolor="#666666"
     borderopacity="1"
     objecttolerance="10"
     gridtolerance="10"
     guidetolerance="10"
     inkscape:pageopacity="0"
     inkscape:pageshadow="2"
     inkscape:window-width="1920"
     inkscape:window-height="995"
     id="namedview48"
     showgrid="false"
     inkscape:zoom="11.313708"
     inkscape:cx="8.5736698"
     inkscape:cy="44.017398"
     inkscape:window-x="0"
     inkscape:window-y="0"
     inkscape:window-maximized="1"
     inkscape:current-layer="svg3489"
     inkscape:pagecheckerboard="0"
     inkscape:lockguides="true"
     showguides="true"
     inkscape:guide-bbox="true">
    <inkscape:grid
       type="xygrid"
       id="grid4176" />
  </sodipodi:namedview>
  <defs
     id="defs3491">
    <linearGradient
       inkscape:collect="always"
       id="linearGradient2902">
      <stop
         style="stop-color:#4fbcd9;stop-opacity:1"
         offset="0"
         id="stop2898" />
      <stop
         style="stop-color:#ffb472;stop-opacity:1"
         offset="1"
         id="stop2900" />
    </linearGradient>
    <linearGradient
       id="linearGradient4806">
      <stop
         id="stop4808"
         style="stop-color:#ffffff;stop-opacity:1"
         offset="0" />
      <stop
         id="stop4810"
         style="stop-color:#ffffff;stop-opacity:0.23529412"
         offset="0.42447853" />
      <stop
         id="stop4812"
         style="stop-color:#ffffff;stop-opacity:0.15686275"
         offset="0.82089913" />
      <stop
         id="stop4814"
         style="stop-color:#ffffff;stop-opacity:0.39215687"
         offset="1" />
    </linearGradient>
    <linearGradient
       id="linearGradient3820-7-2">
      <stop
         id="stop3822-2-6"
         style="stop-color:#000000;stop-opacity:1"
         offset="0" />
      <stop
         id="stop3824-1-2"
         style="stop-color:#000000;stop-opacity:0"
         offset="1" />
    </linearGradient>
    <linearGradient
       id="linearGradient3957-2">
      <stop
         offset="0"
         style="stop-color:#ffffff;stop-opacity:1"
         id="stop3959-62" />
      <stop
         offset="1"
         style="stop-color:#c1c1c1;stop-opacity:1"
         id="stop3961-5" />
    </linearGradient>
    <linearGradient
       id="linearGradient2867-449-88-871-390-598-476-591-434-148-57-177-3-8">
      <stop
         offset="0"
         style="stop-color:#3b3b3b;stop-opacity:1"
         id="stop3750-8-9" />
      <stop
         offset="0.26238"
         style="stop-color:#353535;stop-opacity:1"
         id="stop3752-3-2" />
      <stop
         offset="0.704952"
         style="stop-color:#1b2824;stop-opacity:1"
         id="stop3754-7-2" />
      <stop
         offset="1"
         style="stop-color:#110d0c;stop-opacity:1"
         id="stop3756-9-3" />
    </linearGradient>
    <linearGradient
       id="linearGradient3957">
      <stop
         offset="0"
         style="stop-color:#ffffff;stop-opacity:1"
         id="stop3959" />
      <stop
         offset="1"
         style="stop-color:#c1c1c1;stop-opacity:1"
         id="stop3961" />
    </linearGradient>
    <linearGradient
       id="linearGradient4168">
      <stop
         offset="0"
         style="stop-color:#f8b17e;stop-opacity:1"
         id="stop4170" />
      <stop
         offset="0.23208089"
         style="stop-color:#e35d4f;stop-opacity:1"
         id="stop4172" />
      <stop
         offset="0.5908742"
         style="stop-color:#c6262e;stop-opacity:1"
         id="stop4174" />
      <stop
         offset="1"
         style="stop-color:#690b54;stop-opacity:1"
         id="stop4176" />
    </linearGradient>
    <linearGradient
       xlink:href="#linearGradient4806"
       id="linearGradient3293"
       gradientUnits="userSpaceOnUse"
       gradientTransform="matrix(2.3268746,0,0,2.3268746,-135.94475,-32.842783)"
       x1="71.204407"
       y1="15.369057"
       x2="71.204407"
       y2="40.495617" />
    <radialGradient
       xlink:href="#linearGradient3820-7-2"
       id="radialGradient3300"
       gradientUnits="userSpaceOnUse"
       gradientTransform="matrix(0.3823536,7.5555777e-8,-1.8372241e-8,0.1115198,-5.9254271,36.335849)"
       cx="99.189415"
       cy="185.29727"
       fx="99.189415"
       fy="185.29727"
       r="62.769119" />
    <linearGradient
       xlink:href="#linearGradient3957"
       id="linearGradient4131"
       gradientUnits="userSpaceOnUse"
       gradientTransform="translate(8.0000046,8.0000026)"
       x1="24"
       y1="22"
       x2="24"
       y2="26" />
    <linearGradient
       xlink:href="#linearGradient3957-2"
       id="linearGradient4137"
       gradientUnits="userSpaceOnUse"
       gradientTransform="matrix(1.4390244,0,0,1.4390244,-2.536585,-2.5365857)"
       x1="21.013996"
       y1="25.433903"
       x2="22.805599"
       y2="27.343702" />
    <linearGradient
       xlink:href="#linearGradient4168"
       id="linearGradient4140"
       gradientUnits="userSpaceOnUse"
       gradientTransform="matrix(1.4390244,0,0,1.4390244,-2.536585,-2.5365857)"
       x1="27.92535"
       y1="15.149301"
       x2="33.447899"
       y2="22.986004" />
    <radialGradient
       xlink:href="#linearGradient2867-449-88-871-390-598-476-591-434-148-57-177-3-8"
       id="radialGradient4145"
       gradientUnits="userSpaceOnUse"
       gradientTransform="matrix(0,3.5958841,-3.8040162,-9.7874431e-8,64.14322,-20.064576)"
       cx="3.9722471"
       cy="8.4497671"
       fx="3.9722471"
       fy="8.4497671"
       r="19.99999" />
    <radialGradient
       inkscape:collect="always"
       xlink:href="#linearGradient3820-7-2"
       id="radialGradient4192"
       gradientUnits="userSpaceOnUse"
       gradientTransform="matrix(0.2549024,5.3967361e-8,-1.2248161e-8,0.07965545,6.7163816,44.240666)"
       cx="99.189415"
       cy="185.29727"
       fx="99.189415"
       fy="185.29727"
       r="62.769119" />
    <linearGradient
       inkscape:collect="always"
       xlink:href="#linearGradient2902"
       id="linearGradient2906"
       x1="11.255859"
       y1="31.999998"
       x2="52.744141"
       y2="31.999998"
       gradientUnits="userSpaceOnUse" />
  </defs>
  <metadata
     id="metadata3494">
    <rdf:RDF>
      <cc:Work
         rdf:about="">
        <dc:format>image/svg+xml</dc:format>
        <dc:type
           rdf:resource="http://purl.org/dc/dcmitype/StillImage" />
      </cc:Work>
    </rdf:RDF>
  </metadata>
  <g
     id="g4198">
    <path
       inkscape:connector-curvature="0"
       d="m 55.999998,57.0017 a 24,6.9985714 0 1 1 -47.9999991,0 24,6.9985714 0 1 1 47.9999991,0 z"
       id="path3818-0"
       style="opacity:0.2;fill:url(#radialGradient3300);fill-opacity:1;stroke:none" />
    <path
       style="opacity:0.4;fill:url(#radialGradient4192);fill-opacity:1;stroke:none"
       id="path4190"
       d="m 47.999998,59.0017 a 16,4.9988822 0 1 1 -31.999999,0 16,4.9988822 0 1 1 31.999999,0 z"
       inkscape:connector-curvature="0" />
  </g>
  <path
     d="M 32.000004,2.4999968 C 15.722922,2.4999968 2.5,15.722913 2.5,31.999997 2.5,48.277081 15.722922,61.500004 32.000004,61.5 48.27708,61.5 61.500016,48.277081 61.5,31.999997 61.5,15.722913 48.27708,2.4999968 32.000004,2.4999968 z"
     id="path2555"
     style="color:#000000;fill:url(#radialGradient4145);fill-opacity:1;fill-rule:nonzero;stroke:none;stroke-width:1;marker:none;visibility:visible;display:inline;overflow:visible;enable-background:accumulate" />
  <path
     style="opacity:0.5;color:#000000;fill:#000000;stroke:#001e2e;stroke-width:1;stroke-linecap:round;stroke-linejoin:round;stroke-miterlimit:4;stroke-opacity:1;stroke-dasharray:none;stroke-dashoffset:0;marker:none;visibility:visible;display:inline;overflow:visible;enable-background:accumulate;fill-opacity:0;fill-rule:nonzero"
     id="path2555-7-1"
     d="m 32,2.499999 c -16.277082,0 -29.5,13.222915 -29.5,29.499998 0,16.277083 13.222918,29.500005 29.5,29.5 16.27708,0 29.50001,-13.222917 29.5,-29.5 C 61.5,15.722914 48.27708,2.499999 32,2.499999 z" />
  <path
     style="opacity:0.5;color:#000000;fill:none;stroke:url(#linearGradient3293);stroke-width:1;stroke-linecap:round;stroke-linejoin:round;stroke-miterlimit:4;stroke-opacity:1;stroke-dasharray:none;stroke-dashoffset:0;marker:none;visibility:visible;display:inline;overflow:visible;enable-background:accumulate"
     id="path3019"
     d="m 60.50001,31.999999 c 0,15.740115 -12.7599,28.499999 -28.50002,28.499999 -15.740099,0 -28.499991,-12.759884 -28.499991,-28.499999 0,-15.740116 12.759892,-28.5000013 28.499991,-28.5000013 15.74012,0 28.50002,12.7598853 28.50002,28.5000013 z" />
  <path
     d="m 101.22568,-0.27226902 c 0.36281,0.985391 0.77488,1.78714102 1.64382,0.694252 1.07497,-0.640504 4.68508,-3.44886898 4.32676,-0.698731 -1.1556,5.09268002 -2.5665,10.13609002 -3.64147,15.24668702 -1.12424,2.799407 1.43329,5.33007 4.09833,3.507097 2.83524,-1.164554 5.27632,-3.072629 7.77115,-4.819459 -0.34041,-0.833103 -0.56884,-2.033488 -1.50944,-0.940601 -1.23174,0.559882 -3.92812,3.202522 -4.42978,1.021224 1.03914,-5.51371 2.95618,-10.825864 4.18343,-16.303744 1.1332,-2.508268 -0.71664,-5.688393 -3.47574,-3.610114 -3.31002,1.442254 -6.07807,3.793756 -8.96706,5.90338898 z M 113.50724,-18.824496 c -3.37273,-0.179162 -5.14195,5.262885 -1.93047,6.754408 2.59785,1.066014 5.43757,-1.603499 4.80154,-4.273014 a 2.8979456,2.8979456 0 0 0 -2.86659,-2.481394 z"
     style="line-height:100%;-inkscape-font-specification:'URW Palladio L Bold';text-align:start;stroke:#000000;stroke-width:2;stroke-linecap:round;stroke-linejoin:round;stroke-miterlimit:4;stroke-dasharray:none;stroke-opacity:0.0429907"
     font-weight="700"
     font-size="40px"
     font-family="'URW Palladio L'"
     fill="#ffffff"
     id="path951" />
  <path
     d="m 101.22568,-0.27226902 c 0.36281,0.985391 0.77488,1.78714102 1.64382,0.694252 1.07497,-0.640504 4.68508,-3.44886898 4.32676,-0.698731 -1.1556,5.09268002 -2.5665,10.13609002 -3.64147,15.24668702 -1.12424,2.799407 1.43329,5.33007 4.09833,3.507097 2.83524,-1.164554 5.27632,-3.072629 7.77115,-4.819459 -0.34041,-0.833103 -0.56884,-2.033488 -1.50944,-0.940601 -1.23174,0.559882 -3.92812,3.202522 -4.42978,1.021224 1.03914,-5.51371 2.95618,-10.825864 4.18343,-16.303744 1.1332,-2.508268 -0.71664,-5.688393 -3.47574,-3.610114 -3.31002,1.442254 -6.07807,3.793756 -8.96706,5.90338898 z M 113.50724,-18.824496 c -3.37273,-0.179162 -5.14195,5.262885 -1.93047,6.754408 2.59785,1.066014 5.43757,-1.603499 4.80154,-4.273014 a 2.8979456,2.8979456 0 0 0 -2.86659,-2.481394 z"
     style="line-height:100%;-inkscape-font-specification:'URW Palladio L Bold';text-align:start;stroke-width:4.47905"
     font-weight="700"
     font-size="40px"
     font-family="'URW Palladio L'"
     fill="#ffffff"
     id="path6" />
  <g
     id="path1216">
    <path
       id="path1239"
       style="color:#000000;-inkscape-font-specification:'URW Palladio L Bold';fill:#05004e;fill-opacity:0.0672897;stroke-width:2;stroke-linecap:round;stroke-linejoin:round;-inkscape-stroke:none"
       d="m 113.71529,-18.506486 c -2.21629,-0.102026 -3.85301,1.59905 -4.41602,3.455079 -0.28274,0.932105 -0.32603,1.945364 -0.0176,2.894531 0.30846,0.949167 1.01126,1.821129 2.05664,2.30664 a 1.0001,1.0001 0 0 0 0.041,0.01953 c 3.36588,1.381171 6.94682,-1.942243 6.15235,-5.398438 -0.30193,-1.87027 -1.91835,-3.26556 -3.81641,-3.277344 z m -1.70703,11.97461 c -0.74214,0.02076 -1.50764,0.323677 -2.23438,0.871094 -3.38787,1.523953 -6.16576,3.857681 -8.95508,5.89453098 A 1.0001,1.0001 0 0 0 100.46919,1.386093 c 0.19344,0.52537 0.30603,1.097649 0.98243,1.589843 0.3382,0.246098 0.94374,0.352022 1.38281,0.185547 0.37957,-0.143914 0.64077,-0.381233 0.88476,-0.667969 0.67455,-0.417673 1.67408,-1.127507 2.4375,-1.464843 0.17509,-0.07737 0.11215,-0.0652 0.21485,-0.08398 -1.13827,4.99684902 -2.52659,9.98222002 -3.59961,15.07031302 -0.64136,1.707572 -0.21511,3.464693 0.92187,4.496094 1.15864,1.051037 3.0689,1.220501 4.70118,0.107421 2.91813,-1.237568 5.37246,-3.138804 7.78515,-4.828124 a 1.0001,1.0001 0 0 0 0.35156,-1.197266 c -0.13621,-0.333378 -0.20455,-0.862379 -0.67773,-1.445313 -0.23659,-0.291466 -0.80174,-0.629449 -1.3457,-0.533203 -0.45979,0.08136 -0.75489,0.319298 -1.02149,0.605469 -0.83669,0.426137 -1.65453,1.108648 -2.33593,1.458984 -0.24118,0.123999 -0.29809,0.122136 -0.39844,0.146485 1.03282,-5.245982 2.84664,-10.402536 4.06054,-15.79882802 0.64851,-1.54991698 0.46737,-3.24823598 -0.45312,-4.42187498 -0.47333,-0.603507 -1.19607,-1.059352 -2.03516,-1.128907 -0.10488,-0.0087 -0.21038,-0.01078 -0.3164,-0.0078 z" />
  </g>
  <path
     id="rect904"
     style="fill:url(#linearGradient2906);stroke-width:2.70242;stroke-linecap:round;stroke-linejoin:round;fill-opacity:1"
     d="m 31.814453,20.085936 c -3.106791,0 -5.607422,2.58397 -5.607421,5.792969 v 0.957031 15.167969 c 0,1.058639 0.851516,1.910156 1.910156,1.910156 1.058639,0 1.912109,-0.851517 1.912109,-1.910156 V 38.017576 C 30.029986,36.759553 30.855621,36.421873 32,36.421873 c 1.114056,0 1.970703,0.332785 1.970703,1.595703 v 3.986329 c 0,1.058639 0.853473,1.910156 1.91211,1.910156 1.058641,0 1.910156,-0.851517 1.910156,-1.910156 V 26.835936 26.119139 25.878905 c 0,-3.208999 -2.500631,-5.792969 -5.607422,-5.792969 z m 0.1875,3.349609 c 1.092222,0 1.972657,0.87848 1.972657,1.970703 v 5.28125 c 0,1.990775 -1.097475,1.941407 -1.789063,1.941407 h -0.371094 c -0.696487,-0.04994 -1.786246,-0.04826 -1.783203,-1.941407 v -5.28125 c 0,-1.092223 0.87848,-1.970703 1.970703,-1.970703 z m -11.542968,1.876953 c -1.058639,0 -1.91211,0.851518 -1.91211,1.910157 v 9.554687 c 0,1.058639 0.853471,1.910156 1.91211,1.910156 1.058638,0 1.910156,-0.851517 1.910156,-1.910156 v -9.554687 c 0,-1.058639 -0.851518,-1.910157 -1.910156,-1.910157 z m 23.082031,0 c -1.058639,0 -1.910156,0.851518 -1.910156,1.910157 v 9.554687 c 0,1.058639 0.851517,1.910156 1.910156,1.910156 1.058638,0 1.910156,-0.851517 1.910156,-1.910156 v -9.554687 c 0,-1.058639 -0.851518,-1.910157 -1.910156,-1.910157 z m -30.373047,3.34375 c -1.058639,0 -1.91211,0.851518 -1.91211,1.910157 v 2.867187 c 0,1.058639 0.853471,1.910156 1.91211,1.910156 1.058638,0 1.910156,-0.851517 1.910156,-1.910156 v -2.867187 c 0,-1.058639 -0.851518,-1.910157 -1.910156,-1.910157 z m 37.664063,0 c -1.058639,0 -1.910157,0.851518 -1.910157,1.910157 v 2.867187 c 0,1.058639 0.851518,1.910156 1.910157,1.910156 1.058638,0 1.912109,-0.851517 1.912109,-1.910156 v -2.867187 c 0,-1.058639 -0.853471,-1.910157 -1.912109,-1.910157 z" />
  <path
     id="path3589"
     style="fill:#ffffff;stroke-width:2.70242;stroke-linecap:round;stroke-linejoin:round;fill-opacity:1;stroke:none;stroke-opacity:1"
     d="m 31.814453,20.085936 c -3.106791,0 -5.607422,2.58397 -5.607421,5.792969 v 0.957031 15.167969 c 0,1.058639 0.851516,1.910156 1.910156,1.910156 1.058639,0 1.912109,-0.851517 1.912109,-1.910156 V 38.017576 C 30.029986,36.759553 30.855621,36.421873 32,36.421873 c 1.114056,0 1.970703,0.332785 1.970703,1.595703 v 3.986329 c 0,1.058639 0.853473,1.910156 1.91211,1.910156 1.058641,0 1.910156,-0.851517 1.910156,-1.910156 V 26.835936 26.119139 25.878905 c 0,-3.208999 -2.500631,-5.792969 -5.607422,-5.792969 z m 0.1875,3.349609 c 1.092222,0 1.972657,0.87848 1.972657,1.970703 v 5.28125 c 0,1.990775 -1.097475,1.941407 -1.789063,1.941407 h -0.371094 c -0.696487,-0.04994 -1.786246,-0.04826 -1.783203,-1.941407 v -5.28125 c 0,-1.092223 0.87848,-1.970703 1.970703,-1.970703 z m -11.542968,1.876953 c -1.058639,0 -1.91211,0.851518 -1.91211,1.910157 v 9.554687 c 0,1.058639 0.853471,1.910156 1.91211,1.910156 1.058638,0 1.910156,-0.851517 1.910156,-1.910156 v -9.554687 c 0,-1.058639 -0.851518,-1.910157 -1.910156,-1.910157 z m 23.082031,0 c -1.058639,0 -1.910156,0.851518 -1.910156,1.910157 v 9.554687 c 0,1.058639 0.851517,1.910156 1.910156,1.910156 1.058638,0 1.910156,-0.851517 1.910156,-1.910156 v -9.554687 c 0,-1.058639 -0.851518,-1.910157 -1.910156,-1.910157 z m -30.373047,3.34375 c -1.058639,0 -1.91211,0.851518 -1.91211,1.910157 v 2.867187 c 0,1.058639 0.853471,1.910156 1.91211,1.910156 1.058638,0 1.910156,-0.851517 1.910156,-1.910156 v -2.867187 c 0,-1.058639 -0.851518,-1.910157 -1.910156,-1.910157 z m 37.664063,0 c -1.058639,0 -1.910157,0.851518 -1.910157,1.910157 v 2.867187 c 0,1.058639 0.851518,1.910156 1.910157,1.910156 1.058638,0 1.912109,-0.851517 1.912109,-1.910156 v -2.867187 c 0,-1.058639 -0.853471,-1.910157 -1.912109,-1.910157 z" />
</svg>
