<?xml version='1.0' encoding='utf-8'?>
<svg xmlns="http://www.w3.org/2000/svg" xmlns:dc="http://purl.org/dc/elements/1.1/" xmlns:ns1="http://sodipodi.sourceforge.net/DTD/sodipodi-0.dtd" xmlns:ns2="http://www.inkscape.org/namespaces/inkscape" xmlns:ns3="http://www.w3.org/1999/xlink" xmlns:ns5="http://creativecommons.org/ns#" xmlns:rdf="http://www.w3.org/1999/02/22-rdf-syntax-ns#" version="1.1" width="16" height="16" id="svg3810" ns1:docname="base-generic.svg" ns2:version="1.4 (e7c3feb100, 2024-10-09)">
  <ns1:namedview id="namedview1" pagecolor="#ffffff" bordercolor="#000000" borderopacity="0.25" ns2:showpageshadow="2" ns2:pageopacity="0.0" ns2:pagecheckerboard="0" ns2:deskcolor="#d1d1d1" ns2:zoom="73.8125" ns2:cx="7.9932261" ns2:cy="8" ns2:current-layer="svg3810" />
  <defs id="defs3812">
    <linearGradient x1="23.99999" y1="6.9230647" x2="23.99999" y2="41.076912" id="linearGradient3988" ns3:href="#linearGradient3977" gradientUnits="userSpaceOnUse" gradientTransform="matrix(0.24324324,0,0,0.35135133,2.1621636,-0.43242804)" />
    <linearGradient id="linearGradient3977">
      <stop id="stop3979" style="stop-color:#ffffff;stop-opacity:1" offset="0" />
      <stop id="stop3981" style="stop-color:#ffffff;stop-opacity:0.23529412" offset="0" />
      <stop id="stop3983" style="stop-color:#ffffff;stop-opacity:0.15686275" offset="1" />
      <stop id="stop3985" style="stop-color:#ffffff;stop-opacity:0.39215687" offset="1" />
    </linearGradient>
    <linearGradient id="linearGradient3600">
      <stop id="stop3602" style="stop-color:#f4f4f4;stop-opacity:1" offset="0" />
      <stop id="stop3604" style="stop-color:#dbdbdb;stop-opacity:1" offset="1" />
    </linearGradient>
    <linearGradient x1="25.132275" y1="0.98520643" x2="25.132275" y2="47.013336" id="linearGradient3806" ns3:href="#linearGradient3600" gradientUnits="userSpaceOnUse" gradientTransform="matrix(0.28571361,0,0,0.30419701,1.1428727,0.2326048)" />
    <linearGradient id="linearGradient3104-9">
      <stop id="stop3106-5" style="stop-color:#000000;stop-opacity:0.33950618" offset="0" />
      <stop id="stop3108-5" style="stop-color:#000000;stop-opacity:0.24691358" offset="1" />
    </linearGradient>
    <linearGradient x1="-51.786404" y1="50.786446" x2="-51.786404" y2="2.9062471" id="linearGradient3019" ns3:href="#linearGradient3104-9" gradientUnits="userSpaceOnUse" gradientTransform="matrix(0.25378586,0,0,0.30501865,19.128979,-0.68547704)" />
    <radialGradient cx="7.8060555" cy="9.9571075" r="12.671875" fx="7.2758255" fy="9.9571075" id="radialGradient3858" ns3:href="#linearGradient2867-449-88-871-390-598-476-591-434-148-57-177-8-3" gradientUnits="userSpaceOnUse" gradientTransform="matrix(-5.0813118e-8,2.2503718,-2.543345,-6.7550105e-8,33.320987,-20.146566)" />
    <linearGradient id="linearGradient2867-449-88-871-390-598-476-591-434-148-57-177-8-3">
      <stop id="stop3750-1-0" style="stop-color:#ffcd7d;stop-opacity:1" offset="0" />
      <stop id="stop3752-3-7" style="stop-color:#fc8f36;stop-opacity:1" offset="0.26238" />
      <stop id="stop3754-1-8" style="stop-color:#e23a0e;stop-opacity:1" offset="0.704952" />
      <stop id="stop3756-1-6" style="stop-color:#ac441f;stop-opacity:1" offset="1" />
    </linearGradient>
  <defs id="defs3812">
    <linearGradient gradientTransform="matrix(0.24324324,0,0,0.35135133,2.1621636,-0.43242804)" gradientUnits="userSpaceOnUse" ns3:href="#linearGradient3977" id="linearGradient3988" y2="41.076912" x2="23.99999" y1="6.9230647" x1="23.99999" />
    <linearGradient id="linearGradient3977">
      <stop offset="0" style="stop-color:#ffffff;stop-opacity:1" id="stop3979" />
      <stop offset="0" style="stop-color:#ffffff;stop-opacity:0.23529412" id="stop3981" />
      <stop offset="1" style="stop-color:#ffffff;stop-opacity:0.15686275" id="stop3983" />
      <stop offset="1" style="stop-color:#ffffff;stop-opacity:0.39215687" id="stop3985" />
    </linearGradient>
    <linearGradient id="linearGradient3600">
      <stop offset="0" style="stop-color:#f4f4f4;stop-opacity:1" id="stop3602" />
      <stop offset="1" style="stop-color:#dbdbdb;stop-opacity:1" id="stop3604" />
    </linearGradient>
    <linearGradient gradientTransform="matrix(0.28571361,0,0,0.30419701,1.1428727,0.2326048)" gradientUnits="userSpaceOnUse" ns3:href="#linearGradient3600" id="linearGradient3806" y2="47.013336" x2="25.132275" y1="0.98520643" x1="25.132275" />
    <linearGradient id="linearGradient3104-9">
      <stop offset="0" style="stop-color:#000000;stop-opacity:0.33950618" id="stop3106-5" />
      <stop offset="1" style="stop-color:#000000;stop-opacity:0.24691358" id="stop3108-5" />
    </linearGradient>
    <linearGradient gradientTransform="matrix(0.25378586,0,0,0.30501865,19.128979,-0.68547704)" gradientUnits="userSpaceOnUse" ns3:href="#linearGradient3104-9" id="linearGradient3019" y2="2.9062471" x2="-51.786404" y1="50.786446" x1="-51.786404" />
  </defs>
  <linearGradient gradientTransform="matrix(0.24324324,0,0,0.35135133,2.1621636,-0.43242804)" gradientUnits="userSpaceOnUse" ns3:href="#linearGradient3977" id="linearGradient3988" y2="41.076912" x2="23.99999" y1="6.9230647" x1="23.99999" />
    <linearGradient id="linearGradient3977">
      <stop offset="0" style="stop-color:#ffffff;stop-opacity:1" id="stop3979" />
      <stop offset="0" style="stop-color:#ffffff;stop-opacity:0.23529412" id="stop3981" />
      <stop offset="1" style="stop-color:#ffffff;stop-opacity:0.15686275" id="stop3983" />
      <stop offset="1" style="stop-color:#ffffff;stop-opacity:0.39215687" id="stop3985" />
    </linearGradient>
    <stop offset="0" style="stop-color:#ffffff;stop-opacity:1" id="stop3979" />
      <stop offset="0" style="stop-color:#ffffff;stop-opacity:0.23529412" id="stop3981" />
      <stop offset="1" style="stop-color:#ffffff;stop-opacity:0.15686275" id="stop3983" />
      <stop offset="1" style="stop-color:#ffffff;stop-opacity:0.39215687" id="stop3985" />
    <linearGradient id="linearGradient3600">
      <stop offset="0" style="stop-color:#f4f4f4;stop-opacity:1" id="stop3602" />
      <stop offset="1" style="stop-color:#dbdbdb;stop-opacity:1" id="stop3604" />
    </linearGradient>
    <stop offset="0" style="stop-color:#f4f4f4;stop-opacity:1" id="stop3602" />
      <stop offset="1" style="stop-color:#dbdbdb;stop-opacity:1" id="stop3604" />
    <linearGradient gradientTransform="matrix(0.28571361,0,0,0.30419701,1.1428727,0.2326048)" gradientUnits="userSpaceOnUse" ns3:href="#linearGradient3600" id="linearGradient3806" y2="47.013336" x2="25.132275" y1="0.98520643" x1="25.132275" />
    <linearGradient id="linearGradient3104-9">
      <stop offset="0" style="stop-color:#000000;stop-opacity:0.33950618" id="stop3106-5" />
      <stop offset="1" style="stop-color:#000000;stop-opacity:0.24691358" id="stop3108-5" />
    </linearGradient>
    <stop offset="0" style="stop-color:#000000;stop-opacity:0.33950618" id="stop3106-5" />
      <stop offset="1" style="stop-color:#000000;stop-opacity:0.24691358" id="stop3108-5" />
    <linearGradient gradientTransform="matrix(0.25378586,0,0,0.30501865,19.128979,-0.68547704)" gradientUnits="userSpaceOnUse" ns3:href="#linearGradient3104-9" id="linearGradient3019" y2="2.9062471" x2="-51.786404" y1="50.786446" x1="-51.786404" />
  </defs>
  <metadata id="metadata3815">
    <rdf:RDF>
      <ns5:Work rdf:about="">
        <dc:format>image/svg+xml</dc:format>
        <dc:type rdf:resource="http://purl.org/dc/dcmitype/StillImage" />
      </ns5:Work>
    </rdf:RDF>
  </metadata>
  <path style="display:inline;fill:url(#linearGradient3806);fill-opacity:1;stroke:none" id="path4160" d="m 3,1 c 2.2915074,0 9.999988,8.904e-4 9.999988,8.904e-4 L 13,15 C 13,15 6.3333332,15 3,15 3,10.333334 3,5.6666664 3,1 Z" />
  <path style="fill:none;stroke:url(#linearGradient3988);stroke-width:1;stroke-linecap:round;stroke-linejoin:miter;stroke-miterlimit:4;stroke-dasharray:none;stroke-dashoffset:0;stroke-opacity:1" id="rect6741-1" d="m 12.5,14.5 -9.0000001,0 0,-13 L 12.5,1.5 Z" />
  <path style="display:inline;fill:none;stroke:url(#linearGradient3019);stroke-width:0.99992192;stroke-linecap:butt;stroke-linejoin:round;stroke-miterlimit:4;stroke-dasharray:none;stroke-dashoffset:0;stroke-opacity:1" id="path4160-8" d="m 2.4999621,0.49997396 c 2.5206756,0 11.0000629,9.54e-4 11.0000629,9.54e-4 l 1.3e-5,14.99909804 c 0,0 -7.3333841,0 -11.000076,0 0,-5.000017 0,-10.000035 0,-15.00005204 z" />
<path id="path3402" style="fill:#cd4a9c;fill-opacity:1;fill-rule:nonzero;stroke:none" d="m 6.7505963,10.103478 c 0.091589,0.338816 0.081544,0.654766 -0.013062,0.940898 -0.010506,0.03177 -0.022092,0.06322 -0.034657,0.09429 -0.01257,0.03102 -0.02617,0.0617 -0.040752,0.09198 -0.072973,0.151383 -0.1708829,0.293084 -0.2907889,0.423873 -0.3657883,0.399056 -0.8768493,0.54996 -1.0959936,0.422805 C 5.0387026,11.940166 5.1572358,11.377517 5.58133,10.929245 6.0375804,10.446917 6.6940191,10.136829 6.6940191,10.136829 l -0.00104,-0.0019 c 0.018904,-0.01019 0.038127,-0.02065 0.057575,-0.03139 z M 11.950745,4.4054136 C 11.665657,3.2873027 9.8116903,2.9197419 8.0570245,3.5431192 7.0127909,3.9140804 5.8823251,4.4963359 5.0695032,5.2566408 4.1030539,6.1606018 3.9489315,6.9473798 4.0124591,7.2761397 4.2365256,8.4361725 5.826008,9.1944282 6.4794138,9.7570052 l 0,0.00336 c -0.1926666,0.094847 -1.6028548,0.808501 -1.932866,1.538101 -0.3482163,0.769705 0.055424,1.32205 0.3226605,1.3964 0.8279945,0.230361 1.6776609,-0.183989 2.1342658,-0.865077 0.4406443,-0.657272 0.4039611,-1.506022 0.2124671,-1.9282215 0.2641552,-0.069678 0.5721104,-0.1009063 0.9634713,-0.05519 1.1043614,0.1289956 1.3210501,0.8185667 1.2796165,1.1070887 -0.041401,0.288605 -0.2730438,0.44729 -0.3504884,0.495188 -0.077472,0.04793 -0.1010947,0.0645 -0.094567,0.100122 0.00938,0.05178 0.04523,0.04986 0.1112724,0.03867 C 9.216134,11.572117 9.7051348,11.352712 9.72604,10.820007 9.7526673,10.143668 9.1045289,9.3871087 7.9569014,9.4068744 7.4842688,9.4149797 7.1870691,9.4599781 6.972402,9.5398692 6.9565288,9.5217953 6.9403723,9.5038053 6.9236772,9.4859923 6.2141885,8.7290345 4.9026057,8.1935738 4.9582337,7.1759462 4.9784571,6.8059963 5.1070448,5.8318246 7.4784431,4.6501581 9.4210322,3.6822026 10.976144,3.9485641 11.244899,4.5389137 11.628794,5.3822916 10.413777,6.9498517 8.3963877,7.1759462 7.6277764,7.2621241 7.2230772,6.9642182 7.12241,6.8532852 7.0164163,6.736496 7.0006274,6.731229 6.9610664,6.753135 c -0.064483,0.035703 -0.02363,0.1388221 0,0.2003003 0.060217,0.156749 0.3073993,0.4347279 0.728799,0.5729996 0.3706842,0.1216603 1.2731171,0.1884935 2.3644766,-0.2336393 1.222273,-0.4728222 2.176745,-1.7880434 1.896406,-2.8874317" />
</svg>