<?xml version='1.0' encoding='utf-8'?>
<svg xmlns="http://www.w3.org/2000/svg" xmlns:dc="http://purl.org/dc/elements/1.1/" xmlns:ns1="http://sodipodi.sourceforge.net/DTD/sodipodi-0.dtd" xmlns:ns2="http://www.inkscape.org/namespaces/inkscape" xmlns:ns3="http://www.w3.org/1999/xlink" xmlns:ns5="http://creativecommons.org/ns#" xmlns:rdf="http://www.w3.org/1999/02/22-rdf-syntax-ns#" version="1.1" width="64" height="64" id="svg3844" ns1:docname="base-generic.svg" ns2:version="1.4 (e7c3feb100, 2024-10-09)">
  <ns1:namedview id="namedview1" pagecolor="#ffffff" bordercolor="#000000" borderopacity="0.25" ns2:showpageshadow="2" ns2:pageopacity="0.0" ns2:pagecheckerboard="0" ns2:deskcolor="#d1d1d1" ns2:zoom="18.453125" ns2:cx="32.027096" ns2:cy="32" ns2:current-layer="svg3844" />
  <defs id="defs3846">
    <linearGradient x1="-51.786404" y1="50.786446" x2="-51.786404" y2="2.9062471" id="linearGradient3033" ns3:href="#linearGradient3104-6" gradientUnits="userSpaceOnUse" gradientTransform="matrix(1.0843523,0,0,1.1997367,79.550862,-4.1628601)" />
    <linearGradient id="linearGradient3104-6">
      <stop id="stop3106-3" style="stop-color:#000000;stop-opacity:0.31782946" offset="0" />
      <stop id="stop3108-9" style="stop-color:#000000;stop-opacity:0.24031007" offset="1" />
    </linearGradient>
    <linearGradient x1="23.99999" y1="5.8641062" x2="23.99999" y2="42.175503" id="linearGradient3093" ns3:href="#linearGradient3977-4" gradientUnits="userSpaceOnUse" gradientTransform="matrix(1.2162162,0,0,1.5405376,2.8108184,-6.9729501)" />
    <linearGradient id="linearGradient3977-4">
      <stop id="stop3979-7" style="stop-color:#ffffff;stop-opacity:1" offset="0" />
      <stop id="stop3981-6" style="stop-color:#ffffff;stop-opacity:0.23529412" offset="0" />
      <stop id="stop3983-5" style="stop-color:#ffffff;stop-opacity:0.15686275" offset="1" />
      <stop id="stop3985-6" style="stop-color:#ffffff;stop-opacity:0.39215687" offset="1" />
    </linearGradient>
    <linearGradient x1="25.132275" y1="0.98520643" x2="25.132275" y2="47.013336" id="linearGradient3096" ns3:href="#linearGradient3600-9" gradientUnits="userSpaceOnUse" gradientTransform="matrix(1.3142827,0,0,1.2602393,0.4572141,-2.1793201)" />
    <linearGradient id="linearGradient3600-9">
      <stop id="stop3602-3" style="stop-color:#f4f4f4;stop-opacity:1" offset="0" />
      <stop id="stop3604-7" style="stop-color:#dbdbdb;stop-opacity:1" offset="1" />
    </linearGradient>
    <radialGradient cx="605.71429" cy="486.64789" r="117.14286" fx="605.71429" fy="486.64789" id="radialGradient3153" ns3:href="#linearGradient5060" gradientUnits="userSpaceOnUse" gradientTransform="matrix(0.03132633,0,0,0.02058823,35.220859,49.45142)" />
    <linearGradient id="linearGradient5060">
      <stop id="stop5062" style="stop-color:#000000;stop-opacity:1" offset="0" />
      <stop id="stop5064" style="stop-color:#000000;stop-opacity:0" offset="1" />
    </linearGradient>
    <radialGradient cx="605.71429" cy="486.64789" r="117.14286" fx="605.71429" fy="486.64789" id="radialGradient3156" ns3:href="#linearGradient5060" gradientUnits="userSpaceOnUse" gradientTransform="matrix(-0.03132632,0,0,0.02058823,28.779136,49.45142)" />
    <linearGradient id="linearGradient5048">
      <stop id="stop5050" style="stop-color:#000000;stop-opacity:0" offset="0" />
      <stop id="stop5056" style="stop-color:#000000;stop-opacity:1" offset="0.5" />
      <stop id="stop5052" style="stop-color:#000000;stop-opacity:0" offset="1" />
    </linearGradient>
    <linearGradient x1="302.85715" y1="366.64789" x2="302.85715" y2="609.50507" id="linearGradient3842" ns3:href="#linearGradient5048" gradientUnits="userSpaceOnUse" gradientTransform="matrix(0.09153846,0,0,0.02058823,-1.084616,49.45142)" />
    <radialGradient cx="6.5633106" cy="9.9571075" r="12.671875" fx="6.0330806" fy="9.9571075" id="radialGradient3029" ns3:href="#linearGradient2867-449-88-871-390-598-476-591-434-148-57-177-8-3-3" gradientUnits="userSpaceOnUse" gradientTransform="matrix(0,10.035098,-12.319893,0,154.65609,-88.47417)" />
    <linearGradient id="linearGradient2867-449-88-871-390-598-476-591-434-148-57-177-8-3-3">
      <stop id="stop3750-1-0-7" style="stop-color:#ffcd7d;stop-opacity:1" offset="0" />
      <stop id="stop3752-3-7-4" style="stop-color:#fc8f36;stop-opacity:1" offset="0.26238" />
      <stop id="stop3754-1-8-5" style="stop-color:#e23a0e;stop-opacity:1" offset="0.704952" />
      <stop id="stop3756-1-6-2" style="stop-color:#ac441f;stop-opacity:1" offset="1" />
    </linearGradient>
  <defs id="defs3132">
    <linearGradient gradientTransform="matrix(1.0843523,0,0,1.1997367,79.550862,-4.1628601)" gradientUnits="userSpaceOnUse" ns3:href="#linearGradient3104-6" id="linearGradient3048" y2="2.9062471" x2="-51.786404" y1="50.786446" x1="-51.786404" />
    <linearGradient id="linearGradient3104-6">
      <stop offset="0" style="stop-color:#000000;stop-opacity:0.31782946" id="stop3106-3" />
      <stop offset="1" style="stop-color:#000000;stop-opacity:0.24031007" id="stop3108-9" />
    </linearGradient>
    <linearGradient gradientTransform="matrix(1.2162162,0,0,1.5405376,2.8108184,-6.9729501)" gradientUnits="userSpaceOnUse" ns3:href="#linearGradient3977-4" id="linearGradient3051" y2="42.100208" x2="23.99999" y1="5.8641062" x1="23.99999" />
    <linearGradient id="linearGradient3977-4">
      <stop offset="0" style="stop-color:#ffffff;stop-opacity:1" id="stop3979-7" />
      <stop offset="0.01214366" style="stop-color:#ffffff;stop-opacity:0.23529412" id="stop3981-6" />
      <stop offset="0.98781353" style="stop-color:#ffffff;stop-opacity:0.15686275" id="stop3983-5" />
      <stop offset="1" style="stop-color:#ffffff;stop-opacity:0.39215687" id="stop3985-6" />
    </linearGradient>
    <linearGradient gradientTransform="matrix(1.3142827,0,0,1.2602393,0.4572141,-2.1793201)" gradientUnits="userSpaceOnUse" ns3:href="#linearGradient3600-9" id="linearGradient3054" y2="47.013336" x2="25.132275" y1="0.98520643" x1="25.132275" />
    <linearGradient id="linearGradient3600-9">
      <stop offset="0" style="stop-color:#f4f4f4;stop-opacity:1" id="stop3602-3" />
      <stop offset="1" style="stop-color:#dbdbdb;stop-opacity:1" id="stop3604-7" />
    </linearGradient>
    <radialGradient gradientTransform="matrix(0.03132633,0,0,0.02058823,35.220859,49.45142)" gradientUnits="userSpaceOnUse" ns3:href="#linearGradient5060" id="radialGradient3057" fy="486.64789" fx="605.71429" r="117.14286" cy="486.64789" cx="605.71429" />
    <linearGradient id="linearGradient5060">
      <stop offset="0" style="stop-color:#000000;stop-opacity:1" id="stop5062" />
      <stop offset="1" style="stop-color:#000000;stop-opacity:0" id="stop5064" />
    </linearGradient>
    <radialGradient gradientTransform="matrix(-0.03132632,0,0,0.02058823,28.779136,49.45142)" gradientUnits="userSpaceOnUse" ns3:href="#linearGradient5060" id="radialGradient3060" fy="486.64789" fx="605.71429" r="117.14286" cy="486.64789" cx="605.71429" />
    <linearGradient id="linearGradient5048">
      <stop offset="0" style="stop-color:#000000;stop-opacity:0" id="stop5050" />
      <stop offset="0.5" style="stop-color:#000000;stop-opacity:1" id="stop5056" />
      <stop offset="1" style="stop-color:#000000;stop-opacity:0" id="stop5052" />
    </linearGradient>
    <linearGradient gradientTransform="matrix(0.09153846,0,0,0.02058823,-1.084616,49.45142)" gradientUnits="userSpaceOnUse" ns3:href="#linearGradient5048" id="linearGradient3128" y2="609.50507" x2="302.85715" y1="366.64789" x1="302.85715" />
  </defs>
  <linearGradient gradientTransform="matrix(1.0843523,0,0,1.1997367,79.550862,-4.1628601)" gradientUnits="userSpaceOnUse" ns3:href="#linearGradient3104-6" id="linearGradient3048" y2="2.9062471" x2="-51.786404" y1="50.786446" x1="-51.786404" />
    <linearGradient id="linearGradient3104-6">
      <stop offset="0" style="stop-color:#000000;stop-opacity:0.31782946" id="stop3106-3" />
      <stop offset="1" style="stop-color:#000000;stop-opacity:0.24031007" id="stop3108-9" />
    </linearGradient>
    <stop offset="0" style="stop-color:#000000;stop-opacity:0.31782946" id="stop3106-3" />
      <stop offset="1" style="stop-color:#000000;stop-opacity:0.24031007" id="stop3108-9" />
    <linearGradient gradientTransform="matrix(1.2162162,0,0,1.5405376,2.8108184,-6.9729501)" gradientUnits="userSpaceOnUse" ns3:href="#linearGradient3977-4" id="linearGradient3051" y2="42.100208" x2="23.99999" y1="5.8641062" x1="23.99999" />
    <linearGradient id="linearGradient3977-4">
      <stop offset="0" style="stop-color:#ffffff;stop-opacity:1" id="stop3979-7" />
      <stop offset="0.01214366" style="stop-color:#ffffff;stop-opacity:0.23529412" id="stop3981-6" />
      <stop offset="0.98781353" style="stop-color:#ffffff;stop-opacity:0.15686275" id="stop3983-5" />
      <stop offset="1" style="stop-color:#ffffff;stop-opacity:0.39215687" id="stop3985-6" />
    </linearGradient>
    <stop offset="0" style="stop-color:#ffffff;stop-opacity:1" id="stop3979-7" />
      <stop offset="0.01214366" style="stop-color:#ffffff;stop-opacity:0.23529412" id="stop3981-6" />
      <stop offset="0.98781353" style="stop-color:#ffffff;stop-opacity:0.15686275" id="stop3983-5" />
      <stop offset="1" style="stop-color:#ffffff;stop-opacity:0.39215687" id="stop3985-6" />
    <linearGradient gradientTransform="matrix(1.3142827,0,0,1.2602393,0.4572141,-2.1793201)" gradientUnits="userSpaceOnUse" ns3:href="#linearGradient3600-9" id="linearGradient3054" y2="47.013336" x2="25.132275" y1="0.98520643" x1="25.132275" />
    <linearGradient id="linearGradient3600-9">
      <stop offset="0" style="stop-color:#f4f4f4;stop-opacity:1" id="stop3602-3" />
      <stop offset="1" style="stop-color:#dbdbdb;stop-opacity:1" id="stop3604-7" />
    </linearGradient>
    <stop offset="0" style="stop-color:#f4f4f4;stop-opacity:1" id="stop3602-3" />
      <stop offset="1" style="stop-color:#dbdbdb;stop-opacity:1" id="stop3604-7" />
    <radialGradient gradientTransform="matrix(0.03132633,0,0,0.02058823,35.220859,49.45142)" gradientUnits="userSpaceOnUse" ns3:href="#linearGradient5060" id="radialGradient3057" fy="486.64789" fx="605.71429" r="117.14286" cy="486.64789" cx="605.71429" />
    <linearGradient id="linearGradient5060">
      <stop offset="0" style="stop-color:#000000;stop-opacity:1" id="stop5062" />
      <stop offset="1" style="stop-color:#000000;stop-opacity:0" id="stop5064" />
    </linearGradient>
    <stop offset="0" style="stop-color:#000000;stop-opacity:1" id="stop5062" />
      <stop offset="1" style="stop-color:#000000;stop-opacity:0" id="stop5064" />
    <radialGradient gradientTransform="matrix(-0.03132632,0,0,0.02058823,28.779136,49.45142)" gradientUnits="userSpaceOnUse" ns3:href="#linearGradient5060" id="radialGradient3060" fy="486.64789" fx="605.71429" r="117.14286" cy="486.64789" cx="605.71429" />
    <linearGradient id="linearGradient5048">
      <stop offset="0" style="stop-color:#000000;stop-opacity:0" id="stop5050" />
      <stop offset="0.5" style="stop-color:#000000;stop-opacity:1" id="stop5056" />
      <stop offset="1" style="stop-color:#000000;stop-opacity:0" id="stop5052" />
    </linearGradient>
    <stop offset="0" style="stop-color:#000000;stop-opacity:0" id="stop5050" />
      <stop offset="0.5" style="stop-color:#000000;stop-opacity:1" id="stop5056" />
      <stop offset="1" style="stop-color:#000000;stop-opacity:0" id="stop5052" />
    <linearGradient gradientTransform="matrix(0.09153846,0,0,0.02058823,-1.084616,49.45142)" gradientUnits="userSpaceOnUse" ns3:href="#linearGradient5048" id="linearGradient3128" y2="609.50507" x2="302.85715" y1="366.64789" x1="302.85715" />
  </defs>
  <metadata id="metadata3849">
    <rdf:RDF>
      <ns5:Work rdf:about="">
        <dc:format>image/svg+xml</dc:format>
        <dc:type rdf:resource="http://purl.org/dc/dcmitype/StillImage" />
      </ns5:Work>
    </rdf:RDF>
  </metadata>
  <rect style="display:inline;overflow:visible;visibility:visible;opacity:0.15;fill:url(#linearGradient3842);fill-opacity:1;fill-rule:nonzero;stroke:none;stroke-width:1;marker:none" id="rect2879" y="57.000004" x="9.8999996" height="5" width="44.199997" />
  <path style="display:inline;overflow:visible;visibility:visible;opacity:0.15;fill:url(#radialGradient3156);fill-opacity:1;fill-rule:nonzero;stroke:none;stroke-width:1;marker:none" id="path2881" d="m 9.9,57.00022 c 0,0 0,4.9997 0,4.9997 -1.6132281,0.01 -3.9,-1.1202 -3.9,-2.5002 0,-1.38 1.8002408,-2.4995 3.9,-2.4995 z" />
  <path style="display:inline;overflow:visible;visibility:visible;opacity:0.15;fill:url(#radialGradient3153);fill-opacity:1;fill-rule:nonzero;stroke:none;stroke-width:1;marker:none" id="path2883" d="m 54.099999,57.00022 c 0,0 0,4.9997 0,4.9997 C 55.713227,62.00992 58,60.87972 58,59.49972 c 0,-1.38 -1.800241,-2.4995 -3.900001,-2.4995 z" />
  <path style="display:inline;fill:url(#linearGradient3096);fill-opacity:1;stroke:none" id="path4160-6" d="m 9,0.9998799 c 10.540935,0 45.999945,0.004 45.999945,0.004 L 55,59.00002 c 0,0 -30.666666,0 -46,0 0,-19.3334 0,-38.6665 0,-57.9998201 z" />
  <path style="fill:none;stroke:url(#linearGradient3093);stroke-width:1;stroke-linecap:round;stroke-linejoin:miter;stroke-miterlimit:4;stroke-dasharray:none;stroke-dashoffset:0;stroke-opacity:1" id="rect6741-1-8" d="m 54.499999,58.50002 -44.9999992,0 0,-57.0000401 44.9999992,0 z" />
  <path style="display:inline;fill:none;stroke:url(#linearGradient3033);stroke-width:0.9999218;stroke-linecap:butt;stroke-linejoin:round;stroke-miterlimit:4;stroke-dasharray:none;stroke-dashoffset:0;stroke-opacity:1" id="path4160-6-1" d="m 8.4999684,0.4998999 c 10.7700936,0 47.0000286,0.004 47.0000286,0.004 l 4.9e-5,58.9962201 c 0,0 -31.333384,0 -47.0000776,0 0,-19.6668 0,-39.3334 0,-58.9999701 z" />
<path style="opacity:1;fill:#7e8087;fill-opacity:1;stroke:none;stroke-width:2;stroke-miterlimit:4;stroke-dasharray:none;stroke-opacity:1" d="M 25.78125 22 C 25.36575 22 25.03125 22.3345 25.03125 22.75 L 25.03125 36.25 C 25.03125 36.6655 25.36575 37 25.78125 37 L 38.28125 37 C 38.69675 37 39.03125 36.6655 39.03125 36.25 L 39.03125 22.75 C 39.03125 22.3345 38.69675 22 38.28125 22 L 25.78125 22 z M 26.03125 23 L 27.03125 23 L 27.03125 24 L 26.03125 24 L 26.03125 23 z M 28.53125 23 L 35.53125 23 C 35.808251 23 36.03125 23.223 36.03125 23.5 L 36.03125 28.5 C 36.03125 28.777 35.808251 29 35.53125 29 L 28.53125 29 C 28.25425 29 28.03125 28.777 28.03125 28.5 L 28.03125 23.5 C 28.03125 23.223 28.25425 23 28.53125 23 z M 37.03125 23 L 38.03125 23 L 38.03125 24 L 37.03125 24 L 37.03125 23 z M 26.03125 25 L 27.03125 25 L 27.03125 26 L 26.03125 26 L 26.03125 25 z M 37.03125 25 L 38.03125 25 L 38.03125 26 L 37.03125 26 L 37.03125 25 z M 26.03125 27 L 27.03125 27 L 27.03125 28 L 26.03125 28 L 26.03125 27 z M 37.03125 27 L 38.03125 27 L 38.03125 28 L 37.03125 28 L 37.03125 27 z M 26.03125 29 L 27.03125 29 L 27.03125 30 L 26.03125 30 L 26.03125 29 z M 37.03125 29 L 38.03125 29 L 38.03125 30 L 37.03125 30 L 37.03125 29 z M 28.53125 30 L 35.53125 30 C 35.808251 30 36.03125 30.223 36.03125 30.5 L 36.03125 35.5 C 36.03125 35.777 35.808251 36 35.53125 36 L 28.53125 36 C 28.25425 36 28.03125 35.777 28.03125 35.5 L 28.03125 30.5 C 28.03125 30.223 28.25425 30 28.53125 30 z M 26.03125 31 L 27.03125 31 L 27.03125 32 L 26.03125 32 L 26.03125 31 z M 37.03125 31 L 38.03125 31 L 38.03125 32 L 37.03125 32 L 37.03125 31 z M 26.03125 33 L 27.03125 33 L 27.03125 34 L 26.03125 34 L 26.03125 33 z M 37.03125 33 L 38.03125 33 L 38.03125 34 L 37.03125 34 L 37.03125 33 z M 26.03125 35 L 27.03125 35 L 27.03125 36 L 26.03125 36 L 26.03125 35 z M 37.03125 35 L 38.03125 35 L 38.03125 36 L 37.03125 36 L 37.03125 35 z M 17.53125 52 A 1.5 1.5 0 0 0 16.03125 53.5 A 1.5 1.5 0 0 0 17.53125 55 A 1.5 1.5 0 0 0 19.03125 53.5 A 1.5 1.5 0 0 0 17.53125 52 z M 22.53125 52 A 1.5 1.5 0 0 0 21.03125 53.5 A 1.5 1.5 0 0 0 22.53125 55 A 1.5 1.5 0 0 0 24.03125 53.5 A 1.5 1.5 0 0 0 22.53125 52 z M 27.53125 52 A 1.5 1.5 0 0 0 26.03125 53.5 A 1.5 1.5 0 0 0 27.53125 55 A 1.5 1.5 0 0 0 29.03125 53.5 A 1.5 1.5 0 0 0 27.53125 52 z M 32.53125 52 A 1.5 1.5 0 0 0 31.03125 53.5 A 1.5 1.5 0 0 0 32.53125 55 A 1.5 1.5 0 0 0 34.03125 53.5 A 1.5 1.5 0 0 0 32.53125 52 z M 37.53125 52 A 1.5 1.5 0 0 0 36.03125 53.5 A 1.5 1.5 0 0 0 37.53125 55 A 1.5 1.5 0 0 0 39.03125 53.5 A 1.5 1.5 0 0 0 37.53125 52 z M 42.53125 52 A 1.5 1.5 0 0 0 41.03125 53.5 A 1.5 1.5 0 0 0 42.53125 55 A 1.5 1.5 0 0 0 44.03125 53.5 A 1.5 1.5 0 0 0 42.53125 52 z M 47.53125 52 A 1.5 1.5 0 0 0 46.03125 53.5 A 1.5 1.5 0 0 0 47.53125 55 A 1.5 1.5 0 0 0 49.03125 53.5 A 1.5 1.5 0 0 0 47.53125 52 z " id="path4194" />
</svg>