<?xml version="1.0" encoding="UTF-8" standalone="no"?>
<svg
   height="64pt"
   viewBox="0 0 64 64"
   width="64pt"
   version="1.1"
   id="svg54"
   sodipodi:docname="kde-logo.svg"
   inkscape:version="1.1.2 (0a00cf5339, 2022-02-04)"
   xmlns:inkscape="http://www.inkscape.org/namespaces/inkscape"
   xmlns:sodipodi="http://sodipodi.sourceforge.net/DTD/sodipodi-0.dtd"
   xmlns:xlink="http://www.w3.org/1999/xlink"
   xmlns="http://www.w3.org/2000/svg"
   xmlns:svg="http://www.w3.org/2000/svg">
  <defs
     id="defs58">
    <linearGradient
       inkscape:collect="always"
       id="linearGradient3796">
      <stop
         style="stop-color:#cdd6da;stop-opacity:1;"
         offset="0"
         id="stop3792" />
      <stop
         style="stop-color:#b2bfc6;stop-opacity:1"
         offset="1"
         id="stop3794" />
    </linearGradient>
    <linearGradient
       inkscape:collect="always"
       xlink:href="#linearGradient3796"
       id="linearGradient3798"
       x1="11.481647"
       y1="5.626267"
       x2="11.481647"
       y2="25.925632"
       gradientUnits="userSpaceOnUse"
       gradientTransform="matrix(1.4328237,0,0,1.4328237,12.099482,9.7245411)" />
  </defs>
  <sodipodi:namedview
     id="namedview56"
     pagecolor="#ffffff"
     bordercolor="#666666"
     borderopacity="1.0"
     inkscape:pageshadow="2"
     inkscape:pageopacity="0.0"
     inkscape:pagecheckerboard="0"
     inkscape:document-units="pt"
     showgrid="false"
     inkscape:zoom="3.6914063"
     inkscape:cx="-40.364021"
     inkscape:cy="17.066667"
     inkscape:window-width="1920"
     inkscape:window-height="1024"
     inkscape:window-x="0"
     inkscape:window-y="0"
     inkscape:window-maximized="1"
     inkscape:current-layer="svg54" />
  <linearGradient
     id="a"
     gradientUnits="userSpaceOnUse"
     x1="31.75254"
     x2="31.75254"
     y1="56.067835"
     y2="58.71392167">
    <stop
       offset="0"
       stop-opacity=".275"
       id="stop2" />
    <stop
       offset="1"
       stop-opacity="0"
       id="stop4" />
  </linearGradient>
  <linearGradient
     id="b">
    <stop
       offset="0"
       stop-opacity=".314"
       id="stop7" />
    <stop
       offset=".222"
       stop-opacity=".275"
       id="stop9" />
    <stop
       offset="1"
       stop-opacity="0"
       id="stop11" />
  </linearGradient>
  <radialGradient
     id="c"
     cx="450.909"
     cy="189.579"
     gradientTransform="matrix(0 -.15626 -.28128 0 104.261 127.19)"
     gradientUnits="userSpaceOnUse"
     r="21.167"
     xlink:href="#b" />
  <radialGradient
     id="d"
     cx="450.909"
     cy="189.579"
     gradientTransform="matrix(0 .15626 .28128 0 -40.755 -15.055)"
     gradientUnits="userSpaceOnUse"
     r="21.167"
     xlink:href="#b" />
  <radialGradient
     id="e"
     cx="450.909"
     cy="189.579"
     gradientTransform="matrix(0 -.15626 .28128 0 -40.755 127.19)"
     gradientUnits="userSpaceOnUse"
     r="21.167"
     xlink:href="#b" />
  <radialGradient
     id="f"
     cx="450.909"
     cy="189.579"
     gradientTransform="matrix(0 .15626 -.28128 0 104.261 -15.055)"
     gradientUnits="userSpaceOnUse"
     r="21.167"
     xlink:href="#b" />
  <linearGradient
     id="g"
     gradientUnits="userSpaceOnUse"
     x1="21.16831833"
     x2="21.16831833"
     y1="56.067835"
     y2="5.79293833">
    <stop
       offset="0"
       stop-color="#78909c"
       id="stop18" />
    <stop
       offset="1"
       stop-color="#90a4ae"
       id="stop20" />
  </linearGradient>
  <linearGradient
     id="h"
     gradientUnits="userSpaceOnUse"
     x1="31.7568"
     x2="31.7568"
     y1="45.48890344"
     y2="16.37850344">
    <stop
       offset="0"
       stop-color="#b0bec5"
       id="stop23" />
    <stop
       offset="1"
       stop-color="#cfd8dc"
       id="stop25" />
  </linearGradient>
  <path
     d="m11.906 55.871h39.692v2.941h-39.692zm0 0"
     fill="url(#a)"
     id="path28" />
  <path
     d="m51.598 56.066h5.293v-2.644h-5.293zm0 0"
     fill="url(#c)"
     id="path30" />
  <path
     d="m11.906 56.066h-5.293v2.649h5.293zm0 0"
     fill="url(#d)"
     id="path32" />
  <path
     d="m11.906 56.066h-5.293v-2.644h5.293zm0 0"
     fill="url(#e)"
     id="path34" />
  <path
     d="m51.598 56.066h5.293v2.649h-5.293zm0 0"
     fill="url(#f)"
     id="path36" />
  <path
     d="m9.262 5.793h44.984a2.644 2.644 0 0 1 2.645 2.644v44.985a2.644 2.644 0 0 1 -2.645 2.644h-44.984a2.647 2.647 0 0 1 -2.649-2.644v-44.984a2.647 2.647 0 0 1 2.649-2.645zm0 0"
     fill="url(#g)"
     id="path38" />
  <path
     d="m9.262 5.977a2.643 2.643 0 0 0 -2.649 2.648v.328a2.64 2.64 0 0 1 2.649-2.643h44.984a2.637 2.637 0 0 1 2.645 2.644v-.328a2.64 2.64 0 0 0 -2.645-2.648zm0 0"
     fill="#e6e6e6"
     fill-opacity=".392"
     id="path40" />
  <path
     d="m9.262 55.902a2.642 2.642 0 0 1 -2.649-2.644v-.332a2.642 2.642 0 0 0 2.649 2.644h44.984a2.639 2.639 0 0 0 2.645-2.644v.332a2.639 2.639 0 0 1 -2.645 2.644zm0 0"
     fill-opacity=".196"
     id="path42" />
  <path
     d="m9.262 5.793h44.984a2.644 2.644 0 0 1 2.645 2.644v44.985a2.644 2.644 0 0 1 -2.645 2.644h-44.984a2.647 2.647 0 0 1 -2.649-2.644v-44.985a2.647 2.647 0 0 1 2.649-2.644zm0 0"
     fill="none"
     stroke="#212121"
     stroke-linecap="round"
     stroke-width=".37503"
     id="path44" />
  <g
     id="g1521"
     style="opacity:0.660949"
     transform="matrix(1.0746178,0,0,1.0746178,-3.7515606,-2.6187333)">
    <path
       id="path1338"
       style="fill:#00020d;fill-opacity:0.0337097;stroke-width:3.87359"
       d="m 35.121728,15.50195 -6.247068,0.944417 v 22.598399 l 6.247068,-1.676091 V 28.6363 L 41.366807,38.929448 47.615863,36.585306 39.806034,27.214705 47.617851,17.0667 41.55569,15.50195 35.121728,25.743403 Z m -12.720795,6.127773 a 0.58103636,0.58103636 0 0 0 -0.409579,0.170989 l -2.451507,2.455484 c -0.22854,0.228539 -0.17431,0.549994 0,0.821144 l 2.537002,3.988421 c -0.185931,0.387358 -0.349557,0.794279 -0.485132,1.204877 l -0.02187,0.05169 -4.610741,1.025934 c -0.309887,0.06972 -0.580569,0.259062 -0.580569,0.580568 v 3.067863 c 0,0.31764 0.270682,0.506967 0.580569,0.580567 l 4.610741,1.023947 0.03778,0.08947 c 0.131702,0.398979 0.291145,0.78948 0.473202,1.169089 l -2.540978,3.990409 c -0.174309,0.271166 -0.228539,0.592502 0,0.817168 l 2.451507,2.455483 a 0.5771628,0.5771628 0 0 0 0.821146,0 l 3.982455,-2.537001 c 0.39123,0.193666 0.79438,0.355623 1.208853,0.495073 0.02713,0.0076 0.05042,0.02428 0.07754,0.03579 l 1.021958,4.604777 c 0,0.317641 0.259061,0.580567 0.580568,0.580567 h 3.467501 c 0.321506,0 0.510843,-0.270698 0.580567,-0.580567 l 1.017982,-4.747931 c 0.472579,-0.174317 0.930093,-0.388229 1.363936,-0.632261 l 3.889009,2.781554 a 0.5771628,0.5771628 0 0 0 0.817169,0 l 2.457471,-2.451506 c 0.228529,-0.228529 0.174316,-0.549997 0,-0.821145 l -1.481243,-2.246718 -0.155082,0.05766 A 0.78246231,0.78246231 0 0 1 40.700744,39.33505 L 39.143949,36.770213 A 8.5915912,8.5915912 0 0 1 22.625604,33.463761 c 0,-3.641163 2.269988,-6.74357 5.465688,-7.994736 v -1.713868 l -0.0099,0.05965 c -0.03487,0.01162 -0.06654,0.03003 -0.1014,0.03778 A 10.156516,10.156516 0 0 0 26.787045,24.33772 L 22.8125,21.804688 a 0.5771628,0.5771628 0 0 0 -0.411567,-0.174965 z" />
    <path
       id="path1466"
       style="fill:#00020d;fill-opacity:0.0337097;stroke-width:3.89307"
       d="m 35.402632,15.98339 -6.27849,0.949168 v 22.712069 l 6.27849,-1.684522 v -8.776299 l 6.276492,10.344923 6.280489,-2.355933 -7.849113,-9.417735 7.851111,-10.19905 -6.092654,-1.572621 -6.466325,10.292968 z m -12.78478,6.158596 a 0.58395898,0.58395898 0 0 0 -0.41164,0.171849 l -2.463838,2.467835 c -0.229689,0.229689 -0.175186,0.552761 0,0.825275 l 2.549764,4.008482 c -0.186867,0.389307 -0.351316,0.798275 -0.487573,1.210938 l -0.02198,0.05195 -4.633933,1.031094 c -0.311445,0.07007 -0.583489,0.260365 -0.583489,0.583489 v 3.083294 c 0,0.319238 0.272044,0.509517 0.583489,0.583487 l 4.633933,1.029098 0.03797,0.08992 c 0.132365,0.400986 0.29261,0.793451 0.475583,1.174969 l -2.55376,4.010481 c -0.175185,0.27253 -0.229688,0.595482 0,0.821278 l 2.463839,2.467835 a 0.58006593,0.58006593 0 0 0 0.825276,0 l 4.002487,-2.549763 c 0.393198,0.194641 0.798375,0.357412 1.214933,0.497564 0.02727,0.0076 0.05067,0.0244 0.07793,0.03597 l 1.027099,4.627939 c 0,0.319238 0.260364,0.583487 0.583488,0.583487 h 3.484943 c 0.323123,0 0.513412,-0.27206 0.583487,-0.583487 l 1.023102,-4.771813 c 0.474956,-0.175194 0.934772,-0.390182 1.370797,-0.635442 l 3.908571,2.795546 a 0.58006593,0.58006593 0 0 0 0.821279,0 l 2.469832,-2.463838 c 0.229679,-0.229678 0.175193,-0.552763 0,-0.825275 l -1.488694,-2.258019 -0.155862,0.05795 A 0.7863981,0.7863981 0 0 1 41.009711,39.936371 L 39.445085,37.358633 A 8.634807,8.634807 0 0 1 22.843653,34.035549 c 0,-3.659478 2.281406,-6.77749 5.49318,-8.034949 v -1.722489 l -0.0099,0.05995 c -0.03505,0.01168 -0.06687,0.03018 -0.10191,0.03797 a 10.207603,10.207603 0 0 0 -1.198947,0.487573 l -3.994537,-2.545773 a 0.58006593,0.58006593 0 0 0 -0.413637,-0.175845 z" />
    <path
       id="path1468"
       style="fill:#00020d;fill-opacity:0.0337097;stroke-width:3.93278"
       d="m 35.767652,15.995544 -6.342531,0.95885 v 22.943733 l 6.342531,-1.701704 v -8.865818 l 6.340512,10.450442 6.344551,-2.379964 -7.929175,-9.513796 7.931193,-10.303081 -6.154799,-1.588662 -6.532282,10.397957 z m -12.915185,6.221414 a 0.58991538,0.58991538 0 0 0 -0.415839,0.173602 l -2.488969,2.493007 c -0.232032,0.232032 -0.176973,0.558399 0,0.833693 l 2.575772,4.049369 c -0.188773,0.393278 -0.3549,0.806417 -0.492547,1.223289 l -0.0222,0.05248 -4.681199,1.041611 c -0.314622,0.07079 -0.589441,0.263021 -0.589441,0.589441 v 3.114744 c 0,0.322494 0.274819,0.514714 0.589441,0.589438 l 4.681199,1.039595 0.03836,0.09084 c 0.133715,0.405076 0.295594,0.801544 0.480433,1.186954 l -2.579808,4.051388 c -0.176972,0.27531 -0.232031,0.601556 0,0.829655 l 2.48897,2.493007 a 0.58598262,0.58598262 0 0 0 0.833694,0 L 27.313646,43.4933 c 0.397208,0.196627 0.806518,0.361058 1.227325,0.502639 0.02755,0.0077 0.05119,0.02465 0.07872,0.03634 l 1.037575,4.675144 c 0,0.322495 0.26302,0.589439 0.58944,0.589439 h 3.520489 c 0.326419,0 0.518649,-0.274835 0.589439,-0.589439 l 1.033538,-4.820485 c 0.4798,-0.176981 0.944306,-0.394162 1.384779,-0.641924 l 3.948438,2.824061 a 0.58598262,0.58598262 0 0 0 0.829656,0 l 2.495025,-2.488969 c 0.232021,-0.232021 0.17698,-0.558401 0,-0.833693 l -1.503879,-2.281051 -0.157452,0.05854 A 0.79441938,0.79441938 0 0 1 41.431923,40.192846 L 39.851338,37.588815 A 8.7228823,8.7228823 0 0 1 23.080571,34.231836 c 0,-3.696805 2.304677,-6.846621 5.549211,-8.116906 v -1.740058 l -0.01,0.06056 c -0.03541,0.0118 -0.06755,0.03049 -0.10295,0.03836 a 10.311721,10.311721 0 0 0 -1.211176,0.492546 l -4.035281,-2.57174 a 0.58598262,0.58598262 0 0 0 -0.417857,-0.177639 z" />
    <path
       id="path1470"
       style="fill:#00020d;fill-opacity:0.0337097;stroke-width:3.93278"
       d="m 35.89435,16.457404 -6.342531,0.95885 v 22.943733 l 6.342531,-1.701704 v -8.865818 l 6.340512,10.450442 6.344551,-2.379964 -7.929175,-9.513796 7.931193,-10.303081 -6.154799,-1.588662 -6.532282,10.397957 z m -12.915185,6.221414 a 0.58991538,0.58991538 0 0 0 -0.415839,0.173602 l -2.488969,2.493007 c -0.232032,0.232032 -0.176973,0.558399 0,0.833693 l 2.575772,4.049369 c -0.188773,0.393278 -0.3549,0.806417 -0.492547,1.223289 l -0.0222,0.05248 -4.681199,1.041611 c -0.314622,0.07079 -0.589441,0.263021 -0.589441,0.589441 v 3.114744 c 0,0.322494 0.274819,0.514714 0.589441,0.589438 l 4.681199,1.039595 0.03836,0.09084 c 0.133715,0.405076 0.295594,0.801544 0.480433,1.186954 l -2.579808,4.051388 c -0.176972,0.27531 -0.232031,0.601556 0,0.829655 l 2.48897,2.493007 a 0.58598262,0.58598262 0 0 0 0.833694,0 l 4.043313,-2.575771 c 0.397208,0.196627 0.806518,0.361058 1.227325,0.502639 0.02755,0.0077 0.05119,0.02465 0.07872,0.03634 l 1.037575,4.675144 c 0,0.322495 0.26302,0.589439 0.58944,0.589439 h 3.520489 c 0.326419,0 0.518649,-0.274835 0.589439,-0.589439 l 1.033538,-4.820485 c 0.4798,-0.176981 0.944306,-0.394162 1.384779,-0.641924 l 3.948438,2.824061 a 0.58598262,0.58598262 0 0 0 0.829656,0 l 2.495025,-2.488969 c 0.232021,-0.232021 0.17698,-0.558401 0,-0.833693 l -1.503879,-2.281051 -0.157452,0.05854 A 0.79441938,0.79441938 0 0 1 41.558621,40.654706 L 39.978036,38.050675 A 8.7228823,8.7228823 0 0 1 23.207269,34.693696 c 0,-3.696805 2.304677,-6.846621 5.549211,-8.116906 v -1.740058 l -0.01,0.06056 c -0.03541,0.0118 -0.06755,0.03049 -0.10295,0.03836 a 10.311721,10.311721 0 0 0 -1.211176,0.492546 l -4.035281,-2.57174 a 0.58598262,0.58598262 0 0 0 -0.417857,-0.177639 z" />
    <path
       id="path1472"
       style="fill:#00020d;fill-opacity:0.0337097;stroke-width:3.93278"
       d="m 36.065012,17.024478 -6.342531,0.95885 v 22.943733 l 6.342531,-1.701704 V 30.359539 L 42.405524,40.809981 48.750075,38.430017 40.8209,28.916221 48.752093,18.61314 42.597294,17.024478 36.065012,27.422435 Z m -12.915185,6.221414 a 0.58991538,0.58991538 0 0 0 -0.415839,0.173602 l -2.488969,2.493007 c -0.232032,0.232032 -0.176973,0.558399 0,0.833693 l 2.575772,4.049369 c -0.188773,0.393278 -0.3549,0.806417 -0.492547,1.223289 l -0.0222,0.05248 -4.681199,1.041611 c -0.314622,0.07079 -0.589441,0.263021 -0.589441,0.589441 v 3.114744 c 0,0.322494 0.274819,0.514714 0.589441,0.589438 l 4.681199,1.039595 0.03836,0.09084 c 0.133715,0.405076 0.295594,0.801544 0.480433,1.186954 l -2.579808,4.051388 c -0.176972,0.27531 -0.232031,0.601556 0,0.829655 l 2.48897,2.493007 a 0.58598262,0.58598262 0 0 0 0.833694,0 l 4.043313,-2.575771 c 0.397208,0.196627 0.806518,0.361058 1.227325,0.502639 0.02755,0.0077 0.05119,0.02465 0.07872,0.03634 l 1.037575,4.675144 c 0,0.322495 0.26302,0.589439 0.58944,0.589439 h 3.520489 c 0.326419,0 0.518649,-0.274835 0.589439,-0.589439 l 1.033538,-4.820485 c 0.4798,-0.176981 0.944306,-0.394162 1.384779,-0.641924 l 3.948438,2.824061 a 0.58598262,0.58598262 0 0 0 0.829656,0 L 44.34543,44.60904 c 0.232021,-0.232021 0.17698,-0.558401 0,-0.833693 l -1.503879,-2.281051 -0.157452,0.05854 A 0.79441938,0.79441938 0 0 1 41.729283,41.22178 L 40.148698,38.617749 A 8.7228823,8.7228823 0 0 1 23.377931,35.26077 c 0,-3.696805 2.304677,-6.846621 5.549211,-8.116906 v -1.740058 l -0.01,0.06056 c -0.03541,0.0118 -0.06755,0.03049 -0.10295,0.03836 a 10.311721,10.311721 0 0 0 -1.211176,0.492546 l -4.035281,-2.57174 a 0.58598262,0.58598262 0 0 0 -0.417857,-0.177639 z" />
    <path
       id="path1474"
       style="fill:#00020d;fill-opacity:0.0337097;stroke-width:3.93278"
       d="m 36.370352,17.448222 -6.342531,0.95885 v 22.943733 l 6.342531,-1.701704 v -8.865818 l 6.340512,10.450442 6.344551,-2.379964 -7.929175,-9.513796 7.931193,-10.303081 -6.154799,-1.588662 -6.532282,10.397957 z m -12.915185,6.221414 a 0.58991538,0.58991538 0 0 0 -0.415839,0.173602 l -2.488969,2.493007 c -0.232032,0.232032 -0.176973,0.558399 0,0.833693 l 2.575772,4.049369 c -0.188773,0.393278 -0.3549,0.806417 -0.492547,1.223289 l -0.0222,0.05248 -4.681199,1.041611 c -0.314622,0.07079 -0.589441,0.263021 -0.589441,0.589441 v 3.114744 c 0,0.322494 0.274819,0.514714 0.589441,0.589438 l 4.681199,1.039595 0.03836,0.09084 c 0.133715,0.405076 0.295594,0.801544 0.480433,1.186954 l -2.579808,4.051388 c -0.176972,0.27531 -0.232031,0.601556 0,0.829655 l 2.48897,2.493007 a 0.58598262,0.58598262 0 0 0 0.833694,0 l 4.043313,-2.575771 c 0.397208,0.196627 0.806518,0.361058 1.227325,0.502639 0.02755,0.0077 0.05119,0.02465 0.07872,0.03634 l 1.037575,4.675144 c 0,0.322495 0.26302,0.589439 0.58944,0.589439 h 3.520489 c 0.326419,0 0.518649,-0.274835 0.589439,-0.589439 l 1.033538,-4.820485 c 0.4798,-0.176981 0.944306,-0.394162 1.384779,-0.641924 l 3.948438,2.824061 a 0.58598262,0.58598262 0 0 0 0.829656,0 l 2.495025,-2.488969 c 0.232021,-0.232021 0.17698,-0.558401 0,-0.833693 L 43.146891,41.91804 42.989439,41.97658 A 0.79441938,0.79441938 0 0 1 42.034623,41.645524 L 40.454038,39.041493 A 8.7228823,8.7228823 0 0 1 23.683271,35.684514 c 0,-3.696805 2.304677,-6.846621 5.549211,-8.116906 V 25.82755 l -0.01,0.06056 c -0.03541,0.0118 -0.06755,0.03049 -0.10295,0.03836 a 10.311721,10.311721 0 0 0 -1.211176,0.492546 l -4.035281,-2.57174 a 0.58598262,0.58598262 0 0 0 -0.417857,-0.177639 z" />
    <path
       id="path1476"
       style="fill:#00020d;fill-opacity:0.0337097;stroke-width:3.98312"
       d="m 36.482972,18.016766 -6.423708,0.971122 v 23.237388 l 6.423708,-1.723484 V 31.522501 L 42.904636,42.106697 49.33039,39.696272 41.299731,30.06071 49.332434,19.625761 43.09886,18.016766 36.482972,28.547805 Z m -13.080485,6.301041 a 0.59746564,0.59746564 0 0 0 -0.421161,0.175824 l -2.520825,2.524915 c -0.235002,0.235002 -0.179238,0.565546 0,0.844363 l 2.608739,4.101197 c -0.191189,0.398311 -0.359442,0.816738 -0.498851,1.238945 l -0.02248,0.05315 -4.741113,1.054943 c -0.318649,0.0717 -0.596985,0.266387 -0.596985,0.596985 v 3.154609 c 0,0.326622 0.278336,0.521302 0.596985,0.596982 l 4.741113,1.052901 0.03885,0.092 c 0.135426,0.410261 0.299377,0.811803 0.486582,1.202146 l -2.612827,4.103241 c -0.179237,0.278834 -0.235001,0.609256 0,0.840274 l 2.520826,2.524915 a 0.59348255,0.59348255 0 0 0 0.844365,0 l 4.095063,-2.608738 c 0.402291,0.199143 0.81684,0.365679 1.243033,0.509072 0.0279,0.0078 0.05185,0.02497 0.07973,0.0368 l 1.050855,4.734981 c 0,0.326622 0.266387,0.596983 0.596984,0.596983 h 3.565548 c 0.330597,0 0.525287,-0.278353 0.596983,-0.596983 l 1.046766,-4.882182 c 0.485941,-0.179246 0.956392,-0.399207 1.402503,-0.65014 l 3.998973,2.860206 a 0.59348255,0.59348255 0 0 0 0.840275,0 l 2.526959,-2.520825 c 0.23499,-0.234991 0.179245,-0.565548 0,-0.844363 l -1.523133,-2.310237 -0.159468,0.05929 A 0.80458707,0.80458707 0 0 1 42.21974,42.523767 l -1.600815,-2.63736 A 8.8345255,8.8345255 0 0 1 23.633511,36.486462 c 0,-3.74412 2.334174,-6.93425 5.620235,-8.220793 V 26.50334 l -0.01013,0.06133 c -0.03586,0.01195 -0.06842,0.03088 -0.104268,0.03885 a 10.4437,10.4437 0 0 0 -1.226678,0.49885 l -4.086926,-2.604649 a 0.59348255,0.59348255 0 0 0 -0.423205,-0.179913 z" />
  </g>
  <path
     id="path6"
     style="fill:url(#linearGradient3798);fill-opacity:1;stroke:#131313;stroke-width:0.429847;stroke-miterlimit:4;stroke-dasharray:none;stroke-opacity:1"
     d="m 34.191681,14.344277 -6.594627,0.99696 v 23.855674 l 6.594627,-1.769341 v -9.218205 l 6.592528,10.865813 6.596726,-2.47456 -8.244333,-9.89194 8.246432,-10.712596 -6.399432,-1.651805 -6.791921,10.811242 z m -13.428525,6.468696 a 0.61336268,0.61336268 0 0 0 -0.432366,0.180502 l -2.587897,2.592095 c -0.241254,0.241255 -0.184007,0.580593 0,0.866829 l 2.678149,4.21032 c -0.196275,0.408908 -0.369005,0.838468 -0.512122,1.27191 l -0.02308,0.05456 -4.867263,1.083013 c -0.327128,0.0736 -0.612869,0.273476 -0.612869,0.612869 v 3.238546 c 0,0.335312 0.285741,0.535172 0.612869,0.612867 l 4.867263,1.080915 0.03988,0.09445 c 0.139027,0.421177 0.307343,0.833403 0.49953,1.234131 l -2.682348,4.212419 c -0.184006,0.286252 -0.241253,0.625466 0,0.862631 l 2.587899,2.592096 a 0.60927363,0.60927363 0 0 0 0.866829,0 l 4.204022,-2.678148 c 0.412998,0.204439 0.838576,0.375407 1.276109,0.522616 0.02864,0.008 0.05323,0.02563 0.08186,0.03778 l 1.078813,4.860966 c 0,0.335314 0.273475,0.612868 0.612869,0.612868 h 3.660416 c 0.339394,0 0.539266,-0.285758 0.612867,-0.612868 l 1.074618,-5.012085 c 0.498875,-0.184016 0.98184,-0.409827 1.439821,-0.667437 l 4.105377,2.936308 a 0.60927363,0.60927363 0 0 0 0.862633,0 l 2.594193,-2.587897 c 0.241243,-0.241243 0.184014,-0.580596 0,-0.86683 l -1.563653,-2.371716 -0.16371,0.06087 a 0.82599509,0.82599509 0 0 1 -0.992765,-0.344215 l -1.64341,-2.707534 A 9.0695897,9.0695897 0 0 1 21.000327,33.3054 c 0,-3.843742 2.396281,-7.118754 5.769776,-8.439528 v -1.80922 l -0.01046,0.06296 c -0.03681,0.01232 -0.07025,0.03171 -0.107046,0.03988 a 10.72158,10.72158 0 0 0 -1.259319,0.512122 l -4.195589,-2.673948 a 0.60927363,0.60927363 0 0 0 -0.434465,-0.184698 z" />
  <path
     id="path5921"
     style="fill:#ffffff;fill-opacity:0.225592;stroke:none;stroke-width:0.429847;stroke-miterlimit:4;stroke-dasharray:none;stroke-opacity:1"
     d="m 34.192113,14.344138 -6.594627,0.996959 v 1.80922 l 6.594627,-0.99696 z m 6.79192,0 -6.79192,10.811242 v 1.80922 l 6.79192,-10.811243 5.236663,1.351668 1.16277,-1.509082 z m -20.220445,6.468695 a 0.61336268,0.61336268 0 0 0 -0.432366,0.180502 l -2.587897,2.592096 c -0.241255,0.241254 -0.184008,0.580594 0,0.86683 l 0.365202,0.575088 2.222695,-2.224794 a 0.61336268,0.61336268 0 0 1 0.432366,-0.180502 0.60927363,0.60927363 0 0 1 0.434465,0.1847 l 4.195627,2.673951 a 10.72158,10.72158 0 0 1 0.44286,-0.180502 c 0.302441,-0.160117 0.612584,-0.308628 0.933994,-0.434465 v -1.80922 l -0.0105,0.06297 c -0.03681,0.01232 -0.07025,0.03171 -0.107041,0.03988 A 10.72158,10.72158 0 0 0 25.39368,23.67149 l -4.195627,-2.673953 a 0.60927363,0.60927363 0 0 0 -0.434465,-0.184699 z m 19.097553,6.764635 -0.724108,0.94029 7.096256,8.512988 1.148078,-0.430266 z m -19.888824,2.187016 c -0.01994,0.05711 -0.04405,0.112724 -0.06297,0.170007 l -0.02309,0.05457 -4.867263,1.083013 c -0.327128,0.07361 -0.612868,0.273475 -0.612868,0.612869 v 1.80922 c 0,-0.339393 0.28574,-0.539265 0.612868,-0.612868 l 4.867263,-1.083014 0.02309,-0.05457 c 0.143117,-0.433441 0.315847,-0.863003 0.512122,-1.27191 z m 1.095606,4.304767 c -0.0396,0.343514 -0.06716,0.690974 -0.06716,1.045234 a 9.0695897,9.0695897 0 0 0 5.272344,8.19396 c 0.134245,0.05089 0.268487,0.103063 0.40508,0.14902 0.02864,0.008 0.05323,0.02563 0.08186,0.03778 l 0.01259,0.05667 a 9.0695897,9.0695897 0 0 0 11.66548,-4.94702 l 1.643408,2.707533 a 0.82599509,0.82599509 0 0 0 0.992764,0.344214 l 0.16371,-0.06087 1.187957,1.802924 0.375696,-0.373598 c 0.241243,-0.241243 0.184015,-0.580597 0,-0.86683 l -1.072518,-1.628718 -0.944489,0.354708 -2.409494,-3.96895 A 9.0695897,9.0695897 0 0 1 21.067923,34.069251 Z m -1.093507,4.583917 -2.231091,3.505101 c -0.184006,0.286252 -0.241254,0.625467 0,0.862632 l 0.367301,0.3694 2.315045,-3.635231 c -0.171876,-0.358377 -0.321439,-0.726953 -0.451255,-1.101902 z" />
  <path
     id="path6137"
     style="fill:none;fill-opacity:0.225592;stroke:none;stroke-width:0.429847;stroke-miterlimit:4;stroke-dasharray:none;stroke-opacity:1"
     d="m 34.192113,14.344138 -6.594627,0.996959 v 1.80922 l 6.594627,-0.99696 z m 6.79192,0 -6.79192,10.811242 v 1.80922 l 6.79192,-10.811243 5.236663,1.351668 1.16277,-1.509082 z m -20.220445,6.468695 a 0.61336268,0.61336268 0 0 0 -0.432366,0.180502 l -2.587897,2.592096 c -0.241255,0.241254 -0.184008,0.580594 0,0.86683 l 0.365202,0.575088 2.222695,-2.224794 a 0.61336268,0.61336268 0 0 1 0.432366,-0.180502 0.60927363,0.60927363 0 0 1 0.434465,0.1847 l 4.195627,2.673951 a 10.72158,10.72158 0 0 1 0.44286,-0.180502 c 0.302441,-0.160117 0.612584,-0.308628 0.933994,-0.434465 v -1.80922 l -0.0105,0.06297 c -0.03681,0.01232 -0.07025,0.03171 -0.107041,0.03988 A 10.72158,10.72158 0 0 0 25.39368,23.67149 l -4.195627,-2.673953 a 0.60927363,0.60927363 0 0 0 -0.434465,-0.184699 z m 19.097553,6.764635 -0.724108,0.94029 7.096256,8.512988 1.148078,-0.430266 z m -19.888824,2.187016 c -0.01994,0.05711 -0.04405,0.112724 -0.06297,0.170007 l -0.02309,0.05457 -4.867263,1.083013 c -0.327128,0.07361 -0.612868,0.273475 -0.612868,0.612869 v 1.80922 c 0,-0.339393 0.28574,-0.539265 0.612868,-0.612868 l 4.867263,-1.083014 0.02309,-0.05457 c 0.143117,-0.433441 0.315847,-0.863003 0.512122,-1.27191 z m 1.095606,4.304767 c -0.0396,0.343514 -0.06716,0.690974 -0.06716,1.045234 a 9.0695897,9.0695897 0 0 0 5.272344,8.19396 c 0.134245,0.05089 0.268487,0.103063 0.40508,0.14902 0.02864,0.008 0.05323,0.02563 0.08186,0.03778 l 0.01259,0.05667 a 9.0695897,9.0695897 0 0 0 11.66548,-4.94702 l 1.643408,2.707533 a 0.82599509,0.82599509 0 0 0 0.992764,0.344214 l 0.16371,-0.06087 1.187957,1.802924 0.375696,-0.373598 c 0.241243,-0.241243 0.184015,-0.580597 0,-0.86683 l -1.072518,-1.628718 -0.944489,0.354708 -2.409494,-3.96895 A 9.0695897,9.0695897 0 0 1 21.067923,34.069251 Z m -1.093507,4.583917 -2.231091,3.505101 c -0.184006,0.286252 -0.241254,0.625467 0,0.862632 l 0.367301,0.3694 2.315045,-3.635231 c -0.171876,-0.358377 -0.321439,-0.726953 -0.451255,-1.101902 z" />
</svg>
