<?xml version="1.0" encoding="UTF-8" standalone="no"?>
<svg
   version="1.1"
   width="64"
   height="64"
   id="svg6333"
   inkscape:version="1.1.2 (0a00cf5339, 2022-02-04)"
   sodipodi:docname="paperwork.svg"
   xmlns:inkscape="http://www.inkscape.org/namespaces/inkscape"
   xmlns:sodipodi="http://sodipodi.sourceforge.net/DTD/sodipodi-0.dtd"
   xmlns:xlink="http://www.w3.org/1999/xlink"
   xmlns="http://www.w3.org/2000/svg"
   xmlns:svg="http://www.w3.org/2000/svg"
   xmlns:rdf="http://www.w3.org/1999/02/22-rdf-syntax-ns#"
   xmlns:cc="http://creativecommons.org/ns#"
   xmlns:dc="http://purl.org/dc/elements/1.1/">
  <sodipodi:namedview
     pagecolor="#ffffff"
     bordercolor="#666666"
     borderopacity="1"
     objecttolerance="10"
     gridtolerance="10"
     guidetolerance="10"
     inkscape:pageopacity="0"
     inkscape:pageshadow="2"
     inkscape:window-width="1920"
     inkscape:window-height="1004"
     id="namedview40"
     showgrid="false"
     inkscape:zoom="3.6875"
     inkscape:cx="7.0508475"
     inkscape:cy="8.9491525"
     inkscape:window-x="0"
     inkscape:window-y="0"
     inkscape:window-maximized="1"
     inkscape:current-layer="svg6333"
     inkscape:pagecheckerboard="0" />
  <defs
     id="defs6335">
    <linearGradient
       x1="23.99999"
       y1="4.999989"
       x2="23.99999"
       y2="43"
       id="linearGradient3381-5-4"
       xlink:href="#linearGradient3924-2-2-5-8"
       gradientUnits="userSpaceOnUse"
       gradientTransform="matrix(1.4324324,0,0,1.4362832,-2.378381,-2.4707782)" />
    <linearGradient
       id="linearGradient3924-2-2-5-8">
      <stop
         id="stop3926-9-4-9-6"
         style="stop-color:#ffffff;stop-opacity:1"
         offset="0" />
      <stop
         id="stop3928-9-8-6-5"
         style="stop-color:#ffffff;stop-opacity:0.23529412"
         offset="0.06316455" />
      <stop
         id="stop3930-3-5-1-7"
         style="stop-color:#ffffff;stop-opacity:0.15686275"
         offset="0.95056331" />
      <stop
         id="stop3932-8-0-4-8"
         style="stop-color:#ffffff;stop-opacity:0.39215687"
         offset="1" />
    </linearGradient>
    <radialGradient
       cx="4.9929786"
       cy="43.5"
       r="2.5"
       fx="4.9929786"
       fy="43.5"
       id="radialGradient3337-2-2"
       xlink:href="#linearGradient3688-166-749-4-0-3-8"
       gradientUnits="userSpaceOnUse"
       gradientTransform="matrix(2.003784,0,0,1.4,27.98813,-17.4)" />
    <linearGradient
       id="linearGradient3688-166-749-4-0-3-8">
      <stop
         id="stop2883-4-0-1-8"
         style="stop-color:#181818;stop-opacity:1"
         offset="0" />
      <stop
         id="stop2885-9-2-9-6"
         style="stop-color:#181818;stop-opacity:0"
         offset="1" />
    </linearGradient>
    <radialGradient
       cx="4.9929786"
       cy="43.5"
       r="2.5"
       fx="4.9929786"
       fy="43.5"
       id="radialGradient3339-1-4"
       xlink:href="#linearGradient3688-464-309-9-2-4-2"
       gradientUnits="userSpaceOnUse"
       gradientTransform="matrix(2.003784,0,0,1.4,-20.01187,-104.4)" />
    <linearGradient
       id="linearGradient3688-464-309-9-2-4-2">
      <stop
         id="stop2889-7-9-6-9"
         style="stop-color:#181818;stop-opacity:1"
         offset="0" />
      <stop
         id="stop2891-6-6-1-7"
         style="stop-color:#181818;stop-opacity:0"
         offset="1" />
    </linearGradient>
    <linearGradient
       id="linearGradient3702-501-757-8-4-1-1">
      <stop
         id="stop2895-8-9-9-1"
         style="stop-color:#181818;stop-opacity:0"
         offset="0" />
      <stop
         id="stop2897-7-8-7-7"
         style="stop-color:#181818;stop-opacity:1"
         offset="0.5" />
      <stop
         id="stop2899-4-5-1-5"
         style="stop-color:#181818;stop-opacity:0"
         offset="1" />
    </linearGradient>
    <linearGradient
       x1="25.058096"
       y1="47.027729"
       x2="25.058096"
       y2="39.999443"
       id="linearGradient6394"
       xlink:href="#linearGradient3702-501-757-8-4-1-1"
       gradientUnits="userSpaceOnUse" />
    <radialGradient
       gradientTransform="matrix(0,8.3467704,-16.443533,0,196.90203,-78.651143)"
       gradientUnits="userSpaceOnUse"
       xlink:href="#linearGradient2867-449-88-871-390-598-476-591-434-148-57-177-3-8"
       id="radialGradient5521-1"
       fy="9.9571075"
       fx="7.3198657"
       r="12.671875"
       cy="9.9571075"
       cx="7.8500957" />
    <linearGradient
       id="linearGradient2867-449-88-871-390-598-476-591-434-148-57-177-3-8">
      <stop
         id="stop3750-8-9"
         style="stop-color:#afb9c6;stop-opacity:1"
         offset="0" />
      <stop
         id="stop1071"
         style="stop-color:#a8b3c0;stop-opacity:1"
         offset="0.26283452" />
      <stop
         id="stop1005"
         style="stop-color:#828ea0;stop-opacity:1"
         offset="0.6935572" />
      <stop
         id="stop3756-9-3"
         style="stop-color:#444444;stop-opacity:1"
         offset="1" />
    </linearGradient>
  </defs>
  <metadata
     id="metadata6338">
    <rdf:RDF>
      <cc:Work
         rdf:about="">
        <dc:format>image/svg+xml</dc:format>
        <dc:type
           rdf:resource="http://purl.org/dc/dcmitype/StillImage" />
      </cc:Work>
    </rdf:RDF>
  </metadata>
  <g
     style="opacity:0.6"
     id="g3712-8-2-4-4"
     transform="matrix(1.5789502,0,0,0.7142857,-5.894751,27.928572)">
    <rect
       style="fill:url(#radialGradient3337-2-2);fill-opacity:1;stroke:none"
       id="rect2801-5-5-7-9"
       y="40"
       x="38"
       height="7"
       width="5" />
    <rect
       style="fill:url(#radialGradient3339-1-4);fill-opacity:1;stroke:none"
       id="rect3696-3-0-3-7"
       transform="scale(-1,-1)"
       y="-47"
       x="-10"
       height="7"
       width="5" />
    <rect
       style="fill:url(#linearGradient6394);fill-opacity:1;stroke:none"
       id="rect3700-5-6-8-4"
       y="40"
       x="10"
       height="7.0000005"
       width="28" />
  </g>
  <rect
     style="color:#000000;display:inline;overflow:visible;visibility:visible;fill:url(#radialGradient5521-1);fill-opacity:1;fill-rule:nonzero;stroke:none;stroke-width:0.99999994;marker:none;enable-background:accumulate"
     id="rect5505-21"
     y="4.5000019"
     x="4.4999986"
     ry="2.8205128"
     rx="2.8205128"
     height="55"
     width="55" />
  <rect
     style="opacity:0.5;fill:none;stroke:url(#linearGradient3381-5-4);stroke-width:1;stroke-linecap:round;stroke-linejoin:round;stroke-miterlimit:4;stroke-dasharray:none;stroke-dashoffset:0;stroke-opacity:1"
     id="rect6741-5-0-2-3"
     y="5.4287739"
     x="5.4999986"
     ry="2"
     rx="2"
     height="53.142479"
     width="53" />
  <rect
     style="color:#000000;display:inline;overflow:visible;visibility:visible;opacity:0.4;fill:#000000;stroke:#646464;stroke-width:1;stroke-linecap:round;stroke-linejoin:round;stroke-miterlimit:4;stroke-dasharray:none;stroke-dashoffset:0;stroke-opacity:1;marker:none;enable-background:accumulate;clip-rule:nonzero;isolation:auto;mix-blend-mode:normal;color-interpolation:sRGB;color-interpolation-filters:linearRGB;solid-color:#000000;solid-opacity:1;fill-opacity:0;fill-rule:nonzero;filter-blend-mode:normal;filter-gaussianBlur-deviation:0;color-rendering:auto;image-rendering:auto;shape-rendering:auto;text-rendering:auto"
     id="rect5505-21-3-8-9-1-1"
     y="4.5000019"
     x="4.4999986"
     ry="3"
     rx="3"
     height="55"
     width="55" />
  <g
     id="g2563"
     transform="matrix(2.0363934,0,0,2.0363934,-66.791698,-9.8762815)"
     style="opacity:0.453373">
    <path
       id="path6-3"
       style="opacity:0.6;fill:none;fill-rule:evenodd;stroke:#00061c;stroke-width:2.14677;stroke-linecap:round;stroke-linejoin:round;stroke-miterlimit:4;stroke-dasharray:none;stroke-opacity:0.0629979"
       d="m 223.64453,48.078125 -0.0371,0.0293 -84.04101,38.851562 c 9.32257,-0.566959 15.78619,3.759109 23.09765,8.515625 l 0.004,-0.0039 -0.0122,9.513028 8.60574,-8.02083 c 7.44944,0.992849 13.79512,4.50975 20.65625,7.99805 l 31.73047,-56.867191 -0.23438,0.199219 0.14844,-0.138672 0.0859,-0.06641 -0.0293,0.01367 z"
       transform="scale(0.26458333)"
       sodipodi:nodetypes="cccccccccccccc" />
    <path
       id="path2436"
       style="opacity:0.6;fill:none;fill-rule:evenodd;stroke:#00061c;stroke-width:3.77953;stroke-linecap:round;stroke-linejoin:round;stroke-miterlimit:4;stroke-dasharray:none;stroke-opacity:0.0629979"
       d="m 223.64453,48.078125 -0.0371,0.0293 -84.04101,38.851562 c 9.32257,-0.566959 15.78619,3.759109 23.09765,8.515625 l 0.004,-0.0039 -0.0122,9.513028 8.60574,-8.02083 c 7.44944,0.992849 13.79512,4.50975 20.65625,7.99805 l 31.73047,-56.867191 -0.23438,0.199219 0.14844,-0.138672 0.0859,-0.06641 -0.0293,0.01367 z"
       transform="scale(0.26458333)"
       sodipodi:nodetypes="cccccccccccccc" />
    <path
       id="path2438"
       style="opacity:0.6;fill:none;fill-rule:evenodd;stroke:#00061c;stroke-width:5.66929;stroke-linecap:round;stroke-linejoin:round;stroke-miterlimit:4;stroke-dasharray:none;stroke-opacity:0.0629979"
       d="m 223.64453,48.078125 -0.0371,0.0293 -84.04101,38.851562 c 9.32257,-0.566959 15.78619,3.759109 23.09765,8.515625 l 0.004,-0.0039 -0.0122,9.513028 8.60574,-8.02083 c 7.44944,0.992849 13.79512,4.50975 20.65625,7.99805 l 31.73047,-56.867191 -0.23438,0.199219 0.14844,-0.138672 0.0859,-0.06641 -0.0293,0.01367 z"
       transform="scale(0.26458333)"
       sodipodi:nodetypes="cccccccccccccc" />
    <path
       id="path2440"
       style="opacity:0.6;fill:none;fill-rule:evenodd;stroke:#00061c;stroke-width:9.44882;stroke-linecap:round;stroke-linejoin:round;stroke-miterlimit:4;stroke-dasharray:none;stroke-opacity:0.0629979"
       d="m 223.64453,48.078125 -0.0371,0.0293 -84.04101,38.851562 c 9.32257,-0.566959 15.78619,3.759109 23.09765,8.515625 l 0.004,-0.0039 -0.0122,9.513028 8.60574,-8.02083 c 7.44944,0.992849 13.79512,4.50975 20.65625,7.99805 l 31.73047,-56.867191 -0.23438,0.199219 0.14844,-0.138672 0.0859,-0.06641 -0.0293,0.01367 z"
       transform="scale(0.26458333)"
       sodipodi:nodetypes="cccccccccccccc" />
    <path
       id="path2442"
       style="opacity:0.6;fill:#000318;fill-opacity:0.0565181;fill-rule:evenodd;stroke:none;stroke-width:2.65844;stroke-linecap:round;stroke-linejoin:round;stroke-miterlimit:4;stroke-dasharray:none;stroke-opacity:0.0629979"
       d="m 60.210395,13.769938 -0.01042,0.0083 -23.631576,10.93723 c 2.621424,-0.159607 4.438935,1.058238 6.494852,2.397261 l 0.0012,-0.0011 -0.0034,2.678043 2.419856,-2.25797 c 2.094716,0.2795 3.879064,1.269555 5.808352,2.251558 l 8.922323,-16.008868 -0.0659,0.05608 0.04174,-0.03904 0.02416,-0.01869 -0.0083,0.0038 z"
       sodipodi:nodetypes="cccccccccccccc" />
    <path
       id="path2552"
       style="opacity:0.6;fill:#000318;fill-opacity:0.0565181;fill-rule:evenodd;stroke:none;stroke-width:2.65844;stroke-linecap:round;stroke-linejoin:round;stroke-miterlimit:4;stroke-dasharray:none;stroke-opacity:0.0629979"
       d="m 60.181976,14.435257 -0.01042,0.0083 -23.631576,10.93723 c 2.621424,-0.159607 4.438935,1.058238 6.494852,2.397261 l 0.0012,-0.0011 -0.0034,2.678043 2.419856,-2.25797 c 2.094716,0.2795 3.879064,1.269555 5.808352,2.251558 l 8.922323,-16.008868 -0.0659,0.05608 0.04174,-0.03904 0.02416,-0.01869 -0.0083,0.0038 z"
       sodipodi:nodetypes="cccccccccccccc" />
    <path
       id="path2554"
       style="opacity:0.6;fill:#000318;fill-opacity:0.0565181;fill-rule:evenodd;stroke:none;stroke-width:2.65844;stroke-linecap:round;stroke-linejoin:round;stroke-miterlimit:4;stroke-dasharray:none;stroke-opacity:0.0629979"
       d="m 61.026159,15.39025 -0.01042,0.0083 -23.631576,10.93723 c 2.621424,-0.159607 4.438935,1.058238 6.494852,2.397261 l 0.0012,-0.0011 -0.0034,2.678043 2.419856,-2.25797 c 2.094716,0.2795 3.879064,1.269555 5.808352,2.251558 l 8.922323,-16.008868 -0.0659,0.05608 0.04174,-0.03904 0.02416,-0.01869 -0.0083,0.0038 z"
       sodipodi:nodetypes="cccccccccccccc" />
  </g>
  <path
     style="opacity:0.6;fill:#ffffff;fill-rule:evenodd;stroke-width:1.1557"
     d="m 53.706893,16.028936 -32.854275,25.51857 -0.0043,5.223071 2.021041,-4.570512 -2.075485,4.543147 z"
     id="path6" />
  <path
     style="fill:#ffffff;fill-rule:evenodd;stroke-width:1.1557"
     d="M 8.4056966,36.976778 53.709156,16.033227 20.851307,41.565299 C 16.911922,39.002509 13.42866,36.671302 8.4056966,36.976778 Z"
     id="path8" />
  <path
     style="fill:#ffffff;fill-rule:evenodd;stroke-width:1.1557"
     d="M 22.935578,42.219969 53.709156,16.037363 36.612828,46.676237 C 32.15897,44.411828 28.109379,42.122983 22.935578,42.219969 Z"
     id="path10" />
</svg>
