<?xml version="1.0" encoding="UTF-8" standalone="no"?>
<svg
   height="32"
   width="32"
   version="1.1"
   id="svg10"
   sodipodi:docname="network-wireless.svg"
   inkscape:version="1.1.2 (0a00cf5339, 2022-02-04)"
   xmlns:inkscape="http://www.inkscape.org/namespaces/inkscape"
   xmlns:sodipodi="http://sodipodi.sourceforge.net/DTD/sodipodi-0.dtd"
   xmlns="http://www.w3.org/2000/svg"
   xmlns:svg="http://www.w3.org/2000/svg">
  <defs
     id="defs14" />
  <sodipodi:namedview
     id="namedview12"
     pagecolor="#ffffff"
     bordercolor="#666666"
     borderopacity="1.0"
     inkscape:pageshadow="2"
     inkscape:pageopacity="0.0"
     inkscape:pagecheckerboard="0"
     showgrid="false"
     inkscape:zoom="19.6875"
     inkscape:cx="-1.3206349"
     inkscape:cy="16"
     inkscape:window-width="1920"
     inkscape:window-height="1024"
     inkscape:window-x="0"
     inkscape:window-y="0"
     inkscape:window-maximized="1"
     inkscape:current-layer="svg10" />
  <path
     fill="none"
     d="M0 0h32v32H0z"
     id="path2" />
  <path
     d="M16 20a8 8 0 0 0-5.492 2.188L16 28.027l5.488-5.833A8 8 0 0 0 16 20z"
     fill="#5294e2"
     id="path4" />
  <path
     d="M15.668 3.977C9.782 4.068 4.162 6.595 0 11.02l3.668 3.898A18 18 0 0 1 16 10a18 18 0 0 1 12.34 4.91L32 11.02C27.675 6.422 21.784 3.88 15.668 3.977z"
     opacity=".5"
     fill="#5294e2"
     id="path6" />
  <path
     d="M16 12a15.999 15.999 0 0 0-10.969 4.367l4.114 4.37A10 10 0 0 1 16 18a9.996 9.996 0 0 1 6.86 2.735l4.105-4.364A16 16 0 0 0 16 12z"
     opacity=".8"
     fill="#5294e2"
     id="path8" />
</svg>
