<?xml version='1.0' encoding='utf-8'?>
<svg xmlns="http://www.w3.org/2000/svg" xmlns:dc="http://purl.org/dc/elements/1.1/" xmlns:ns1="http://sodipodi.sourceforge.net/DTD/sodipodi-0.dtd" xmlns:ns2="http://www.inkscape.org/namespaces/inkscape" xmlns:ns3="http://www.w3.org/1999/xlink" xmlns:ns5="http://creativecommons.org/ns#" xmlns:rdf="http://www.w3.org/1999/02/22-rdf-syntax-ns#" version="1.1" width="16" height="16" id="svg3810" ns1:docname="base-generic.svg" ns2:version="1.4 (e7c3feb100, 2024-10-09)">
  <ns1:namedview id="namedview1" pagecolor="#ffffff" bordercolor="#000000" borderopacity="0.25" ns2:showpageshadow="2" ns2:pageopacity="0.0" ns2:pagecheckerboard="0" ns2:deskcolor="#d1d1d1" ns2:zoom="73.8125" ns2:cx="7.9932261" ns2:cy="8" ns2:current-layer="svg3810" />
  <defs id="defs3812">
    <linearGradient x1="23.99999" y1="6.9230647" x2="23.99999" y2="41.076912" id="linearGradient3988" ns3:href="#linearGradient3977" gradientUnits="userSpaceOnUse" gradientTransform="matrix(0.24324324,0,0,0.35135133,2.1621636,-0.43242804)" />
    <linearGradient id="linearGradient3977">
      <stop id="stop3979" style="stop-color:#ffffff;stop-opacity:1" offset="0" />
      <stop id="stop3981" style="stop-color:#ffffff;stop-opacity:0.23529412" offset="0" />
      <stop id="stop3983" style="stop-color:#ffffff;stop-opacity:0.15686275" offset="1" />
      <stop id="stop3985" style="stop-color:#ffffff;stop-opacity:0.39215687" offset="1" />
    </linearGradient>
    <linearGradient id="linearGradient3600">
      <stop id="stop3602" style="stop-color:#f4f4f4;stop-opacity:1" offset="0" />
      <stop id="stop3604" style="stop-color:#dbdbdb;stop-opacity:1" offset="1" />
    </linearGradient>
    <linearGradient x1="25.132275" y1="0.98520643" x2="25.132275" y2="47.013336" id="linearGradient3806" ns3:href="#linearGradient3600" gradientUnits="userSpaceOnUse" gradientTransform="matrix(0.28571361,0,0,0.30419701,1.1428727,0.2326048)" />
    <linearGradient id="linearGradient3104-9">
      <stop id="stop3106-5" style="stop-color:#000000;stop-opacity:0.33950618" offset="0" />
      <stop id="stop3108-5" style="stop-color:#000000;stop-opacity:0.24691358" offset="1" />
    </linearGradient>
    <linearGradient x1="-51.786404" y1="50.786446" x2="-51.786404" y2="2.9062471" id="linearGradient3019" ns3:href="#linearGradient3104-9" gradientUnits="userSpaceOnUse" gradientTransform="matrix(0.25378586,0,0,0.30501865,19.128979,-0.68547704)" />
    <radialGradient cx="7.8060555" cy="9.9571075" r="12.671875" fx="7.2758255" fy="9.9571075" id="radialGradient3858" ns3:href="#linearGradient2867-449-88-871-390-598-476-591-434-148-57-177-8-3" gradientUnits="userSpaceOnUse" gradientTransform="matrix(-5.0813118e-8,2.2503718,-2.543345,-6.7550105e-8,33.320987,-20.146566)" />
    <linearGradient id="linearGradient2867-449-88-871-390-598-476-591-434-148-57-177-8-3">
      <stop id="stop3750-1-0" style="stop-color:#ffcd7d;stop-opacity:1" offset="0" />
      <stop id="stop3752-3-7" style="stop-color:#fc8f36;stop-opacity:1" offset="0.26238" />
      <stop id="stop3754-1-8" style="stop-color:#e23a0e;stop-opacity:1" offset="0.704952" />
      <stop id="stop3756-1-6" style="stop-color:#ac441f;stop-opacity:1" offset="1" />
    </linearGradient>
  <defs id="defs3812" />
  </defs>
  <metadata id="metadata3815">
    <rdf:RDF>
      <ns5:Work rdf:about="">
        <dc:format>image/svg+xml</dc:format>
        <dc:type rdf:resource="http://purl.org/dc/dcmitype/StillImage" />
      </ns5:Work>
    </rdf:RDF>
  </metadata>
  <path style="display:inline;fill:url(#linearGradient3806);fill-opacity:1;stroke:none" id="path4160" d="m 3,1 c 2.2915074,0 9.999988,8.904e-4 9.999988,8.904e-4 L 13,15 C 13,15 6.3333332,15 3,15 3,10.333334 3,5.6666664 3,1 Z" />
  <path style="fill:none;stroke:url(#linearGradient3988);stroke-width:1;stroke-linecap:round;stroke-linejoin:miter;stroke-miterlimit:4;stroke-dasharray:none;stroke-dashoffset:0;stroke-opacity:1" id="rect6741-1" d="m 12.5,14.5 -9.0000001,0 0,-13 L 12.5,1.5 Z" />
  <path style="display:inline;fill:none;stroke:url(#linearGradient3019);stroke-width:0.99992192;stroke-linecap:butt;stroke-linejoin:round;stroke-miterlimit:4;stroke-dasharray:none;stroke-dashoffset:0;stroke-opacity:1" id="path4160-8" d="m 2.4999621,0.49997396 c 2.5206756,0 11.0000629,9.54e-4 11.0000629,9.54e-4 l 1.3e-5,14.99909804 c 0,0 -7.3333841,0 -11.000076,0 0,-5.000017 0,-10.000035 0,-15.00005204 z" />
<path id="path836" style="display:inline;fill:none;stroke:#f37329;stroke-width:2;stroke-linecap:butt;stroke-linejoin:round;stroke-miterlimit:4;stroke-dasharray:none;stroke-opacity:1" d="m 7.5,7.8583762 6,-3.2033891 m 0,6.5956619 0,-6.5956619 -6,-3.0677979 -6.0217935,3.0677979 0,6.5956619 L 7.5,14.500021 Z m -6,3.249372 0,-6.6416448 -5.9782065,-3.2033891" />
  <path id="path4154" style="display:inline;fill:none;stroke:#cc3b02;stroke-width:3;stroke-linecap:butt;stroke-linejoin:round;stroke-miterlimit:4;stroke-dasharray:none;stroke-opacity:1;opacity:0.5" d="m 7.5,7.8583762 6,-3.2033891 m 0,6.5956619 0,-6.5956619 -6,-3.0677979 -6.0217935,3.0677979 0,6.5956619 L 7.5,14.500021 Z m -6,3.249372 0,-6.6416448 -5.9782065,-3.2033891" />
  <path d="m 7.5,7.8583762 6,-3.2033891 m 0,6.5956619 0,-6.5956619 -6,-3.0677979 -6.0217935,3.0677979 0,6.5956619 L 7.5,14.500021 Z m -6,3.249372 0,-6.6416448 -5.9782065,-3.2033891" style="display:inline;fill:none;stroke:#f37329;stroke-width:1;stroke-linecap:butt;stroke-linejoin:miter;stroke-miterlimit:4;stroke-dasharray:none;stroke-opacity:1" id="path3054-7" />
  <path id="path4158" d="M 1.40407,4.6935419 7.4391075,7.8465411 13.400247,4.7181747" style="fill:none;fill-rule:evenodd;stroke:#ffffff;stroke-width:1px;stroke-linecap:round;stroke-linejoin:round;stroke-opacity:1;opacity:0.2" />
  <path style="opacity:0.1;fill:none;fill-rule:evenodd;stroke:#000000;stroke-width:1px;stroke-linecap:round;stroke-linejoin:round;stroke-opacity:1" d="m 1.5518669,11.270501 5.8379753,3.177632 6.1582048,-3.128366" id="path4160" />
  <path style="opacity:0.4;fill:none;fill-rule:evenodd;stroke:#ffffff;stroke-width:1px;stroke-linecap:round;stroke-linejoin:round;stroke-opacity:1" d="M 2.5125463,4.1023545 7.4883731,1.5405427 12.341036,4.0530889" id="path4162" />
  <path id="path4164" d="m 1.4287028,5.7773854 0,4.5324366" style="opacity:0.1;fill:none;fill-rule:evenodd;stroke:#ffffff;stroke-width:1px;stroke-linecap:round;stroke-linejoin:miter;stroke-opacity:1" />
</svg>