<?xml version='1.0' encoding='utf-8'?>
<svg xmlns="http://www.w3.org/2000/svg" xmlns:dc="http://purl.org/dc/elements/1.1/" xmlns:ns1="http://sodipodi.sourceforge.net/DTD/sodipodi-0.dtd" xmlns:ns2="http://www.inkscape.org/namespaces/inkscape" xmlns:ns3="http://www.w3.org/1999/xlink" xmlns:ns5="http://creativecommons.org/ns#" xmlns:rdf="http://www.w3.org/1999/02/22-rdf-syntax-ns#" id="svg3828" height="24" width="24" version="1.1" ns1:docname="base-generic.svg" ns2:version="1.4 (e7c3feb100, 2024-10-09)">
  <ns1:namedview id="namedview1" pagecolor="#ffffff" bordercolor="#000000" borderopacity="0.25" ns2:showpageshadow="2" ns2:pageopacity="0.0" ns2:pagecheckerboard="0" ns2:deskcolor="#d1d1d1" ns2:zoom="49.208333" ns2:cx="12.010161" ns2:cy="12" ns2:current-layer="svg3828" />
  <defs id="defs3830">
    <linearGradient id="linearGradient3977">
      <stop offset="0" style="stop-color:#ffffff;stop-opacity:1" id="stop3979" />
      <stop offset="0" style="stop-color:#ffffff;stop-opacity:0.23529412" id="stop3981" />
      <stop offset="1" style="stop-color:#ffffff;stop-opacity:0.15686275" id="stop3983" />
      <stop offset="1" style="stop-color:#ffffff;stop-opacity:0.39215687" id="stop3985" />
    </linearGradient>
    <linearGradient id="linearGradient3600-4">
      <stop offset="0" style="stop-color:#f4f4f4;stop-opacity:1" id="stop3602-7" />
      <stop offset="1" style="stop-color:#dbdbdb;stop-opacity:1" id="stop3604-6" />
    </linearGradient>
    <linearGradient id="linearGradient5060">
      <stop offset="0" style="stop-color:#000000;stop-opacity:1" id="stop5062" />
      <stop offset="1" style="stop-color:#000000;stop-opacity:0" id="stop5064" />
    </linearGradient>
    <linearGradient id="linearGradient5048">
      <stop offset="0" style="stop-color:#000000;stop-opacity:0" id="stop5050" />
      <stop offset="0.5" style="stop-color:#000000;stop-opacity:1" id="stop5056" />
      <stop offset="1" style="stop-color:#000000;stop-opacity:0" id="stop5052" />
    </linearGradient>
    <linearGradient gradientTransform="matrix(0.40540511,0,0,0.51351351,2.2696871,-0.3243195)" gradientUnits="userSpaceOnUse" ns3:href="#linearGradient3977" id="linearGradient3013" y2="41.526306" x2="23.99999" y1="6.4736748" x1="23.99999" />
    <linearGradient gradientTransform="matrix(0.45714178,0,0,0.43456667,1.0285964,0.90372283)" gradientUnits="userSpaceOnUse" ns3:href="#linearGradient3600-4" id="linearGradient3016" y2="47.013336" x2="25.132275" y1="0.98520643" x1="25.132275" />
    <radialGradient gradientTransform="matrix(0.01204859,0,0,0.0082353,13.238793,18.980564)" gradientUnits="userSpaceOnUse" ns3:href="#linearGradient5060" id="radialGradient3021" fy="486.64789" fx="605.71429" r="117.14286" cy="486.64789" cx="605.71429" />
    <radialGradient gradientTransform="matrix(-0.01204859,0,0,0.0082353,10.761206,18.980564)" gradientUnits="userSpaceOnUse" ns3:href="#linearGradient5060" id="radialGradient3024" fy="486.64789" fx="605.71429" r="117.14286" cy="486.64789" cx="605.71429" />
    <linearGradient gradientTransform="matrix(0.0352071,0,0,0.0082353,-0.724852,18.980547)" gradientUnits="userSpaceOnUse" ns3:href="#linearGradient5048" id="linearGradient3027" y2="609.50507" x2="302.85715" y1="366.64789" x1="302.85715" />
    <radialGradient ns3:href="#linearGradient2867-449-88-871-390-598-476-591-434-148-57-177-8-3" id="radialGradient4231" gradientUnits="userSpaceOnUse" gradientTransform="matrix(-7.6081464e-8,3.0706349,-3.8080996,-9.2172196e-8,49.912607,-26.406022)" cx="7.8060555" cy="9.9571075" fx="7.2758255" fy="9.9571075" r="12.671875" />
    <linearGradient id="linearGradient2867-449-88-871-390-598-476-591-434-148-57-177-8-3">
      <stop id="stop3750-1-0" style="stop-color:#ffcd7d;stop-opacity:1" offset="0" />
      <stop id="stop3752-3-7" style="stop-color:#fc8f36;stop-opacity:1" offset="0.26238" />
      <stop id="stop3754-1-8" style="stop-color:#e23a0e;stop-opacity:1" offset="0.704952" />
      <stop id="stop3756-1-6" style="stop-color:#ac441f;stop-opacity:1" offset="1" />
    </linearGradient>
  <defs id="defs3830">
    <linearGradient id="linearGradient3977">
      <stop id="stop3979" style="stop-color:#ffffff;stop-opacity:1" offset="0" />
      <stop id="stop3981" style="stop-color:#ffffff;stop-opacity:0.23529412" offset="0" />
      <stop id="stop3983" style="stop-color:#ffffff;stop-opacity:0.15686275" offset="1" />
      <stop id="stop3985" style="stop-color:#ffffff;stop-opacity:0.39215687" offset="1" />
    </linearGradient>
    <linearGradient id="linearGradient3600-4">
      <stop id="stop3602-7" style="stop-color:#f4f4f4;stop-opacity:1" offset="0" />
      <stop id="stop3604-6" style="stop-color:#dbdbdb;stop-opacity:1" offset="1" />
    </linearGradient>
    <linearGradient id="linearGradient5060">
      <stop id="stop5062" style="stop-color:#000000;stop-opacity:1" offset="0" />
      <stop id="stop5064" style="stop-color:#000000;stop-opacity:0" offset="1" />
    </linearGradient>
    <linearGradient id="linearGradient5048">
      <stop id="stop5050" style="stop-color:#000000;stop-opacity:0" offset="0" />
      <stop id="stop5056" style="stop-color:#000000;stop-opacity:1" offset="0.5" />
      <stop id="stop5052" style="stop-color:#000000;stop-opacity:0" offset="1" />
    </linearGradient>
    <linearGradient x1="23.99999" y1="6.4736748" x2="23.99999" y2="41.526306" id="linearGradient3013" ns3:href="#linearGradient3977" gradientUnits="userSpaceOnUse" gradientTransform="matrix(0.40540511,0,0,0.51351351,2.2696871,-0.3243195)" />
    <linearGradient x1="25.132275" y1="0.98520643" x2="25.132275" y2="47.013336" id="linearGradient3016" ns3:href="#linearGradient3600-4" gradientUnits="userSpaceOnUse" gradientTransform="matrix(0.45714178,0,0,0.43456667,1.0285964,0.90372283)" />
    <radialGradient cx="605.71429" cy="486.64789" r="117.14286" fx="605.71429" fy="486.64789" id="radialGradient3021" ns3:href="#linearGradient5060" gradientUnits="userSpaceOnUse" gradientTransform="matrix(0.01204859,0,0,0.0082353,13.238793,18.980564)" />
    <radialGradient cx="605.71429" cy="486.64789" r="117.14286" fx="605.71429" fy="486.64789" id="radialGradient3024" ns3:href="#linearGradient5060" gradientUnits="userSpaceOnUse" gradientTransform="matrix(-0.01204859,0,0,0.0082353,10.761206,18.980564)" />
    <linearGradient x1="302.85715" y1="366.64789" x2="302.85715" y2="609.50507" id="linearGradient3027" ns3:href="#linearGradient5048" gradientUnits="userSpaceOnUse" gradientTransform="matrix(0.0352071,0,0,0.0082353,-0.724852,18.980547)" />
    <linearGradient x1="22.004084" y1="47.813133" x2="22.004084" y2="3.3638515" id="linearGradient3031" ns3:href="#linearGradient3104-5" gradientUnits="userSpaceOnUse" gradientTransform="matrix(0.48571482,0,0,0.477213,-0.305596,-0.326798)" />
    <linearGradient id="linearGradient3104-5">
      <stop id="stop3106-2" style="stop-color:#aaaaaa;stop-opacity:1" offset="0" />
      <stop id="stop3108-5" style="stop-color:#c8c8c8;stop-opacity:1" offset="1" />
    </linearGradient>
  </defs>
  <linearGradient id="linearGradient3977">
      <stop id="stop3979" style="stop-color:#ffffff;stop-opacity:1" offset="0" />
      <stop id="stop3981" style="stop-color:#ffffff;stop-opacity:0.23529412" offset="0" />
      <stop id="stop3983" style="stop-color:#ffffff;stop-opacity:0.15686275" offset="1" />
      <stop id="stop3985" style="stop-color:#ffffff;stop-opacity:0.39215687" offset="1" />
    </linearGradient>
    <stop id="stop3979" style="stop-color:#ffffff;stop-opacity:1" offset="0" />
      <stop id="stop3981" style="stop-color:#ffffff;stop-opacity:0.23529412" offset="0" />
      <stop id="stop3983" style="stop-color:#ffffff;stop-opacity:0.15686275" offset="1" />
      <stop id="stop3985" style="stop-color:#ffffff;stop-opacity:0.39215687" offset="1" />
    <linearGradient id="linearGradient3600-4">
      <stop id="stop3602-7" style="stop-color:#f4f4f4;stop-opacity:1" offset="0" />
      <stop id="stop3604-6" style="stop-color:#dbdbdb;stop-opacity:1" offset="1" />
    </linearGradient>
    <stop id="stop3602-7" style="stop-color:#f4f4f4;stop-opacity:1" offset="0" />
      <stop id="stop3604-6" style="stop-color:#dbdbdb;stop-opacity:1" offset="1" />
    <linearGradient id="linearGradient5060">
      <stop id="stop5062" style="stop-color:#000000;stop-opacity:1" offset="0" />
      <stop id="stop5064" style="stop-color:#000000;stop-opacity:0" offset="1" />
    </linearGradient>
    <stop id="stop5062" style="stop-color:#000000;stop-opacity:1" offset="0" />
      <stop id="stop5064" style="stop-color:#000000;stop-opacity:0" offset="1" />
    <linearGradient id="linearGradient5048">
      <stop id="stop5050" style="stop-color:#000000;stop-opacity:0" offset="0" />
      <stop id="stop5056" style="stop-color:#000000;stop-opacity:1" offset="0.5" />
      <stop id="stop5052" style="stop-color:#000000;stop-opacity:0" offset="1" />
    </linearGradient>
    <stop id="stop5050" style="stop-color:#000000;stop-opacity:0" offset="0" />
      <stop id="stop5056" style="stop-color:#000000;stop-opacity:1" offset="0.5" />
      <stop id="stop5052" style="stop-color:#000000;stop-opacity:0" offset="1" />
    <linearGradient x1="23.99999" y1="6.4736748" x2="23.99999" y2="41.526306" id="linearGradient3013" ns3:href="#linearGradient3977" gradientUnits="userSpaceOnUse" gradientTransform="matrix(0.40540511,0,0,0.51351351,2.2696871,-0.3243195)" />
    <linearGradient x1="25.132275" y1="0.98520643" x2="25.132275" y2="47.013336" id="linearGradient3016" ns3:href="#linearGradient3600-4" gradientUnits="userSpaceOnUse" gradientTransform="matrix(0.45714178,0,0,0.43456667,1.0285964,0.90372283)" />
    <radialGradient cx="605.71429" cy="486.64789" r="117.14286" fx="605.71429" fy="486.64789" id="radialGradient3021" ns3:href="#linearGradient5060" gradientUnits="userSpaceOnUse" gradientTransform="matrix(0.01204859,0,0,0.0082353,13.238793,18.980564)" />
    <radialGradient cx="605.71429" cy="486.64789" r="117.14286" fx="605.71429" fy="486.64789" id="radialGradient3024" ns3:href="#linearGradient5060" gradientUnits="userSpaceOnUse" gradientTransform="matrix(-0.01204859,0,0,0.0082353,10.761206,18.980564)" />
    <linearGradient x1="302.85715" y1="366.64789" x2="302.85715" y2="609.50507" id="linearGradient3027" ns3:href="#linearGradient5048" gradientUnits="userSpaceOnUse" gradientTransform="matrix(0.0352071,0,0,0.0082353,-0.724852,18.980547)" />
    <linearGradient x1="22.004084" y1="47.813133" x2="22.004084" y2="3.3638515" id="linearGradient3031" ns3:href="#linearGradient3104-5" gradientUnits="userSpaceOnUse" gradientTransform="matrix(0.48571482,0,0,0.477213,-0.305596,-0.326798)" />
    <linearGradient id="linearGradient3104-5">
      <stop id="stop3106-2" style="stop-color:#aaaaaa;stop-opacity:1" offset="0" />
      <stop id="stop3108-5" style="stop-color:#c8c8c8;stop-opacity:1" offset="1" />
    </linearGradient>
  <stop id="stop3106-2" style="stop-color:#aaaaaa;stop-opacity:1" offset="0" />
      <stop id="stop3108-5" style="stop-color:#c8c8c8;stop-opacity:1" offset="1" />
    </defs>
  <metadata id="metadata3833">
    <rdf:RDF>
      <ns5:Work rdf:about="">
        <dc:format>image/svg+xml</dc:format>
        <dc:type rdf:resource="http://purl.org/dc/dcmitype/StillImage" />
      </ns5:Work>
    </rdf:RDF>
  </metadata>
  <rect style="opacity:0.15;fill:url(#linearGradient3027);fill-opacity:1;fill-rule:nonzero;stroke:none;stroke-width:1;marker:none;visibility:visible;display:inline;overflow:visible" id="rect2879" y="22" x="3.5000007" height="2" width="16.999998" />
  <path style="opacity:0.15;fill:url(#radialGradient3024);fill-opacity:1;fill-rule:nonzero;stroke:none;stroke-width:1;marker:none;visibility:visible;display:inline;overflow:visible" id="path2881" d="m 3.4999999,22.000085 c 0,0 0,1.999891 0,1.999891 C 2.8795275,24.003776 2,23.551901 2,22.999901 2,22.447902 2.6924,22.000085 3.4999999,22.000085 z" />
  <path style="opacity:0.15;fill:url(#radialGradient3021);fill-opacity:1;fill-rule:nonzero;stroke:none;stroke-width:1;marker:none;visibility:visible;display:inline;overflow:visible" id="path2883" d="m 20.5,22.000085 c 0,0 0,1.999891 0,1.999891 0.620472,0.0038 1.5,-0.448075 1.5,-1.000075 0,-0.551999 -0.692402,-0.999816 -1.5,-0.999816 z" />
  <path style="display:inline;fill:url(#linearGradient3016);fill-opacity:1;stroke:none" id="path4160-3" d="m 4,2 c 3.6664118,0 15.99998,0.0013 15.99998,0.0013 L 20,22 C 20,22 9.3333337,22 4,22 4,15.33334 4,8.6666817 4,2.0000212 Z" />
  <path style="fill:none;stroke:url(#linearGradient3013);stroke-width:1;stroke-linecap:round;stroke-linejoin:miter;stroke-miterlimit:4;stroke-opacity:1;stroke-dasharray:none;stroke-dashoffset:0" id="rect6741-1" d="m 19.5,21.5 -15.0000004,0 0,-19 L 19.5,2.5 z" />
  <path style="opacity:0.3;fill:none;stroke:#000000;stroke-width:0.99992186;stroke-linecap:butt;stroke-linejoin:round;stroke-miterlimit:4;stroke-opacity:1;stroke-dasharray:none;stroke-dashoffset:0;display:inline" id="path4160-3-1" d="m 3.4999601,1.4999569 c 3.8955809,0 17.0000589,0.00136 17.0000589,0.00136 l 2.1e-5,20.9987161 c 0,0 -11.3333862,0 -17.0000799,0 0,-7.000018 0,-14.000035 0,-21.0000538 z" />
<path style="fill:none;stroke:url(#linearGradient3031);stroke-width:1px;stroke-linecap:butt;stroke-linejoin:miter;stroke-opacity:1" id="path3475" d="m 6,5.5 1.138394,0 z m 1.305359,0 1.062501,0 z m 1.229466,0 0.941072,0 z m 1.092858,0 0.409822,0 z m 0.576786,0 0.910715,0 z m 1.092859,0 2.398216,0 z m 2.550002,0 1.83661,0 z m 1.988395,0 0.561608,0 z M 6,6.5 l 1.775895,0 z m 1.973217,0 0.850001,0 z m 1.001787,0 0.425,0 z m 0.591965,0 0.774108,0 z m 0.941072,0 0.789287,0 z m 0.941072,0 1.259823,0 z m 1.426788,0 1.639287,0 z m 1.791073,0 1.092858,0 z m 1.244644,0 0.273215,0 z M 6,7.4925436 l 1.502681,0 z m 1.654466,0 2.458932,0 z m 2.610718,0 1.199108,0 z m 1.350894,0 1.123215,0 z m 1.275001,0 0.956251,0 z m 1.108037,0 1.50268,0.014913 z m 1.639288,0.014913 2.443752,0 z M 6,8.5 l 2.079467,0 z m 2.246431,0 2.246431,0 z m 2.398217,0 0.895537,0 z m 1.047323,0 2.109824,0 z m 2.246431,0 1.441966,0 z m 1.60893,0 0.576787,0 z m 0.728572,0 0.318751,0 z m 0.485715,0 0.895537,0 z M 6,9.5 l 0.774108,0 z m 1.016966,0 2.868753,0 z M 6,11.492545 l 1.502681,0 z m 1.654466,0 2.458932,0 z m 2.610718,0 1.199108,0 z m 1.350894,0 1.123215,0 z m 1.275001,0 0.956251,0 z m 1.108037,0 1.50268,0.01491 z m 1.639288,0.01491 2.443752,0 z M 6,12.5 l 1.912502,0 z m 2.064288,0 2.04911,0 z m 2.200896,0 0.789286,0 z m 0.941072,0 1.927681,0 z m 2.079467,0 2.428574,0 z m 2.595538,0 0.895537,0 z M 6,13.5 l 2.079467,0 z m 2.246431,0 2.246431,0 z m 2.398217,0 0.895537,0 z m 1.047323,0 2.109824,0 z m 2.246431,0 1.441966,0 z m 1.60893,0 0.576787,0 z m 0.728572,0 0.318751,0 z m 0.485715,0 0.895537,0 z M 6,14.5 l 1.775895,0 z m 1.973217,0 0.850001,0 z m 1.001787,0 0.425,0 z m 0.591965,0 0.774108,0 z m 0.941072,0 0.789287,0 z m 0.941072,0 1.259823,0 z m 1.426788,0 1.639287,0 z m 1.791073,0 1.092858,0 z m 1.244644,0 0.273215,0 z M 6,16.492545 l 1.502681,0 z m 1.654466,0 2.458932,0 z m 2.610718,0 1.199108,0 z m 1.350894,0 1.123215,0 z m 1.275001,0 0.956251,0 z m 1.108037,0 1.50268,0.01491 z m 1.639288,0.01491 2.443752,0 z M 6,17.5 l 1.775895,0 z m 1.973217,0 0.850001,0 z m 1.001787,0 0.425,0 z m 0.591965,0 0.774108,0 z m 0.941072,0 0.789287,0 z m 0.941072,0 1.259823,0 z m 1.426788,0 1.639287,0 z m 1.791073,0 1.092858,0 z m 1.244644,0 0.273215,0 z M 6,18.5 l 1.882145,0 z m 2.04911,0 0.591965,0 z m 0.743751,0 1.350894,0 z m 1.50268,0 1.988395,0 z m 2.155359,0 1.350895,0 z m 1.487502,0 0.288393,0 z m 0.440179,0 1.71518,0 z m 1.897323,0 0.895537,0 z M 6,19.5 l 1.882145,0 z m 2.04911,0 0.850001,0 z m 1.001787,0 1.335715,0 z m 1.487501,0 1.441966,0 z m 1.60893,0 0.576787,0 z m 0.728573,0 0.31875,0 z m 0.485715,0 0.895536,0 z" />
</svg>