<?xml version='1.0' encoding='utf-8'?>
<svg xmlns="http://www.w3.org/2000/svg" xmlns:dc="http://purl.org/dc/elements/1.1/" xmlns:ns1="http://sodipodi.sourceforge.net/DTD/sodipodi-0.dtd" xmlns:ns2="http://www.inkscape.org/namespaces/inkscape" xmlns:ns3="http://www.w3.org/1999/xlink" xmlns:ns5="http://creativecommons.org/ns#" xmlns:rdf="http://www.w3.org/1999/02/22-rdf-syntax-ns#" version="1.1" width="16" height="16" id="svg3810" ns1:docname="base-generic.svg" ns2:version="1.4 (e7c3feb100, 2024-10-09)">
  <ns1:namedview id="namedview1" pagecolor="#ffffff" bordercolor="#000000" borderopacity="0.25" ns2:showpageshadow="2" ns2:pageopacity="0.0" ns2:pagecheckerboard="0" ns2:deskcolor="#d1d1d1" ns2:zoom="73.8125" ns2:cx="7.9932261" ns2:cy="8" ns2:current-layer="svg3810" />
  <defs id="defs3812">
    <linearGradient x1="23.99999" y1="6.9230647" x2="23.99999" y2="41.076912" id="linearGradient3988" ns3:href="#linearGradient3977" gradientUnits="userSpaceOnUse" gradientTransform="matrix(0.24324324,0,0,0.35135133,2.1621636,-0.43242804)" />
    <linearGradient id="linearGradient3977">
      <stop id="stop3979" style="stop-color:#ffffff;stop-opacity:1" offset="0" />
      <stop id="stop3981" style="stop-color:#ffffff;stop-opacity:0.23529412" offset="0" />
      <stop id="stop3983" style="stop-color:#ffffff;stop-opacity:0.15686275" offset="1" />
      <stop id="stop3985" style="stop-color:#ffffff;stop-opacity:0.39215687" offset="1" />
    </linearGradient>
    <linearGradient id="linearGradient3600">
      <stop id="stop3602" style="stop-color:#f4f4f4;stop-opacity:1" offset="0" />
      <stop id="stop3604" style="stop-color:#dbdbdb;stop-opacity:1" offset="1" />
    </linearGradient>
    <linearGradient x1="25.132275" y1="0.98520643" x2="25.132275" y2="47.013336" id="linearGradient3806" ns3:href="#linearGradient3600" gradientUnits="userSpaceOnUse" gradientTransform="matrix(0.28571361,0,0,0.30419701,1.1428727,0.2326048)" />
    <linearGradient id="linearGradient3104-9">
      <stop id="stop3106-5" style="stop-color:#000000;stop-opacity:0.33950618" offset="0" />
      <stop id="stop3108-5" style="stop-color:#000000;stop-opacity:0.24691358" offset="1" />
    </linearGradient>
    <linearGradient x1="-51.786404" y1="50.786446" x2="-51.786404" y2="2.9062471" id="linearGradient3019" ns3:href="#linearGradient3104-9" gradientUnits="userSpaceOnUse" gradientTransform="matrix(0.25378586,0,0,0.30501865,19.128979,-0.68547704)" />
    <radialGradient cx="7.8060555" cy="9.9571075" r="12.671875" fx="7.2758255" fy="9.9571075" id="radialGradient3858" ns3:href="#linearGradient2867-449-88-871-390-598-476-591-434-148-57-177-8-3" gradientUnits="userSpaceOnUse" gradientTransform="matrix(-5.0813118e-8,2.2503718,-2.543345,-6.7550105e-8,33.320987,-20.146566)" />
    <linearGradient id="linearGradient2867-449-88-871-390-598-476-591-434-148-57-177-8-3">
      <stop id="stop3750-1-0" style="stop-color:#ffcd7d;stop-opacity:1" offset="0" />
      <stop id="stop3752-3-7" style="stop-color:#fc8f36;stop-opacity:1" offset="0.26238" />
      <stop id="stop3754-1-8" style="stop-color:#e23a0e;stop-opacity:1" offset="0.704952" />
      <stop id="stop3756-1-6" style="stop-color:#ac441f;stop-opacity:1" offset="1" />
    </linearGradient>
  <defs id="defs3812">
    <linearGradient x1="23.99999" y1="6.2052388" x2="23.99999" y2="41.589603" id="linearGradient3988" ns3:href="#linearGradient3977" gradientUnits="userSpaceOnUse" gradientTransform="matrix(0.24324324,0,0,0.35135133,2.1621636,-0.43242804)" />
    <linearGradient id="linearGradient3977">
      <stop id="stop3979" style="stop-color:#ffffff;stop-opacity:1" offset="0" />
      <stop id="stop3981" style="stop-color:#ffffff;stop-opacity:0.23529412" offset="0.02929282" />
      <stop id="stop3983" style="stop-color:#ffffff;stop-opacity:0.15686275" offset="0.97230476" />
      <stop id="stop3985" style="stop-color:#ffffff;stop-opacity:0.39215687" offset="1" />
    </linearGradient>
    <linearGradient id="linearGradient3600">
      <stop id="stop3602" style="stop-color:#f4f4f4;stop-opacity:1" offset="0" />
      <stop id="stop3604" style="stop-color:#dbdbdb;stop-opacity:1" offset="1" />
    </linearGradient>
    <linearGradient x1="25.132275" y1="0.98520643" x2="25.132275" y2="47.013336" id="linearGradient3806" ns3:href="#linearGradient3600" gradientUnits="userSpaceOnUse" gradientTransform="matrix(0.28571361,0,0,0.30419701,1.1428727,0.2326048)" />
    <linearGradient id="linearGradient3104-9">
      <stop id="stop3106-5" style="stop-color:#000000;stop-opacity:0.33950618" offset="0" />
      <stop id="stop3108-5" style="stop-color:#000000;stop-opacity:0.24691358" offset="1" />
    </linearGradient>
    <linearGradient x1="-51.786404" y1="50.786446" x2="-51.786404" y2="2.9062471" id="linearGradient3019" ns3:href="#linearGradient3104-9" gradientUnits="userSpaceOnUse" gradientTransform="matrix(0.25378586,0,0,0.30501865,19.128979,-0.68547704)" />
    <linearGradient id="linearGradient3104-5">
      <stop id="stop3106-2" style="stop-color:#aaaaaa;stop-opacity:1" offset="0" />
      <stop id="stop3108-5-8" style="stop-color:#c8c8c8;stop-opacity:1" offset="1" />
    </linearGradient>
    <linearGradient x1="22.004084" y1="47.813133" x2="22.004084" y2="3.3638515" id="linearGradient3032" ns3:href="#linearGradient3104-5" gradientUnits="userSpaceOnUse" gradientTransform="matrix(0.32160807,0,0,0.3333374,-0.1751469,-0.3490771)" />
  </defs>
  <linearGradient x1="23.99999" y1="6.2052388" x2="23.99999" y2="41.589603" id="linearGradient3988" ns3:href="#linearGradient3977" gradientUnits="userSpaceOnUse" gradientTransform="matrix(0.24324324,0,0,0.35135133,2.1621636,-0.43242804)" />
    <linearGradient id="linearGradient3977">
      <stop id="stop3979" style="stop-color:#ffffff;stop-opacity:1" offset="0" />
      <stop id="stop3981" style="stop-color:#ffffff;stop-opacity:0.23529412" offset="0.02929282" />
      <stop id="stop3983" style="stop-color:#ffffff;stop-opacity:0.15686275" offset="0.97230476" />
      <stop id="stop3985" style="stop-color:#ffffff;stop-opacity:0.39215687" offset="1" />
    </linearGradient>
    <stop id="stop3979" style="stop-color:#ffffff;stop-opacity:1" offset="0" />
      <stop id="stop3981" style="stop-color:#ffffff;stop-opacity:0.23529412" offset="0.02929282" />
      <stop id="stop3983" style="stop-color:#ffffff;stop-opacity:0.15686275" offset="0.97230476" />
      <stop id="stop3985" style="stop-color:#ffffff;stop-opacity:0.39215687" offset="1" />
    <linearGradient id="linearGradient3600">
      <stop id="stop3602" style="stop-color:#f4f4f4;stop-opacity:1" offset="0" />
      <stop id="stop3604" style="stop-color:#dbdbdb;stop-opacity:1" offset="1" />
    </linearGradient>
    <stop id="stop3602" style="stop-color:#f4f4f4;stop-opacity:1" offset="0" />
      <stop id="stop3604" style="stop-color:#dbdbdb;stop-opacity:1" offset="1" />
    <linearGradient x1="25.132275" y1="0.98520643" x2="25.132275" y2="47.013336" id="linearGradient3806" ns3:href="#linearGradient3600" gradientUnits="userSpaceOnUse" gradientTransform="matrix(0.28571361,0,0,0.30419701,1.1428727,0.2326048)" />
    <linearGradient id="linearGradient3104-9">
      <stop id="stop3106-5" style="stop-color:#000000;stop-opacity:0.33950618" offset="0" />
      <stop id="stop3108-5" style="stop-color:#000000;stop-opacity:0.24691358" offset="1" />
    </linearGradient>
    <stop id="stop3106-5" style="stop-color:#000000;stop-opacity:0.33950618" offset="0" />
      <stop id="stop3108-5" style="stop-color:#000000;stop-opacity:0.24691358" offset="1" />
    <linearGradient x1="-51.786404" y1="50.786446" x2="-51.786404" y2="2.9062471" id="linearGradient3019" ns3:href="#linearGradient3104-9" gradientUnits="userSpaceOnUse" gradientTransform="matrix(0.25378586,0,0,0.30501865,19.128979,-0.68547704)" />
    <linearGradient id="linearGradient3104-5">
      <stop id="stop3106-2" style="stop-color:#aaaaaa;stop-opacity:1" offset="0" />
      <stop id="stop3108-5-8" style="stop-color:#c8c8c8;stop-opacity:1" offset="1" />
    </linearGradient>
    <stop id="stop3106-2" style="stop-color:#aaaaaa;stop-opacity:1" offset="0" />
      <stop id="stop3108-5-8" style="stop-color:#c8c8c8;stop-opacity:1" offset="1" />
    <linearGradient x1="22.004084" y1="47.813133" x2="22.004084" y2="3.3638515" id="linearGradient3032" ns3:href="#linearGradient3104-5" gradientUnits="userSpaceOnUse" gradientTransform="matrix(0.32160807,0,0,0.3333374,-0.1751469,-0.3490771)" />
  </defs>
  <metadata id="metadata3815">
    <rdf:RDF>
      <ns5:Work rdf:about="">
        <dc:format>image/svg+xml</dc:format>
        <dc:type rdf:resource="http://purl.org/dc/dcmitype/StillImage" />
      </ns5:Work>
    </rdf:RDF>
  </metadata>
  <path style="display:inline;fill:url(#linearGradient3806);fill-opacity:1;stroke:none" id="path4160" d="m 3,1 c 2.2915074,0 9.999988,8.904e-4 9.999988,8.904e-4 L 13,15 C 13,15 6.3333332,15 3,15 3,10.333334 3,5.6666664 3,1 Z" />
  <path style="fill:none;stroke:url(#linearGradient3988);stroke-width:1;stroke-linecap:round;stroke-linejoin:miter;stroke-miterlimit:4;stroke-dasharray:none;stroke-dashoffset:0;stroke-opacity:1" id="rect6741-1" d="m 12.5,14.5 -9.0000001,0 0,-13 L 12.5,1.5 Z" />
  <path style="display:inline;fill:none;stroke:url(#linearGradient3019);stroke-width:0.99992192;stroke-linecap:butt;stroke-linejoin:round;stroke-miterlimit:4;stroke-dasharray:none;stroke-dashoffset:0;stroke-opacity:1" id="path4160-8" d="m 2.4999621,0.49997396 c 2.5206756,0 11.0000629,9.54e-4 11.0000629,9.54e-4 l 1.3e-5,14.99909804 c 0,0 -7.3333841,0 -11.000076,0 0,-5.000017 0,-10.000035 0,-15.00005204 z" />
<path d="m 4.0000001,3.499995 0.7537691,0 z m 0.8643219,0 0.703517,0 z m 0.8140698,0 0.6231156,0 z m 0.7236186,0 0.2713566,0 z m 0.3819095,0 0.603015,0 z m 0.7236186,0 1.5879395,0 z m 1.6884415,0 1.216081,0 z m 1.316584,0 0.371858,0 z m -6.5125639,0.994817 0.9949753,0 z m 1.0954773,0 1.6281406,0 z m 1.7286437,0 0.7939702,0 z m 0.8944722,0 0.7437182,0 z m 0.8442213,0 0.6331654,0 z m 0.7336684,0 0.994975,0.010376 z m 1.085427,0.010376 1.61809,0 z M 4.0000001,5.5 l 0.5125628,0 z m 0.6733666,0 1.8994984,0 z m -0.6733666,1.9947954 0.9949753,0 z m 1.0954773,0 1.6281406,0 z m 1.7286437,0 0.7939702,0 z m 0.8944722,0 0.7437182,0 z m 0.8442213,0 0.6331654,0 z m 0.7336684,0 0.994975,0.010376 z m 1.085427,0.010376 1.61809,0 z M 4.0000001,8.5 l 0.7537691,0 z m 0.8643219,0 0.6934672,0 z m 0.8140698,0 0.6231156,0 z m 0.7236186,0 0.2713566,0 z m 0.3819095,0 0.603015,0 z m 0.7236186,0 1.5778887,0 z m 1.6884415,0 1.206031,0 z m 1.306533,0 0.381909,0 z m 0.482412,0 0.904523,0 z m -6.9849249,1 1.1758797,0 z m 1.3065331,0 0.5628138,0 z m 0.6633158,0 0.2814074,0 z m 0.3919602,0 0.5125629,0 z m 0.6231157,0 0.5226136,0 z m 0.6231156,0 0.8341715,0 z m 0.9447243,0 1.0854264,0 z m 1.1859294,0 0.7236178,0 z m 0.8241208,0 0.180904,0 z m -6.5628149,1.994804 0.9949753,0 z m 1.0954773,0 1.6281406,0 z m 1.7286437,0 0.7939702,0 z m 0.8944722,0 0.7437182,0 z m 0.8442213,0 0.6331654,0 z m 0.7336684,0 0.994975,0.01038 z m 1.085427,0.01038 1.61809,0 z M 4.0000001,12.5 l 1.2462313,0 z m 1.3567841,0 0.3919602,0 z m 0.4924622,0 0.8944722,0 z m 0.9949753,0 1.3165828,0 z m 1.4271356,0 0.8944723,0 z m 0.9849245,0 0.1909552,0 z m 0.2914572,0 1.135678,0 z m 1.256282,0 0.592964,0 z m -6.8040209,1 1.2462313,0 z m 1.3567841,0 0.5628138,0 z m 0.6633168,0 0.8844215,0 z m 0.9849245,0 0.954774,0 z m 1.0653268,0 0.3819094,0 z m 0.4824125,0 0.2110548,0 z m 0.3216076,0 0.5929652,0 z" id="path3475" style="fill:none;stroke:url(#linearGradient3032);stroke-width:1px;stroke-linecap:butt;stroke-linejoin:miter;stroke-opacity:1" />
</svg>