<?xml version='1.0' encoding='utf-8'?>
<svg xmlns="http://www.w3.org/2000/svg" xmlns:dc="http://purl.org/dc/elements/1.1/" xmlns:ns1="http://sodipodi.sourceforge.net/DTD/sodipodi-0.dtd" xmlns:ns2="http://www.inkscape.org/namespaces/inkscape" xmlns:ns3="http://www.w3.org/1999/xlink" xmlns:ns5="http://creativecommons.org/ns#" xmlns:rdf="http://www.w3.org/1999/02/22-rdf-syntax-ns#" version="1.1" width="16" height="16" id="svg3810" ns1:docname="base-generic.svg" ns2:version="1.4 (e7c3feb100, 2024-10-09)">
  <ns1:namedview id="namedview1" pagecolor="#ffffff" bordercolor="#000000" borderopacity="0.25" ns2:showpageshadow="2" ns2:pageopacity="0.0" ns2:pagecheckerboard="0" ns2:deskcolor="#d1d1d1" ns2:zoom="73.8125" ns2:cx="7.9932261" ns2:cy="8" ns2:current-layer="svg3810" />
  <defs id="defs3812">
    <linearGradient x1="23.99999" y1="6.9230647" x2="23.99999" y2="41.076912" id="linearGradient3988" ns3:href="#linearGradient3977" gradientUnits="userSpaceOnUse" gradientTransform="matrix(0.24324324,0,0,0.35135133,2.1621636,-0.43242804)" />
    <linearGradient id="linearGradient3977">
      <stop id="stop3979" style="stop-color:#ffffff;stop-opacity:1" offset="0" />
      <stop id="stop3981" style="stop-color:#ffffff;stop-opacity:0.23529412" offset="0" />
      <stop id="stop3983" style="stop-color:#ffffff;stop-opacity:0.15686275" offset="1" />
      <stop id="stop3985" style="stop-color:#ffffff;stop-opacity:0.39215687" offset="1" />
    </linearGradient>
    <linearGradient id="linearGradient3600">
      <stop id="stop3602" style="stop-color:#f4f4f4;stop-opacity:1" offset="0" />
      <stop id="stop3604" style="stop-color:#dbdbdb;stop-opacity:1" offset="1" />
    </linearGradient>
    <linearGradient x1="25.132275" y1="0.98520643" x2="25.132275" y2="47.013336" id="linearGradient3806" ns3:href="#linearGradient3600" gradientUnits="userSpaceOnUse" gradientTransform="matrix(0.28571361,0,0,0.30419701,1.1428727,0.2326048)" />
    <linearGradient id="linearGradient3104-9">
      <stop id="stop3106-5" style="stop-color:#000000;stop-opacity:0.33950618" offset="0" />
      <stop id="stop3108-5" style="stop-color:#000000;stop-opacity:0.24691358" offset="1" />
    </linearGradient>
    <linearGradient x1="-51.786404" y1="50.786446" x2="-51.786404" y2="2.9062471" id="linearGradient3019" ns3:href="#linearGradient3104-9" gradientUnits="userSpaceOnUse" gradientTransform="matrix(0.25378586,0,0,0.30501865,19.128979,-0.68547704)" />
    <radialGradient cx="7.8060555" cy="9.9571075" r="12.671875" fx="7.2758255" fy="9.9571075" id="radialGradient3858" ns3:href="#linearGradient2867-449-88-871-390-598-476-591-434-148-57-177-8-3" gradientUnits="userSpaceOnUse" gradientTransform="matrix(-5.0813118e-8,2.2503718,-2.543345,-6.7550105e-8,33.320987,-20.146566)" />
    <linearGradient id="linearGradient2867-449-88-871-390-598-476-591-434-148-57-177-8-3">
      <stop id="stop3750-1-0" style="stop-color:#ffcd7d;stop-opacity:1" offset="0" />
      <stop id="stop3752-3-7" style="stop-color:#fc8f36;stop-opacity:1" offset="0.26238" />
      <stop id="stop3754-1-8" style="stop-color:#e23a0e;stop-opacity:1" offset="0.704952" />
      <stop id="stop3756-1-6" style="stop-color:#ac441f;stop-opacity:1" offset="1" />
    </linearGradient>
  <defs id="defs3184">
    <linearGradient id="linearGradient2867-449-88-871-390-598-476-591-434-148-57-177-8-3-3">
      <stop offset="0" style="stop-color:#ffcd7d;stop-opacity:1" id="stop3750-1-0-7" />
      <stop offset="0.26238" style="stop-color:#fc8f36;stop-opacity:1" id="stop3752-3-7-4" />
      <stop offset="0.704952" style="stop-color:#e23a0e;stop-opacity:1" id="stop3754-1-8-5" />
      <stop offset="1" style="stop-color:#ac441f;stop-opacity:1" id="stop3756-1-6-2" />
    </linearGradient>
    <radialGradient ns3:href="#linearGradient2867-449-88-871-390-598-476-591-434-148-57-177-8-3-3" id="radialGradient4873-1" gradientUnits="userSpaceOnUse" gradientTransform="matrix(0,4.936567,-6.2846274,0,109.00641,-114.70042)" cx="18.1481" cy="16.231987" fx="18.1481" fy="16.231987" r="12.671875" />
  </defs>
  <linearGradient id="linearGradient2867-449-88-871-390-598-476-591-434-148-57-177-8-3-3">
      <stop offset="0" style="stop-color:#ffcd7d;stop-opacity:1" id="stop3750-1-0-7" />
      <stop offset="0.26238" style="stop-color:#fc8f36;stop-opacity:1" id="stop3752-3-7-4" />
      <stop offset="0.704952" style="stop-color:#e23a0e;stop-opacity:1" id="stop3754-1-8-5" />
      <stop offset="1" style="stop-color:#ac441f;stop-opacity:1" id="stop3756-1-6-2" />
    </linearGradient>
    <stop offset="0" style="stop-color:#ffcd7d;stop-opacity:1" id="stop3750-1-0-7" />
      <stop offset="0.26238" style="stop-color:#fc8f36;stop-opacity:1" id="stop3752-3-7-4" />
      <stop offset="0.704952" style="stop-color:#e23a0e;stop-opacity:1" id="stop3754-1-8-5" />
      <stop offset="1" style="stop-color:#ac441f;stop-opacity:1" id="stop3756-1-6-2" />
    <radialGradient ns3:href="#linearGradient2867-449-88-871-390-598-476-591-434-148-57-177-8-3-3" id="radialGradient4873-1" gradientUnits="userSpaceOnUse" gradientTransform="matrix(0,4.936567,-6.2846274,0,109.00641,-114.70042)" cx="18.1481" cy="16.231987" fx="18.1481" fy="16.231987" r="12.671875" />
  </defs>
  <metadata id="metadata3815">
    <rdf:RDF>
      <ns5:Work rdf:about="">
        <dc:format>image/svg+xml</dc:format>
        <dc:type rdf:resource="http://purl.org/dc/dcmitype/StillImage" />
      </ns5:Work>
    </rdf:RDF>
  </metadata>
  <path style="display:inline;fill:url(#linearGradient3806);fill-opacity:1;stroke:none" id="path4160" d="m 3,1 c 2.2915074,0 9.999988,8.904e-4 9.999988,8.904e-4 L 13,15 C 13,15 6.3333332,15 3,15 3,10.333334 3,5.6666664 3,1 Z" />
  <path style="fill:none;stroke:url(#linearGradient3988);stroke-width:1;stroke-linecap:round;stroke-linejoin:miter;stroke-miterlimit:4;stroke-dasharray:none;stroke-dashoffset:0;stroke-opacity:1" id="rect6741-1" d="m 12.5,14.5 -9.0000001,0 0,-13 L 12.5,1.5 Z" />
  <path style="display:inline;fill:none;stroke:url(#linearGradient3019);stroke-width:0.99992192;stroke-linecap:butt;stroke-linejoin:round;stroke-miterlimit:4;stroke-dasharray:none;stroke-dashoffset:0;stroke-opacity:1" id="path4160-8" d="m 2.4999621,0.49997396 c 2.5206756,0 11.0000629,9.54e-4 11.0000629,9.54e-4 l 1.3e-5,14.99909804 c 0,0 -7.3333841,0 -11.000076,0 0,-5.000017 0,-10.000035 0,-15.00005204 z" />
<path style="color:#000000;clip-rule:nonzero;display:inline;overflow:visible;visibility:visible;opacity:1;isolation:auto;mix-blend-mode:normal;color-interpolation:sRGB;color-interpolation-filters:linearRGB;solid-color:#000000;solid-opacity:1;fill:url(#radialGradient4873-1);fill-opacity:1;fill-rule:nonzero;stroke:none;stroke-width:1;stroke-linecap:butt;stroke-linejoin:round;stroke-miterlimit:4;stroke-dasharray:none;stroke-dashoffset:0;stroke-opacity:1;marker:none;color-rendering:auto;image-rendering:auto;shape-rendering:auto;text-rendering:auto;enable-background:accumulate" d="M 11.5,1 C 11.223,1 11,1.223 11,1.5 l 0,9.533203 c -0.612753,-0.257139 -1.378939,-0.167432 -2.035156,0.238281 -1.069061,0.661333 -1.531798,1.948949 -1.033203,2.875 0.497828,0.92603 1.767689,1.140298 2.835937,0.478516 0.772887,-0.478966 1.256769,-1.310781 1.230469,-2.115234 C 11.998116,12.50632 12,12.503463 12,12.5 l 0,-8.125 c 0.120375,-0.06646 0.30739,0.07692 0.40625,0.144531 1.123434,0.679677 2.10425,1.807595 2.173828,3.197266 0.06019,0.803876 -0.108179,1.603413 -0.339844,2.367187 C 15.272992,8.384829 15.217453,6.020862 13.941406,4.46875 13.1183,3.609884 12.342105,2.608696 12,1.4453125 11.975053,1.3348068 11.824143,1 11.5,1 Z M 1.5,2 C 1.223,2 1,2.223 1,2.5 1,2.777 1.223,3 1.5,3 l 6,0 C 7.777,3 8,2.777 8,2.5 8,2.223 7.777,2 7.5,2 Z m 0,3 C 1.223,5 1,5.223 1,5.5 1,5.777 1.223,6 1.5,6 l 6,0 C 7.777,6 8,5.777 8,5.5 8,5.223 7.777,5 7.5,5 Z m 0,3 C 1.223,8 1,8.223 1,8.5 1,8.777 1.223,9 1.5,9 l 6,0 C 7.777,9 8,8.777 8,8.5 8,8.223 7.777,8 7.5,8 Z m 0,3 C 1.223,11 1,11.223 1,11.5 1,11.777 1.223,12 1.5,12 l 3,0 C 4.777,12 5,11.777 5,11.5 5,11.223 4.777,11 4.5,11 Z" id="rect4204" />
</svg>