<?xml version='1.0' encoding='utf-8'?>
<svg xmlns="http://www.w3.org/2000/svg" xmlns:dc="http://purl.org/dc/elements/1.1/" xmlns:ns1="http://sodipodi.sourceforge.net/DTD/sodipodi-0.dtd" xmlns:ns2="http://www.inkscape.org/namespaces/inkscape" xmlns:ns3="http://www.w3.org/1999/xlink" xmlns:ns5="http://creativecommons.org/ns#" xmlns:rdf="http://www.w3.org/1999/02/22-rdf-syntax-ns#" version="1.1" width="32" height="32" id="svg3182" ns1:docname="base-generic.svg" ns2:version="1.4 (e7c3feb100, 2024-10-09)">
  <ns1:namedview id="namedview1" pagecolor="#ffffff" bordercolor="#000000" borderopacity="0.25" ns2:showpageshadow="2" ns2:pageopacity="0.0" ns2:pagecheckerboard="0" ns2:deskcolor="#d1d1d1" ns2:zoom="36.90625" ns2:cx="16.013548" ns2:cy="16" ns2:current-layer="svg3182" />
  <defs id="defs3184">
    <linearGradient id="linearGradient3977">
      <stop id="stop3979" style="stop-color:#ffffff;stop-opacity:1" offset="0" />
      <stop id="stop3981" style="stop-color:#ffffff;stop-opacity:0.23529412" offset="0" />
      <stop id="stop3983" style="stop-color:#ffffff;stop-opacity:0.15686275" offset="0.99999994" />
      <stop id="stop3985" style="stop-color:#ffffff;stop-opacity:0.39215687" offset="1" />
    </linearGradient>
    <linearGradient id="linearGradient3600-4">
      <stop id="stop3602-7" style="stop-color:#f4f4f4;stop-opacity:1" offset="0" />
      <stop id="stop3604-6" style="stop-color:#dbdbdb;stop-opacity:1" offset="1" />
    </linearGradient>
    <linearGradient id="linearGradient5060">
      <stop id="stop5062" style="stop-color:#000000;stop-opacity:1" offset="0" />
      <stop id="stop5064" style="stop-color:#000000;stop-opacity:0" offset="1" />
    </linearGradient>
    <linearGradient id="linearGradient5048">
      <stop id="stop5050" style="stop-color:#000000;stop-opacity:0" offset="0" />
      <stop id="stop5056" style="stop-color:#000000;stop-opacity:1" offset="0.5" />
      <stop id="stop5052" style="stop-color:#000000;stop-opacity:0" offset="1" />
    </linearGradient>
    <linearGradient x1="23.99999" y1="6.1851754" x2="23.99999" y2="41.814808" id="linearGradient3013" ns3:href="#linearGradient3977" gradientUnits="userSpaceOnUse" gradientTransform="matrix(0.56756757,0,0,0.72972971,2.378382,-2.5135063)" />
    <linearGradient x1="25.132275" y1="0.98520643" x2="25.132275" y2="47.013336" id="linearGradient3016" ns3:href="#linearGradient3600-4" gradientUnits="userSpaceOnUse" gradientTransform="matrix(0.62856997,0,0,0.60839392,0.91431981,-0.5347905)" />
    <radialGradient cx="605.71429" cy="486.64789" r="117.14286" fx="605.71429" fy="486.64789" id="radialGradient3021" ns3:href="#linearGradient5060" gradientUnits="userSpaceOnUse" gradientTransform="matrix(0.01566318,0,0,0.00823529,17.610433,25.980565)" />
    <radialGradient cx="605.71429" cy="486.64789" r="117.14286" fx="605.71429" fy="486.64789" id="radialGradient3024" ns3:href="#linearGradient5060" gradientUnits="userSpaceOnUse" gradientTransform="matrix(-0.01566318,0,0,0.00823529,14.389566,25.980565)" />
    <linearGradient x1="302.85715" y1="366.64789" x2="302.85715" y2="609.50507" id="linearGradient3027" ns3:href="#linearGradient5048" gradientUnits="userSpaceOnUse" gradientTransform="matrix(0.04576928,0,0,0.00823529,-0.5423243,25.980548)" />
    <linearGradient id="linearGradient3104-6">
      <stop offset="0" style="stop-color:#000000;stop-opacity:0.31782946" id="stop3106-3" />
      <stop offset="1" style="stop-color:#000000;stop-opacity:0.24031007" id="stop3108-9" />
    </linearGradient>
    <linearGradient ns3:href="#linearGradient3104-6" id="linearGradient3148" gradientUnits="userSpaceOnUse" gradientTransform="matrix(0.53064141,0,0,0.58970049,39.269607,-1.791918)" x1="-51.786404" y1="50.786446" x2="-51.786404" y2="2.9062471" />
    <radialGradient cx="7.8060555" cy="9.9571075" r="12.671875" fx="7.2758255" fy="9.9571075" id="radialGradient3947" ns3:href="#linearGradient2867-449-88-871-390-598-476-591-434-148-57-177-8-3-4" gradientUnits="userSpaceOnUse" gradientTransform="matrix(-1.0624208e-7,4.3506752,-5.3177267,-1.3059556e-7,68.942118,-39.41615)" />
    <linearGradient id="linearGradient2867-449-88-871-390-598-476-591-434-148-57-177-8-3-4">
      <stop id="stop3750-1-0-7" style="stop-color:#ffcd7d;stop-opacity:1" offset="0" />
      <stop id="stop3752-3-7-6" style="stop-color:#fc8f36;stop-opacity:1" offset="0.26238" />
      <stop id="stop3754-1-8-5" style="stop-color:#e23a0e;stop-opacity:1" offset="0.704952" />
      <stop id="stop3756-1-6-6" style="stop-color:#ac441f;stop-opacity:1" offset="1" />
    </linearGradient>
  <defs id="defs3184">
    <linearGradient id="linearGradient3977">
      <stop offset="0" style="stop-color:#ffffff;stop-opacity:1" id="stop3979" />
      <stop offset="0" style="stop-color:#ffffff;stop-opacity:0.23529412" id="stop3981" />
      <stop offset="0.99999994" style="stop-color:#ffffff;stop-opacity:0.15686275" id="stop3983" />
      <stop offset="1" style="stop-color:#ffffff;stop-opacity:0.39215687" id="stop3985" />
    </linearGradient>
    <linearGradient id="linearGradient3600-4">
      <stop offset="0" style="stop-color:#f4f4f4;stop-opacity:1" id="stop3602-7" />
      <stop offset="1" style="stop-color:#dbdbdb;stop-opacity:1" id="stop3604-6" />
    </linearGradient>
    <linearGradient id="linearGradient5060">
      <stop offset="0" style="stop-color:#000000;stop-opacity:1" id="stop5062" />
      <stop offset="1" style="stop-color:#000000;stop-opacity:0" id="stop5064" />
    </linearGradient>
    <linearGradient id="linearGradient5048">
      <stop offset="0" style="stop-color:#000000;stop-opacity:0" id="stop5050" />
      <stop offset="0.5" style="stop-color:#000000;stop-opacity:1" id="stop5056" />
      <stop offset="1" style="stop-color:#000000;stop-opacity:0" id="stop5052" />
    </linearGradient>
    <linearGradient gradientTransform="matrix(0.56756757,0,0,0.72972971,2.378382,-2.5135063)" gradientUnits="userSpaceOnUse" ns3:href="#linearGradient3977" id="linearGradient3013" y2="41.814808" x2="23.99999" y1="6.1851754" x1="23.99999" />
    <linearGradient gradientTransform="matrix(0.62856997,0,0,0.60839392,0.91431981,-0.5347905)" gradientUnits="userSpaceOnUse" ns3:href="#linearGradient3600-4" id="linearGradient3016" y2="47.013336" x2="25.132275" y1="0.98520643" x1="25.132275" />
    <radialGradient gradientTransform="matrix(0.01566318,0,0,0.00823529,17.610433,25.980565)" gradientUnits="userSpaceOnUse" ns3:href="#linearGradient5060" id="radialGradient3021" fy="486.64789" fx="605.71429" r="117.14286" cy="486.64789" cx="605.71429" />
    <radialGradient gradientTransform="matrix(-0.01566318,0,0,0.00823529,14.389566,25.980565)" gradientUnits="userSpaceOnUse" ns3:href="#linearGradient5060" id="radialGradient3024" fy="486.64789" fx="605.71429" r="117.14286" cy="486.64789" cx="605.71429" />
    <linearGradient gradientTransform="matrix(0.04576928,0,0,0.00823529,-0.5423243,25.980548)" gradientUnits="userSpaceOnUse" ns3:href="#linearGradient5048" id="linearGradient3027" y2="609.50507" x2="302.85715" y1="366.64789" x1="302.85715" />
    <linearGradient id="linearGradient3104-6">
      <stop id="stop3106-3" style="stop-color:#000000;stop-opacity:0.31782946" offset="0" />
      <stop id="stop3108-9" style="stop-color:#000000;stop-opacity:0.24031007" offset="1" />
    </linearGradient>
    <linearGradient y2="2.9062471" x2="-51.786404" y1="50.786446" x1="-51.786404" gradientTransform="matrix(0.53064141,0,0,0.58970049,39.269607,-1.791918)" gradientUnits="userSpaceOnUse" id="linearGradient3148" ns3:href="#linearGradient3104-6" />
  </defs>
  <linearGradient id="linearGradient3977">
      <stop offset="0" style="stop-color:#ffffff;stop-opacity:1" id="stop3979" />
      <stop offset="0" style="stop-color:#ffffff;stop-opacity:0.23529412" id="stop3981" />
      <stop offset="0.99999994" style="stop-color:#ffffff;stop-opacity:0.15686275" id="stop3983" />
      <stop offset="1" style="stop-color:#ffffff;stop-opacity:0.39215687" id="stop3985" />
    </linearGradient>
    <stop offset="0" style="stop-color:#ffffff;stop-opacity:1" id="stop3979" />
      <stop offset="0" style="stop-color:#ffffff;stop-opacity:0.23529412" id="stop3981" />
      <stop offset="0.99999994" style="stop-color:#ffffff;stop-opacity:0.15686275" id="stop3983" />
      <stop offset="1" style="stop-color:#ffffff;stop-opacity:0.39215687" id="stop3985" />
    <linearGradient id="linearGradient3600-4">
      <stop offset="0" style="stop-color:#f4f4f4;stop-opacity:1" id="stop3602-7" />
      <stop offset="1" style="stop-color:#dbdbdb;stop-opacity:1" id="stop3604-6" />
    </linearGradient>
    <stop offset="0" style="stop-color:#f4f4f4;stop-opacity:1" id="stop3602-7" />
      <stop offset="1" style="stop-color:#dbdbdb;stop-opacity:1" id="stop3604-6" />
    <linearGradient id="linearGradient5060">
      <stop offset="0" style="stop-color:#000000;stop-opacity:1" id="stop5062" />
      <stop offset="1" style="stop-color:#000000;stop-opacity:0" id="stop5064" />
    </linearGradient>
    <stop offset="0" style="stop-color:#000000;stop-opacity:1" id="stop5062" />
      <stop offset="1" style="stop-color:#000000;stop-opacity:0" id="stop5064" />
    <linearGradient id="linearGradient5048">
      <stop offset="0" style="stop-color:#000000;stop-opacity:0" id="stop5050" />
      <stop offset="0.5" style="stop-color:#000000;stop-opacity:1" id="stop5056" />
      <stop offset="1" style="stop-color:#000000;stop-opacity:0" id="stop5052" />
    </linearGradient>
    <stop offset="0" style="stop-color:#000000;stop-opacity:0" id="stop5050" />
      <stop offset="0.5" style="stop-color:#000000;stop-opacity:1" id="stop5056" />
      <stop offset="1" style="stop-color:#000000;stop-opacity:0" id="stop5052" />
    <linearGradient gradientTransform="matrix(0.56756757,0,0,0.72972971,2.378382,-2.5135063)" gradientUnits="userSpaceOnUse" ns3:href="#linearGradient3977" id="linearGradient3013" y2="41.814808" x2="23.99999" y1="6.1851754" x1="23.99999" />
    <linearGradient gradientTransform="matrix(0.62856997,0,0,0.60839392,0.91431981,-0.5347905)" gradientUnits="userSpaceOnUse" ns3:href="#linearGradient3600-4" id="linearGradient3016" y2="47.013336" x2="25.132275" y1="0.98520643" x1="25.132275" />
    <radialGradient gradientTransform="matrix(0.01566318,0,0,0.00823529,17.610433,25.980565)" gradientUnits="userSpaceOnUse" ns3:href="#linearGradient5060" id="radialGradient3021" fy="486.64789" fx="605.71429" r="117.14286" cy="486.64789" cx="605.71429" />
    <radialGradient gradientTransform="matrix(-0.01566318,0,0,0.00823529,14.389566,25.980565)" gradientUnits="userSpaceOnUse" ns3:href="#linearGradient5060" id="radialGradient3024" fy="486.64789" fx="605.71429" r="117.14286" cy="486.64789" cx="605.71429" />
    <linearGradient gradientTransform="matrix(0.04576928,0,0,0.00823529,-0.5423243,25.980548)" gradientUnits="userSpaceOnUse" ns3:href="#linearGradient5048" id="linearGradient3027" y2="609.50507" x2="302.85715" y1="366.64789" x1="302.85715" />
    <linearGradient id="linearGradient3104-6">
      <stop id="stop3106-3" style="stop-color:#000000;stop-opacity:0.31782946" offset="0" />
      <stop id="stop3108-9" style="stop-color:#000000;stop-opacity:0.24031007" offset="1" />
    </linearGradient>
    <stop id="stop3106-3" style="stop-color:#000000;stop-opacity:0.31782946" offset="0" />
      <stop id="stop3108-9" style="stop-color:#000000;stop-opacity:0.24031007" offset="1" />
    <linearGradient y2="2.9062471" x2="-51.786404" y1="50.786446" x1="-51.786404" gradientTransform="matrix(0.53064141,0,0,0.58970049,39.269607,-1.791918)" gradientUnits="userSpaceOnUse" id="linearGradient3148" ns3:href="#linearGradient3104-6" />
  </defs>
  <metadata id="metadata3187">
    <rdf:RDF>
      <ns5:Work rdf:about="">
        <dc:format>image/svg+xml</dc:format>
        <dc:type rdf:resource="http://purl.org/dc/dcmitype/StillImage" />
      </ns5:Work>
    </rdf:RDF>
  </metadata>
  <rect width="22.100021" height="2" x="4.9499893" y="29" id="rect2879" style="opacity:0.15;fill:url(#linearGradient3027);fill-opacity:1;fill-rule:nonzero;stroke:none;stroke-width:1;marker:none;visibility:visible;display:inline;overflow:visible" />
  <path d="m 4.9499887,29.000086 c 0,0 0,1.99989 0,1.99989 -0.806615,0.0038 -1.950002,-0.448074 -1.950002,-1.000074 0,-0.552 0.900121,-0.999816 1.950002,-0.999816 z" id="path2881" style="opacity:0.15;fill:url(#radialGradient3024);fill-opacity:1;fill-rule:nonzero;stroke:none;stroke-width:1;marker:none;visibility:visible;display:inline;overflow:visible" />
  <path d="m 27.050011,29.000086 c 0,0 0,1.99989 0,1.99989 0.806614,0.0038 1.950002,-0.448074 1.950002,-1.000074 0,-0.552 -0.900122,-0.999816 -1.950002,-0.999816 z" id="path2883" style="opacity:0.15;fill:url(#radialGradient3021);fill-opacity:1;fill-rule:nonzero;stroke:none;stroke-width:1;marker:none;visibility:visible;display:inline;overflow:visible" />
  <path d="m 5,1 c 5.041316,0 21.999973,0.00179 21.999973,0.00179 L 27,29 C 27,29 12.333334,29 5,29 5,19.666667 5,10.333336 5,1.0000041 z" id="path4160-3" style="fill:url(#linearGradient3016);fill-opacity:1;stroke:none;display:inline" />
  <path d="m 26.5,28.5 -21,0 0,-27 21,0 z" id="rect6741-1" style="fill:none;stroke:url(#linearGradient3013);stroke-width:1;stroke-linecap:round;stroke-linejoin:miter;stroke-miterlimit:4;stroke-opacity:1;stroke-dasharray:none;stroke-dashoffset:0" />
  <path style="fill:none;stroke:url(#linearGradient3148);stroke-width:0.9999218;stroke-linecap:butt;stroke-linejoin:round;stroke-miterlimit:4;stroke-opacity:1;stroke-dasharray:none;stroke-dashoffset:0;display:inline" id="path4160-6-1" d="m 4.499961,0.499944 c 5.27048,0 23.000054,0.002 23.000054,0.002 l 2.4e-5,28.998112 c 0,0 -15.333385,0 -23.000078,0 0,-9.666722 0,-19.333346 0,-28.999956 z" />
<path style="fill:none;stroke:#89adc2;stroke-width:1px;stroke-linecap:butt;stroke-linejoin:miter;stroke-opacity:1" id="path2609" d="m 8,5.505006 2.34375,0 z m 2.6875,0 2.1875,0 z m 2.53125,0 1.9375,0 z m 2.25,0 0.84375,0 z m -7.46875,2 3.65625,0 z m 4.0625,0 1.75,0 z m 2.0625,0 0.875,0 z m 1.21875,0 1.59375,0 z m 1.9375,0 1.625,0 z M 8,9.5000013 l 4.28125,0 z m 4.625,0 4.625,0 z M 14.328125,17.5 l 0.84375,0 z m 1.1875,0 1.875,0 z m 2.25,0 4.90625,0 z m -2.6875,2.075 1.84375,0 z M 14.05,25.5 l 2.96875,0 z m 3.85625,0 1.1875,0 z" />
  <g id="g4199" transform="translate(27.060241,6.7752427)">
    <path style="display:inline;fill:#d48eb3;fill-opacity:1;stroke:none" id="path4217" d="m -15.569698,10.277108 0.933683,0 0,1 -0.933683,0 z" />
    <path style="display:inline;fill:#d48eb3;fill-opacity:1;stroke:none" id="path4219" d="m -14.482898,10.277108 0.410114,0 0,1 -0.410114,0 z" />
    <path style="display:inline;opacity:0.7;fill:#666666;fill-opacity:1;stroke:none" id="path4251" d="m -19.060241,16.277108 1.996686,0 0,1 -1.996686,0 0,-1 z" />
    <path style="display:inline;opacity:0.7;fill:#666666;fill-opacity:1;stroke:none" id="path4253" d="m -16.907035,16.277108 2.139473,0 0,1 -2.139473,0 0,-1 z" />
    <path style="display:inline;fill:#d48eb3;fill-opacity:1;stroke:none" id="path4255" d="m -14.611041,16.277108 0.854355,0 0,1 -0.854355,0 0,-1 z" />
    <path style="display:inline;fill:#d48eb3;fill-opacity:1;stroke:none" id="path4257" d="m -13.600165,16.277108 2.012549,0 0,1 -2.012549,0 0,-1 z" />
    <path style="display:inline;fill:#d48eb3;fill-opacity:1;stroke:none" id="path4259" d="m -9.896655,16.277108 0.537037,0 0,1 -0.537037,0 0,-1 z" />
    <path style="display:inline;fill:#d48eb3;fill-opacity:1;stroke:none" id="path4261" d="m -11.431095,16.277108 1.377919,0 0,1 -1.377919,0 0,-1 z" />
    <path style="display:inline;fill:#d48eb3;fill-opacity:1;stroke:none" id="path4263" d="m -9.203097,16.277108 0.314918,0 0,1 -0.314918,0 0,-1 z" />
    <path style="display:inline;fill:#d48eb3;fill-opacity:1;stroke:none" id="path4265" d="m -8.731658,16.277108 0.854355,0 0,1 -0.854355,0 0,-1 z" />
    <path style="display:inline;fill:#d48eb3;fill-opacity:1;stroke:none" id="path4269" d="m -16.465904,12.277108 2.393326,0 0,1 -2.393326,0 z" />
    <path style="display:inline;fill:#94d48e;fill-opacity:1;stroke:none" id="path4271" d="m -19.060241,14.277108 1.806297,0 0,1 -1.806297,0 0,-1 z" />
    <path style="display:inline;fill:#94d48e;fill-opacity:1;stroke:none" id="path4273" d="m -17.104791,14.277108 0.56877,0 0,1 -0.56877,0 0,-1 z" />
    <path style="display:inline;opacity:0.7;fill:#666666;fill-opacity:1;stroke:none" id="path4275" d="m -16.386869,14.277108 1.298596,0 0,1 -1.298596,0 0,-1 z" />
    <path style="display:inline;opacity:0.7;fill:#666666;fill-opacity:1;stroke:none" id="path4277" d="m -14.939121,14.277108 0.886087,0 0,1 -0.886087,0 0,-1 z" />
    <path style="display:inline;fill:#de6161;fill-opacity:1;stroke:none" id="path4283" d="m -19.060241,18.277108 1.48749,0 0,1 -1.48749,0 0,-1 z" />
    <path style="display:inline;opacity:0.7;fill:#666666;fill-opacity:1;stroke:none" id="path4285" d="m -17.333827,18.277108 2.647178,0 0,1 -2.647178,0 0,-1 z" />
  </g>
  <path style="display:inline;fill:#b78ed4;fill-opacity:1;stroke:none" id="path4063" d="m 8,12 0,1 3.0625,0 0,-1 L 8,12 Z m 0,2 0,1 3.09375,0 0,-1 L 8,14 Z" />
  <path style="display:inline;fill:#d48eb3;fill-opacity:1;stroke:none" id="path4061" d="m 12.40625,12 0,1 L 18,13 18,12 Z m 0.03125,2 0,1 5.09375,0 0,-1 z" />
  <path style="display:inline;fill:#94d48e;fill-opacity:1;stroke:none" id="path5302" d="m 8,17 0,1 2.53125,0 0,-1 z M 8,19.03125 8,20 l 2.21875,0 0,-0.96875 z" />
</svg>