<?xml version="1.0" encoding="UTF-8" standalone="no"?>
<svg
   version="1.1"
   id="svg2"
   height="64"
   width="64"
   sodipodi:docname="com.microsoft.Edge.svg"
   inkscape:version="1.1.2 (0a00cf5339, 2022-02-04)"
   xmlns:inkscape="http://www.inkscape.org/namespaces/inkscape"
   xmlns:sodipodi="http://sodipodi.sourceforge.net/DTD/sodipodi-0.dtd"
   xmlns:xlink="http://www.w3.org/1999/xlink"
   xmlns="http://www.w3.org/2000/svg"
   xmlns:svg="http://www.w3.org/2000/svg"
   xmlns:rdf="http://www.w3.org/1999/02/22-rdf-syntax-ns#"
   xmlns:cc="http://creativecommons.org/ns#"
   xmlns:dc="http://purl.org/dc/elements/1.1/">
  <sodipodi:namedview
     id="namedview49"
     pagecolor="#ffffff"
     bordercolor="#666666"
     borderopacity="1.0"
     inkscape:pageshadow="2"
     inkscape:pageopacity="0.0"
     inkscape:pagecheckerboard="0"
     showgrid="false"
     inkscape:zoom="1.1241893"
     inkscape:cx="-256.1846"
     inkscape:cy="-18.680127"
     inkscape:window-width="1920"
     inkscape:window-height="1004"
     inkscape:window-x="0"
     inkscape:window-y="0"
     inkscape:window-maximized="1"
     inkscape:current-layer="svg2" />
  <defs
     id="defs4">
    <linearGradient
       inkscape:collect="always"
       id="linearGradient3085">
      <stop
         style="stop-color:#1276d4;stop-opacity:1"
         offset="0"
         id="stop3081" />
      <stop
         style="stop-color:#1290d4;stop-opacity:0.77734375"
         offset="1"
         id="stop3083" />
    </linearGradient>
    <linearGradient
       inkscape:collect="always"
       id="linearGradient20144">
      <stop
         style="stop-color:#ffffff;stop-opacity:0.65762228"
         offset="0"
         id="stop20140" />
      <stop
         style="stop-color:#26a69a;stop-opacity:0.06798123"
         offset="1"
         id="stop20142" />
    </linearGradient>
    <linearGradient
       inkscape:collect="always"
       id="linearGradient19891">
      <stop
         style="stop-color:#3480e7;stop-opacity:1;"
         offset="0"
         id="stop19887" />
      <stop
         style="stop-color:#3480e7;stop-opacity:0;"
         offset="1"
         id="stop19889" />
    </linearGradient>
    <linearGradient
       inkscape:collect="always"
       id="linearGradient19544">
      <stop
         style="stop-color:#f9f9f9;stop-opacity:1;"
         offset="0"
         id="stop19540" />
      <stop
         style="stop-color:#f9f9f9;stop-opacity:0;"
         offset="1"
         id="stop19542" />
    </linearGradient>
    <linearGradient
       id="linearGradient4205">
      <stop
         style="stop-color:#ffffff;stop-opacity:1;"
         offset="0"
         id="stop4207" />
      <stop
         id="stop4209"
         offset="0.29999986"
         style="stop-color:#ffffff;stop-opacity:0.23529412;" />
      <stop
         id="stop4211"
         offset="0.69999987"
         style="stop-color:#ffffff;stop-opacity:0.15686275;" />
      <stop
         style="stop-color:#ffffff;stop-opacity:0.39215687;"
         offset="1"
         id="stop4213" />
    </linearGradient>
    <linearGradient
       id="linearGradient4269">
      <stop
         id="stop4271"
         offset="0"
         style="stop-color:#d2e6f0;stop-opacity:1" />
      <stop
         id="stop4273"
         offset="1"
         style="stop-color:#9bbee1;stop-opacity:1" />
    </linearGradient>
    <linearGradient
       id="linearGradient4247">
      <stop
         style="stop-color:#91c3e1;stop-opacity:1"
         offset="0"
         id="stop4249" />
      <stop
         style="stop-color:#6491cd;stop-opacity:1"
         offset="1"
         id="stop4251" />
    </linearGradient>
    <linearGradient
       id="linearGradient4229">
      <stop
         style="stop-color:#6e91c8;stop-opacity:1"
         offset="0"
         id="stop4231" />
      <stop
         style="stop-color:#326482;stop-opacity:1"
         offset="1"
         id="stop4233" />
    </linearGradient>
    <linearGradient
       id="linearGradient4177">
      <stop
         id="stop4179"
         offset="0"
         style="stop-color:#9bc3e6;stop-opacity:1" />
      <stop
         id="stop4181"
         offset="1"
         style="stop-color:#2864aa;stop-opacity:1" />
    </linearGradient>
    <linearGradient
       id="linearGradient3796">
      <stop
         id="stop3798"
         offset="0"
         style="stop-color:#000000;stop-opacity:1;" />
      <stop
         id="stop3800"
         offset="1"
         style="stop-color:#000000;stop-opacity:0;" />
    </linearGradient>
    <linearGradient
       id="linearGradient3767">
      <stop
         id="stop3769"
         offset="0"
         style="stop-color:#ffffff;stop-opacity:1;" />
      <stop
         style="stop-color:#ffffff;stop-opacity:0.23529412;"
         offset="0.08994294"
         id="stop3777" />
      <stop
         style="stop-color:#ffffff;stop-opacity:0.15686275;"
         offset="0.87385589"
         id="stop3775" />
      <stop
         id="stop3771"
         offset="1"
         style="stop-color:#ffffff;stop-opacity:0.39215687;" />
    </linearGradient>
    <radialGradient
       gradientTransform="matrix(0,1.0357143,-0.82142856,0,-63.920541,-44.049054)"
       gradientUnits="userSpaceOnUse"
       r="28"
       fy="22.832893"
       fx="41.409233"
       cy="22.832893"
       cx="41.409233"
       id="radialGradient3791"
       xlink:href="#linearGradient4247" />
    <radialGradient
       gradientUnits="userSpaceOnUse"
       gradientTransform="matrix(0.97143265,0,0,0.3035727,1.0580923,-260.49931)"
       r="24"
       fy="1044.8622"
       fx="32"
       cy="1044.8622"
       cx="32"
       id="radialGradient3802"
       xlink:href="#linearGradient3796" />
    <linearGradient
       gradientUnits="userSpaceOnUse"
       y2="60.501682"
       x2="26.386984"
       y1="3.548188"
       x1="26.386984"
       id="linearGradient3814"
       xlink:href="#linearGradient3767"
       gradientTransform="matrix(1.0178572,0,0,1.0178572,-105.35662,-40.73229)" />
    <radialGradient
       r="28"
       fy="16.321266"
       fx="30.706524"
       cy="16.321266"
       cx="30.706524"
       gradientTransform="matrix(0,0.71428568,-0.60714286,0,-62.76679,-36.09415)"
       gradientUnits="userSpaceOnUse"
       id="radialGradient4190"
       xlink:href="#linearGradient4177" />
    <radialGradient
       r="28"
       fy="16.321266"
       fx="26.706453"
       cy="16.321266"
       cx="26.706453"
       gradientTransform="matrix(3.1939715e-8,1.3928572,-1.1785714,2.702591e-8,-53.440352,-72.359196)"
       gradientUnits="userSpaceOnUse"
       id="radialGradient4225"
       xlink:href="#linearGradient4229" />
    <radialGradient
       r="28"
       fy="-1.3459288"
       fx="39.478199"
       cy="-1.3459288"
       cx="39.478199"
       gradientTransform="matrix(0,0.82142852,-0.60714286,0,-60.493301,-35.589437)"
       gradientUnits="userSpaceOnUse"
       id="radialGradient4263"
       xlink:href="#linearGradient4269" />
    <linearGradient
       gradientUnits="userSpaceOnUse"
       y2="1030.3622"
       x2="32"
       y1="1010.3622"
       x1="32"
       id="linearGradient4203"
       xlink:href="#linearGradient4205"
       gradientTransform="translate(-104.67613,-1028.5231)" />
    <linearGradient
       inkscape:collect="always"
       xlink:href="#linearGradient1962"
       id="linearGradient1964"
       x1="9.9330101"
       y1="11.85999"
       x2="19.512648"
       y2="31.148251"
       gradientUnits="userSpaceOnUse"
       gradientTransform="matrix(2.012286,0,0,2.012286,-2.0728683,-3.0915597)" />
    <linearGradient
       inkscape:collect="always"
       id="linearGradient1962">
      <stop
         style="stop-color:#61a0e1;stop-opacity:1"
         offset="0"
         id="stop1958" />
      <stop
         style="stop-color:#86c2ec;stop-opacity:1"
         offset="1"
         id="stop1960" />
    </linearGradient>
    <linearGradient
       inkscape:collect="always"
       id="linearGradient1346">
      <stop
         style="stop-color:#5aa0e8;stop-opacity:1"
         offset="0"
         id="stop1342" />
      <stop
         style="stop-color:#26a69a;stop-opacity:1"
         offset="1"
         id="stop1344" />
    </linearGradient>
    <radialGradient
       inkscape:collect="always"
       xlink:href="#linearGradient1346"
       id="radialGradient953"
       cx="111.56636"
       cy="17.353329"
       fx="111.56636"
       fy="17.353329"
       r="29.698122"
       gradientTransform="matrix(1.2697449,0.74158924,-1.0446287,1.7886074,-113.62492,-95.744306)"
       gradientUnits="userSpaceOnUse" />
    <linearGradient
       inkscape:collect="always"
       xlink:href="#linearGradient19544"
       id="linearGradient19546"
       x1="132.76083"
       y1="-48.09219"
       x2="132.76083"
       y2="45.250561"
       gradientUnits="userSpaceOnUse"
       gradientTransform="matrix(0.97143265,0,0,0.97143265,-93.235563,-5.1452205)" />
    <radialGradient
       inkscape:collect="always"
       xlink:href="#linearGradient19891"
       id="radialGradient19893"
       cx="128.73215"
       cy="73.167023"
       fx="128.73215"
       fy="73.167023"
       r="29.694656"
       gradientTransform="matrix(0.97143265,0,0,0.97820538,-93.235563,-5.3970949)"
       gradientUnits="userSpaceOnUse" />
    <radialGradient
       inkscape:collect="always"
       xlink:href="#linearGradient20144"
       id="radialGradient20146"
       cx="108.44843"
       cy="15.622814"
       fx="108.44843"
       fy="15.622814"
       r="29.694656"
       gradientTransform="matrix(0.97143265,0,0,0.97820538,-93.235563,-5.3970949)"
       gradientUnits="userSpaceOnUse" />
    <linearGradient
       inkscape:collect="always"
       xlink:href="#linearGradient3085"
       id="linearGradient3087"
       x1="21.505672"
       y1="20.698578"
       x2="43.605106"
       y2="49.731133"
       gradientUnits="userSpaceOnUse" />
  </defs>
  <metadata
     id="metadata7">
    <rdf:RDF>
      <cc:Work
         rdf:about="">
        <dc:format>image/svg+xml</dc:format>
        <dc:type
           rdf:resource="http://purl.org/dc/dcmitype/StillImage" />
      </cc:Work>
    </rdf:RDF>
  </metadata>
  <path
     style="color:#000000;fill:#3ca4d2;stroke:#000000;stroke-width:1.45715;stroke-linecap:square;stroke-miterlimit:4;stroke-dasharray:none;stroke-opacity:0.19918"
     d="M 32.67089,1.9343931 C 21.715821,1.9343465 12.179626,8.0005548 7.2314982,16.95555 6.9705908,17.423111 6.7237498,17.900983 6.48775,18.388033 c -0.1741779,0.359462 -0.3371357,0.726728 -0.4971016,1.096656 -0.034194,0.07935 -0.070817,0.157456 -0.1043513,0.237167 -0.1431114,0.339579 -0.2752845,0.685874 -0.4060297,1.034044 -0.046823,0.12452 -0.0952,0.248448 -0.1404011,0.373774 -0.1074696,0.299045 -0.2092466,0.601739 -0.307371,0.906924 -0.071303,0.220277 -0.138808,0.441519 -0.204914,0.664065 -0.069749,0.236509 -0.1390023,0.473358 -0.20301,0.713395 -0.088692,0.329482 -0.1693693,0.662095 -0.2466565,0.996099 -0.035457,0.155091 -0.073149,0.308362 -0.1062456,0.464846 -0.3398654,1.587975 -0.5498891,3.224423 -0.6185306,4.897006 -0.010491,0.231131 -0.011657,0.466549 -0.017097,0.700115 -0.00291,0.170438 -0.013309,0.339241 -0.013309,0.510382 0,0.06498 0.00486,0.128646 0.00583,0.193528 -0.00194,1.428195 0.076452,2.894813 0.2694171,4.409393 0.0068,-0.144734 0.020109,-0.282301 0.028463,-0.425002 2.0267485,14.061837 14.1215603,24.868358 28.7445363,24.868297 9.816638,-2.5e-5 18.969253,-4.957956 24.331357,-13.180748 0.497247,-1.686766 -0.559808,-2.303011 -1.853688,-1.580475 0,0 -4.652201,2.590177 -12.171371,2.284385 -4.808572,-0.195555 -13.351468,-3.436288 -16.518153,-11.951279 -3.166696,-8.514992 3.513497,-13.933428 9.915442,-10.560535 2.353257,1.239822 3.320153,2.89393 3.572677,4.523233 0.0098,0.06314 0.01884,0.126692 0.02652,0.189733 0.14078,1.160062 -0.06936,2.292427 -0.396539,3.250125 -0.09569,0.280191 -0.200057,0.545849 -0.309265,0.791187 -0.01603,0.03587 -0.03128,0.07312 -0.04741,0.108147 -0.06596,0.14329 -0.132484,0.260876 -0.199222,0.388953 -0.11289,0.21572 -0.224964,0.416943 -0.330131,0.58248 -0.04459,0.07023 -0.08928,0.144844 -0.13092,0.204912 -0.13636,0.195786 -0.26391,0.361345 -0.345306,0.432591 -0.905608,0.907782 -1.027649,1.637015 -0.840522,2.170544 0.0748,0.213412 0.197949,0.394246 0.341517,0.544534 0.07179,0.07514 0.148192,0.1421 0.22579,0.201117 3.59e-4,2.77e-4 0.0019,-2.76e-4 0.0019,0 4.613547,2.689704 9.907738,3.416962 15.563788,1.123219 2.635915,-1.115307 4.631033,-2.812864 6.538199,-6.061967 1.419166,-2.417743 1.500552,-5.63425 0.963845,-8.879502 C 59.332821,17.152165 54.875014,10.909977 48.876116,6.8750393 48.542876,6.6508745 48.205468,6.4346229 47.862941,6.2242552 45.12219,4.5409976 42.092155,3.3039956 38.879083,2.6022531 38.477532,2.514523 38.073698,2.4359506 37.666687,2.3650875 36.038643,2.0816341 34.369421,1.9344096 32.671017,1.9343931 Z"
     id="path16169" />
  <rect
     y="49.40659"
     x="8.8295536"
     height="14.571489"
     width="46.628769"
     id="rect3793"
     style="opacity:0.4;fill:url(#radialGradient3802);fill-opacity:1;stroke:none;stroke-width:0.971433" />
  <path
     id="path899-0"
     style="fill:url(#linearGradient1964);fill-opacity:1;stroke:none;stroke-width:0.151218;stroke-linecap:square;stroke-opacity:0.992157"
     d="M 32.67089,1.9343931 C 16.628428,1.9343241 3.6233564,14.939273 3.623305,30.981748 c -6.61e-5,16.042569 13.005016,29.047657 29.047585,29.04759 9.816638,-2.6e-5 18.969117,-4.958229 24.331221,-13.181021 0.497248,-1.686766 -0.559467,-2.303355 -1.853347,-1.580819 0,0 -4.652415,2.589615 -12.171585,2.283822 -4.808572,-0.195554 -13.350535,-3.436159 -16.517221,-11.95115 -3.166696,-8.514992 3.513876,-13.9324 9.915821,-10.559506 6.401945,3.372889 2.590685,9.813891 1.839427,10.471435 -1.448979,1.452451 -0.892824,2.444376 -0.272088,2.916509 4.613537,2.689705 9.909322,3.415579 15.565372,1.121842 2.635914,-1.115309 4.63012,-2.812217 6.537266,-6.061322 1.419175,-2.417746 1.501494,-5.634143 0.964788,-8.879393 C 58.029916,11.353465 46.258095,1.9345196 32.67089,1.9343931 Z"
     sodipodi:nodetypes="cssccssscccscc" />
  <path
     id="path904-6"
     style="fill:url(#radialGradient953);fill-opacity:1;stroke:none;stroke-width:0.115033px;stroke-linecap:butt;stroke-linejoin:miter;stroke-opacity:1"
     d="M 32.670968,1.9343579 C 17.797207,1.9343006 1.2467163,14.768459 3.8987411,35.585987 5.1263648,8.2552887 39.608182,17.258206 39.920119,29.368551 c 0.03419,0.179578 0.05955,0.359078 0.07694,0.537876 0.114007,1.009342 0.04993,1.985528 -0.208936,2.88348 l -0.176403,0.127641 c -0.444148,1.346496 -1.122694,2.355029 -1.396356,2.594539 -1.44896,1.452452 -0.892815,2.444387 -0.272089,2.916522 4.613547,2.689704 9.909254,3.415536 15.565304,1.121794 2.635915,-1.115308 4.630198,-2.812181 6.537363,-6.061284 1.419166,-2.417743 1.501485,-5.634133 0.964778,-8.879384 C 58.030111,11.353445 46.258299,1.9344858 32.671075,1.9343592 Z"
     sodipodi:nodetypes="cccccccccscc" />
  <path
     id="path909-2"
     style="fill:url(#linearGradient3087);fill-opacity:1;stroke:none;stroke-width:0.115033px;stroke-linecap:butt;stroke-linejoin:miter;stroke-opacity:1"
     d="m 30.98118,24.14822 c -0.992697,0.07396 0.09054,0.270112 0,0 z m -1.687077,0.654485 c -5.043387,2.069728 -8.457098,7.153937 -8.914313,12.528349 -0.939288,8.487825 4.113891,17.547892 12.308946,20.420989 2.78807,0.973098 5.843964,1.371914 8.763575,0.918427 6.340026,-1.992741 11.935818,-6.244346 15.549878,-11.822191 0.795448,-1.586696 -1.179426,-2.469008 -2.276135,-1.370676 -4.272934,1.858513 -9.099205,2.495451 -13.710285,1.85313 -6.844044,-1.205828 -13.163525,-6.212923 -14.975732,-13.060128 -0.946788,-3.205771 -0.256031,-7.223511 2.711919,-9.144736 0.160316,-0.106131 0.375838,-0.236609 0.542147,-0.323164 z" />
  <path
     id="path16171"
     style="color:#000000;fill:url(#linearGradient19546);fill-opacity:1;stroke-width:0.971433;stroke-linecap:square;-inkscape-stroke:none"
     d="M 32.670968,1.9343579 C 21.715899,1.9343112 12.179704,8.0005198 7.2315759,16.955515 6.9706686,17.423076 6.7238275,17.900948 6.4878277,18.387998 6.3136498,18.74746 6.150692,19.114726 5.9907262,19.484654 c -0.034194,0.07935 -0.070818,0.157456 -0.1043513,0.237167 -0.1431115,0.339579 -0.2752846,0.685874 -0.4060297,1.034044 -0.046823,0.12452 -0.0952,0.248448 -0.1404012,0.373774 -0.1074696,0.299045 -0.2092466,0.601739 -0.307371,0.906924 -0.071303,0.220277 -0.138808,0.441519 -0.204914,0.664065 -0.069749,0.236509 -0.1390023,0.473358 -0.20301,0.713395 -0.088692,0.329482 -0.1693693,0.662095 -0.2466565,0.996099 -0.035457,0.155091 -0.073149,0.308362 -0.1062456,0.464846 -0.3398654,1.587975 -0.5498891,3.224423 -0.6185306,4.897006 -0.010491,0.231131 -0.011638,0.466549 -0.017078,0.700115 -0.00291,0.170438 -0.013279,0.339241 -0.013279,0.510382 0,0.06498 0.00476,0.128646 0.00573,0.193528 -0.00194,1.428195 0.076452,2.894813 0.2694172,4.409393 0.0068,-0.144734 0.020109,-0.282301 0.028463,-0.425002 2.0267485,14.061837 14.1215605,24.868358 28.7445365,24.868297 9.816638,-2.5e-5 18.969253,-4.957956 24.331357,-13.180748 0.497247,-1.686766 -0.559808,-2.303011 -1.853688,-1.580475 0,0 -4.6522,2.590177 -12.171371,2.284385 -4.808571,-0.195555 -13.351466,-3.436288 -16.518152,-11.951279 -3.166696,-8.514992 3.513497,-13.933427 9.915442,-10.560535 2.353257,1.239823 3.320153,2.893931 3.572677,4.523233 0.0098,0.06314 0.01884,0.126692 0.02652,0.189733 0.14078,1.160062 -0.06936,2.292427 -0.396539,3.250125 -0.09569,0.280191 -0.200057,0.545849 -0.309265,0.791187 -0.01603,0.03587 -0.03128,0.07312 -0.04741,0.108147 -0.06596,0.14329 -0.132484,0.260876 -0.199222,0.388953 -0.11289,0.21572 -0.224964,0.416943 -0.330131,0.58248 -0.04459,0.07022 -0.08928,0.144845 -0.13092,0.204912 -0.13636,0.195786 -0.263909,0.361345 -0.345306,0.432591 -0.905608,0.907782 -1.027649,1.637015 -0.840522,2.170545 0.0748,0.213411 0.197949,0.394245 0.341517,0.544533 0.07179,0.07514 0.148192,0.142101 0.22579,0.201117 h 0.0019 c 4.613547,2.689705 9.907738,3.416962 15.563788,1.123219 2.635915,-1.115307 4.631034,-2.812864 6.538199,-6.061967 1.419166,-2.417743 1.500552,-5.63425 0.963845,-8.879502 C 59.33285,17.15213 54.875033,10.909942 48.876145,6.8750044 48.542895,6.6508395 48.205497,6.4345879 47.86297,6.2242203 45.122219,4.5409623 42.092184,3.3039604 38.879112,2.6022178 38.477561,2.5144877 38.073727,2.4359153 37.666716,2.3650522 36.038673,2.0815989 34.36945,1.9343744 32.671046,1.9343579 Z m 0,1.2142908 c 1.628238,1.65e-5 3.227109,0.1420341 4.786968,0.4136185 0.391293,0.068126 0.777748,0.1420186 1.161163,0.2257814 3.077926,0.6722265 5.98146,1.8569899 8.608185,3.4702161 0.329325,0.202259 0.653065,0.4100602 0.971433,0.6242212 5.739224,3.8602761 10.001793,9.8248721 11.615449,16.9583291 0.505466,3.08515 0.37098,6.011369 -0.815848,8.033294 -1.810838,3.084989 -3.528253,4.525097 -5.953823,5.553482 -5.302993,2.148633 -10.100957,1.483179 -14.431089,-1.02266 -0.0058,-0.0057 -0.0135,-0.0114 -0.01894,-0.01708 -0.04702,-0.04918 -0.06586,-0.08495 -0.07402,-0.108148 -0.01817,-0.05183 -0.160471,-0.194512 0.554018,-0.910718 l -0.05887,0.05692 c 0.309858,-0.271214 0.384911,-0.42893 0.540738,-0.652681 l 0.0019,-0.0019 v -0.0019 c 0.07781,-0.11234 0.124742,-0.19323 0.157479,-0.244755 0.134621,-0.211897 0.259227,-0.436365 0.381365,-0.669757 v -0.0019 h 0.0019 c 0.05459,-0.104834 0.133718,-0.246141 0.223886,-0.442078 0.03118,-0.06759 0.04915,-0.108307 0.05498,-0.121429 v -0.0019 c 0.124752,-0.280268 0.242013,-0.578138 0.349104,-0.891745 0.370349,-1.084203 0.621144,-2.391596 0.45157,-3.788967 v -0.0019 c -0.0097,-0.07811 -0.02079,-0.153784 -0.03225,-0.227679 -0.305321,-1.969981 -2.037578,-2.98419 -4.663516,-4.367679 -3.592309,-1.89262 -5.50157,-0.861415 -8.798701,0.789042 -2.45921,2.367837 -4.073318,5.627151 -2.363402,10.224982 1.690147,4.544693 4.832032,7.697471 8.152826,9.710532 3.320784,2.013061 6.807159,2.922378 9.454391,3.030035 7.817652,0.317931 12.810768,-2.436171 12.810768,-2.436171 h 0.0019 c 0.06169,-0.03447 0.100815,-0.04724 0.146093,-0.06641 -0.0039,0.02752 -0.01107,0.05312 -0.01894,0.09107 C 50.714096,54.129479 42.009952,58.814138 32.671056,58.814162 18.646346,58.81422 7.0695021,48.461126 5.1275305,34.987499 l -0.051195,0.0019 C 4.9299897,33.690959 4.8409676,32.416274 4.8429688,31.177707 v -0.0057 -0.0038 c -8.258e-4,-0.125338 -0.00583,-0.186548 -0.00583,-0.185938 0,-0.120355 0.00971,-0.280785 0.013309,-0.481922 v -0.0076 c 0.00583,-0.245239 0.0068,-0.470132 0.015154,-0.665963 v -0.0019 -0.0038 c 0.065766,-1.60361 0.2683,-3.170958 0.593866,-4.692096 v -0.0019 -0.0019 c 0.027589,-0.130634 0.064309,-0.275348 0.1024473,-0.442078 v -0.0019 c 0.075189,-0.325046 0.1520097,-0.643152 0.2352712,-0.952459 v -0.0019 c 0.058869,-0.220776 0.126364,-0.446783 0.1954231,-0.681141 v -0.0019 c 0.064212,-0.21605 0.1284623,-0.426701 0.1954329,-0.633709 v -0.0019 c 0.094618,-0.294414 0.1925088,-0.584367 0.2940818,-0.86708 v -0.0019 c 0.037983,-0.105268 0.084612,-0.223688 0.1347085,-0.356698 0.12922,-0.344102 0.256672,-0.674615 0.3889519,-0.988509 v -0.0019 c 0.021177,-0.0504 0.056537,-0.123799 0.1005627,-0.225783 h -0.00194 c 0.1569349,-0.362916 0.3139767,-0.714383 0.4762252,-1.049223 0.2270238,-0.46853 0.4633442,-0.925161 0.7114967,-1.369871 l 0.00194,-0.0019 v -0.0019 C 13.03506,8.9628649 22.164166,3.1478978 32.670958,3.1479424 Z"
     sodipodi:nodetypes="scscccccccccccsccccccscsccccccccccscccsccccssscscsccscccccccccsccccccccccscssscccccccccccccccccccccccccccccccccccccccc" />
  <path
     id="path19795"
     style="opacity:0.560753;fill:url(#radialGradient19893);fill-opacity:1;stroke:none;stroke-width:0.151218;stroke-linecap:square;stroke-opacity:0.992157"
     d="M 32.67089,1.9343931 C 16.628428,1.9343241 3.6233564,14.939273 3.623305,30.981748 c -6.61e-5,16.042569 13.005016,29.047657 29.047585,29.04759 9.816638,-2.6e-5 18.969117,-4.958229 24.331221,-13.181021 0.497248,-1.686766 -0.559467,-2.303355 -1.853347,-1.580819 0,0 -4.652415,2.589615 -12.171585,2.283822 -4.808572,-0.195554 -13.350535,-3.436159 -16.517221,-11.95115 -3.166696,-8.514992 3.513876,-13.9324 9.915821,-10.559506 6.401945,3.372889 2.590685,9.813891 1.839427,10.471435 -1.448979,1.452451 -0.892824,2.444376 -0.272088,2.916509 4.613537,2.689705 9.909322,3.415579 15.565372,1.121842 2.635914,-1.115309 4.63012,-2.812217 6.537266,-6.061322 1.419175,-2.417746 1.501494,-5.634143 0.964788,-8.879393 C 58.029916,11.353465 46.258095,1.9345196 32.67089,1.9343931 Z"
     sodipodi:nodetypes="cssccssscccscc" />
  <path
     id="path20030"
     style="opacity:0.395142;fill:url(#radialGradient20146);fill-opacity:1;stroke:none;stroke-width:0.151218;stroke-linecap:square;stroke-opacity:0.992157"
     d="M 32.67089,1.9343931 C 16.628428,1.9343241 3.6233564,14.939273 3.623305,30.981748 c -6.61e-5,16.042569 13.005016,29.047657 29.047585,29.04759 9.816638,-2.6e-5 18.969117,-4.958229 24.331221,-13.181021 0.497248,-1.686766 -0.559467,-2.303355 -1.853347,-1.580819 0,0 -4.652415,2.589615 -12.171585,2.283822 -4.808572,-0.195554 -13.350535,-3.436159 -16.517221,-11.95115 -3.166696,-8.514992 3.513876,-13.9324 9.915821,-10.559506 6.401945,3.372889 2.590685,9.813891 1.839427,10.471435 -1.448979,1.452451 -0.892824,2.444376 -0.272088,2.916509 4.613537,2.689705 9.909322,3.415579 15.565372,1.121842 2.635914,-1.115309 4.63012,-2.812217 6.537266,-6.061322 1.419175,-2.417746 1.501494,-5.634143 0.964788,-8.879393 C 58.029916,11.353465 46.258095,1.9345196 32.67089,1.9343931 Z"
     sodipodi:nodetypes="cssccssscccscc" />
  <path
     id="path1663"
     style="color:#000000;fill:#ffffff;fill-opacity:0.58017558;-inkscape-stroke:none;opacity:0.44828125"
     d="m 22.490234,16.654297 c -1.393327,-0.01198 -2.77668,0.09019 -4.146484,0.267578 -4.146672,0.536993 -8.209698,2.760942 -11.0800781,6.023437 -1.7201913,1.955183 -3.0063871,4.295669 -3.6113281,6.867188 -0.075537,1.719348 -0.00898,3.508519 0.2050781,5.359375 l 0.068359,-0.01172 c 0.072194,-1.232341 0.2126617,-2.39034 0.4160157,-3.474609 0.2156987,-2.051363 0.9028515,-3.977234 1.9375,-5.707031 3.1361806,-5.886625 8.9109584,-8.232097 14.8027344,-8.296875 3.922714,-0.185348 7.859458,0.465726 11.853516,2.888671 4.052163,2.176888 6.895839,5.361615 6.984375,8.798829 l 0.116708,2.234192 C 40.755665,27.653035 37.949281,22.886261 35.203125,20.875 30.939209,17.752143 26.670217,16.69024 22.490234,16.654297 Z"
     sodipodi:nodetypes="ssscccccccccss" />
</svg>
