<?xml version='1.0' encoding='utf-8'?>
<svg xmlns="http://www.w3.org/2000/svg" xmlns:dc="http://purl.org/dc/elements/1.1/" xmlns:ns1="http://sodipodi.sourceforge.net/DTD/sodipodi-0.dtd" xmlns:ns2="http://www.inkscape.org/namespaces/inkscape" xmlns:ns3="http://www.w3.org/1999/xlink" xmlns:ns5="http://creativecommons.org/ns#" xmlns:rdf="http://www.w3.org/1999/02/22-rdf-syntax-ns#" version="1.1" width="128" height="128" id="svg3172" ns1:docname="base-generic.svg" ns2:version="1.4 (e7c3feb100, 2024-10-09)">
  <ns1:namedview id="namedview1" pagecolor="#ffffff" bordercolor="#000000" borderopacity="0.25" ns2:showpageshadow="2" ns2:pageopacity="0.0" ns2:pagecheckerboard="0" ns2:deskcolor="#d1d1d1" ns2:zoom="9.2265625" ns2:cx="63.945809" ns2:cy="64" ns2:current-layer="svg3172" />
  <defs id="defs3174">
    <linearGradient id="linearGradient3600">
      <stop id="stop3602" style="stop-color:#f4f4f4;stop-opacity:1" offset="0" />
      <stop id="stop3604" style="stop-color:#dbdbdb;stop-opacity:1" offset="1" />
    </linearGradient>
    <linearGradient id="linearGradient3702-501-757-486">
      <stop id="stop3100" style="stop-color:#181818;stop-opacity:0" offset="0" />
      <stop id="stop3102" style="stop-color:#181818;stop-opacity:1" offset="0.5" />
      <stop id="stop3104" style="stop-color:#181818;stop-opacity:0" offset="1" />
    </linearGradient>
    <linearGradient id="linearGradient3688-464-309-255">
      <stop id="stop3094" style="stop-color:#181818;stop-opacity:1" offset="0" />
      <stop id="stop3096" style="stop-color:#181818;stop-opacity:0" offset="1" />
    </linearGradient>
    <linearGradient x1="25.132275" y1="0.98520643" x2="25.132275" y2="47.013336" id="linearGradient3019-2" ns3:href="#linearGradient3600" gradientUnits="userSpaceOnUse" gradientTransform="matrix(2.6285655,0,0,2.5204893,0.914429,-4.3579715)" />
    <linearGradient x1="23.99999" y1="5.5641499" x2="23.99999" y2="42.194839" id="linearGradient3016-9" ns3:href="#linearGradient3977-3" gradientUnits="userSpaceOnUse" gradientTransform="matrix(2.4594595,0,0,3.1081081,4.9729852,-14.594554)" />
    <linearGradient id="linearGradient3977-3">
      <stop id="stop3979-6" style="stop-color:#ffffff;stop-opacity:1" offset="0" />
      <stop id="stop3981-0" style="stop-color:#ffffff;stop-opacity:0.23529412" offset="0.00648027" />
      <stop id="stop3983-6" style="stop-color:#ffffff;stop-opacity:0.15686275" offset="0.99423188" />
      <stop id="stop3985-2" style="stop-color:#ffffff;stop-opacity:0.39215687" offset="1" />
    </linearGradient>
    <linearGradient x1="-51.786404" y1="50.786446" x2="-51.786404" y2="2.9062471" id="linearGradient3148" ns3:href="#linearGradient3104-6" gradientUnits="userSpaceOnUse" gradientTransform="matrix(2.1456297,0,0,2.3791292,158.08983,-7.746462)" />
    <linearGradient id="linearGradient3104-6">
      <stop id="stop3106-3" style="stop-color:#000000;stop-opacity:0.31782946" offset="0" />
      <stop id="stop3108-9" style="stop-color:#000000;stop-opacity:0.24031007" offset="1" />
    </linearGradient>
    <linearGradient gradientUnits="userSpaceOnUse" ns3:href="#linearGradient3702-501-757-486" id="linearGradient4097" y2="39.999443" x2="25.058096" y1="47.027729" x1="25.058096" gradientTransform="matrix(2.8421052,0,0,0.71428566,-4.2105336,87.430066)" />
    <radialGradient gradientTransform="matrix(5.6949649,0,0,0.99999992,-52.665305,-162.00149)" gradientUnits="userSpaceOnUse" ns3:href="#linearGradient3688-464-309-255" id="radialGradient4095" fy="43.5" fx="4.9929786" r="2.5" cy="43.5" cx="4.9929786" />
    <radialGradient gradientTransform="matrix(5.6949649,0,0,0.99999992,75.334676,75.001496)" gradientUnits="userSpaceOnUse" ns3:href="#linearGradient3688-464-309-255" id="radialGradient4093" fy="43.5" fx="4.9929786" r="2.5" cy="43.5" cx="4.9929786" />
    <linearGradient id="linearGradient947">
      <stop offset="0" style="stop-color:#ed5353;stop-opacity:1" id="stop943" />
      <stop offset="1" style="stop-color:#c6262e;stop-opacity:1" id="stop945" />
    </linearGradient>
    <linearGradient ns3:href="#linearGradient947" id="linearGradient1139" x1="62.1413" y1="28.626648" x2="62.1413" y2="118.42127" gradientUnits="userSpaceOnUse" />
  <defs id="defs3174">
    <linearGradient id="linearGradient3600">
      <stop id="stop3602" style="stop-color:#f4f4f4;stop-opacity:1" offset="0" />
      <stop id="stop3604" style="stop-color:#dbdbdb;stop-opacity:1" offset="1" />
    </linearGradient>
    <linearGradient id="linearGradient3702-501-757-486">
      <stop id="stop3100" style="stop-color:#181818;stop-opacity:0" offset="0" />
      <stop id="stop3102" style="stop-color:#181818;stop-opacity:1" offset="0.5" />
      <stop id="stop3104" style="stop-color:#181818;stop-opacity:0" offset="1" />
    </linearGradient>
    <linearGradient id="linearGradient3688-464-309-255">
      <stop id="stop3094" style="stop-color:#181818;stop-opacity:1" offset="0" />
      <stop id="stop3096" style="stop-color:#181818;stop-opacity:0" offset="1" />
    </linearGradient>
    <linearGradient x1="25.132275" y1="0.98520643" x2="25.132275" y2="47.013336" id="linearGradient3019-2" ns3:href="#linearGradient3600" gradientUnits="userSpaceOnUse" gradientTransform="matrix(2.6285655,0,0,2.5204893,0.914429,-4.3579715)" />
    <linearGradient x1="23.99999" y1="5.5641499" x2="23.99999" y2="42.194839" id="linearGradient3016-9" ns3:href="#linearGradient3977-3" gradientUnits="userSpaceOnUse" gradientTransform="matrix(2.4594595,0,0,3.1081081,4.9729852,-14.594554)" />
    <linearGradient id="linearGradient3977-3">
      <stop id="stop3979-6" style="stop-color:#ffffff;stop-opacity:1" offset="0" />
      <stop id="stop3981-0" style="stop-color:#ffffff;stop-opacity:0.23529412" offset="0.00648027" />
      <stop id="stop3983-6" style="stop-color:#ffffff;stop-opacity:0.15686275" offset="0.99423188" />
      <stop id="stop3985-2" style="stop-color:#ffffff;stop-opacity:0.39215687" offset="1" />
    </linearGradient>
    <linearGradient x1="-51.786404" y1="50.786446" x2="-51.786404" y2="2.9062471" id="linearGradient3148" ns3:href="#linearGradient3104-6" gradientUnits="userSpaceOnUse" gradientTransform="matrix(2.1456297,0,0,2.3791292,158.08983,-7.746462)" />
    <linearGradient id="linearGradient3104-6">
      <stop id="stop3106-3" style="stop-color:#000000;stop-opacity:0.31782946" offset="0" />
      <stop id="stop3108-9" style="stop-color:#000000;stop-opacity:0.24031007" offset="1" />
    </linearGradient>
    <linearGradient gradientUnits="userSpaceOnUse" ns3:href="#linearGradient3702-501-757-486" id="linearGradient4097" y2="39.999443" x2="25.058096" y1="47.027729" x1="25.058096" gradientTransform="matrix(2.8421052,0,0,0.71428566,-4.2105336,87.430066)" />
    <radialGradient gradientTransform="matrix(5.6949649,0,0,0.99999992,-52.665305,-162.00149)" gradientUnits="userSpaceOnUse" ns3:href="#linearGradient3688-464-309-255" id="radialGradient4095" fy="43.5" fx="4.9929786" r="2.5" cy="43.5" cx="4.9929786" />
    <radialGradient gradientTransform="matrix(5.6949649,0,0,0.99999992,75.334676,75.001496)" gradientUnits="userSpaceOnUse" ns3:href="#linearGradient3688-464-309-255" id="radialGradient4093" fy="43.5" fx="4.9929786" r="2.5" cy="43.5" cx="4.9929786" />
    <linearGradient x1="22.004084" y1="47.813133" x2="22.004084" y2="3.3638515" id="linearGradient3046" ns3:href="#linearGradient3104-5" gradientUnits="userSpaceOnUse" gradientTransform="matrix(2.6571407,0,0,2.6479618,-3.995257,-7.610255)" />
    <linearGradient id="linearGradient3104-5">
      <stop id="stop3106-2" style="stop-color:#aaaaaa;stop-opacity:1" offset="0" />
      <stop id="stop3108-5" style="stop-color:#c8c8c8;stop-opacity:1" offset="1" />
    </linearGradient>
  </defs>
  <linearGradient id="linearGradient3600">
      <stop id="stop3602" style="stop-color:#f4f4f4;stop-opacity:1" offset="0" />
      <stop id="stop3604" style="stop-color:#dbdbdb;stop-opacity:1" offset="1" />
    </linearGradient>
    <stop id="stop3602" style="stop-color:#f4f4f4;stop-opacity:1" offset="0" />
      <stop id="stop3604" style="stop-color:#dbdbdb;stop-opacity:1" offset="1" />
    <linearGradient id="linearGradient3702-501-757-486">
      <stop id="stop3100" style="stop-color:#181818;stop-opacity:0" offset="0" />
      <stop id="stop3102" style="stop-color:#181818;stop-opacity:1" offset="0.5" />
      <stop id="stop3104" style="stop-color:#181818;stop-opacity:0" offset="1" />
    </linearGradient>
    <stop id="stop3100" style="stop-color:#181818;stop-opacity:0" offset="0" />
      <stop id="stop3102" style="stop-color:#181818;stop-opacity:1" offset="0.5" />
      <stop id="stop3104" style="stop-color:#181818;stop-opacity:0" offset="1" />
    <linearGradient id="linearGradient3688-464-309-255">
      <stop id="stop3094" style="stop-color:#181818;stop-opacity:1" offset="0" />
      <stop id="stop3096" style="stop-color:#181818;stop-opacity:0" offset="1" />
    </linearGradient>
    <stop id="stop3094" style="stop-color:#181818;stop-opacity:1" offset="0" />
      <stop id="stop3096" style="stop-color:#181818;stop-opacity:0" offset="1" />
    <linearGradient x1="25.132275" y1="0.98520643" x2="25.132275" y2="47.013336" id="linearGradient3019-2" ns3:href="#linearGradient3600" gradientUnits="userSpaceOnUse" gradientTransform="matrix(2.6285655,0,0,2.5204893,0.914429,-4.3579715)" />
    <linearGradient x1="23.99999" y1="5.5641499" x2="23.99999" y2="42.194839" id="linearGradient3016-9" ns3:href="#linearGradient3977-3" gradientUnits="userSpaceOnUse" gradientTransform="matrix(2.4594595,0,0,3.1081081,4.9729852,-14.594554)" />
    <linearGradient id="linearGradient3977-3">
      <stop id="stop3979-6" style="stop-color:#ffffff;stop-opacity:1" offset="0" />
      <stop id="stop3981-0" style="stop-color:#ffffff;stop-opacity:0.23529412" offset="0.00648027" />
      <stop id="stop3983-6" style="stop-color:#ffffff;stop-opacity:0.15686275" offset="0.99423188" />
      <stop id="stop3985-2" style="stop-color:#ffffff;stop-opacity:0.39215687" offset="1" />
    </linearGradient>
    <stop id="stop3979-6" style="stop-color:#ffffff;stop-opacity:1" offset="0" />
      <stop id="stop3981-0" style="stop-color:#ffffff;stop-opacity:0.23529412" offset="0.00648027" />
      <stop id="stop3983-6" style="stop-color:#ffffff;stop-opacity:0.15686275" offset="0.99423188" />
      <stop id="stop3985-2" style="stop-color:#ffffff;stop-opacity:0.39215687" offset="1" />
    <linearGradient x1="-51.786404" y1="50.786446" x2="-51.786404" y2="2.9062471" id="linearGradient3148" ns3:href="#linearGradient3104-6" gradientUnits="userSpaceOnUse" gradientTransform="matrix(2.1456297,0,0,2.3791292,158.08983,-7.746462)" />
    <linearGradient id="linearGradient3104-6">
      <stop id="stop3106-3" style="stop-color:#000000;stop-opacity:0.31782946" offset="0" />
      <stop id="stop3108-9" style="stop-color:#000000;stop-opacity:0.24031007" offset="1" />
    </linearGradient>
    <stop id="stop3106-3" style="stop-color:#000000;stop-opacity:0.31782946" offset="0" />
      <stop id="stop3108-9" style="stop-color:#000000;stop-opacity:0.24031007" offset="1" />
    <linearGradient gradientUnits="userSpaceOnUse" ns3:href="#linearGradient3702-501-757-486" id="linearGradient4097" y2="39.999443" x2="25.058096" y1="47.027729" x1="25.058096" gradientTransform="matrix(2.8421052,0,0,0.71428566,-4.2105336,87.430066)" />
    <radialGradient gradientTransform="matrix(5.6949649,0,0,0.99999992,-52.665305,-162.00149)" gradientUnits="userSpaceOnUse" ns3:href="#linearGradient3688-464-309-255" id="radialGradient4095" fy="43.5" fx="4.9929786" r="2.5" cy="43.5" cx="4.9929786" />
    <radialGradient gradientTransform="matrix(5.6949649,0,0,0.99999992,75.334676,75.001496)" gradientUnits="userSpaceOnUse" ns3:href="#linearGradient3688-464-309-255" id="radialGradient4093" fy="43.5" fx="4.9929786" r="2.5" cy="43.5" cx="4.9929786" />
    <linearGradient x1="22.004084" y1="47.813133" x2="22.004084" y2="3.3638515" id="linearGradient3046" ns3:href="#linearGradient3104-5" gradientUnits="userSpaceOnUse" gradientTransform="matrix(2.6571407,0,0,2.6479618,-3.995257,-7.610255)" />
    <linearGradient id="linearGradient3104-5">
      <stop id="stop3106-2" style="stop-color:#aaaaaa;stop-opacity:1" offset="0" />
      <stop id="stop3108-5" style="stop-color:#c8c8c8;stop-opacity:1" offset="1" />
    </linearGradient>
  <stop id="stop3106-2" style="stop-color:#aaaaaa;stop-opacity:1" offset="0" />
      <stop id="stop3108-5" style="stop-color:#c8c8c8;stop-opacity:1" offset="1" />
    </defs>
  <metadata id="metadata3177">
    <rdf:RDF>
      <ns5:Work rdf:about="">
        <dc:format>image/svg+xml</dc:format>
        <dc:type rdf:resource="http://purl.org/dc/dcmitype/StillImage" />
      </ns5:Work>
    </rdf:RDF>
  </metadata>
  <g id="g978" style="opacity:0.2;stroke-width:1.03923047" transform="matrix(0.92592591,0,0,1,4.7407489,0)">
    <rect style="fill:url(#radialGradient4093);fill-opacity:1;stroke:none;stroke-width:1.48070288" id="rect2801" y="116.00149" x="103.78947" height="4.9999995" width="14.210526" />
    <rect style="fill:url(#radialGradient4095);fill-opacity:1;stroke:none;stroke-width:1.48070288" id="rect3696" transform="scale(-1)" y="-121.00149" x="-24.210518" height="4.9999995" width="14.210526" />
    <rect style="fill:url(#linearGradient4097);fill-opacity:1;stroke:none;stroke-width:1.48070288" id="rect3700" y="116.00149" x="24.210518" height="5" width="79.578949" />
  </g>
  <path d="m 18,2.0004521 c 21.081878,0 91.99989,0.00694 91.99989,0.00694 L 110,118 c 0,0 -61.333339,0 -91.999999,0 0,-38.666664 0,-77.33333 0,-115.999995 z" id="path4160" style="display:inline;fill:url(#linearGradient3019-2);fill-opacity:1;stroke:none" />
  <path d="m 17.500001,1.49999 c 21.311001,0 92.999899,0.008 92.999899,0.008 l 1e-4,116.99202 c 0,0 -61.999997,0 -92.999999,0 0,-39.000096 0,-77.999807 0,-116.999456 z" id="path4160-6-1" style="display:inline;fill:none;stroke:url(#linearGradient3148);stroke-width:0.99999994;stroke-linecap:butt;stroke-linejoin:round;stroke-miterlimit:4;stroke-dasharray:none;stroke-dashoffset:0;stroke-opacity:1" />
  <path d="m 109.5,117.5 h -91 V 2.500002 h 91 z" id="rect6741-1" style="fill:none;stroke:url(#linearGradient3016-9);stroke-width:1;stroke-linecap:round;stroke-linejoin:round;stroke-miterlimit:4;stroke-dasharray:none;stroke-dashoffset:0;stroke-opacity:1" />
<path style="fill:none;stroke:url(#linearGradient3046);stroke-width:1px;stroke-linecap:butt;stroke-linejoin:miter;stroke-opacity:1" id="path3475" d="m 30.5,22.5 h 6.227673 z m 7.141065,0 h 5.812494 z m 6.725886,0 h 5.148211 z m 5.978568,0 h 2.241962 z m 3.155354,0 h 4.982139 z m 5.978566,0 h 13.119633 z m 13.949988,0 h 10.047314 z m 10.877672,0 h 3.072319 z M 30.5,28.5 h 9.715169 z m 10.794632,0 h 4.649996 z m 5.480353,0 h 2.324999 z m 3.238391,0 h 4.234817 z m 5.148209,0 h 4.317854 z m 5.148211,0 h 6.891958 z m 7.80535,0 h 8.96785 z m 9.798207,0 h 5.978566 z m 6.808923,0 h 1.494643 z M 30.5,34.458625 h 8.220527 z m 9.050885,0 h 13.451773 z m 14.28213,0 h 6.559816 z m 7.390173,0 h 6.144638 z m 6.974993,0 h 5.231246 z m 6.061603,0 8.22053,0.08275 z m 8.96785,0.08275 H 96.596373 Z M 30.5,40.5 h 11.375882 z m 12.289274,0 H 55.07855 Z m 13.119633,0 h 4.899104 z m 5.729459,0 h 11.541956 z m 12.289276,0 h 7.888387 z m 8.801778,0 h 3.155356 z m 3.985711,0 h 1.743749 z m 2.657142,0 h 4.899103 z M 30.5,46.5 h 4.234818 z m 5.563388,0 H 51.757124 Z M 30.5,56.5 h 6.227673 z m 7.141065,0 h 5.729459 z m 6.725886,0 h 5.148211 z m 5.978568,0 h 2.241962 z m 3.155354,0 h 4.982139 z m 5.978566,0 h 13.036596 z m 13.949988,0 h 9.964279 z m 10.794634,0 h 3.155357 z m 3.985712,0 h 7.473208 z M 30.5,62.5 h 10.462489 z m 11.292847,0 h 11.209811 z m 12.040168,0 h 4.317854 z m 5.148211,0 h 10.545527 z m 11.375882,0 h 13.285704 z m 14.199096,0 h 4.899104 z M 30.5,68.5 h 11.375882 z m 12.289274,0 H 55.07855 Z m 13.119633,0 h 4.899104 z m 5.729459,0 h 11.541956 z m 12.289276,0 h 7.888387 z m 8.801778,0 h 3.155356 z m 3.985711,0 h 1.743749 z m 2.657142,0 h 4.899103 z M 30.5,74.5 h 9.715169 z m 10.794632,0 h 4.649996 z m 5.480353,0 h 2.324999 z m 3.238391,0 h 4.234817 z m 5.148209,0 h 4.317854 z m 5.148211,0 h 6.891958 z m 7.80535,0 h 8.96785 z m 9.798207,0 h 5.978566 z m 6.808923,0 h 1.494643 z M 30.5,84.458635 h 8.220527 z m 9.050885,0 h 13.451773 z m 14.28213,0 h 6.559816 z m 7.390173,0 h 6.144638 z m 6.974993,0 h 5.231246 z m 6.061603,0 8.22053,0.08273 z m 8.96785,0.08273 H 96.596373 Z M 30.5,90.5 h 9.715169 z m 10.794632,0 h 4.649996 z m 5.480353,0 h 2.324999 z m 3.238391,0 h 4.234817 z m 5.148209,0 h 4.317854 z m 5.148211,0 h 6.891958 z m 7.80535,0 h 8.96785 z m 9.798207,0 h 5.978566 z m 6.808923,0 h 1.494643 z M 30.5,96.5 h 10.296419 z m 11.209811,0 h 3.23839 z m 4.068747,0 h 7.390172 z m 8.220528,0 h 10.877671 z m 11.791063,0 h 7.390173 z m 8.137493,0 h 1.577677 z m 2.408034,0 h 9.383028 z m 10.379455,0 h 4.899104 z M 30.5,102.5 h 10.296419 z m 11.209811,0 h 4.649997 z m 5.480352,0 H 54.4973 Z m 8.137494,0 h 7.888386 z m 8.801778,0 h 3.155354 z m 3.985711,0 h 1.743749 z m 2.657142,0 h 4.899103 z" />
</svg>