<?xml version='1.0' encoding='utf-8'?>
<svg xmlns="http://www.w3.org/2000/svg" xmlns:dc="http://purl.org/dc/elements/1.1/" xmlns:ns1="http://sodipodi.sourceforge.net/DTD/sodipodi-0.dtd" xmlns:ns2="http://www.inkscape.org/namespaces/inkscape" xmlns:ns3="http://www.w3.org/1999/xlink" xmlns:ns5="http://creativecommons.org/ns#" xmlns:rdf="http://www.w3.org/1999/02/22-rdf-syntax-ns#" version="1.1" width="16" height="16" id="svg3810" ns1:docname="base-generic.svg" ns2:version="1.4 (e7c3feb100, 2024-10-09)">
  <ns1:namedview id="namedview1" pagecolor="#ffffff" bordercolor="#000000" borderopacity="0.25" ns2:showpageshadow="2" ns2:pageopacity="0.0" ns2:pagecheckerboard="0" ns2:deskcolor="#d1d1d1" ns2:zoom="73.8125" ns2:cx="7.9932261" ns2:cy="8" ns2:current-layer="svg3810" />
  <defs id="defs3812">
    <linearGradient x1="23.99999" y1="6.9230647" x2="23.99999" y2="41.076912" id="linearGradient3988" ns3:href="#linearGradient3977" gradientUnits="userSpaceOnUse" gradientTransform="matrix(0.24324324,0,0,0.35135133,2.1621636,-0.43242804)" />
    <linearGradient id="linearGradient3977">
      <stop id="stop3979" style="stop-color:#ffffff;stop-opacity:1" offset="0" />
      <stop id="stop3981" style="stop-color:#ffffff;stop-opacity:0.23529412" offset="0" />
      <stop id="stop3983" style="stop-color:#ffffff;stop-opacity:0.15686275" offset="1" />
      <stop id="stop3985" style="stop-color:#ffffff;stop-opacity:0.39215687" offset="1" />
    </linearGradient>
    <linearGradient id="linearGradient3600">
      <stop id="stop3602" style="stop-color:#f4f4f4;stop-opacity:1" offset="0" />
      <stop id="stop3604" style="stop-color:#dbdbdb;stop-opacity:1" offset="1" />
    </linearGradient>
    <linearGradient x1="25.132275" y1="0.98520643" x2="25.132275" y2="47.013336" id="linearGradient3806" ns3:href="#linearGradient3600" gradientUnits="userSpaceOnUse" gradientTransform="matrix(0.28571361,0,0,0.30419701,1.1428727,0.2326048)" />
    <linearGradient id="linearGradient3104-9">
      <stop id="stop3106-5" style="stop-color:#000000;stop-opacity:0.33950618" offset="0" />
      <stop id="stop3108-5" style="stop-color:#000000;stop-opacity:0.24691358" offset="1" />
    </linearGradient>
    <linearGradient x1="-51.786404" y1="50.786446" x2="-51.786404" y2="2.9062471" id="linearGradient3019" ns3:href="#linearGradient3104-9" gradientUnits="userSpaceOnUse" gradientTransform="matrix(0.25378586,0,0,0.30501865,19.128979,-0.68547704)" />
    <radialGradient cx="7.8060555" cy="9.9571075" r="12.671875" fx="7.2758255" fy="9.9571075" id="radialGradient3858" ns3:href="#linearGradient2867-449-88-871-390-598-476-591-434-148-57-177-8-3" gradientUnits="userSpaceOnUse" gradientTransform="matrix(-5.0813118e-8,2.2503718,-2.543345,-6.7550105e-8,33.320987,-20.146566)" />
    <linearGradient id="linearGradient2867-449-88-871-390-598-476-591-434-148-57-177-8-3">
      <stop id="stop3750-1-0" style="stop-color:#ffcd7d;stop-opacity:1" offset="0" />
      <stop id="stop3752-3-7" style="stop-color:#fc8f36;stop-opacity:1" offset="0.26238" />
      <stop id="stop3754-1-8" style="stop-color:#e23a0e;stop-opacity:1" offset="0.704952" />
      <stop id="stop3756-1-6" style="stop-color:#ac441f;stop-opacity:1" offset="1" />
    </linearGradient>
  <defs id="defs3944"><linearGradient gradientTransform="matrix(0.25378586,0,0,0.30501865,19.128979,-0.68547704)" gradientUnits="userSpaceOnUse" ns3:href="#linearGradient3104-9" id="linearGradient3092" y2="2.9062471" x2="-51.786404" y1="50.786446" x1="-51.786404" /><linearGradient id="linearGradient3104-9"><stop offset="0" style="stop-color:#000000;stop-opacity:0.33950618" id="stop3106-5" /><stop offset="1" style="stop-color:#000000;stop-opacity:0.24691358" id="stop3108-5" /></linearGradient><linearGradient gradientTransform="matrix(0.24324324,0,0,0.35135133,2.1621636,-0.43242804)" gradientUnits="userSpaceOnUse" ns3:href="#linearGradient3977" id="linearGradient3095" y2="41.076912" x2="23.99999" y1="6.9230647" x1="23.99999" /><linearGradient id="linearGradient3977"><stop offset="0" style="stop-color:#ffffff;stop-opacity:1" id="stop3979" /><stop offset="0" style="stop-color:#ffffff;stop-opacity:0.23529412" id="stop3981" /><stop offset="1" style="stop-color:#ffffff;stop-opacity:0.15686275" id="stop3983" /><stop offset="1" style="stop-color:#ffffff;stop-opacity:0.39215687" id="stop3985" /></linearGradient><linearGradient id="linearGradient3600"><stop offset="0" style="stop-color:#f4f4f4;stop-opacity:1" id="stop3602" /><stop offset="1" style="stop-color:#dbdbdb;stop-opacity:1" id="stop3604" /></linearGradient><linearGradient gradientTransform="matrix(0.28571361,0,0,0.30419701,1.1428727,0.2326048)" gradientUnits="userSpaceOnUse" ns3:href="#linearGradient3600" id="linearGradient3940" y2="47.013336" x2="25.132275" y1="0.98520643" x1="25.132275" /></defs><linearGradient gradientTransform="matrix(0.25378586,0,0,0.30501865,19.128979,-0.68547704)" gradientUnits="userSpaceOnUse" ns3:href="#linearGradient3104-9" id="linearGradient3092" y2="2.9062471" x2="-51.786404" y1="50.786446" x1="-51.786404" /><linearGradient id="linearGradient3104-9"><stop offset="0" style="stop-color:#000000;stop-opacity:0.33950618" id="stop3106-5" /><stop offset="1" style="stop-color:#000000;stop-opacity:0.24691358" id="stop3108-5" /></linearGradient><stop offset="0" style="stop-color:#000000;stop-opacity:0.33950618" id="stop3106-5" /><stop offset="1" style="stop-color:#000000;stop-opacity:0.24691358" id="stop3108-5" /><linearGradient gradientTransform="matrix(0.24324324,0,0,0.35135133,2.1621636,-0.43242804)" gradientUnits="userSpaceOnUse" ns3:href="#linearGradient3977" id="linearGradient3095" y2="41.076912" x2="23.99999" y1="6.9230647" x1="23.99999" /><linearGradient id="linearGradient3977"><stop offset="0" style="stop-color:#ffffff;stop-opacity:1" id="stop3979" /><stop offset="0" style="stop-color:#ffffff;stop-opacity:0.23529412" id="stop3981" /><stop offset="1" style="stop-color:#ffffff;stop-opacity:0.15686275" id="stop3983" /><stop offset="1" style="stop-color:#ffffff;stop-opacity:0.39215687" id="stop3985" /></linearGradient><stop offset="0" style="stop-color:#ffffff;stop-opacity:1" id="stop3979" /><stop offset="0" style="stop-color:#ffffff;stop-opacity:0.23529412" id="stop3981" /><stop offset="1" style="stop-color:#ffffff;stop-opacity:0.15686275" id="stop3983" /><stop offset="1" style="stop-color:#ffffff;stop-opacity:0.39215687" id="stop3985" /><linearGradient id="linearGradient3600"><stop offset="0" style="stop-color:#f4f4f4;stop-opacity:1" id="stop3602" /><stop offset="1" style="stop-color:#dbdbdb;stop-opacity:1" id="stop3604" /></linearGradient><stop offset="0" style="stop-color:#f4f4f4;stop-opacity:1" id="stop3602" /><stop offset="1" style="stop-color:#dbdbdb;stop-opacity:1" id="stop3604" /><linearGradient gradientTransform="matrix(0.28571361,0,0,0.30419701,1.1428727,0.2326048)" gradientUnits="userSpaceOnUse" ns3:href="#linearGradient3600" id="linearGradient3940" y2="47.013336" x2="25.132275" y1="0.98520643" x1="25.132275" /></defs>
  <metadata id="metadata3815">
    <rdf:RDF>
      <ns5:Work rdf:about="">
        <dc:format>image/svg+xml</dc:format>
        <dc:type rdf:resource="http://purl.org/dc/dcmitype/StillImage" />
      </ns5:Work>
    </rdf:RDF>
  </metadata>
  <path style="display:inline;fill:url(#linearGradient3806);fill-opacity:1;stroke:none" id="path4160" d="m 3,1 c 2.2915074,0 9.999988,8.904e-4 9.999988,8.904e-4 L 13,15 C 13,15 6.3333332,15 3,15 3,10.333334 3,5.6666664 3,1 Z" />
  <path style="fill:none;stroke:url(#linearGradient3988);stroke-width:1;stroke-linecap:round;stroke-linejoin:miter;stroke-miterlimit:4;stroke-dasharray:none;stroke-dashoffset:0;stroke-opacity:1" id="rect6741-1" d="m 12.5,14.5 -9.0000001,0 0,-13 L 12.5,1.5 Z" />
  <path style="display:inline;fill:none;stroke:url(#linearGradient3019);stroke-width:0.99992192;stroke-linecap:butt;stroke-linejoin:round;stroke-miterlimit:4;stroke-dasharray:none;stroke-dashoffset:0;stroke-opacity:1" id="path4160-8" d="m 2.4999621,0.49997396 c 2.5206756,0 11.0000629,9.54e-4 11.0000629,9.54e-4 l 1.3e-5,14.99909804 c 0,0 -7.3333841,0 -11.000076,0 0,-5.000017 0,-10.000035 0,-15.00005204 z" />
<path id="path873-5" style="font-variation-settings:normal;opacity:1;vector-effect:none;fill:#3689e6;fill-opacity:1;stroke:none;stroke-width:1;stroke-linecap:butt;stroke-linejoin:miter;stroke-miterlimit:4;stroke-dasharray:none;stroke-dashoffset:0;stroke-opacity:1;-inkscape-stroke:none;marker:none;stop-color:#000000;stop-opacity:1" d="M 7.9804688 6 C 7.9241581 6.0068359 7.6992188 6.0625004 7.6992188 6.5 C 7.6992188 6.9999995 7.4042969 7 7.4042969 7 C 7.4042969 7 7 7.0004295 7 6.5 L 7 8 L 4.5996094 8 C 4.2670657 8 4 8.2741663 4 8.6191406 C 4 8.805068 4.077412 8.9700768 4.2011719 9.0839844 L 7.5800781 12.628906 C 7.687582 12.734194 7.8326737 12.800781 7.9921875 12.800781 C 8.1517013 12.800781 8.296793 12.734196 8.4042969 12.628906 L 11.798828 9.0839844 C 11.922596 8.9700768 12 8.805068 12 8.6191406 C 12 8.2741663 11.732935 8 11.400391 8 L 9 8 L 9 6.5 C 9 6.9999995 8.6484375 7 8.6484375 7 C 8.6484375 7 8.2871094 6.9999995 8.2871094 6.5 C 8.2871094 6.0000005 7.9921875 6 7.9921875 6 C 7.9921875 6 7.9885131 5.9990234 7.9804688 6 z " /><path d="m 7.993068,3 c 0,0 -0.2941945,0 -0.2941945,0.3333333 0,0.3333334 -0.294194,0.3333334 -0.294194,0.3333334 0,0 -0.4046795,2.8e-4 -0.4046795,-0.3333334 V 8 L 9,7.9997133 V 3.3330467 c 0,0.3333333 -0.3522525,0.33362 -0.3522525,0.33362 0,0 -0.3604855,0 -0.3604855,-0.3333334 C 8.287262,3 7.993068,3 7.993068,3 Z" id="path10362-6" style="color:#bebebe;display:inline;overflow:visible;visibility:visible;opacity:0.2;fill:#3689e6;fill-opacity:1;fill-rule:nonzero;stroke:none;stroke-width:0.999995;marker:none;enable-background:accumulate" /><path d="M 7.4046795,4.5 C 7.4046795,4.5 7,4.499656 7,4.9 v 2.4 l 2,-3.44e-4 v -2.4 C 9,4.499656 8.6477475,4.5 8.6477475,4.5 c 0,0 -0.3604855,0 -0.3604855,0.4 0,0.4 -0.294194,0.4 -0.294194,0.4 0,0 -0.2941945,0 -0.2941945,-0.4 0,-0.4 -0.294194,-0.4 -0.294194,-0.4 z" id="path10323-1" style="color:#bebebe;display:inline;overflow:visible;visibility:visible;opacity:0.5;fill:#3689e6;fill-opacity:1;fill-rule:nonzero;stroke:none;stroke-width:0.999996;marker:none;enable-background:accumulate" /></svg>